<svg width="3424" height="2674" viewBox="0 0 3424 2674" fill="none" xmlns="http://www.w3.org/2000/svg">
<path d="M915.93 2458C678.622 2398.75 251.496 2185.38 441.452 1805.87C477.598 1733.65 520.445 1675.42 567.264 1628.81C444.58 1640.14 340.365 1631.29 289.191 1585.34C119.647 1433.11 43.1047 907.699 695.769 848.452C855.16 833.982 1003.83 849.665 1137.4 882.536C1071.51 788.738 1065.25 680.132 1170.25 560.444C1534.44 145.303 2424.14 111.976 2754.58 425.081C3085.03 738.186 3542.64 1365.63 3381.74 1704.24C3220.83 2042.86 2195.33 2398.75 1831.14 2398.75C1539.79 2398.75 1099.6 2438.25 915.93 2458Z" fill="white"/>
</svg>
