<svg width="3678" height="2801" viewBox="0 0 3678 2801" fill="none" xmlns="http://www.w3.org/2000/svg">
<path d="M1487.36 1278C1716.36 728 845.858 -245 307.358 831.5C257.691 1056.83 220.258 1564.7 467.858 1793.5C777.358 2079.5 1258.36 1828 1487.36 1278Z" fill="white"/>
<path d="M1487.36 1278C1716.36 728 845.858 -245 307.358 831.5C257.691 1056.83 220.258 1564.7 467.858 1793.5C777.358 2079.5 1258.36 1828 1487.36 1278Z" fill="white"/>
<path d="M2174.21 1862.55C2403.21 1312.55 1532.72 339.547 994.215 1416.05C944.548 1641.38 907.115 2149.25 1154.72 2378.05C1464.22 2664.05 1945.21 2412.55 2174.21 1862.55Z" fill="white"/>
<path d="M2065.23 1079.47C2251.87 529.513 1542.39 -443.402 1103.49 633.005C1063.01 858.318 1032.5 1366.14 1234.3 1594.92C1486.56 1880.9 1878.59 1629.42 2065.23 1079.47Z" fill="white"/>
<path d="M2692.23 1278.47C2878.87 728.514 2169.39 -244.402 1730.49 832.005C1690.01 1057.32 1659.5 1565.14 1861.3 1793.92C2113.56 2079.9 2505.59 1828.42 2692.23 1278.47Z" fill="white"/>
<path d="M3376.23 1588.47C3562.87 1038.51 2853.39 65.5978 2414.49 1142C2374.01 1367.32 2343.5 1875.14 2545.3 2103.92C2797.56 2389.9 3189.59 2138.42 3376.23 1588.47Z" fill="white"/>
<path d="M2280.52 2308.27C2860.69 2282.09 3508.91 1267.33 2346.59 1250.01C2121.98 1294.26 1637.85 1450.55 1498.14 1721.74C1323.5 2060.73 1700.35 2334.44 2280.52 2308.27Z" fill="white"/>
</svg>
