<svg width="603" height="615" viewBox="0 0 603 615" fill="none" xmlns="http://www.w3.org/2000/svg">
<path d="M501.12 319.283C501.12 343.887 465.813 363.677 423.017 363.677C379.686 363.677 344.379 343.887 344.379 319.283C344.379 295.214 379.686 275.424 423.017 275.424C465.813 275.424 501.12 295.214 501.12 319.283Z" fill="#5B371E"/>
<path d="M411.785 198.4H403.226H318.703C318.703 198.4 325.123 295.746 346.521 328.373C364.174 356.186 397.341 357.791 408.04 357.791C425.159 357.791 480.794 356.186 498.982 328.373C519.846 295.746 526.8 198.4 526.8 198.4H411.785Z" fill="#5B371E"/>
<path d="M526.8 198.402C526.8 230.494 480.259 257.237 423.019 257.237C365.244 257.237 318.703 230.494 318.703 198.402C318.703 165.775 365.244 139.566 423.019 139.566C480.259 139.566 526.8 165.775 526.8 198.402Z" fill="#FFCE55"/>
<path d="M516.634 198.403C516.634 224.611 474.372 246.541 422.482 246.541C370.591 246.541 328.33 224.611 328.33 198.403C328.33 171.659 370.591 150.265 422.482 150.265C474.372 150.265 516.634 171.659 516.634 198.403Z" fill="#AA4D24"/>
<path d="M557.288 177.008C559.963 170.59 563.173 171.66 561.568 163.637C560.498 157.218 551.404 156.149 549.799 149.73C548.729 145.451 555.148 142.777 557.288 139.568C559.428 136.893 557.288 133.684 554.613 132.615C549.799 131.01 541.775 132.08 539.635 127.266C539.1 124.592 542.31 122.987 543.38 120.312C544.449 118.708 544.449 114.964 541.775 113.894C536.96 111.755 529.471 113.894 527.866 109.615C526.796 106.941 532.681 104.266 533.75 102.127C535.355 99.4527 530.005 94.104 526.796 93.5691C520.911 91.9645 514.492 98.383 510.747 93.0343C509.142 90.36 513.957 85.0113 512.352 81.8021C509.678 78.058 507.003 76.4534 495.769 70.5698C489.349 66.8258 495.234 57.733 490.954 51.8495C489.349 49.71 487.209 47.5706 484.535 47.0357C482.395 47.0357 479.72 48.1054 478.115 48.6402C473.836 48.6402 469.021 46.5007 464.741 45.431C460.997 44.3613 460.462 42.2218 456.182 43.2916C448.693 45.431 446.018 52.3843 436.389 48.6402C434.249 47.5705 431.574 49.71 431.039 51.3146C430.504 54.5238 431.574 58.8027 428.899 59.8725C423.55 62.5468 416.061 55.5935 410.711 59.3376C401.617 65.2211 394.663 53.4541 387.173 60.9423C378.614 69.5002 371.125 55.0587 365.775 60.9423C358.821 68.9653 355.076 59.8725 348.122 67.3606C341.167 74.8487 334.213 66.8257 328.328 70.0349C321.909 73.2441 329.933 79.6626 325.654 83.9415C325.654 84.4764 316.559 81.802 313.885 85.5461C310.675 89.2901 316.559 90.3599 315.489 93.5691C314.954 95.7086 311.21 94.6389 310.14 96.7783C307.465 101.592 314.955 102.127 314.42 105.871C313.885 108.545 308.535 108.545 305.86 109.615C304.255 110.685 303.186 113.894 304.255 115.499C309.605 122.452 296.231 120.847 299.441 128.335C301.046 132.08 306.93 137.963 303.185 139.568C293.556 145.451 280.717 148.126 281.787 156.149C281.787 159.893 287.672 165.241 290.882 165.776C299.976 166.846 289.277 175.404 291.952 179.683C294.626 186.101 301.581 187.171 299.976 193.055C297.301 204.287 289.812 204.287 298.371 214.449C301.046 218.193 309.07 217.124 311.21 220.333C313.35 222.472 311.21 228.356 316.024 232.635C321.374 237.448 328.328 234.774 335.818 233.704C335.818 241.193 334.213 247.076 344.377 248.146C346.517 248.146 353.471 245.472 354.541 246.541C359.891 249.216 357.751 256.169 363.1 258.843C366.845 260.983 371.66 257.239 380.219 256.169C384.498 255.634 389.313 264.192 392.523 265.797C397.872 267.936 400.547 269.006 410.176 260.983C414.456 257.773 419.27 258.308 425.69 264.192C427.83 266.331 436.389 259.913 442.808 264.192C450.833 270.076 451.367 256.169 459.927 257.239C462.601 257.239 466.881 263.657 470.091 263.122C473.836 263.122 477.045 252.425 480.79 251.89C484.535 251.355 486.674 256.704 489.884 258.843C491.489 259.913 494.164 259.378 495.234 258.308C498.443 255.099 497.373 246.541 501.118 247.076C508.072 248.146 512.887 251.355 516.632 241.728C519.842 234.774 530.541 244.402 530.541 236.379C530.541 226.216 536.425 229.426 544.449 224.077C549.264 221.403 548.194 212.31 548.729 207.496C550.334 195.194 557.288 196.799 557.823 192.52C558.893 186.636 555.148 183.427 557.288 177.008Z" fill="#1FAC26"/>
<path d="M364.172 76.9866C360.427 75.9169 356.147 79.126 356.682 83.4049C356.682 85.0096 358.287 86.0794 359.892 85.0096C361.497 83.9399 363.637 82.3352 365.242 80.7306C366.312 79.6609 365.777 77.5215 364.172 76.9866Z" fill="#FFCE78"/>
<path d="M413.923 91.9645C412.853 90.3599 410.714 91.9644 411.249 93.569C411.783 96.2433 412.318 97.848 414.458 99.4526C416.063 101.057 417.668 98.9177 417.668 97.3131C417.133 94.6388 415.528 93.5691 413.923 91.9645Z" fill="#FFCE78"/>
<path d="M469.558 73.2441C466.348 73.2441 464.208 74.8488 462.603 76.9883C461.534 78.058 462.069 80.1974 463.673 80.1974C466.883 80.1974 469.558 79.1277 471.698 76.4534C472.233 74.8488 471.163 73.2441 469.558 73.2441Z" fill="#FFCE78"/>
<path d="M370.055 127.8C368.985 124.591 364.705 125.66 364.705 128.87C365.24 131.009 364.17 132.614 364.705 134.753C365.24 135.823 366.31 136.358 367.38 135.823C370.59 134.753 370.59 131.009 370.055 127.8Z" fill="#FFCE78"/>
<path d="M335.286 108.544C333.681 107.474 331.541 106.404 329.402 105.87C326.727 104.8 324.587 107.474 326.727 109.614C328.332 111.753 331.006 113.358 334.216 112.823C336.356 112.823 337.426 110.148 335.286 108.544Z" fill="#FFCE78"/>
<path d="M391.988 119.243C390.383 119.778 390.383 119.778 389.313 121.382C388.243 122.987 390.383 125.126 391.988 124.057C393.593 123.522 393.593 122.987 394.663 121.382C395.198 119.778 393.593 118.173 391.988 119.243Z" fill="#FFCE78"/>
<path d="M346.519 168.45C345.984 166.845 343.844 166.845 343.309 168.45C342.774 170.054 342.774 170.054 343.309 172.194C343.309 173.798 346.519 173.798 346.519 172.194C347.054 170.054 347.054 170.054 346.519 168.45Z" fill="#FFCE78"/>
<path d="M321.91 147.053C320.306 147.588 319.236 148.123 317.631 149.728C316.026 150.797 318.166 153.472 319.771 152.937C321.376 152.402 322.98 151.867 324.585 151.332C327.26 149.728 324.585 145.449 321.91 147.053Z" fill="#FFCE78"/>
<path d="M383.965 190.379C380.22 191.449 379.15 195.193 379.15 198.937C379.15 200.006 380.22 201.611 381.825 201.076C382.895 201.076 383.965 201.076 385.035 200.007C385.391 199.65 385.57 199.472 385.57 199.472C386.105 198.937 386.64 198.402 386.105 197.332C386.461 196.619 386.818 196.084 387.175 195.728C389.314 193.588 387.175 189.844 383.965 190.379Z" fill="#FFCE78"/>
<path d="M423.017 167.914C421.412 166.309 419.272 165.774 417.132 164.169C415.527 162.565 412.853 164.169 413.388 166.309C414.458 169.518 418.202 173.262 421.947 171.658C423.552 171.123 424.622 169.518 423.017 167.914Z" fill="#FFCE78"/>
<path d="M457.787 136.357C455.112 137.426 451.367 137.961 449.227 140.636C448.158 142.24 449.228 143.845 450.833 144.38C454.042 144.38 456.717 142.775 459.392 141.705C462.601 140.635 461.532 134.752 457.787 136.357Z" fill="#FFCE78"/>
<path d="M448.16 122.451C447.09 123.521 446.02 124.056 444.95 124.591C443.345 125.126 443.345 127.8 444.95 128.335C447.625 129.939 450.834 128.335 451.904 125.66C453.509 122.986 450.299 120.312 448.16 122.451Z" fill="#FFCE78"/>
<path d="M497.375 151.87C496.305 150.265 493.631 151.87 494.166 153.474C495.236 155.079 495.236 156.149 496.84 157.218C497.91 158.288 500.585 157.218 500.05 155.079C499.515 153.474 498.445 152.939 497.375 151.87Z" fill="#FFCE78"/>
<path d="M347.053 198.401C344.379 200.006 342.774 201.076 341.704 204.285C340.634 205.355 342.239 206.959 343.844 206.424C346.519 204.82 347.588 203.75 349.193 201.076C350.263 199.471 348.123 197.331 347.053 198.401Z" fill="#FFCE78"/>
<path d="M371.661 164.704C368.987 163.635 366.847 166.309 368.987 168.448C370.592 170.588 372.731 172.728 375.406 172.728C377.011 172.193 378.081 171.123 377.546 170.053C377.011 166.844 374.336 165.774 371.661 164.704Z" fill="#FFCE78"/>
<path d="M417.667 207.494C412.853 208.564 408.038 213.378 409.643 218.192C410.178 219.261 411.783 220.331 412.853 219.796C415.527 217.122 417.667 213.913 420.342 211.238C421.947 209.634 419.807 206.96 417.667 207.494Z" fill="#FFCE78"/>
<path d="M469.023 225.146C466.348 221.936 463.138 220.867 459.394 221.936C457.254 221.936 457.789 225.68 459.928 225.68C462.603 225.68 463.138 229.424 465.813 229.959C466.883 229.959 467.775 229.603 468.488 228.89L469.023 228.355C469.558 227.285 469.558 225.68 469.023 225.146Z" fill="#FFCE78"/>
<path d="M480.793 185.566C477.583 186.636 474.373 188.775 472.768 191.984C471.698 193.589 473.303 196.263 474.908 195.193C478.653 194.124 481.328 191.449 482.933 188.24C483.467 186.636 482.397 185.031 480.793 185.566Z" fill="#FFCE78"/>
<path d="M531.611 147.056C530.542 143.312 524.657 144.916 525.727 148.66C526.262 151.87 528.402 154.544 531.611 155.079C533.216 155.079 534.821 154.544 535.356 152.939C536.426 149.73 532.681 149.195 531.611 147.056Z" fill="#FFCE78"/>
<path d="M501.117 102.125C497.373 103.73 492.558 104.799 489.884 108.543C488.814 110.148 490.418 112.822 492.558 112.822C496.303 112.822 500.047 109.613 503.792 107.474C506.467 105.869 504.862 100.52 501.117 102.125Z" fill="#FFCE78"/>
<path d="M527.331 204.286C525.726 200.542 521.446 197.333 517.167 196.263C515.027 195.729 513.957 197.868 514.492 199.473C516.097 202.682 519.841 206.961 523.586 208.031C525.726 208.031 528.401 206.426 527.331 204.286Z" fill="#FFCE78"/>
<path d="M419.272 227.821C414.993 228.356 411.248 231.03 409.643 235.309C409.108 236.379 411.248 237.984 412.318 237.449C416.062 236.914 419.272 234.239 421.412 231.565C422.482 229.96 420.877 227.821 419.272 227.821Z" fill="#FFCE78"/>
<path d="M367.918 224.075C366.848 224.61 366.848 226.215 367.918 226.749C368.988 227.284 368.987 228.354 370.057 229.424C370.592 230.493 372.732 231.028 373.267 228.889C373.802 225.679 371.127 223.54 367.918 224.075Z" fill="#FFCE78"/>
<path d="M516.634 530.019C516.634 554.623 481.862 573.878 438.53 573.878C395.199 573.878 359.893 554.623 359.893 530.019C359.893 505.95 395.199 486.16 438.53 486.16C481.862 486.16 516.634 505.95 516.634 530.019Z" fill="#A04822"/>
<path d="M427.295 409.141H418.736H334.213C334.213 409.141 340.632 506.486 362.031 539.113C379.684 566.392 413.386 568.531 423.55 568.531C440.669 568.531 496.304 566.927 514.492 539.113C535.89 506.486 542.31 409.141 542.31 409.141H427.295Z" fill="#5B371E"/>
<path fill-rule="evenodd" clip-rule="evenodd" d="M542.845 409.142C542.845 441.234 495.769 467.443 438.529 467.443C380.754 467.443 334.213 441.234 334.213 409.142C334.213 376.515 380.754 350.307 438.529 350.307C495.769 350.307 542.845 376.515 542.845 409.142ZM532.146 409.142C532.146 382.399 489.884 361.004 437.994 361.004C386.103 361.004 343.842 382.399 343.842 409.142C343.842 435.351 386.103 456.745 437.994 456.745C489.884 456.745 532.146 435.351 532.146 409.142Z" fill="#FFCE55"/>
<path d="M437.995 361.002C386.105 361.002 343.844 382.397 343.844 409.14C343.844 435.349 386.105 456.743 437.995 456.743C489.886 456.743 532.147 435.349 532.147 409.14C532.147 382.397 489.886 361.002 437.995 361.002Z" fill="#775135"/>
<path d="M400.016 457.814C401.443 458.171 402.869 458.527 404.296 458.883C403.226 441.233 401.621 419.838 400.016 400.583C396.806 361.003 383.967 323.027 383.967 322.492L380.223 323.562C380.223 324.097 392.527 362.072 396.271 401.118C397.876 419.838 399.481 440.698 400.016 457.814Z" fill="#A2CC46"/>
<path d="M408.572 455.675C402.153 444.978 394.663 434.815 387.709 427.327C360.426 398.444 328.864 367.957 328.864 367.422L326.189 370.631C326.189 370.631 357.752 401.119 384.499 430.001C390.919 436.42 397.338 444.978 403.223 454.605C405.006 454.962 406.789 455.318 408.572 455.675Z" fill="#A2CC46"/>
<path d="M452.975 457.812C454.045 440.161 455.115 417.697 457.254 397.907C460.464 358.862 472.768 320.886 472.768 320.886L469.023 319.281C469.023 319.816 456.72 358.327 452.975 397.907C451.37 417.697 449.765 440.161 448.695 457.812C450.122 457.812 451.548 457.812 452.975 457.812Z" fill="#A2CC46"/>
<path d="M443.345 423.581C439.065 406.465 433.716 385.07 428.901 365.815C418.737 327.839 400.549 292.538 400.014 292.003L403.758 290.398C403.758 290.398 422.482 326.235 432.646 364.745C437.995 384 443.345 405.93 447.089 423.046C445.663 423.402 444.415 423.581 443.345 423.581Z" fill="#A2CC46"/>
<path d="M433.716 458.349C425.157 430.536 415.528 403.793 414.993 403.258L411.783 404.328C411.783 404.862 421.413 431.071 429.437 458.349C430.863 458.349 432.29 458.349 433.716 458.349Z" fill="#A2CC46"/>
<path d="M459.928 456.744C460.641 453.534 461.355 450.147 462.068 446.581C465.813 428.93 480.256 396.303 480.256 395.769L476.512 394.164C475.977 395.769 462.068 427.861 458.323 445.511C457.253 449.434 456.362 453.356 455.648 457.278C457.075 457.278 458.501 457.1 459.928 456.744Z" fill="#A2CC46"/>
<path d="M446.019 457.813C447.624 434.279 449.763 382.396 443.879 357.793C435.855 325.166 429.97 277.027 429.97 277.027C429.97 277.027 426.761 323.026 425.691 348.7C425.156 368.49 437.46 431.604 442.809 458.348C443.879 458.348 444.949 458.169 446.019 457.813Z" fill="#A2CC46"/>
<path d="M408.574 455.673C408.039 431.604 404.295 396.837 390.921 376.512C369.523 342.281 321.377 316.072 321.377 316.072C321.377 316.072 334.216 356.187 366.313 384C385.036 400.046 396.27 431.069 402.155 454.068C404.295 454.781 406.434 455.316 408.574 455.673Z" fill="#A2CC46"/>
<path d="M493.096 347.632C485.607 363.143 471.163 424.653 464.209 456.21C466.705 455.853 469.38 455.497 472.233 455.141C488.817 426.258 519.309 374.375 530.008 351.911C544.987 319.819 550.336 280.773 550.336 280.773C550.336 280.773 512.89 306.982 493.096 347.632Z" fill="#A2CC46"/>
<path d="M518.237 371.166C516.81 374.375 515.027 377.406 512.887 380.259C525.191 388.282 532.146 398.444 532.146 409.141C532.146 435.35 489.884 456.745 437.994 456.745C386.103 456.745 343.842 435.35 343.842 409.141C343.842 405.219 344.734 401.475 346.517 397.909C344.021 396.127 341.346 394.165 338.493 392.026C335.64 397.374 334.213 403.08 334.213 409.141C334.213 441.234 380.754 467.442 438.529 467.442C495.769 467.442 542.845 441.234 542.845 409.141C542.845 394.7 533.216 381.863 518.237 371.166Z" fill="#FFCE55"/>
<path d="M401.616 317.142C398.941 309.119 390.917 306.444 383.963 308.584C385.033 302.7 384.498 296.282 379.148 293.608C373.799 290.933 369.519 295.747 366.844 301.096C365.774 298.421 363.634 295.747 360.96 294.677C357.75 293.608 353.47 294.677 351.866 297.886C348.656 302.165 351.865 308.584 355.61 313.398C349.726 312.328 343.306 313.398 341.167 318.211C337.422 325.7 345.446 329.979 353.47 332.118C349.191 339.071 355.075 350.838 363.634 354.048C373.798 357.257 384.498 347.094 386.102 336.397C395.732 335.327 405.361 327.304 401.616 317.142Z" fill="#CE5300"/>
<path d="M508.608 289.865C505.934 281.842 497.909 279.702 490.955 281.307C492.025 275.423 491.49 269.005 486.14 266.33C481.326 263.656 476.511 268.47 473.836 273.819C472.766 271.144 470.626 269.005 467.952 267.935C464.742 266.33 460.463 267.4 458.858 270.609C456.183 275.423 458.858 281.307 462.602 286.12C456.718 285.051 450.299 286.121 448.159 290.934C444.414 298.422 452.438 303.236 460.463 304.841C456.183 312.329 462.067 323.561 470.626 326.771C480.791 329.98 491.49 319.817 493.095 309.655C502.724 308.05 512.353 300.027 508.608 289.865Z" fill="#CE5300"/>
<path d="M456.185 410.745C453.51 402.722 445.486 400.583 438.531 402.187C439.601 396.304 439.066 389.885 433.717 387.211C428.902 384.537 424.088 389.35 421.413 394.699C420.343 392.025 418.738 389.885 415.528 388.816C412.319 387.211 408.039 388.281 406.434 391.49C403.759 396.304 406.434 402.187 410.179 407.001C404.294 405.932 397.875 407.536 395.735 412.35C391.99 419.838 400.55 424.117 408.039 426.256C403.76 433.21 409.644 444.442 418.203 447.651C428.367 451.395 439.066 440.698 440.671 430.535C450.3 428.931 459.93 421.442 456.185 410.745Z" fill="#CE5300"/>
<path d="M439.065 361.536C436.391 352.979 428.366 350.839 421.412 352.978C422.482 347.095 421.947 340.676 416.597 338.002C411.248 335.328 406.968 340.142 404.293 345.49C403.224 342.816 401.084 340.142 398.409 339.072C395.199 338.002 390.92 339.072 389.315 342.281C386.105 346.56 389.315 352.978 393.059 357.792C387.175 356.723 380.756 357.792 378.616 362.606C374.871 370.094 382.895 374.373 390.92 376.513C386.64 383.466 392.524 395.233 401.084 398.442C411.248 401.651 421.947 391.489 423.552 380.792C433.181 379.722 442.81 371.699 439.065 361.536Z" fill="#CE5300"/>
<path d="M513.424 356.187C510.214 348.164 502.725 345.489 495.771 347.629C496.306 341.745 495.771 335.327 490.956 332.652C485.607 329.978 481.327 334.792 478.652 340.141C477.582 337.466 475.442 334.792 472.768 334.257C469.023 332.652 465.278 333.722 463.139 336.931C460.464 341.21 463.139 347.629 466.883 352.443C461.534 351.373 454.579 352.442 452.44 357.256C449.23 364.744 457.254 369.024 464.743 371.163C460.999 378.116 466.883 389.883 475.442 393.092C485.072 396.302 496.306 386.139 497.911 375.442C507.54 374.372 516.634 366.349 513.424 356.187Z" fill="#CE5300"/>
<path d="M347.053 347.632C344.379 344.957 341.169 343.353 337.959 343.888C336.889 338.004 332.61 332.656 326.725 329.981C322.981 328.912 320.841 329.446 317.631 330.516C317.274 330.516 317.096 330.516 317.096 330.516C316.026 329.981 315.491 328.911 314.421 327.842C308.002 324.098 300.512 327.842 297.838 334.26C295.698 340.144 297.838 347.632 301.582 353.516C301.226 353.516 301.048 353.516 301.048 353.516C299.443 355.12 298.908 359.934 301.048 358.864C297.303 360.469 291.953 368.492 305.327 379.724C301.582 389.886 317.631 391.491 324.585 385.608C328.865 388.282 334.215 388.817 338.494 385.073C341.169 383.468 342.774 380.259 343.309 377.585C343.844 375.98 343.309 374.375 343.309 372.771C343.309 369.027 343.309 369.027 344.913 365.817C348.123 359.934 351.868 353.515 347.053 347.632Z" fill="#FF8C1A"/>
<path d="M467.954 326.769C465.279 323.559 462.069 322.489 459.395 322.489C457.79 316.606 453.51 311.257 447.626 309.118C443.881 307.513 441.741 308.048 438.531 309.653C438.175 309.653 437.997 309.653 437.997 309.653C437.462 308.583 436.392 307.513 435.322 306.978C428.902 302.699 421.413 306.978 418.738 312.862C416.599 319.28 418.738 326.768 422.483 332.652C422.126 332.652 421.948 332.652 421.948 332.652C420.343 333.722 419.808 339.07 421.948 338.001C418.203 339.07 412.854 347.094 426.228 358.861C422.483 368.488 438.532 370.628 445.486 364.744C449.766 367.418 455.115 367.419 459.929 364.209C462.069 362.07 463.674 359.396 464.209 356.186C464.744 354.582 464.744 353.512 464.209 351.907C464.209 348.163 464.209 348.163 465.814 344.954C469.024 339.07 472.768 332.652 467.954 326.769Z" fill="#FF8C1A"/>
<path d="M423.016 298.424C425.156 295.215 425.691 292.006 424.621 288.796C430.505 286.657 434.785 281.308 435.855 275.425C436.39 271.146 435.32 269.006 433.18 266.332C433.18 265.975 433.18 265.797 433.18 265.797C433.715 264.727 434.785 263.658 435.32 262.588C437.995 255.635 432.645 248.681 425.691 247.612C419.271 246.542 412.317 250.286 407.502 255.1C405.898 253.495 400.548 254.03 402.153 256.17C400.013 252.96 390.919 248.681 382.895 264.193C372.196 263.123 373.8 278.634 380.755 283.983C379.15 289.331 379.685 294.68 384.499 297.889C386.639 300.029 389.849 301.098 393.059 301.098C394.663 301.098 395.734 300.564 397.338 300.029C401.083 299.494 400.548 299.494 404.293 300.029C410.712 302.168 417.667 304.842 423.016 298.424Z" fill="#FF8C1A"/>
<path d="M501.122 315.538C503.797 312.864 506.472 311.794 509.682 311.794C510.752 305.91 515.031 300.561 520.916 298.422C524.66 296.817 527.335 297.352 530.545 298.422C530.545 298.779 530.723 298.957 531.08 298.957C531.615 297.887 532.685 296.818 533.755 296.283C539.639 292.004 547.663 295.748 550.338 302.166C552.478 308.585 550.338 315.538 546.593 321.422C546.593 321.778 546.772 321.956 547.129 321.956C548.733 323.026 549.268 327.84 547.129 327.305C550.338 328.375 556.223 336.398 542.849 347.63C546.058 357.792 530.545 359.397 523.591 354.048C519.311 356.723 513.961 356.723 509.147 352.979C507.007 351.374 505.402 348.7 504.867 345.491C504.332 343.886 504.332 342.816 504.332 340.677C504.867 336.933 504.867 337.468 503.262 333.723C500.053 328.375 496.308 321.956 501.122 315.538Z" fill="#FF8C1A"/>
<path d="M352.937 366.35C364.171 358.327 377.545 364.746 382.359 375.978C384.499 372.234 387.709 369.56 391.989 370.629C394.664 370.629 396.803 372.769 397.338 375.443C397.338 376.87 397.16 377.939 396.803 378.652C398.943 378.652 400.548 378.652 402.688 379.722C409.107 384.001 403.758 389.35 398.943 393.629C414.457 402.187 391.989 426.791 381.29 413.954C372.731 420.907 362.031 426.791 356.147 413.954C353.472 408.605 351.867 400.047 354.007 395.233C344.913 388.815 341.703 374.908 352.937 366.35Z" fill="#FF8C1A"/>
<path d="M520.911 371.165C509.677 362.607 495.768 369.561 490.954 380.793C489.349 377.049 485.604 374.375 481.86 374.91C479.185 375.444 477.045 377.584 476.51 380.258C476.51 381.328 476.688 382.398 477.045 383.467C474.905 383.467 472.765 383.467 471.16 384.537C464.741 388.816 469.555 394.165 474.37 398.443C458.856 407.001 481.859 431.605 492.023 418.768C501.118 425.722 511.282 431.07 517.701 418.234C519.841 412.885 521.446 404.862 519.306 400.048C528.935 393.63 532.145 379.723 520.911 371.165Z" fill="#FF8C1A"/>
<path d="M410.179 274.353C410.179 277.562 406.969 280.236 403.759 280.236C400.549 280.236 397.34 277.562 397.34 274.353C397.34 271.678 400.549 269.004 403.759 269.004C406.969 269.004 410.179 271.678 410.179 274.353Z" fill="#FFA143"/>
<path d="M327.261 355.12C327.261 357.794 324.586 360.469 321.377 360.469C317.632 360.469 314.957 357.794 314.957 355.12C314.957 351.911 317.632 349.236 321.377 349.236C324.586 349.236 327.261 351.911 327.261 355.12Z" fill="#FFA143"/>
<path d="M450.3 336.397C450.3 339.072 447.625 341.746 443.88 341.746C440.671 341.746 437.996 339.072 437.996 336.397C437.996 333.188 440.671 330.514 443.88 330.514C447.625 330.514 450.3 333.188 450.3 336.397Z" fill="#FFA143"/>
<path d="M380.22 392.024C380.22 395.234 377.545 397.373 374.335 397.373C370.591 397.373 367.916 395.234 367.916 392.024C367.916 388.815 370.591 386.676 374.335 386.676C377.545 386.676 380.22 388.815 380.22 392.024Z" fill="#FFA143"/>
<path d="M504.866 399.513C504.866 402.722 502.192 404.861 498.982 404.861C495.237 404.861 492.562 402.722 492.562 399.513C492.562 396.304 495.237 394.164 498.982 394.164C502.192 394.164 504.866 396.304 504.866 399.513Z" fill="#FFA143"/>
<path d="M525.726 325.7C525.726 328.909 523.051 331.584 519.841 331.584C516.097 331.584 513.422 328.909 513.422 325.7C513.422 322.491 516.097 320.352 519.841 320.352C523.051 320.352 525.726 322.491 525.726 325.7Z" fill="#FFA143"/>
<path d="M379.15 327.841C379.15 331.05 376.475 333.725 372.73 333.725C369.52 333.725 366.846 331.05 366.846 327.841C366.846 325.167 369.52 322.492 372.73 322.492C376.475 322.492 379.15 325.167 379.15 327.841Z" fill="#FFA143"/>
<path d="M418.738 369.026C418.738 371.7 416.063 374.375 412.853 374.375C409.108 374.375 406.434 371.7 406.434 369.026C406.434 365.817 409.108 363.143 412.853 363.143C416.063 363.143 418.738 365.817 418.738 369.026Z" fill="#FFA143"/>
<path d="M432.111 417.698C432.111 420.373 429.436 423.047 425.691 423.047C422.482 423.047 419.807 420.373 419.807 417.698C419.807 414.489 422.482 411.814 425.691 411.814C429.436 411.814 432.111 414.489 432.111 417.698Z" fill="#FFA143"/>
<path d="M486.677 298.422C486.677 301.097 484.002 303.771 480.793 303.771C477.048 303.771 474.373 301.097 474.373 298.422C474.373 295.213 477.048 292.539 480.793 292.539C484.002 292.539 486.677 295.213 486.677 298.422Z" fill="#FFA143"/>
<path d="M238.458 439.094C238.458 463.698 203.151 483.488 160.355 483.488C117.023 483.488 81.7168 463.698 81.7168 439.094C81.7168 415.025 117.023 395.234 160.355 395.234C203.151 395.234 238.458 415.025 238.458 439.094Z" fill="#5B371E"/>
<path d="M148.584 318.211H140.56H56.0371C56.0371 318.211 62.4566 415.557 83.8547 448.719C101.508 475.997 134.675 477.601 145.374 477.601C162.493 477.601 218.128 475.997 236.316 448.719C257.18 415.557 264.134 318.211 264.134 318.211H148.584Z" fill="#5B371E"/>
<path d="M159.82 270.074C107.929 270.074 65.668 292.004 65.668 318.212C65.668 344.956 107.929 366.35 159.82 366.35C211.71 366.35 253.971 344.956 253.971 318.212C253.971 292.004 211.71 270.074 159.82 270.074Z" fill="#775135"/>
<path fill-rule="evenodd" clip-rule="evenodd" d="M264.134 318.212C264.134 350.839 217.593 377.048 160.353 377.048C102.578 377.048 56.0371 350.839 56.0371 318.212C56.0371 286.12 102.578 259.377 160.353 259.377C217.593 259.377 264.134 286.12 264.134 318.212ZM253.97 318.212C253.97 292.004 211.709 270.074 159.818 270.074C107.928 270.074 65.6665 292.004 65.6665 318.212C65.6665 344.956 107.928 366.35 159.818 366.35C211.709 366.35 253.97 344.956 253.97 318.212Z" fill="#FFCE55"/>
<path d="M122.906 366.351C124.333 366.707 125.76 367.064 127.186 367.421C126.116 350.305 124.511 328.375 122.906 309.12C119.162 269.54 106.858 231.564 106.858 231.029L103.113 232.099C103.113 232.634 115.417 270.61 119.162 309.655C120.767 328.375 121.836 349.235 122.906 366.351Z" fill="#A2CC46"/>
<path d="M127.722 367.419C120.768 356.722 113.814 346.559 106.324 338.536C79.0417 309.653 48.0144 279.701 47.4795 279.166L44.8047 282.375C45.3396 282.375 76.3669 312.863 103.65 341.211C110.069 348.164 115.954 356.722 121.838 366.349C123.978 366.706 125.939 367.063 127.722 367.419Z" fill="#A2CC46"/>
<path d="M171.588 369.56C172.658 351.91 174.263 329.445 175.868 309.655C179.613 270.61 191.382 232.634 191.917 232.099L188.172 231.029C188.172 231.564 175.333 269.54 172.123 309.12C169.983 329.445 168.914 351.91 167.844 369.56C168.914 369.56 170.162 369.56 171.588 369.56Z" fill="#A2CC46"/>
<path d="M152.329 370.093C144.305 342.28 134.141 315.002 134.141 315.002L130.396 316.072C130.396 316.607 140.026 342.815 148.05 370.093C149.476 370.093 150.903 370.093 152.329 370.093Z" fill="#A2CC46"/>
<path d="M178.542 368.492C179.255 365.282 179.968 361.895 180.682 358.329C184.961 340.678 198.87 308.052 199.405 307.517L195.66 305.912C195.125 307.517 181.216 339.074 176.937 357.259C176.224 361.182 175.51 365.104 174.797 369.026C176.223 369.026 177.472 368.848 178.542 368.492Z" fill="#A2CC46"/>
<path d="M165.168 369.562C166.238 346.028 168.913 294.145 162.493 269.541C155.004 236.914 148.585 188.776 148.585 188.776C148.585 188.776 145.375 234.775 144.84 260.449C144.305 280.239 156.074 342.818 161.423 370.096C162.85 370.096 164.098 369.918 165.168 369.562Z" fill="#A2CC46"/>
<path d="M127.723 367.422C126.653 343.353 122.908 308.586 110.069 288.261C88.1362 254.03 39.9902 227.821 39.9902 227.821C39.9902 227.821 53.3642 267.936 84.9264 295.749C103.65 311.795 114.884 342.818 121.303 365.817C123.443 366.53 125.583 367.065 127.723 367.422Z" fill="#A2CC46"/>
<path d="M212.245 259.376C204.755 274.887 190.312 336.397 183.357 367.954C185.854 367.598 188.35 367.241 190.847 366.885C207.965 338.002 238.457 286.119 248.621 263.655C263.6 231.563 269.485 192.518 269.485 192.518C269.485 192.518 231.503 218.726 212.245 259.376Z" fill="#A2CC46"/>
<path d="M238.991 280.236C237.565 282.376 236.138 284.515 234.712 286.655C234.355 287.011 233.82 287.546 233.107 288.259C245.946 296.817 253.97 306.98 253.97 318.212C253.97 344.955 211.709 366.35 159.818 366.35C107.928 366.35 65.6665 344.955 65.6665 318.212C65.6665 312.328 67.8061 306.445 72.0857 301.096C69.2326 299.67 66.3797 298.065 63.5266 296.282C58.712 303.236 56.0371 310.724 56.0371 318.212C56.0371 350.839 102.578 377.047 160.353 377.047C217.593 377.047 264.134 350.839 264.134 318.212C264.134 303.77 255.04 290.399 238.991 280.236Z" fill="#FFCE55"/>
<path d="M153.938 222.472C153.403 213.379 141.634 211.24 134.679 209.1C125.585 205.891 129.865 207.496 128.795 200.542C128.26 198.403 128.795 196.264 127.725 194.659C123.445 189.31 114.351 191.45 107.397 194.659C110.071 186.101 113.816 173.264 102.582 172.729C92.4179 171.66 91.3482 181.822 92.4181 189.31C91.7048 188.597 90.9914 187.884 90.2782 187.171C89.9215 186.814 89.3866 186.279 88.6734 185.566C85.4636 180.752 79.5792 175.404 73.6947 180.752C68.3452 185.031 71.5549 191.984 75.2995 197.868C69.4151 197.333 63.5304 198.403 62.4605 205.356C61.3906 209.1 62.4605 211.24 64.0653 213.379C56.576 216.054 48.5519 220.333 49.6219 228.356C50.6918 236.379 57.6461 237.983 64.6005 237.983C60.3209 244.936 58.1809 253.494 65.1353 259.378C72.6246 265.796 80.6489 262.587 86.5334 257.239C88.1383 264.727 92.953 270.61 102.047 271.145C110.071 271.145 114.351 267.401 117.026 262.587C123.445 266.866 131.47 266.331 138.424 257.773C143.773 251.355 143.773 243.332 140.029 238.518C147.518 235.309 155.008 229.96 153.938 222.472Z" fill="#E0300E"/>
<path d="M88.6721 197.332C87.6022 196.263 87.0671 196.263 85.4622 196.263C84.3923 196.263 83.8574 196.797 83.8574 197.867C83.8574 198.937 84.3924 199.472 84.9274 200.542C86.5323 203.751 91.3469 200.007 88.6721 197.332Z" fill="#FFD41F"/>
<path d="M71.5547 221.403C68.345 220.334 66.2051 221.938 65.1352 224.613C64.6003 225.682 65.6703 227.287 67.2752 227.287C68.88 227.287 69.9499 227.287 71.5547 227.287C74.7645 226.752 74.2295 221.938 71.5547 221.403Z" fill="#FFD41F"/>
<path d="M98.8343 225.146C97.2294 225.146 96.1596 225.681 95.6247 226.751C94.5548 227.821 94.5548 229.426 95.6247 230.495C95.6247 230.852 95.6247 231.03 95.6247 231.03C96.6946 232.1 97.7644 231.565 98.8343 231.03C100.439 229.96 99.9045 228.356 100.439 226.751C100.439 225.681 99.9042 225.146 98.8343 225.146Z" fill="#FFD41F"/>
<path d="M79.0434 240.657C77.9734 241.192 77.4385 241.727 76.3686 242.797C75.8336 244.401 76.3685 246.541 77.9734 247.075C77.9734 247.432 78.1516 247.61 78.5082 247.61C79.5781 247.967 80.4697 247.789 81.183 247.075C82.7878 246.006 82.2528 244.401 82.7878 242.797C82.7878 240.657 80.1133 239.587 79.0434 240.657Z" fill="#FFD41F"/>
<path d="M120.767 244.936C119.697 242.797 117.557 241.727 115.417 240.657C114.347 240.657 113.277 241.727 113.277 242.262C114.347 244.936 115.417 247.076 117.557 248.68C119.697 249.75 122.372 247.076 120.767 244.936Z" fill="#FFD41F"/>
<path d="M118.629 210.171C115.419 209.636 112.744 211.776 113.279 215.52C113.279 217.124 115.419 217.124 116.489 216.589C118.094 216.055 118.629 214.985 119.699 214.45C121.304 213.38 120.234 210.706 118.629 210.171Z" fill="#FFD41F"/>
<path d="M135.212 224.076C134.142 223.007 133.607 223.007 132.537 222.472C131.468 222.472 130.398 223.007 129.863 223.541C129.506 223.898 129.328 224.255 129.328 224.611C128.258 226.751 130.398 228.89 132.537 227.821C133.072 227.286 133.607 226.751 134.142 226.751C135.212 226.216 135.747 224.611 135.212 224.076Z" fill="#FFD41F"/>
<path d="M244.344 221.935C243.809 212.843 232.04 210.703 225.086 208.564C215.992 205.355 220.271 206.959 219.201 199.471C218.666 197.867 219.201 195.727 218.131 194.122C213.852 188.239 204.757 190.913 197.803 193.588C200.478 185.03 204.223 172.728 192.989 171.658C182.824 171.123 181.754 181.286 182.824 188.774C182.111 187.704 181.398 186.813 180.685 186.099C180.328 185.743 179.793 185.386 179.08 185.03C175.87 179.681 169.985 174.867 164.101 179.681C158.751 183.96 161.961 191.448 165.706 197.332C159.821 196.797 153.937 197.867 152.867 204.82C151.797 208.029 152.867 210.703 154.472 212.308C146.983 215.517 138.958 219.796 140.028 227.819C141.098 235.842 148.052 237.447 155.007 236.912C150.727 244.4 148.587 252.958 156.077 258.842C163.031 264.725 171.056 261.516 176.94 256.702C178.545 264.19 183.359 270.074 192.453 270.074C200.478 270.608 204.758 266.865 207.432 261.516C213.852 265.795 221.876 265.795 228.831 256.702C234.18 250.818 234.18 242.795 230.435 237.982C237.925 234.772 245.414 229.424 244.344 221.935Z" fill="#FF6464"/>
<path d="M179.078 196.797C178.008 195.727 177.473 195.192 175.868 195.192C174.799 195.727 174.264 196.262 174.264 196.797C174.264 197.867 174.799 198.937 175.334 200.006C176.939 203.216 181.753 199.471 179.078 196.797Z" fill="#FFD41F"/>
<path d="M161.961 220.331C158.751 219.261 156.611 220.866 155.542 224.075C155.007 225.145 156.076 226.749 157.681 226.214C159.286 226.214 160.356 226.749 161.961 226.214C165.171 226.214 164.636 221.401 161.961 220.331Z" fill="#FFD41F"/>
<path d="M189.775 224.609C188.17 224.609 187.101 224.609 186.031 226.214C184.961 227.284 184.961 228.888 186.031 229.958C186.031 229.958 186.031 230.137 186.031 230.493C187.101 231.563 188.171 231.028 189.241 230.493C190.845 228.889 190.31 227.819 190.845 226.214C190.845 225.144 190.31 224.609 189.775 224.609Z" fill="#FFD41F"/>
<path d="M169.45 240.123C168.38 240.658 167.845 241.192 166.775 242.262C166.24 243.332 166.775 246.006 168.38 246.541C168.38 246.541 168.558 246.719 168.915 247.076C169.985 247.433 170.876 247.254 171.59 246.541C173.194 244.937 172.659 243.867 173.194 242.262C173.194 240.123 171.054 239.053 169.45 240.123Z" fill="#FFD41F"/>
<path d="M211.175 243.864C210.105 241.725 207.965 240.655 205.825 240.12C204.755 240.12 203.685 240.655 204.22 241.725C204.755 244.399 205.825 246.003 207.965 247.608C210.105 249.213 212.78 246.004 211.175 243.864Z" fill="#FFD41F"/>
<path d="M209.035 209.635C205.826 208.565 203.151 211.24 203.686 214.449C203.686 216.053 205.825 216.588 206.895 216.054C208.5 215.519 209.035 214.449 210.105 213.379C211.71 212.309 210.64 210.17 209.035 209.635Z" fill="#FFD41F"/>
<path d="M225.618 223.004C224.548 222.469 224.013 221.934 222.943 221.934C221.873 221.4 220.804 221.934 220.269 223.004C219.912 223.361 219.734 223.717 219.734 224.074C218.664 226.214 220.804 227.818 222.943 227.283C223.478 226.748 224.013 226.213 224.548 225.679C225.618 225.679 226.153 224.074 225.618 223.004Z" fill="#FFD41F"/>
<path d="M181.219 302.168C180.684 293.075 168.915 290.936 161.961 288.796C152.332 285.587 157.146 286.657 156.076 279.703C155.541 278.099 156.076 275.959 154.471 274.355C150.727 268.471 141.632 271.146 134.678 273.82C137.353 265.262 141.098 252.96 129.864 251.89C119.699 251.356 118.629 260.983 119.699 269.006C118.986 267.936 118.273 267.045 117.559 266.332C117.203 265.975 116.668 265.619 115.955 265.262C112.745 259.913 106.86 255.1 100.976 259.913C95.6265 264.192 98.8361 271.681 102.581 277.564C96.6963 276.494 90.812 278.099 89.7421 285.052C88.6722 288.261 89.742 290.936 91.3469 292.54C83.8576 295.749 75.8332 300.029 76.9031 308.052C77.973 316.075 84.9273 317.679 91.8817 317.144C87.6021 324.632 85.4625 333.19 92.4169 339.074C99.9062 344.957 107.931 341.748 113.815 336.934C115.42 344.422 120.234 350.306 129.328 350.306C137.353 350.841 141.632 347.097 144.307 341.748C150.726 346.027 158.751 346.027 165.705 336.934C171.055 330.516 171.055 323.028 167.31 318.214C174.8 314.47 182.289 309.656 181.219 302.168Z" fill="#FF6464"/>
<path d="M115.955 277.028C114.885 275.959 114.35 275.424 112.745 275.424C111.676 275.424 111.141 276.493 111.141 277.028C111.141 278.098 111.675 278.633 112.21 279.703C113.815 282.912 118.63 279.703 115.955 277.028Z" fill="#FFD41F"/>
<path d="M98.8357 300.562C95.626 299.493 93.4864 301.097 92.4165 304.307C91.8816 305.376 92.9513 306.446 94.5561 306.446C96.161 306.446 97.2308 306.981 98.8357 306.446C102.045 305.911 101.51 301.632 98.8357 300.562Z" fill="#FFD41F"/>
<path d="M126.119 304.841C124.514 304.306 123.444 304.841 122.374 306.446C121.839 307.515 121.839 309.12 122.374 310.19C122.731 310.19 122.909 310.368 122.909 310.725C123.979 311.26 125.049 311.26 126.119 310.725C127.723 309.12 127.188 308.05 127.723 305.911C127.723 305.376 127.189 304.841 126.119 304.841Z" fill="#FFD41F"/>
<path d="M106.325 319.818C105.255 320.888 104.72 321.423 103.65 322.492C103.115 323.562 103.65 326.237 105.255 326.771C105.255 326.771 105.433 326.771 105.79 326.771C106.86 327.485 107.751 327.485 108.465 326.771C110.069 325.167 109.534 324.097 110.069 322.492C110.069 320.353 107.395 319.283 106.325 319.818Z" fill="#FFD41F"/>
<path d="M148.05 324.095C146.98 321.956 144.84 320.886 142.7 320.351C141.63 319.816 140.561 320.886 140.561 321.956C141.63 324.63 142.7 326.235 144.84 327.839C146.98 329.444 149.655 326.235 148.05 324.095Z" fill="#FFD41F"/>
<path d="M145.912 289.863C142.702 288.793 140.028 291.467 140.563 294.677C140.563 296.281 142.702 296.816 143.772 296.281C145.377 295.746 145.912 294.676 146.982 293.607C148.587 292.537 147.517 290.397 145.912 289.863Z" fill="#FFD41F"/>
<path d="M162.495 303.237C161.425 302.702 160.89 302.167 159.82 302.167C158.75 301.632 157.681 302.167 157.146 303.237C156.789 303.593 156.611 303.95 156.611 304.306C155.541 306.446 157.681 308.05 159.82 307.516C160.355 306.981 160.89 306.446 161.425 305.911C162.495 305.911 163.03 304.306 162.495 303.237Z" fill="#FFD41F"/>
<path d="M296.231 278.631C295.696 271.678 287.137 270.608 281.788 269.003C275.368 266.863 278.578 267.399 277.508 262.585C277.508 260.98 277.508 259.375 276.438 258.306C273.763 254.027 266.809 255.631 261.994 257.771C264.134 251.887 266.809 242.794 258.25 242.26C251.295 241.725 250.225 248.678 251.295 254.562C250.582 253.849 250.047 253.135 249.69 252.422C249.334 252.422 248.977 252.244 248.62 251.887C245.946 248.143 241.666 244.399 237.387 248.143C233.642 250.818 235.782 256.166 238.457 260.98C234.177 259.91 229.897 260.98 228.827 266.329C228.293 268.468 229.362 270.608 230.432 271.677C225.083 273.817 218.663 277.026 219.733 282.91C220.268 288.793 225.618 289.863 230.432 289.863C227.757 295.212 226.153 301.095 231.502 305.909C236.317 310.188 242.201 308.048 247.016 304.304C248.086 309.653 251.83 313.932 258.25 313.932C264.134 314.467 266.809 311.258 268.949 307.513C273.764 310.723 279.648 310.723 284.998 304.304C288.742 299.491 288.742 293.607 286.067 290.398C291.417 287.723 296.766 283.979 296.231 278.631Z" fill="#FF6464"/>
<path d="M248.087 260.447C247.552 259.377 247.017 259.377 245.947 259.377C245.412 259.377 244.877 259.912 244.877 260.447C244.877 261.516 244.877 261.517 245.412 262.586C246.482 264.726 250.226 262.051 248.087 260.447Z" fill="#FFD41F"/>
<path d="M235.782 277.562C233.642 277.027 232.037 278.097 230.967 280.236C230.967 280.771 231.502 281.841 232.572 281.841C233.641 281.841 234.712 282.376 235.782 281.841C237.921 281.841 237.921 278.097 235.782 277.562Z" fill="#FFD41F"/>
<path d="M256.112 280.772C255.042 280.237 253.972 280.772 253.437 281.842C252.367 282.377 252.367 283.447 253.437 284.516C253.437 284.516 253.437 284.695 253.437 285.051C253.972 285.586 255.042 285.586 255.577 285.051C256.647 283.981 256.647 282.912 256.647 281.842C257.182 281.307 256.647 280.772 256.112 280.772Z" fill="#FFD41F"/>
<path d="M241.134 292.005C240.599 292.54 240.064 292.54 239.529 293.609C238.994 294.679 238.994 296.284 240.599 296.818C241.312 297.175 242.025 297.175 242.739 296.818C243.809 295.749 243.809 294.679 243.809 293.609C244.344 292.005 242.204 290.935 241.134 292.005Z" fill="#FFD41F"/>
<path d="M272.162 294.68C271.092 293.076 269.487 292.541 267.882 292.006C266.812 292.006 266.277 292.54 266.277 293.075C266.812 295.215 267.882 296.285 269.487 297.355C271.092 298.424 273.232 296.285 272.162 294.68Z" fill="#FFD41F"/>
<path d="M270.555 269.54C267.881 269.005 265.741 270.61 266.276 273.284C266.276 274.354 267.881 274.888 268.951 274.354C269.486 273.819 270.555 273.284 271.09 272.749C272.16 271.679 271.625 270.075 270.555 269.54Z" fill="#FFD41F"/>
<path d="M282.325 279.702C281.79 279.167 281.255 278.633 280.72 278.633C279.65 278.633 278.581 278.633 278.581 279.702C278.224 279.702 278.045 279.881 278.045 280.237C277.51 281.842 278.58 282.911 280.185 282.377C280.72 282.377 281.255 281.842 281.79 281.842C282.325 281.307 282.86 280.237 282.325 279.702Z" fill="#FFD41F"/>
<path d="M264.67 313.399C263.6 304.306 251.831 302.167 245.411 300.027C235.782 297.353 240.597 298.423 238.992 291.469C238.992 289.33 238.992 287.725 237.922 285.586C233.642 280.237 224.548 282.377 218.129 285.586C220.269 277.028 224.548 264.726 212.779 263.656C203.15 263.121 201.545 272.749 202.615 280.772C201.902 279.702 201.189 278.811 200.475 278.098C200.119 277.741 199.762 277.384 199.406 277.028C196.196 271.679 190.311 266.865 183.892 271.679C179.077 275.958 182.287 283.446 185.497 289.33C179.612 288.26 174.263 289.33 172.658 296.818C172.123 300.027 172.658 302.702 174.798 304.306C166.773 306.981 158.749 311.259 159.819 319.282C160.889 327.305 167.843 328.91 174.798 328.91C171.053 335.863 168.913 344.956 175.868 350.84C182.822 356.723 190.846 353.514 197.266 348.7C198.336 356.188 203.685 361.537 212.779 362.072C220.269 362.072 224.548 358.328 227.758 353.514C233.643 357.793 241.667 357.793 249.156 348.7C253.971 342.282 254.506 334.259 250.761 329.445C257.715 326.236 265.205 321.422 264.67 313.399Z" fill="#E0300E"/>
<path d="M198.871 288.794C197.801 287.724 197.266 287.189 195.661 287.189C195.126 287.189 194.057 287.724 194.057 288.794C194.592 289.864 194.591 290.399 195.126 291.468C196.731 294.678 201.546 290.933 198.871 288.794Z" fill="#FFD41F"/>
<path d="M181.753 312.329C179.078 311.259 176.404 312.864 175.334 315.538C175.334 317.143 176.404 318.213 177.474 318.213C179.078 318.213 180.148 318.213 181.753 318.213C184.963 317.678 184.428 312.864 181.753 312.329Z" fill="#FFD41F"/>
<path d="M209.569 316.072C207.964 316.072 206.894 316.607 205.824 317.677C204.754 318.747 204.754 320.351 205.824 321.421C205.824 321.778 206.002 321.956 206.359 321.956C206.894 323.025 208.499 323.025 209.034 321.956C210.639 320.886 210.104 319.816 210.639 317.677C210.639 317.142 210.104 316.072 209.569 316.072Z" fill="#FFD41F"/>
<path d="M189.243 331.583C188.174 332.118 187.638 332.653 187.103 333.722C186.034 335.327 186.569 337.466 188.173 338.536C188.173 338.536 188.352 338.536 188.709 338.536C189.779 339.249 190.848 339.071 191.918 338.001C192.988 336.931 192.988 335.862 192.988 333.722C193.523 332.118 190.848 330.513 189.243 331.583Z" fill="#FFD41F"/>
<path d="M231.503 335.863C229.898 333.723 228.293 332.654 225.618 332.119C224.548 331.584 223.478 332.654 224.013 333.723C224.548 336.398 225.618 338.002 227.758 339.607C229.898 341.211 232.573 338.002 231.503 335.863Z" fill="#FFD41F"/>
<path d="M229.363 301.631C225.618 300.561 222.943 302.7 223.478 306.444C224.013 308.049 226.153 308.584 227.223 307.514C228.293 306.979 229.363 306.445 230.433 305.375C231.503 304.305 230.968 301.631 229.363 301.631Z" fill="#FFD41F"/>
<path d="M245.413 315.003C244.878 314.468 244.343 313.933 243.273 313.398C242.203 313.398 240.599 313.933 240.064 315.003C240.064 315.36 239.885 315.538 239.529 315.538C238.459 317.677 240.599 319.817 242.738 318.747C243.273 318.747 244.343 317.677 244.878 317.677C245.948 317.142 246.483 316.073 245.413 315.003Z" fill="#FFD41F"/>
<path d="M92.9506 292.006C92.4156 285.588 84.3913 283.983 79.5767 282.378C72.6223 280.239 75.8321 281.309 75.2972 276.495C74.7622 274.89 75.2971 273.821 74.2272 272.216C71.0175 268.472 64.598 270.077 59.7834 272.216C61.9232 266.333 64.5981 257.24 56.5738 256.705C49.6194 256.17 48.5494 263.123 49.0843 268.472C48.7277 268.115 48.371 267.581 48.0144 266.867C47.6577 266.511 47.3014 266.332 46.9447 266.332C44.27 262.588 40.5253 258.845 36.2457 262.589C32.501 265.263 34.6405 270.612 37.3153 274.89C33.0357 274.356 28.7563 274.89 28.2214 280.239C27.6864 282.379 28.2211 284.518 29.291 285.588C23.9415 287.727 18.0572 290.402 19.1271 296.285C19.662 302.169 24.4764 303.239 29.291 302.704C26.6162 308.052 25.0114 313.936 30.361 318.215C35.1756 322.494 41.06 320.354 45.3396 317.145C46.4095 321.959 49.6192 326.238 56.0387 326.238C61.9231 326.773 64.5979 324.098 66.7377 320.354C71.0174 323.563 76.902 323.028 82.2515 317.145C85.4612 312.331 85.9962 306.982 83.3215 303.238C88.136 301.099 93.4855 297.355 92.9506 292.006Z" fill="#E0300E"/>
<path d="M46.4108 274.353C45.8758 273.818 45.341 273.283 44.2711 273.283C43.7362 273.283 43.2012 273.818 43.2012 274.353C43.2012 275.422 43.736 275.957 43.736 276.492C44.8059 278.632 48.5506 275.957 46.4108 274.353Z" fill="#FFD41F"/>
<path d="M34.6386 290.933C32.4988 290.398 30.8941 291.468 29.8242 293.608C29.8242 294.677 30.3591 295.212 31.429 295.212C32.4989 295.212 33.5687 295.747 34.6386 295.212C36.7784 295.212 36.2435 291.468 34.6386 290.933Z" fill="#FFD41F"/>
<path d="M53.8982 294.143C52.8283 294.143 52.2934 294.143 51.2235 295.212C50.6885 295.747 50.6885 296.817 51.2235 297.887C51.5801 297.887 51.7583 298.065 51.7583 298.421C52.2933 298.956 53.3633 298.956 53.8982 298.421C54.9682 297.352 54.4333 296.282 54.9682 295.212C54.9682 294.678 54.4332 294.143 53.8982 294.143Z" fill="#FFD41F"/>
<path d="M39.4572 304.841C38.9223 305.376 38.3874 305.911 37.8524 306.446C37.3175 307.515 37.8525 309.12 38.9224 309.655C38.9224 309.655 39.1006 309.655 39.4572 309.655C40.1705 310.012 40.8839 310.012 41.5972 309.655C42.6671 308.585 42.1319 307.515 42.6668 306.446C42.6668 304.841 40.5271 304.306 39.4572 304.841Z" fill="#FFD41F"/>
<path d="M69.4101 308.051C68.3402 306.447 67.2705 305.377 65.6657 304.842C64.5958 304.842 64.0605 305.377 64.0605 306.446C64.5955 308.051 65.6656 309.656 67.2705 310.726C68.3404 311.26 70.48 309.656 69.4101 308.051Z" fill="#FFD41F"/>
<path d="M67.8083 283.446C65.6685 282.911 63.5287 284.516 64.0636 287.19C64.0636 288.26 65.6685 288.26 66.7384 287.725C67.2733 287.725 67.8084 286.655 68.8783 286.121C69.9482 285.586 68.8783 283.981 67.8083 283.446Z" fill="#FFD41F"/>
<path d="M79.5753 293.075C79.0403 292.54 78.5054 292.541 77.9705 292.006C76.9006 292.006 75.8305 292.54 75.8305 293.075C75.8305 293.075 75.6524 293.254 75.2957 293.61C74.7608 295.215 76.3654 296.285 77.4353 295.75C77.9703 295.75 78.5055 295.215 79.0405 295.215C79.5754 294.68 80.1102 293.61 79.5753 293.075Z" fill="#FFD41F"/>
</svg>
