<svg width="718" height="919" viewBox="0 0 718 919" fill="none" xmlns="http://www.w3.org/2000/svg">
<path opacity="0.1" d="M550.868 553.881C676.377 626.471 676.377 744.018 550.868 816.608C425.359 888.728 221.641 888.728 96.1318 816.608C-29.3773 744.018 -29.3773 626.471 96.1318 553.881C221.641 481.292 425.359 481.292 550.868 553.881Z" fill="#1D1D1B"/>
<path d="M592.553 600.71L592.085 655.971C592.085 696.246 565.859 735.585 513.876 766.026C408.504 827.375 237.1 827.375 131.26 766.026C77.872 735.585 51.1777 694.842 51.1777 654.566V599.305C51.1777 639.58 77.872 679.855 131.26 710.764C237.1 772.114 408.504 772.114 513.876 710.764C566.327 680.324 592.085 640.517 592.553 600.71Z" fill="#B88325"/>
<path d="M512.471 489.252C618.311 550.134 619.248 649.417 513.876 710.767C408.505 772.116 237.1 772.116 131.261 710.767C25.4209 649.417 24.4843 550.134 129.856 489.252C235.227 427.903 406.631 427.903 512.471 489.252Z" fill="#F9B233"/>
<path d="M322.801 728.097C255.363 728.097 192.609 713.579 145.309 686.417C103.16 661.596 79.7441 631.155 79.7441 599.31C79.7441 568.401 102.692 537.96 144.372 513.608C190.735 486.445 253.49 471.459 320.928 471.459C388.365 471.459 451.588 486.445 498.42 513.608C540.569 537.96 563.984 568.869 563.984 600.246C563.984 631.624 541.037 662.064 499.357 686.417C452.993 713.579 390.239 728.097 322.801 728.097Z" fill="#B88325"/>
<path d="M322.801 741.679C255.363 741.679 192.609 726.693 145.309 699.531C103.16 675.178 79.7441 644.269 79.7441 612.892C79.7441 581.514 102.692 551.074 144.372 526.721C190.735 499.559 253.49 485.041 320.928 485.041C388.365 485.041 451.588 500.027 498.42 526.721C540.569 551.542 563.984 581.983 563.984 613.828C563.984 644.737 541.037 675.178 499.357 699.531C452.993 726.693 390.239 741.679 322.801 741.679Z" fill="#FFCA38"/>
<path fill-rule="evenodd" clip-rule="evenodd" d="M459.547 682.199L431.917 666.276L415.994 675.643L443.625 677.047V691.565L416.931 707.02L389.3 691.097L367.757 703.742L164.039 586.194V571.676L185.581 573.549L157.482 557.158V542.64L184.177 541.704L212.744 558.095L228.199 548.728L200.099 532.337V517.819L226.793 516.883L256.766 534.211C287.206 521.566 313.901 523.439 340.126 538.425L347.151 542.64C368.225 554.348 373.845 566.525 364.011 580.574C390.705 572.613 414.121 576.828 435.663 589.004L452.054 598.838C466.416 606.956 473.597 615.698 473.597 625.064C473.597 633.182 468.289 641.611 457.674 650.353L486.241 652.227V666.744L459.547 682.199ZM376.655 664.871L414.12 643.329C426.765 635.835 428.638 628.811 413.652 619.913L395.856 610.078C377.124 598.838 364.011 599.775 346.683 609.61L313.901 628.811L376.655 664.871ZM285.333 611.951L315.774 594.155C329.823 586.194 333.102 577.764 317.179 568.398L305.471 561.841C290.953 553.412 278.777 553.412 265.195 560.905L231.477 581.042L285.333 611.951Z" fill="#B88325"/>
<path d="M473.597 611.014V625.063H462.826V611.014H473.597Z" fill="#B88325"/>
<path d="M368.691 554.35V568.399H357.92V554.35H368.691Z" fill="#B88325"/>
<path fill-rule="evenodd" clip-rule="evenodd" d="M459.547 667.683L431.917 652.229L415.994 661.127L443.625 677.05L416.931 692.504L389.3 676.581L367.757 689.226L164.039 571.678L185.581 559.034L157.482 542.642L184.177 527.188L212.744 543.579L228.199 534.213L200.099 517.822L226.793 502.367L256.766 519.695C287.206 507.05 313.901 508.924 340.126 523.91L347.151 528.125C368.225 540.301 373.845 552.477 364.011 566.058C390.705 558.097 414.121 562.312 435.663 574.956L452.054 584.323C466.416 592.752 473.597 601.651 473.597 611.017C473.597 618.822 468.289 627.096 457.674 635.838L486.241 652.229L459.547 667.683ZM376.655 650.356L414.12 628.813C426.765 621.32 428.638 614.295 413.652 605.865L395.856 595.562C377.124 584.323 364.011 585.259 346.683 595.562L313.901 614.295L376.655 650.356ZM285.333 597.436L315.774 579.64C329.823 571.678 333.102 563.717 317.179 554.35L305.471 547.794C290.953 539.364 278.777 538.896 265.195 546.857L231.477 566.527L285.333 597.436Z" fill="#F9B233"/>
<path d="M629.075 534.208V589.937C629.075 629.744 602.849 669.551 550.398 699.992C445.026 761.342 273.622 761.342 167.782 699.992C114.394 669.083 87.6998 628.808 88.1682 588.533V532.803C88.1682 573.078 114.862 613.822 168.25 644.262C274.09 705.612 445.495 705.612 550.398 644.262C602.849 614.29 629.075 574.483 629.075 534.208Z" fill="#B88325"/>
<path d="M549.462 422.747C655.302 484.097 655.771 583.38 550.399 644.261C445.496 705.611 274.092 705.611 168.252 644.261C61.9437 583.38 61.4755 484.097 166.847 422.747C272.218 361.866 443.154 361.866 549.462 422.747Z" fill="#F9B233"/>
<path d="M359.794 662.061C292.357 662.061 229.134 647.075 182.302 619.912C139.685 595.56 116.737 564.651 116.737 533.274C116.269 501.896 139.217 471.456 180.897 447.571C227.729 420.409 290.483 405.423 357.921 405.423C425.359 405.423 488.114 420.409 535.414 447.571C577.562 471.924 600.978 502.833 600.978 534.21C600.978 565.119 578.031 595.56 536.35 619.912C489.519 647.075 426.764 662.061 359.794 662.061Z" fill="#B88325"/>
<path d="M359.794 675.167C292.357 675.167 229.134 660.181 182.302 633.019C139.685 608.666 116.737 577.757 116.737 546.38C116.269 515.471 139.217 484.562 180.897 460.678C227.729 433.515 290.483 418.529 357.921 418.529C425.359 418.529 488.114 433.515 535.414 460.678C577.562 485.03 600.978 515.939 600.978 547.317C600.978 578.694 578.031 609.135 536.35 633.019C489.519 660.181 426.764 675.167 359.794 675.167Z" fill="#FFCA38"/>
<path fill-rule="evenodd" clip-rule="evenodd" d="M496.543 616.172L468.912 600.249L452.99 609.147L480.62 611.021V625.07L453.926 640.993L426.295 625.07L404.285 637.715L200.566 520.167V505.649L222.577 507.522L194.01 491.131V476.614L221.172 475.209L249.271 491.6L265.194 482.702L236.627 466.31V451.793L263.789 450.388L293.293 467.715C324.202 455.071 350.896 456.944 376.654 471.93L384.147 476.145C404.753 488.321 410.841 500.498 400.538 514.079C427.7 506.118 451.116 510.332 472.659 522.977L489.05 532.343C503.412 540.773 510.593 549.671 510.593 559.037C510.593 567.155 505.285 575.429 494.67 583.858L523.237 586.2V600.249L496.543 616.172ZM413.183 599.313L450.648 577.302C463.761 569.809 465.634 563.252 450.648 554.354L432.852 544.051C413.651 533.28 400.538 534.217 383.678 544.051L350.896 562.784L413.183 599.313ZM321.392 546.861L352.301 528.597C366.351 520.635 369.629 512.674 353.238 503.308L341.998 496.751C327.48 488.321 315.304 487.853 301.723 495.814L267.536 515.484L321.392 546.861Z" fill="#B88325"/>
<path d="M510.594 544.518V559.035H499.822V544.518H510.594Z" fill="#B88325"/>
<path d="M405.687 487.852V502.369H394.447V487.852H405.687Z" fill="#B88325"/>
<path fill-rule="evenodd" clip-rule="evenodd" d="M496.543 601.653L468.912 585.73L452.99 595.097L480.62 611.019L453.926 626.474L426.295 610.551L404.285 623.196L200.566 505.648L222.577 493.003L194.01 476.612L221.172 461.158L249.271 477.549L265.194 468.183L236.627 451.791L263.789 436.337L293.293 453.196C324.202 440.552 350.896 442.425 376.654 457.411L384.147 461.626C404.753 473.802 410.841 485.979 400.538 499.56C427.7 491.598 451.116 495.813 472.659 508.458L489.05 517.824C503.412 526.254 510.593 535.152 510.593 544.518C510.593 552.636 505.285 560.909 494.67 569.339L523.237 586.199L496.543 601.653ZM413.183 584.325L450.648 562.314C463.761 554.821 465.634 548.265 450.648 539.367L432.852 529.064C413.651 518.293 400.538 519.229 383.678 529.064L350.896 548.265L413.183 584.325ZM321.392 531.405L352.301 513.609C366.351 505.18 369.629 497.218 353.238 487.852L341.998 481.295C327.48 472.866 315.304 472.397 301.723 480.359L267.536 500.028L321.392 531.405Z" fill="#F9B233"/>
<path d="M592.553 468.172L592.085 523.433C592.085 563.24 565.859 603.047 513.876 633.488C408.504 694.837 237.1 694.837 131.26 633.488C77.872 603.047 51.1777 562.303 51.1777 522.028V466.767C51.1777 507.042 77.872 547.317 131.26 578.226C237.1 639.576 408.504 639.576 513.876 578.226C566.327 547.786 592.085 507.979 592.553 468.172Z" fill="#B88325"/>
<path d="M512.471 356.717C618.311 417.599 619.248 516.882 513.876 578.232C408.505 639.581 237.1 639.581 131.261 578.232C25.4209 516.882 24.4843 417.599 129.856 356.717C235.227 295.368 406.631 295.368 512.471 356.717Z" fill="#F9B233"/>
<path d="M322.801 595.562C255.363 595.562 192.609 580.576 145.309 553.413C103.16 529.061 79.7441 498.62 79.7441 466.775C79.7441 435.866 102.692 405.425 144.372 381.072C190.735 353.91 253.49 338.924 320.928 338.924C388.365 338.924 451.588 353.91 498.42 381.072C540.569 405.425 563.984 436.334 563.984 467.711C563.984 499.088 541.037 529.529 499.357 553.882C452.993 580.576 390.239 595.562 322.801 595.562Z" fill="#B88325"/>
<path d="M322.801 609.137C255.363 609.137 192.609 594.15 145.309 566.988C103.16 542.636 79.7441 511.727 79.7441 480.349C79.7441 448.972 102.692 418.531 144.372 394.179C190.735 367.016 253.49 352.03 320.928 352.03C388.365 352.03 451.588 367.016 498.42 394.179C540.569 419 563.984 449.44 563.984 480.818C563.984 512.195 541.037 542.636 499.357 566.988C452.993 594.15 390.239 609.137 322.801 609.137Z" fill="#FFCA38"/>
<path fill-rule="evenodd" clip-rule="evenodd" d="M459.547 549.66L431.917 533.737L415.994 543.103L443.625 544.508V559.026L416.931 574.481L389.3 558.558L367.757 571.203L164.039 453.655V439.137L185.581 441.01L157.482 424.619V410.101L184.177 409.165L212.744 425.556L228.199 416.189L200.099 399.798V385.28L226.793 384.344L256.766 401.672C287.206 388.559 313.901 390.432 340.126 405.886L347.151 410.101C368.225 421.809 373.845 433.985 364.011 447.567C390.705 439.605 414.121 444.288 435.663 456.465L452.054 466.299C466.416 474.417 473.597 483.159 473.597 492.525C473.597 500.643 468.289 508.916 457.674 517.346L486.241 519.688V534.205L459.547 549.66ZM376.655 532.332L414.12 510.321C426.765 503.296 428.638 496.272 413.652 487.374L395.856 477.071C377.124 466.299 364.011 467.236 346.683 477.071L313.901 496.272L376.655 532.332ZM285.333 479.412L315.774 461.616C329.823 453.186 333.102 445.225 317.179 435.859L305.471 429.302C290.953 420.873 278.777 420.873 265.195 428.366L231.477 448.503L285.333 479.412Z" fill="#B88325"/>
<path d="M473.597 478.01V492.528H462.826V478.01H473.597Z" fill="#B88325"/>
<path d="M368.691 421.812V435.861H357.92V421.812H368.691Z" fill="#B88325"/>
<path fill-rule="evenodd" clip-rule="evenodd" d="M459.547 535.145L431.917 519.222L415.994 528.589L443.625 544.512L416.931 559.966L389.3 544.043L367.757 556.688L164.039 439.14L185.581 426.495L157.482 410.104L184.177 394.65L212.744 411.041L228.199 401.675L200.099 385.284L226.793 369.829L256.766 387.157C287.206 374.512 313.901 376.386 340.126 391.372L347.151 395.587C368.225 407.763 373.845 419.471 364.011 433.52C390.705 425.559 414.121 429.774 435.663 441.95L452.054 451.785C466.416 460.214 473.597 468.956 473.597 478.01C473.597 486.128 468.289 494.558 457.674 503.3L486.241 519.691L459.547 535.145ZM376.655 517.817L414.12 496.275C426.765 488.782 428.638 481.757 413.652 473.327L395.856 463.024C377.124 451.785 364.011 452.721 346.683 463.024L313.901 481.757L376.655 517.817ZM285.333 464.898L315.774 447.102C329.823 439.14 333.102 430.71 317.179 421.344L305.471 414.788C290.953 406.358 278.777 406.358 265.195 414.319L231.477 433.989L285.333 464.898Z" fill="#F9B233"/>
<path d="M592.553 401.669L592.085 457.398C592.085 497.205 565.859 537.012 513.876 567.453C408.504 628.334 237.1 628.334 131.26 567.453C77.872 536.544 51.1777 496.269 51.1777 455.525V400.264C51.1777 440.539 77.872 481.283 131.26 511.723C237.1 573.073 408.504 573.073 513.876 511.723C566.327 481.283 592.085 441.476 592.553 401.669Z" fill="#B88325"/>
<path d="M512.471 290.209C618.311 351.559 619.248 450.842 513.876 511.724C408.505 573.073 237.1 573.073 131.261 511.724C25.4209 450.842 24.4843 351.559 129.856 290.209C235.227 228.86 406.631 228.86 512.471 290.209Z" fill="#F9B233"/>
<path d="M322.801 529.519C255.363 529.519 192.609 514.533 145.309 487.37C103.16 463.018 79.7441 432.109 79.7441 400.732C79.7441 369.354 102.692 338.914 144.372 314.561C190.735 287.867 253.49 272.881 320.928 272.881C388.365 272.881 451.588 287.867 498.42 315.029C540.569 339.382 563.984 369.823 563.984 401.668C563.984 432.577 541.037 463.018 499.357 487.37C452.993 514.533 390.239 529.519 322.801 529.519Z" fill="#B88325"/>
<path d="M322.801 542.636C255.363 542.636 192.609 527.65 145.309 500.487C103.16 476.135 79.7441 445.226 79.7441 413.849C79.7441 382.471 102.692 352.031 144.372 328.147C190.735 300.984 253.49 285.998 320.928 285.998C388.365 285.998 451.588 300.984 498.42 328.147C540.569 352.499 563.984 383.408 563.984 414.785C563.984 445.694 541.037 476.603 499.357 500.487C452.993 527.65 390.239 542.636 322.801 542.636Z" fill="#FFCA38"/>
<path fill-rule="evenodd" clip-rule="evenodd" d="M459.547 483.628L431.917 467.705L415.994 476.603L443.625 478.008V492.526L416.931 507.981L389.3 492.526L367.757 505.171L164.039 387.155V373.105L185.581 374.51L157.482 358.587V344.07L184.177 342.665L212.744 359.056L228.199 350.158L200.099 333.767V319.249L226.793 317.844L256.766 335.171C287.206 322.527 313.901 324.4 340.126 339.386L347.151 343.601C368.225 355.777 373.845 367.954 364.011 381.535C390.705 373.574 414.121 377.788 435.663 390.433L452.054 399.799C466.416 408.229 473.597 417.127 473.597 426.493C473.597 434.299 468.289 442.572 457.674 451.314L486.241 453.656V467.705L459.547 483.628ZM376.655 466.3L414.12 444.758C426.765 437.265 428.638 430.24 413.652 421.81L395.856 411.507C377.124 400.736 364.011 401.204 346.683 411.507L313.901 430.24L376.655 466.3ZM285.333 413.381L315.774 395.585C329.823 387.623 333.102 379.662 317.179 370.295L305.471 363.739C290.953 355.309 278.777 354.841 265.195 362.802L231.477 382.472L285.333 413.381Z" fill="#B88325"/>
<path d="M473.597 411.975V426.492H462.826V411.975H473.597Z" fill="#B88325"/>
<path d="M368.691 355.309V369.826H357.92V355.309H368.691Z" fill="#B88325"/>
<path fill-rule="evenodd" clip-rule="evenodd" d="M459.547 469.11L431.917 453.187L415.994 462.554L443.625 478.008L416.931 493.931L389.3 478.008L367.757 490.653L164.039 373.105L185.581 360.46L157.482 344.069L184.177 328.146L212.744 344.538L228.199 335.64L200.099 319.248L226.793 303.794L256.766 320.653C287.206 308.009 313.901 309.882 340.126 324.868L347.151 329.083C368.225 341.259 373.845 353.436 364.011 367.017C390.705 359.055 414.121 363.27 435.663 375.915L452.054 385.281C466.416 393.711 473.597 402.609 473.597 411.975C473.597 420.093 468.289 428.366 457.674 436.796L486.241 453.656L459.547 469.11ZM376.655 451.782L414.12 429.771C426.765 422.278 428.638 415.722 413.652 406.824L395.856 396.521C377.124 385.75 364.011 386.686 346.683 396.521L313.901 415.722L376.655 451.782ZM285.333 398.862L315.774 381.066C329.823 372.637 333.102 364.675 317.179 355.309L305.471 348.752C290.953 340.323 278.777 339.854 265.195 347.816L231.477 367.485L285.333 398.862Z" fill="#F9B233"/>
<path d="M610.818 335.636V390.897C610.818 430.704 584.593 470.511 532.141 500.952C426.77 562.302 255.365 562.302 149.526 500.952C96.1374 470.043 69.4434 429.768 69.4434 389.492L69.9116 333.763C69.9116 374.506 96.1374 414.782 149.526 445.691C255.834 506.572 426.77 506.572 532.141 445.691C584.593 415.25 610.818 375.443 610.818 335.636Z" fill="#B88325"/>
<path d="M531.204 224.176C637.044 285.058 637.512 384.341 532.14 445.691C426.769 506.572 255.833 506.572 149.525 445.691C43.6851 384.341 43.217 285.058 148.588 224.176C253.492 162.827 424.896 162.827 531.204 224.176Z" fill="#F9B233"/>
<path d="M341.069 463.021C273.631 463.021 210.876 448.035 164.045 420.872C121.428 396.52 98.0117 365.611 98.0117 334.233C98.0117 303.325 120.96 272.884 162.64 248.531C209.472 221.369 272.226 206.383 339.664 206.383C406.633 206.383 469.856 221.369 516.688 248.531C559.305 272.884 582.252 303.793 582.72 335.17C582.72 366.547 559.773 396.988 518.093 420.872C471.261 448.035 408.506 463.021 341.069 463.021Z" fill="#B88325"/>
<path d="M341.069 476.127C273.631 476.127 210.876 461.61 164.045 434.447C121.428 409.626 98.0117 379.186 98.0117 347.34C98.0117 316.431 120.96 285.99 162.64 261.638C209.472 234.475 272.226 219.489 339.664 219.489C406.633 219.489 469.856 234.475 516.688 261.638C559.305 285.99 582.252 316.899 582.72 348.277C582.72 379.654 559.773 410.095 518.093 434.447C471.261 461.61 408.506 476.127 341.069 476.127Z" fill="#FFCA38"/>
<path fill-rule="evenodd" clip-rule="evenodd" d="M478.283 417.124L450.652 401.201L434.73 410.567L462.36 411.972V426.49L435.198 441.945L408.035 426.022L386.024 438.666L182.306 321.119V306.601L204.317 308.474L175.75 292.083V277.565L202.444 276.628L231.011 293.02L246.934 283.653L218.367 267.262V252.744L245.529 251.808L275.033 268.667C305.942 256.022 332.168 257.896 358.394 272.882L365.887 277.097C386.493 289.273 392.581 301.449 382.278 315.031C409.44 307.069 432.388 311.752 453.93 323.929L470.79 333.763C485.152 341.881 492.333 350.623 492.333 359.989C492.333 368.106 486.869 376.38 475.941 384.81L504.977 387.151V401.669L478.283 417.124ZM394.923 399.796L432.388 377.785C445.501 370.292 447.374 363.736 431.92 354.838L414.123 344.534C395.391 333.763 382.278 334.7 364.95 344.534L332.636 363.736L394.923 399.796ZM303.132 346.876L333.573 329.08C348.091 320.65 351.369 312.689 334.978 303.323L323.738 296.766C309.22 288.336 296.576 287.868 283.463 295.829L249.276 315.499L303.132 346.876Z" fill="#B88325"/>
<path d="M492.333 345.474V359.991H481.094V345.474H492.333Z" fill="#B88325"/>
<path d="M386.961 288.808V303.325H376.189V288.808H386.961Z" fill="#B88325"/>
<path fill-rule="evenodd" clip-rule="evenodd" d="M478.283 402.609L450.652 386.686L434.73 396.053L462.36 411.975L435.198 427.43L408.035 411.507L386.024 424.152L182.306 306.604L204.317 293.959L175.75 277.568L202.444 262.114L231.011 278.505L246.934 269.139L218.367 252.747L245.529 237.293L275.033 254.621C305.942 241.976 332.168 243.849 358.394 258.836L365.887 263.05C386.493 274.758 392.581 286.935 382.278 300.984C409.44 293.023 432.388 297.238 453.93 309.414L470.79 319.249C485.152 327.366 492.333 336.108 492.333 345.474C492.333 353.592 486.869 362.022 475.941 370.763L504.977 387.155L478.283 402.609ZM394.923 385.281L432.388 363.739C445.501 356.246 447.374 349.221 431.92 340.323L414.123 330.488C395.391 319.249 382.278 320.185 364.95 330.02L332.636 349.221L394.923 385.281ZM303.132 332.361L333.573 314.565C348.091 306.136 351.369 298.174 334.978 288.808L323.738 282.251C309.22 273.822 296.576 273.822 283.463 281.315L249.276 301.452L303.132 332.361Z" fill="#F9B233"/>
<path d="M592.553 269.135L592.085 324.865C592.085 364.672 565.859 404.479 513.876 434.92C408.504 495.801 237.1 495.801 131.26 434.92C77.872 404.011 51.1777 363.736 51.1777 322.992V267.73C51.1777 308.006 77.872 348.281 131.26 379.19C237.1 440.54 408.504 440.54 513.876 379.19C566.327 348.749 592.085 308.942 592.553 269.135Z" fill="#B88325"/>
<path d="M512.471 157.676C618.311 219.026 619.248 318.309 513.876 379.191C408.505 440.54 237.1 440.54 131.261 379.191C25.4209 318.309 24.4843 219.026 129.856 157.676C235.227 96.3267 406.631 96.3267 512.471 157.676Z" fill="#F9B233"/>
<path d="M322.801 396.986C255.363 396.986 192.609 382 145.309 354.837C103.16 330.485 79.7441 299.576 79.7441 268.198C79.7441 236.821 102.692 206.38 144.372 182.028C190.735 154.865 253.49 140.348 320.928 140.348C388.365 140.348 451.588 154.865 498.42 182.028C540.569 206.849 563.984 237.289 563.984 268.667C563.984 300.044 541.037 330.485 499.357 354.837C452.993 382 390.239 396.986 322.801 396.986Z" fill="#B88325"/>
<path d="M322.801 410.103C255.363 410.103 192.609 395.117 145.309 367.954C103.16 343.602 79.7441 312.693 79.7441 281.316C79.7441 249.938 102.692 219.498 144.372 195.613C190.735 168.451 253.49 153.465 320.928 153.465C388.365 153.465 451.588 168.451 498.42 195.613C540.569 219.966 563.984 250.875 563.984 282.252C563.984 313.161 541.037 343.602 499.357 367.954C452.993 395.117 390.239 410.103 322.801 410.103Z" fill="#FFCA38"/>
<path fill-rule="evenodd" clip-rule="evenodd" d="M459.547 350.624L431.917 334.701L415.994 344.067L443.625 345.472V359.99L416.931 375.445L389.3 359.522L367.757 372.166L164.039 254.619V240.569L185.581 241.974L157.482 225.583V211.533L184.177 210.128L212.744 226.52L228.199 217.153L200.099 200.762V186.713L226.793 185.308L256.766 202.635C287.206 189.991 313.901 191.864 340.126 206.85L347.151 211.065C368.225 223.241 373.845 235.418 364.011 248.999C390.705 241.037 414.121 245.252 435.663 257.897L452.054 267.263C466.416 275.693 473.597 284.591 473.597 293.957C473.597 301.763 468.289 310.036 457.674 318.778L486.241 320.651V335.169L459.547 350.624ZM376.655 333.296L414.12 311.753C426.765 304.26 428.638 297.236 413.652 288.806L395.856 278.503C377.124 267.263 364.011 268.2 346.683 278.503L313.901 297.236L376.655 333.296ZM285.333 280.376L315.774 262.58C329.823 254.619 333.102 246.657 317.179 236.823L305.471 230.266C290.953 222.305 278.777 221.836 265.195 229.798L231.477 249.467L285.333 280.376Z" fill="#B88325"/>
<path d="M473.597 279.438V293.955H462.826V279.438H473.597Z" fill="#B88325"/>
<path d="M368.691 222.774V237.292H357.92V222.774H368.691Z" fill="#B88325"/>
<path fill-rule="evenodd" clip-rule="evenodd" d="M459.547 336.576L431.917 320.654L415.994 329.552L443.625 345.474L416.931 361.397L389.3 345.474L367.757 358.119L164.039 240.571L185.581 227.927L157.482 211.536L184.177 195.613L212.744 212.004L228.199 203.106L200.099 186.715L226.793 170.792L256.766 188.12C287.206 175.475 313.901 177.348 340.126 192.335L347.151 196.549C368.225 208.726 373.845 220.902 364.011 234.483C390.705 226.522 414.121 230.737 435.663 243.381L452.054 252.748C466.416 261.177 473.597 270.075 473.597 279.442C473.597 287.559 468.289 295.833 457.674 304.263L486.241 320.654L459.547 336.576ZM376.655 319.717L414.12 297.706C426.765 290.213 428.638 283.657 413.652 274.758L395.856 264.456C377.124 253.684 364.011 254.153 346.683 264.456L313.901 283.188L376.655 319.717ZM285.333 267.265L315.774 249.001C329.823 241.04 333.102 233.078 317.179 223.712L305.471 217.155C290.953 208.726 278.777 208.257 265.195 216.219L231.477 235.888L285.333 267.265Z" fill="#F9B233"/>
<path d="M139.215 163.772C139.215 163.772 139.215 115.067 142.493 98.2076C145.771 81.3482 158.416 71.5135 169.187 71.9818C180.427 72.4501 183.705 101.018 182.768 111.789L178.553 173.138C178.085 180.163 172.934 190.466 163.099 200.769C163.099 200.769 151.859 212.945 142.025 223.248L126.57 186.72L139.215 163.772Z" fill="#E93A4C"/>
<path d="M41.3372 515.946C49.2986 515.946 72.2463 506.58 85.3592 498.15C90.5107 494.872 94.2571 492.062 95.1938 489.72C94.7255 480.354 93.7888 471.924 90.5106 466.773C69.9046 448.976 55.3867 461.153 55.855 468.646C55.855 468.646 49.2987 479.417 28.2244 493.935C22.1363 498.618 21.6679 515.946 41.3372 515.946Z" fill="black"/>
<path d="M154.198 524.382C153.261 525.787 151.388 527.66 148.578 530.002C147.329 530.939 146.08 531.875 144.831 532.812C131.25 540.773 108.303 550.608 100.341 550.14C80.6718 550.14 81.1402 532.812 87.2283 528.597C100.81 519.231 108.303 511.738 111.581 507.054C113.922 504.713 114.859 503.308 114.859 503.308L113.922 491.132L112.986 481.297H147.641L148.11 485.98L149.515 501.434C150.451 502.683 151.232 504.244 151.856 506.118C153.261 511.269 153.729 517.357 154.198 524.382Z" fill="black"/>
<path d="M243.179 276.642C242.711 284.135 187.918 313.639 181.83 317.854C181.83 318.322 168.717 317.854 168.249 317.854L84.8882 345.016C86.7614 363.281 93.3178 438.211 93.3178 472.399C93.7862 486.917 56.7893 488.321 52.5744 473.804C52.5744 473.804 52.4181 473.647 52.1059 473.335C50.701 468.184 25.4119 346.421 27.2852 337.055C23.5386 293.501 102.216 286.945 164.502 253.694L243.179 276.642Z" fill="#4D7A91"/>
<path d="M258.168 283.195C262.852 287.878 263.788 327.217 235.221 338.456L143.899 375.453C145.772 400.742 156.075 439.144 151.86 504.241V504.709C151.86 519.227 113.927 519.227 111.117 504.709C110.805 504.709 110.648 504.709 110.648 504.709C109.243 499.557 83.9543 378.731 85.8276 369.365C85.3593 353.911 94.2574 340.798 108.775 329.558C115.332 323.938 159.822 305.206 161.227 304.737C151.86 289.283 155.139 269.145 158.885 256.501C169.188 251.349 164.973 252.286 174.34 247.603L258.168 283.195Z" fill="#5B90AB"/>
<path d="M257.227 270.082C257.696 270.55 258.164 279.917 258.164 283.663C228.192 307.547 161.691 285.068 154.666 264.462C154.198 260.247 153.261 256.032 153.729 249.944C174.803 275.233 234.748 285.068 257.227 270.082Z" fill="black"/>
<path d="M175.274 279.446C178.553 282.256 183.236 283.661 188.387 285.066L187.919 277.104C182.767 275.231 178.553 273.826 174.338 271.484L175.274 279.446Z" fill="#575756"/>
<path d="M153.731 254.156C171.527 275.699 231.004 293.495 257.698 271.484C263.317 266.801 260.976 261.181 261.912 248.537C262.537 234.799 263.005 222.311 263.318 211.071C264.254 166.113 263.317 138.014 261.912 123.027C261.6 120.218 261.288 117.876 260.976 116.003C248.8 103.358 228.194 90.7136 210.866 81.3472C187.918 72.9175 186.045 73.3858 174.805 70.1076C129.379 56.9947 147.643 246.663 153.731 254.156Z" fill="#3C3C3B"/>
<path d="M225.384 88.8406C230.535 98.6752 206.651 116.94 194.943 117.408C191.665 113.193 191.197 106.168 187.919 101.017C184.172 103.827 179.957 105.7 175.274 109.447C168.717 75.2593 207.12 64.488 216.954 78.0692C218.828 80.8791 223.979 86.0307 225.384 88.8406Z" fill="#E93A4C"/>
<path d="M133.594 323.468L129.848 330.024L150.453 341.732L154.2 335.176L133.594 323.468Z" fill="#333332"/>
<path d="M228.196 292.561L148.582 338.456C148.582 341.734 151.392 343.139 154.202 341.266L222.576 302.395C225.386 300.522 228.196 296.307 228.196 292.561Z" fill="#333332"/>
<path d="M47.4258 279.447L126.572 234.021L228.197 292.56L148.583 338.455L47.4258 279.447Z" fill="#575756"/>
<path d="M158.886 319.728L154.203 322.069L159.823 325.347L164.506 323.006L158.886 319.728Z" fill="#DADADA"/>
<path d="M141.09 314.579L146.242 317.858L150.925 315.048L145.305 311.77L141.09 314.579Z" fill="#DADADA"/>
<path d="M138.748 308.02L134.064 310.829L139.684 314.108L144.367 311.298L138.748 308.02Z" fill="#DADADA"/>
<path d="M132.191 304.269L127.508 307.078L133.127 309.888L137.811 307.547L132.191 304.269Z" fill="#DADADA"/>
<path d="M125.168 300.529L120.953 302.871L126.573 306.149L130.788 303.808L125.168 300.529Z" fill="#DADADA"/>
<path d="M107.369 295.37L112.989 298.649L117.672 295.839L112.052 292.561L107.369 295.37Z" fill="#DADADA"/>
<path d="M105.496 288.82L100.812 291.63L106.432 294.44L111.116 292.099L105.496 288.82Z" fill="#DADADA"/>
<path d="M98.4728 285.07L94.2578 287.412L99.8777 290.69L104.093 288.349L98.4728 285.07Z" fill="#DADADA"/>
<path d="M116.739 265.399L121.422 262.589L115.803 259.779L111.588 262.121L116.739 265.399Z" fill="#DADADA"/>
<path d="M110.182 261.659L114.866 258.849L109.246 255.571L104.562 258.381L110.182 261.659Z" fill="#DADADA"/>
<path d="M108.309 255.1L102.689 251.821L98.0059 254.631L103.626 257.909L108.309 255.1Z" fill="#DADADA"/>
<path d="M187.921 308.022L192.604 305.681L186.984 302.402L182.301 304.744L187.921 308.022Z" fill="#DADADA"/>
<path d="M181.364 304.272L186.047 301.462L180.427 298.652L175.744 300.994L181.364 304.272Z" fill="#DADADA"/>
<path d="M142.494 281.799L152.329 287.419L154.671 288.824L155.607 289.292L158.417 291.166L162.632 293.507L167.783 296.785L174.808 300.532L179.023 297.722L160.759 287.419L160.29 286.951L146.709 278.989L142.494 281.799Z" fill="#DADADA"/>
<path d="M141.085 281.323L145.768 278.514L140.148 275.235L135.934 278.045L141.085 281.323Z" fill="#DADADA"/>
<path d="M134.528 277.108L139.211 274.766L133.591 271.488L128.908 274.298L134.528 277.108Z" fill="#DADADA"/>
<path d="M132.659 271.023L127.039 267.745L122.355 270.087L127.975 273.365L132.659 271.023Z" fill="#DADADA"/>
<path d="M115.802 265.871L110.182 263.062L105.967 265.403L111.587 268.681L115.802 265.871Z" fill="#DADADA"/>
<path d="M109.244 262.125L103.625 258.847L98.9414 261.657L104.561 264.935L109.244 262.125Z" fill="#DADADA"/>
<path d="M102.684 258.375L97.064 255.097L92.3809 257.907L98.0004 261.185L102.684 258.375Z" fill="#DADADA"/>
<path d="M186.982 308.956L181.363 305.678L176.68 308.019L182.299 311.298L186.982 308.956Z" fill="#DADADA"/>
<path d="M170.127 304.269L175.747 307.548L180.43 304.738L174.81 301.928L170.127 304.269Z" fill="#DADADA"/>
<path d="M163.566 300.529L169.186 303.807L173.401 300.997L167.781 297.719L163.566 300.529Z" fill="#DADADA"/>
<path d="M157.01 296.779L162.161 299.589L166.844 297.247L161.224 293.969L157.01 296.779Z" fill="#DADADA"/>
<path d="M149.984 292.56L155.604 295.839L160.287 293.497L154.668 290.219L149.984 292.56Z" fill="#DADADA"/>
<path d="M143.432 288.82L149.052 292.098L153.735 289.288L148.115 286.479L143.432 288.82Z" fill="#DADADA"/>
<path d="M136.875 285.071L142.495 288.349L146.71 285.539L141.09 282.261L136.875 285.071Z" fill="#DADADA"/>
<path d="M130.316 281.324L135.468 284.602L140.151 281.792L134.531 278.514L130.316 281.324Z" fill="#DADADA"/>
<path d="M123.295 277.112L128.915 280.39L133.598 278.049L127.978 274.771L123.295 277.112Z" fill="#DADADA"/>
<path d="M110.179 269.15L104.559 265.872L100.344 268.682L105.964 271.96L110.179 269.15Z" fill="#DADADA"/>
<path d="M93.3223 264.931L98.9421 268.209L103.625 265.399L98.0054 262.121L93.3223 264.931Z" fill="#DADADA"/>
<path d="M97.0648 261.66L91.4449 258.382L86.7617 261.192L92.3816 264.002L97.0648 261.66Z" fill="#DADADA"/>
<path d="M181.364 312.23L175.744 308.952L171.061 311.294L176.68 314.572L181.364 312.23Z" fill="#DADADA"/>
<path d="M164.506 307.554L170.126 310.832L174.809 308.022L169.189 304.744L164.506 307.554Z" fill="#DADADA"/>
<path d="M167.78 304.272L162.16 300.994L157.945 303.804L163.565 307.082L167.78 304.272Z" fill="#DADADA"/>
<path d="M161.227 300.522L155.608 297.244L151.393 300.054L157.012 302.864L161.227 300.522Z" fill="#DADADA"/>
<path d="M154.67 296.782L149.05 293.504L144.367 295.845L149.987 299.124L154.67 296.782Z" fill="#DADADA"/>
<path d="M148.114 292.563L142.494 289.285L137.811 292.095L143.43 295.373L148.114 292.563Z" fill="#DADADA"/>
<path d="M131.25 288.345L136.87 291.623L141.085 288.813L135.465 285.535L131.25 288.345Z" fill="#DADADA"/>
<path d="M134.532 285.073L128.912 281.795L124.697 284.605L129.849 287.415L134.532 285.073Z" fill="#DADADA"/>
<path d="M116.735 279.918L123.291 283.664L127.975 281.323L121.418 277.108L127.038 274.298L121.418 271.02L115.798 274.298L113.925 275.234L111.115 276.639L114.862 278.981L116.735 279.918Z" fill="#DADADA"/>
<path d="M100.342 275.235L104.557 272.425L98.9373 269.146L94.7227 271.956L100.342 275.235Z" fill="#DADADA"/>
<path d="M92.3804 265.403L87.6973 268.213L93.3168 271.491L98 268.682L92.3804 265.403Z" fill="#DADADA"/>
<path d="M91.4476 264.932L85.8277 261.653L81.1445 263.995L86.7644 267.273L91.4476 264.932Z" fill="#DADADA"/>
<path d="M175.746 315.044L170.127 312.234L165.443 314.576L171.063 317.854L175.746 315.044Z" fill="#DADADA"/>
<path d="M164.503 314.108L169.186 311.298L163.566 308.02L158.883 310.829L164.503 314.108Z" fill="#DADADA"/>
<path d="M162.161 307.547L157.009 304.269L152.326 307.078L157.946 310.357L162.161 307.547Z" fill="#DADADA"/>
<path d="M149.988 300.529L145.773 302.871L151.393 306.149L155.608 303.808L149.988 300.529Z" fill="#DADADA"/>
<path d="M149.051 300.058L143.431 296.779L138.748 299.121L144.368 302.399L149.051 300.058Z" fill="#DADADA"/>
<path d="M142.494 295.839L136.875 292.561L132.191 295.37L137.811 298.649L142.494 295.839Z" fill="#DADADA"/>
<path d="M131.257 294.908L135.471 292.099L129.852 288.82L125.637 291.63L131.257 294.908Z" fill="#DADADA"/>
<path d="M128.911 288.349L123.291 285.07L119.076 287.88L124.696 290.69L128.911 288.349Z" fill="#DADADA"/>
<path d="M115.797 280.391L113.456 279.454L110.177 277.112L105.494 279.922L109.241 281.795L111.114 283.2L117.67 286.947L122.353 284.605L115.797 280.391Z" fill="#DADADA"/>
<path d="M83.4863 278.513L89.1062 281.791L93.3209 278.981L87.7013 275.703L83.4863 278.513Z" fill="#DADADA"/>
<path d="M81.1441 271.964L76.4609 274.774L82.0808 277.584L86.764 275.242L81.1441 271.964Z" fill="#DADADA"/>
<path d="M74.5875 268.213L69.9043 270.554L75.5242 273.833L80.2073 271.491L74.5875 268.213Z" fill="#DADADA"/>
<path d="M179.962 271.485L166.381 279.446C165.913 279.915 164.976 279.915 164.04 279.446L143.902 267.739C143.434 267.27 143.434 266.802 143.902 266.334L157.483 258.84C157.951 258.372 158.888 258.372 159.356 258.84L179.962 270.548C180.431 270.548 180.431 271.485 179.962 271.485Z" fill="#878787"/>
<path d="M191.669 256.032C194.948 247.602 243.185 204.517 249.273 200.77C231.008 170.329 222.579 139.889 222.579 133.801C222.579 110.385 255.829 100.55 264.727 122.561C289.548 176.886 298.446 203.58 298.446 209.668C298.446 215.756 296.104 221.844 291.889 225.591C287.206 229.806 281.118 236.831 216.959 276.638C197.758 286.941 187.923 264.461 191.669 256.032Z" fill="#E93A4C"/>
<path d="M142.96 294.432C143.897 295.837 146.707 295.837 148.112 293.964L154.2 286.002L165.439 276.168L166.376 275.699L159.819 271.484L149.985 279.446L142.023 292.559C142.023 293.495 142.336 294.12 142.96 294.432Z" fill="#FFBB7D"/>
<path opacity="0.1" d="M142.961 294.432C143.898 295.837 146.707 295.837 148.112 293.964L154.2 286.002L165.44 276.168L164.972 275.699L153.732 281.787C150.454 287.875 147.176 294.432 142.961 294.432Z" fill="#1D1D1B"/>
<path d="M147.644 299.587C149.049 300.524 151.39 300.524 152.795 298.65L158.883 290.689L171.06 280.854L165.44 275.234L154.668 284.132L146.707 297.714C146.707 298.338 147.019 298.962 147.644 299.587Z" fill="#FFBB7D"/>
<path d="M151.861 265.396C152.329 266.801 153.266 268.206 155.139 268.674C159.822 270.547 164.506 271.016 169.189 271.484L171.999 271.952L180.428 273.826L183.238 265.396L183.707 263.523L184.643 261.649L176.213 262.586C167.784 263.523 161.227 263.523 154.202 261.649C151.861 261.649 150.924 263.523 151.861 265.396Z" fill="#FFBB7D"/>
<path opacity="0.1" d="M151.855 265.399C152.324 266.804 153.26 268.209 155.134 268.677C159.817 270.55 164.5 271.018 169.183 271.487L171.993 271.955L183.233 265.399L186.043 263.525C185.418 263.525 184.638 263.525 183.701 263.525C171.525 263.994 160.754 269.145 151.855 265.399Z" fill="#1D1D1B"/>
<path d="M159.816 271.486L174.803 285.067L179.018 289.282L179.954 290.687C189.32 290.687 195.409 284.599 199.155 277.574L208.053 271.486C208.521 269.145 207.585 266.803 206.18 264.461C202.902 259.31 196.814 255.095 193.067 256.5C188.852 260.715 183.232 262.588 176.676 263.525C169.651 265.866 163.095 268.208 159.816 271.486Z" fill="#FFBB7D"/>
<path opacity="0.1" d="M147.645 299.587C149.049 300.524 151.391 300.524 152.796 298.651L158.884 290.689L171.06 280.855L170.124 279.918L158.884 287.879C155.606 293.968 151.859 299.587 147.645 299.587Z" fill="#1D1D1B"/>
<path d="M154.197 303.327C154.197 304.264 154.51 304.888 155.134 305.2C156.539 306.137 159.349 306.137 160.286 303.795L165.437 295.366L175.272 285.063L176.208 284.126L170.588 278.975L160.754 289.278L154.197 303.327Z" fill="#FFBB7D"/>
<path opacity="0.1" d="M155.133 305.208C156.538 306.144 159.348 306.144 160.284 303.803L165.436 295.373L175.27 285.07V284.602L164.968 293.031C161.689 299.119 159.348 305.208 155.133 305.208Z" fill="#1D1D1B"/>
<path d="M163.564 303.796C163.564 304.732 163.721 305.357 164.033 305.669H164.501C165.438 306.606 167.779 306.606 169.184 304.732L174.336 296.771L179.956 290.683L183.234 287.405L183.702 286.468L177.614 281.316L174.804 285.063L170.121 291.151L163.564 303.796Z" fill="#FFBB7D"/>
<path opacity="0.1" d="M164.5 305.671C165.437 306.608 167.778 306.608 169.183 304.734L174.335 296.773L179.954 290.685C189.321 290.685 195.409 284.597 199.156 277.572L208.053 271.484C208.522 269.142 207.585 266.801 206.18 264.459C206.18 270.079 202.902 273.357 198.687 274.762C194.004 281.318 188.853 286.47 183.233 287.407C182.296 287.407 181.516 287.407 180.891 287.407L179.018 289.28L173.398 295.836C170.12 301.924 168.715 305.671 164.5 305.671Z" fill="#1D1D1B"/>
<path d="M108.31 222.313L126.575 186.721C136.41 191.404 140.624 205.453 142.029 223.249C135.005 230.743 135.473 230.274 132.195 234.021C118.614 248.07 104.096 228.869 108.31 222.313Z" fill="#E93A4C"/>
<path d="M124.699 232.151C124.699 233.088 124.386 234.025 123.762 234.961L119.547 239.644L118.611 240.581L108.776 251.352L88.1699 237.771L104.093 228.405L111.118 222.785C114.396 220.912 125.167 226.063 124.699 232.151Z" fill="#FFBB7D"/>
<path d="M95.663 240.113V240.582L82.5502 249.948L81.1453 259.314C80.833 260.563 80.3648 261.5 79.7404 262.124C79.1159 262.437 78.4914 262.749 77.867 263.061C76.9303 263.061 76.4622 263.061 75.9939 261.656C75.6817 261.656 75.5254 261.344 75.5254 260.719C75.5254 260.719 75.5254 260.563 75.5254 260.251L77.3988 247.138C77.3988 247.138 87.7016 238.24 88.6382 237.772C89.1065 237.303 92.8533 239.177 94.7266 239.645C95.351 239.957 95.663 240.113 95.663 240.113Z" fill="#FFBB7D"/>
<path opacity="0.1" d="M91.9165 241.045L82.082 249.006L80.6771 258.841C80.2087 259.778 80.2087 260.714 79.7404 262.119C79.1159 262.431 78.4914 262.744 77.867 263.056C76.9303 263.056 76.4622 263.056 75.9939 261.651C75.6817 261.651 75.5254 261.339 75.5254 260.714C77.3987 258.841 78.8036 253.689 79.2719 249.006L91.9165 241.045Z" fill="#1D1D1B"/>
<path d="M100.347 242.925L96.1322 246.672L85.8291 255.102L82.5508 264.468C81.6142 266.341 80.2094 267.278 78.3362 267.746C77.7117 267.746 77.2432 267.434 76.931 266.809C76.3066 266.497 76.1506 265.717 76.4628 264.468L80.6777 250.418C80.6777 250.418 93.3222 239.647 94.2588 239.179C95.6637 239.179 100.347 242.925 100.347 242.925Z" fill="#FFBB7D"/>
<path opacity="0.1" d="M98.4725 243.387L96.1309 246.665L85.8278 255.095L82.5496 264.461C81.6129 266.334 80.2081 267.271 78.3349 267.739C77.7104 267.739 77.2419 267.427 76.9297 266.803C79.2713 266.334 83.4861 259.31 83.9545 253.69L98.4725 243.387Z" fill="#1D1D1B"/>
<path d="M106.431 245.731L98.938 251.819L89.5716 260.249L84.4202 269.147C83.4836 271.021 82.0786 271.957 79.737 271.957C79.737 271.645 79.5808 271.489 79.2686 271.489C79.2686 271.489 79.1126 271.333 78.8003 271.02C78.1759 270.396 78.1759 269.303 78.8003 267.742L85.3569 255.098C85.3569 255.098 98.4697 242.453 99.8746 242.453C100.811 242.453 106.431 245.731 106.431 245.731Z" fill="#FFBB7D"/>
<path opacity="0.1" d="M103.157 246.672L98.9423 251.823L89.5759 260.253L84.4246 269.151C83.4879 271.024 82.083 271.961 79.7414 271.961C79.7414 271.649 79.5851 271.493 79.2729 271.493L78.8047 271.024C81.1463 271.961 87.7026 264.468 88.6392 258.38L103.157 246.672Z" fill="#1D1D1B"/>
<path d="M111.119 249.946L98.0062 262.123L93.7915 271.489C92.8549 273.362 91.4498 274.767 89.5766 274.767C88.9521 274.455 88.4839 274.143 88.1717 273.831C87.8594 273.206 87.8594 272.27 88.1717 271.021L93.323 257.908C93.323 257.908 104.094 245.263 105.031 244.795C105.968 244.795 108.309 247.137 109.714 248.541C110.182 249.478 111.119 249.946 111.119 249.946Z" fill="#FFBB7D"/>
<path opacity="0.1" d="M111.118 249.951L98.0045 262.127L93.7898 271.493C92.8532 273.367 91.4481 274.772 89.5748 274.772C88.9504 274.459 88.4821 274.147 88.1699 273.835C90.9798 273.835 96.1313 266.81 96.5996 261.19L109.712 248.546C110.181 249.483 111.118 249.951 111.118 249.951Z" fill="#1D1D1B"/>
<path d="M119.55 237.302C119.55 237.926 119.55 238.707 119.55 239.643C119.55 243.39 120.018 247.605 119.081 250.883C117.676 253.693 115.803 256.034 113.93 258.844C112.369 261.342 111.12 264.152 110.184 267.274C109.715 268.211 109.247 269.616 108.31 270.084C107.686 270.396 107.061 270.552 106.437 270.552C105.969 270.084 105.032 269.616 104.564 269.147C103.627 267.742 103.627 266.337 103.627 264.933C104.564 260.249 107.842 256.034 108.779 251.351C108.779 251.039 108.779 250.727 108.779 250.415C108.779 248.541 108.779 247.136 108.779 245.731C109.247 243.39 111.12 241.517 112.993 240.112C114.554 239.175 116.272 238.394 118.145 237.77C118.457 237.458 118.925 237.302 119.55 237.302Z" fill="#FFBB7D"/>
<path opacity="0.1" d="M124.698 232.153C124.698 233.09 124.386 234.027 123.761 234.963L119.546 239.646C119.546 243.393 120.015 247.608 119.078 250.886C117.673 253.696 115.8 256.038 113.927 258.847C112.366 261.345 111.117 264.155 110.18 267.277C109.712 268.214 109.243 269.619 108.307 270.087C107.682 270.399 107.058 270.555 106.434 270.555C107.058 269.931 107.526 269.15 107.838 268.214C108.775 266.34 109.243 264.467 110.18 262.594C111.585 259.316 113.927 256.974 115.331 254.164C117.673 249.949 119.078 245.266 118.61 240.583C118.298 239.646 118.142 238.71 118.142 237.773C117.829 236.836 117.517 236.056 117.205 235.432C118.141 235.9 120.951 235.432 120.951 235.432C122.2 234.495 123.449 233.402 124.698 232.153Z" fill="#1D1D1B"/>
<path d="M46.9586 280.386L25.4158 200.772C22.1376 203.582 20.7328 207.797 21.2011 211.075L40.402 279.918C41.3386 283.196 44.1487 283.196 46.9586 280.855V280.386Z" fill="#4A4A49"/>
<path d="M126.575 259.312L143.434 340.799L41.8091 282.26L25.418 200.772L126.575 259.312Z" fill="#4A4A49"/>
<path d="M148.585 339.395L127.042 259.312H126.574C123.764 262.122 121.891 266.337 122.828 269.616L142.029 338.927C142.497 341.736 145.775 341.736 148.585 339.395Z" fill="#333332"/>
<path d="M83.9551 274.302C84.4234 277.58 82.5502 278.985 79.2719 277.112C75.9937 275.707 73.1838 271.492 72.2472 267.746C71.7789 264.467 74.1206 263.062 77.3988 264.936C80.2087 266.341 83.4868 270.556 83.9551 274.302Z" fill="#DADADA"/>
<path d="M167.315 46.6947C159.353 42.4798 149.05 34.5184 148.582 24.2154C147.645 11.5708 159.821 4.07774 175.744 0.79952C199.16 -3.88366 213.21 12.5074 211.805 36.86C211.805 45.758 212.741 57.466 209.463 58.4026C203.843 60.2759 206.653 57.466 202.438 59.3392L167.315 46.6947Z" fill="#1D1D1B"/>
<path d="M179.494 97.2711C179.494 97.2711 179.494 97.115 179.494 96.8028L176.216 85.5631L175.279 81.8166L207.125 51.376L213.681 73.8552C222.111 95.3978 185.582 108.042 179.494 97.2711Z" fill="#FFBB7D"/>
<path opacity="0.1" d="M179.493 97.2683C179.493 97.2683 179.493 97.1122 179.493 96.8L176.215 85.5604L200.099 66.3594C204.314 80.4089 194.948 97.7367 179.493 97.2683Z" fill="#1D1D1B"/>
<path d="M147.178 31.242C147.178 16.7241 160.759 8.29443 176.682 5.48453C197.756 1.26967 206.186 15.3192 209.464 31.7103C210.401 39.2034 209.932 48.5698 208.996 56.5312L200.098 66.3658C200.098 66.3658 198.693 75.2638 194.009 80.8837C189.326 86.5035 183.238 91.1867 176.682 91.1867C169.189 91.655 163.569 88.3767 159.822 77.6054C156.076 67.3025 154.671 66.8341 153.266 62.1509C152.329 59.341 152.329 56.0628 151.861 54.6579C151.393 52.7846 149.988 50.9113 149.051 48.5697C147.646 44.8232 147.178 35.4569 147.178 31.242Z" fill="#FFBB7D"/>
<path d="M187.921 18.5996C192.135 15.7897 192.604 42.4838 192.604 42.4838C192.604 42.4838 199.16 40.6105 200.565 41.5471C204.312 43.4204 201.502 54.66 204.312 58.4066C205.248 59.8115 207.59 59.3432 209.463 58.4066C209.932 51.3818 211.337 42.9521 210.868 35.459C210.4 28.4342 208.527 20.9412 204.312 14.853C200.565 8.76489 194.477 4.08172 186.984 3.14508C180.427 1.74013 173.403 3.61339 167.315 5.95498C151.86 12.0431 148.582 18.1312 148.582 24.2194C150.924 30.7758 168.251 32.6491 187.921 18.5996Z" fill="#1D1D1B"/>
<path d="M199.63 34.5212C204.313 31.7113 205.718 38.736 205.718 41.5459C205.718 43.4192 205.25 45.7608 205.718 47.6341C205.718 49.5073 206.655 51.8489 205.25 53.7222C202.908 57.9371 198.225 52.7856 197.289 50.444C195.884 46.6974 195.415 36.8628 199.63 34.5212Z" fill="#FFBB7D"/>
<path fill-rule="evenodd" clip-rule="evenodd" d="M146.24 48.5632C146.709 44.3483 151.86 47.6265 157.48 48.5632C158.416 49.0315 159.353 49.4998 159.821 50.4364C161.226 49.9681 162.631 49.9681 164.036 50.4364C164.505 49.4998 166.378 49.0315 167.315 49.0315C173.871 48.5632 181.364 45.7533 183.237 49.4998C187.452 59.3345 166.846 67.7642 164.036 52.3097C164.036 51.9975 164.036 51.8414 164.036 51.8414C162.631 51.3731 161.695 51.3731 160.758 51.8414C162.631 59.8028 156.543 61.6761 151.86 58.8662C148.582 56.9929 146.709 53.7147 146.24 48.5632ZM169.188 58.8662C171.061 59.8028 173.402 60.2711 176.212 59.3345C179.022 58.8662 180.896 56.9929 182.3 55.1196C182.925 53.5586 182.925 51.8414 182.3 49.9681C181.364 48.0949 178.554 48.5632 173.403 49.0315C171.529 49.3437 169.5 49.6559 167.315 49.9681C164.973 49.9681 164.973 50.9048 164.973 51.8414C165.441 55.1196 166.846 57.4612 169.188 58.8662ZM151.86 57.4612C153.733 58.8662 155.606 59.3345 157.48 58.8662C160.29 57.9295 160.29 54.183 159.353 51.3731C158.885 50.4365 157.948 49.4998 157.011 49.4998C155.763 49.1876 154.358 48.8754 152.797 48.5632C150.455 48.0948 149.518 47.1582 148.113 47.6265C147.645 47.6265 147.177 48.0948 147.645 48.5632C148.113 52.3097 148.582 55.5879 151.86 57.4612Z" fill="#1D1D1B"/>
<path d="M182.769 50.4422L194.945 41.0758L195.413 39.6709L181.832 48.5689L182.769 50.4422Z" fill="#1D1D1B"/>
</svg>
