<svg width="1737" height="1308" viewBox="0 0 1737 1308" fill="none" xmlns="http://www.w3.org/2000/svg">
<path d="M773.177 1203L84.1408 795.127L56 698.744L622.955 319L1737 968.039L1413.79 1180.25L773.177 1203Z" fill="black" fill-opacity="0.05"/>
<path d="M504.955 89.3975L1113.83 441.057L809.232 617.048L200.033 265.388L504.955 89.3975Z" fill="#F0F0F0"/>
<path d="M1113.83 433.966L504.955 82.3066V89.3978L1113.83 441.057V433.966Z" fill="#BBBBBB"/>
<path d="M200.033 258.296L504.955 82.3057V89.3969L200.033 265.388V258.296Z" fill="white"/>
<path d="M214.537 273.766L519.137 97.775L526.55 94.874L221.951 270.543L214.537 273.766Z" fill="white"/>
<path d="M235.49 278.602L540.09 102.611L547.503 114.215L242.904 289.884L235.49 278.602Z" fill="white"/>
<path d="M253.863 296.329L558.785 120.338L566.199 117.438L261.277 293.428L253.863 296.329Z" fill="white"/>
<path d="M274.814 301.165L579.736 125.496L587.15 136.778L282.228 312.768L274.814 301.165Z" fill="white"/>
<path d="M293.186 319.216L598.107 143.225L605.521 140.324L300.599 316.315L293.186 319.216Z" fill="white"/>
<path d="M314.137 324.048L619.059 148.058L626.472 159.661L321.55 335.652L314.137 324.048Z" fill="white"/>
<path d="M332.832 341.777L637.432 166.109L644.845 163.208L340.246 338.877L332.832 341.777Z" fill="white"/>
<path d="M353.783 346.936L658.383 170.945L665.796 182.549L361.197 358.218L353.783 346.936Z" fill="white"/>
<path d="M372.156 364.663L677.078 188.672L684.492 185.771L379.57 361.762L372.156 364.663Z" fill="white"/>
<path d="M393.107 369.499L698.029 193.508L705.443 205.112L400.521 381.102L393.107 369.499Z" fill="white"/>
<path d="M411.48 387.55L716.402 211.559L723.816 208.658L418.894 384.649L411.48 387.55Z" fill="white"/>
<path d="M432.432 392.383L737.353 216.393L744.767 227.996L439.845 403.987L432.432 392.383Z" fill="white"/>
<path d="M451.127 410.111L755.726 234.443L763.14 231.542L458.54 407.21L451.127 410.111Z" fill="white"/>
<path d="M472.078 415.27L776.678 239.279L784.091 250.561L479.492 426.552L472.078 415.27Z" fill="white"/>
<path d="M490.451 432.997L795.373 257.006L802.787 254.105L497.865 430.096L490.451 432.997Z" fill="white"/>
<path d="M511.402 437.834L816.324 261.843L823.738 273.447L518.816 449.437L511.402 437.834Z" fill="white"/>
<path d="M529.775 455.881L834.697 279.89L842.111 276.989L537.189 452.98L529.775 455.881Z" fill="white"/>
<path d="M550.727 460.717L855.648 284.727L863.062 296.33L558.14 472.321L550.727 460.717Z" fill="white"/>
<path d="M569.422 478.445L874.021 302.776L881.435 299.553L576.835 475.544L569.422 478.445Z" fill="white"/>
<path d="M590.371 483.279L894.971 307.61L902.707 318.892L597.785 494.883L590.371 483.279Z" fill="white"/>
<path d="M608.744 501.331L913.666 325.34L921.079 322.439L616.158 498.43L608.744 501.331Z" fill="white"/>
<path d="M629.695 506.164L934.617 330.173L942.031 341.777L637.109 517.767L629.695 506.164Z" fill="white"/>
<path d="M648.068 524.215L952.99 348.224L960.404 345.323L655.482 521.314L648.068 524.215Z" fill="white"/>
<path d="M669.02 529.051L973.941 353.061L981.355 364.664L676.755 540.333L669.02 529.051Z" fill="white"/>
<path d="M687.715 546.778L992.314 370.788L1000.05 367.887L695.128 543.878L687.715 546.778Z" fill="white"/>
<path d="M708.666 551.613L1013.27 375.944L1021 387.226L716.08 563.217L708.666 551.613Z" fill="white"/>
<path d="M727.039 569.665L1031.96 393.674L1039.37 390.773L734.453 566.764L727.039 569.665Z" fill="white"/>
<path d="M747.99 574.499L1052.91 398.508L1060.33 410.112L755.404 586.102L747.99 574.499Z" fill="white"/>
<path d="M766.363 592.227L1071.29 416.558L1078.7 413.657L774.099 589.326L766.363 592.227Z" fill="white"/>
<path d="M787.637 597.385L1092.24 421.395L1099.65 432.998L795.05 608.667L787.637 597.385Z" fill="white"/>
<path fill-rule="evenodd" clip-rule="evenodd" d="M165.223 257.975L504.956 62L1148.97 433.966L809.233 629.941L165.223 257.975ZM1114.15 433.644L505.278 82.3066L200.356 257.975L809.233 609.634L1114.15 433.644Z" fill="#ECECEC"/>
<path d="M221.951 270.543L526.551 94.874L540.088 102.61L235.489 278.601L221.951 270.543Z" fill="white"/>
<path d="M261.275 293.428L566.197 117.438L579.735 125.496L274.813 301.164L261.275 293.428Z" fill="white"/>
<path d="M300.6 316.315L605.522 140.324L619.059 148.06L314.137 324.051L300.6 316.315Z" fill="white"/>
<path d="M340.244 338.877L644.844 163.208L658.381 170.944L353.782 346.935L340.244 338.877Z" fill="white"/>
<path d="M379.57 361.762L684.492 185.771L698.03 193.507L393.108 369.498L379.57 361.762Z" fill="white"/>
<path d="M418.893 384.649L723.815 208.658L737.352 216.394L432.43 392.385L418.893 384.649Z" fill="white"/>
<path d="M458.539 407.21L763.139 231.542L776.676 239.278L472.077 415.269L458.539 407.21Z" fill="white"/>
<path d="M497.863 430.096L802.785 254.105L816.323 261.841L511.401 437.832L497.863 430.096Z" fill="white"/>
<path d="M537.188 452.98L842.109 276.989L855.647 284.725L550.725 460.716L537.188 452.98Z" fill="white"/>
<path d="M576.834 475.544L881.433 299.553L894.971 307.611L590.372 483.279L576.834 475.544Z" fill="white"/>
<path d="M616.158 498.43L921.08 322.439L934.618 330.175L629.696 506.166L616.158 498.43Z" fill="white"/>
<path d="M655.48 521.314L960.402 345.323L973.94 353.059L669.018 529.05L655.48 521.314Z" fill="white"/>
<path d="M695.127 543.878L1000.05 367.887L1013.26 375.945L708.665 551.613L695.127 543.878Z" fill="white"/>
<path d="M734.451 566.764L1039.37 390.773L1052.91 398.509L747.989 574.5L734.451 566.764Z" fill="white"/>
<path d="M774.098 589.326L1078.7 413.657L1092.23 421.393L787.635 597.384L774.098 589.326Z" fill="white"/>
<path d="M996.505 978.055L1131.24 900.374L1125.11 896.828L990.381 974.509L996.505 978.055Z" fill="white"/>
<path d="M826.96 1076.36L961.371 998.359L955.247 994.813L820.514 1072.49L826.96 1076.36Z" fill="white"/>
<path d="M955.288 994.925L820.555 1072.61V636.496L955.288 558.815V994.925Z" fill="white"/>
<path d="M1125.15 896.935L990.422 974.616V538.507L1125.15 460.826V896.935Z" fill="white"/>
<path d="M941.065 566.763V1003.19L939.775 1010.93V574.821L941.065 566.763Z" fill="white"/>
<path d="M926.237 582.559V1018.67L912.699 1019.63V583.203L926.237 582.559Z" fill="white"/>
<path d="M961.372 562.251V998.36L955.248 994.814V558.705L961.372 562.251Z" fill="white"/>
<path d="M1131.24 464.261V900.371L1125.11 896.825V460.716L1131.24 464.261Z" fill="white"/>
<path d="M863.063 611.89V1048L862.096 1056.06V619.625L863.063 611.89Z" fill="white"/>
<path d="M848.557 627.685V1063.79L834.697 1064.44V628.329L848.557 627.685Z" fill="white"/>
<path d="M902.063 589.326V1025.44L900.773 1033.49V597.384L902.063 589.326Z" fill="white"/>
<path d="M887.235 605.121V1041.23L873.697 1041.87V605.766L887.235 605.121Z" fill="white"/>
<path d="M1110.93 468.774V904.884L1109.64 912.942V476.833L1110.93 468.774Z" fill="white"/>
<path d="M1096.1 484.569V920.678L1082.57 921.323V485.214L1096.1 484.569Z" fill="white"/>
<path d="M1032.93 513.899V950.008L1031.96 957.744V521.635L1032.93 513.899Z" fill="white"/>
<path d="M1018.42 529.375V965.806L1004.56 966.451V530.342L1018.42 529.375Z" fill="white"/>
<path d="M1071.93 491.338V927.447L1070.64 935.505V499.074L1071.93 491.338Z" fill="white"/>
<path d="M1057.1 507.133V943.242L1043.56 943.887V507.777L1057.1 507.133Z" fill="white"/>
<path d="M189.074 721.158L797.951 1072.49V636.386L189.074 284.727V721.158Z" fill="white"/>
<path d="M791.506 1076.36L182.629 724.705L189.075 721.159L797.952 1072.5L791.506 1076.36Z" fill="#D4D4D4"/>
<path d="M182.629 288.595V724.705L189.075 721.159V284.728L182.629 288.595Z" fill="#EBEBEB"/>
<path d="M203.258 293.107V729.217L204.225 737.275V300.843L203.258 293.107Z" fill="#EBEBEB"/>
<path d="M217.762 308.902V745.012L231.622 745.656V309.547L217.762 308.902Z" fill="#EBEBEB"/>
<path d="M242.582 315.994V752.103L243.871 759.839V323.73L242.582 315.994Z" fill="#EBEBEB"/>
<path d="M257.408 331.465V767.574L270.946 768.541V332.109L257.408 331.465Z" fill="#EBEBEB"/>
<path d="M281.906 338.558V774.667L283.196 782.725V346.616L281.906 338.558Z" fill="#EBEBEB"/>
<path d="M296.732 354.349V790.458L310.592 791.102V354.993L296.732 354.349Z" fill="#EBEBEB"/>
<path d="M321.553 361.441V797.551L322.52 805.609V369.177L321.553 361.441Z" fill="#EBEBEB"/>
<path d="M336.057 377.236V813.346L349.917 813.99V377.881L336.057 377.236Z" fill="#EBEBEB"/>
<path d="M360.877 384.004V820.435L362.166 828.171V392.062L360.877 384.004Z" fill="#EBEBEB"/>
<path d="M375.703 399.799V835.908L389.241 836.875V400.443L375.703 399.799Z" fill="#EBEBEB"/>
<path d="M400.199 406.892V843.001L401.489 851.059V414.95L400.199 406.892Z" fill="#EBEBEB"/>
<path d="M415.027 422.683V858.792L428.888 859.436V423.327L415.027 422.683Z" fill="#EBEBEB"/>
<path d="M439.846 429.775V865.884L440.813 873.62V437.511L439.846 429.775Z" fill="#EBEBEB"/>
<path d="M454.352 445.246V881.678L468.212 882.322V446.213L454.352 445.246Z" fill="#EBEBEB"/>
<path d="M479.17 452.338V888.769L480.459 896.505V460.396L479.17 452.338Z" fill="#EBEBEB"/>
<path d="M493.998 468.133V904.242L507.536 904.887V468.778L493.998 468.133Z" fill="#EBEBEB"/>
<path d="M518.494 475.223V911.332L519.783 919.39V483.281L518.494 475.223Z" fill="#EBEBEB"/>
<path d="M533.322 491.018V927.127L547.182 927.771V491.662L533.322 491.018Z" fill="#EBEBEB"/>
<path d="M558.141 498.109V934.219L559.43 941.954V505.845L558.141 498.109Z" fill="#EBEBEB"/>
<path d="M572.969 513.58V950.011L586.507 950.656V514.547L572.969 513.58Z" fill="#EBEBEB"/>
<path d="M597.465 520.673V956.782L598.754 964.84V528.731L597.465 520.673Z" fill="#EBEBEB"/>
<path d="M612.291 536.464V972.573L625.829 973.218V537.109L612.291 536.464Z" fill="#EBEBEB"/>
<path d="M637.111 543.557V979.666L638.078 987.724V551.292L637.111 543.557Z" fill="#EBEBEB"/>
<path d="M651.615 559.352V995.461L665.475 996.105V559.996L651.615 559.352Z" fill="#EBEBEB"/>
<path d="M676.434 566.443V1002.55L677.723 1010.29V574.179L676.434 566.443Z" fill="#EBEBEB"/>
<path d="M691.262 581.914V1018.35L704.8 1018.99V582.559L691.262 581.914Z" fill="#EBEBEB"/>
<path d="M715.758 589.006V1025.12L717.047 1033.17V597.064L715.758 589.006Z" fill="#EBEBEB"/>
<path d="M730.586 604.798V1040.91L744.124 1041.55V605.442L730.586 604.798Z" fill="#EBEBEB"/>
<path d="M755.404 611.891V1048L756.371 1056.06V619.626L755.404 611.891Z" fill="#EBEBEB"/>
<path d="M769.91 627.686V1063.79L783.77 1064.44V628.33L769.91 627.686Z" fill="#EBEBEB"/>
<path fill-rule="evenodd" clip-rule="evenodd" d="M809.233 629.941V1106.66L165.223 734.697V257.975L809.233 629.941ZM791.505 640.255L182.628 288.596V724.705L791.505 1076.36V640.255Z" fill="white"/>
<path d="M204.111 301.131V737.562L217.649 745.298V309.189L204.111 301.131Z" fill="#B4B4B4"/>
<path d="M243.758 324.015V760.124L257.296 767.86V331.751L243.758 324.015Z" fill="#B4B4B4"/>
<path d="M283.082 346.902V783.011L296.62 790.747V354.638L283.082 346.902Z" fill="#B4B4B4"/>
<path d="M322.406 369.465V805.896L335.944 813.632V377.523L322.406 369.465Z" fill="#B4B4B4"/>
<path d="M362.053 392.349V828.458L375.591 836.194V400.084L362.053 392.349Z" fill="#B4B4B4"/>
<path d="M401.375 415.236V851.346L414.913 859.081V422.972L401.375 415.236Z" fill="#B4B4B4"/>
<path d="M440.701 437.799V873.908L454.239 881.966V445.535L440.701 437.799Z" fill="#B4B4B4"/>
<path d="M480.346 460.683V896.792L493.883 904.528V468.418L480.346 460.683Z" fill="#B4B4B4"/>
<path d="M519.67 483.566V919.675L533.208 927.411V491.302L519.67 483.566Z" fill="#B4B4B4"/>
<path d="M559.316 506.13V942.239L572.854 950.297V513.866L559.316 506.13Z" fill="#B4B4B4"/>
<path d="M598.641 529.018V965.127L612.178 972.863V536.753L598.641 529.018Z" fill="#B4B4B4"/>
<path d="M637.965 551.58V988.012L651.503 995.747V559.638L637.965 551.58Z" fill="#B4B4B4"/>
<path d="M677.611 574.464V1010.57L691.149 1018.63V582.2L677.611 574.464Z" fill="#B4B4B4"/>
<path d="M716.936 597.352V1033.46L730.473 1041.2V605.087L716.936 597.352Z" fill="#B4B4B4"/>
<path d="M756.258 619.914V1056.35L769.796 1064.08V627.972L756.258 619.914Z" fill="#B4B4B4"/>
<path fill-rule="evenodd" clip-rule="evenodd" d="M1148.97 433.964V910.364L809.232 1106.66V629.939L1148.97 433.964ZM996.505 978.375L1131.24 900.694V464.263L996.505 542.266V978.375ZM826.638 1076.36L961.371 998.682V562.25L826.638 640.253V1076.36Z" fill="#C0C0C0"/>
<path d="M939.774 574.821V1010.93L926.236 1018.67V582.557L939.774 574.821Z" fill="#C9C9C9"/>
<path d="M862.094 619.627V1056.06L848.557 1063.79V627.685L862.094 619.627Z" fill="#C9C9C9"/>
<path d="M900.774 597.385V1033.49L887.236 1041.23V605.121L900.774 597.385Z" fill="#C9C9C9"/>
<path d="M1109.64 476.833V912.942L1096.1 920.678V484.569L1109.64 476.833Z" fill="#C9C9C9"/>
<path d="M1031.96 521.638V957.747L1018.42 965.805V529.374L1031.96 521.638Z" fill="#C9C9C9"/>
<path d="M1070.64 499.075V935.507L1057.1 943.242V507.133L1070.64 499.075Z" fill="#C9C9C9"/>
<path d="M212.283 263.132L195.199 253.14L187.463 256.041L184.885 257.33L192.943 271.512L195.199 270.223V264.099L198.745 262.809L208.737 268.611L212.283 274.091V279.893L217.762 285.695L220.018 284.405V275.058L212.283 263.132Z" fill="#EB5C5F"/>
<path d="M788.603 595.774L771.197 585.782L763.784 588.683L761.205 589.972L769.263 604.155L771.52 602.866V596.741L775.065 595.452L785.057 601.254L788.603 606.734L794.083 618.66L796.339 617.048V607.701L788.603 595.774Z" fill="#EB5C5F"/>
<path d="M210.026 264.419L192.621 254.427L184.885 257.328V266.998L192.943 271.51V265.386L196.488 264.097L206.481 269.898L210.026 275.378V281.18L217.762 285.693V276.345L210.026 264.419Z" fill="#D45356"/>
<path d="M786.347 597.062L768.941 587.07L761.205 589.971V599.641L769.263 604.154V598.352L772.809 596.74L782.479 602.542L786.024 608.022V613.824L794.083 618.658V608.989L786.347 597.062Z" fill="#D45356"/>
<path d="M1121.57 403.666L1104.16 393.674L1096.43 396.575L1094.17 398.186L1101.91 412.046L1104.16 410.757V404.955L1107.71 403.344L1117.7 409.146L1121.25 414.625L1126.73 426.551L1128.98 425.262V415.592L1121.57 403.666Z" fill="#EB5C5F"/>
<path d="M1118.99 404.956L1101.58 394.964L1094.17 398.187V407.535L1101.91 412.047V406.245L1105.45 404.634L1115.44 410.436L1118.99 415.915V422.039L1126.73 426.552V416.882L1118.99 404.956Z" fill="#D45356"/>
<path fill-rule="evenodd" clip-rule="evenodd" d="M823.092 1083.13V637.998L823.736 637.676L1134.46 457.817V902.952L1133.49 903.274L823.092 1083.13ZM826.637 640.255V1077.33L1131.24 901.018V464.264L826.637 640.255Z" fill="#CCCCCC"/>
<path d="M976.521 551.936V994.814L982.968 991.269V548.391L976.521 551.936Z" fill="#CCCCCC"/>
<path d="M1016.49 553.226L1001.34 561.928V582.235L1016.49 573.855V553.226Z" fill="#E8E0D8"/>
<path d="M996.506 559.026L1001.34 561.927V582.234L996.506 579.655V559.026Z" fill="#A7A7A7"/>
<path d="M1011.66 550.326L996.506 559.029L1001.34 561.93L1016.49 553.227L1011.66 550.326Z" fill="#C2C2C2"/>
<path d="M1016.49 942.921L1001.34 951.624V971.93L1016.49 963.55V942.921Z" fill="#E8E0D8"/>
<path d="M996.506 948.722L1001.34 951.623V971.929L996.506 969.028V948.722Z" fill="#A7A7A7"/>
<path d="M1011.66 940.019L996.506 948.721L1001.34 951.622L1016.49 942.92L1011.66 940.019Z" fill="#C2C2C2"/>
<path d="M1013.91 973.219V542.267H1013.27C1013.05 542.052 1012.94 541.945 1012.94 541.945C1011.33 540.978 1008.75 540.978 1007.14 541.945C1007.14 541.945 1007.03 542.052 1006.82 542.267H1006.17V973.219C1006.17 973.864 1006.5 974.401 1007.14 974.831C1008.75 975.798 1011.33 975.798 1012.94 974.831C1013.59 974.401 1013.91 973.864 1013.91 973.219Z" fill="#F0E9E2"/>
<path d="M1012.94 543.877C1011.33 544.522 1008.75 544.522 1007.14 543.877C1005.85 542.91 1005.85 541.299 1007.14 540.654C1008.75 539.687 1011.33 539.687 1012.94 540.654C1014.55 541.299 1014.55 542.91 1012.94 543.877Z" fill="#DAD1C8"/>
<path d="M1134.78 480.38L1119.96 489.083V509.389L1134.78 501.009V480.38Z" fill="#E8E0D8"/>
<path d="M1114.8 486.182L1119.96 489.083V509.389L1114.8 506.811V486.182Z" fill="#A7A7A7"/>
<path d="M1129.95 477.479L1114.8 486.181L1119.96 489.082L1134.78 480.379L1129.95 477.479Z" fill="#C2C2C2"/>
<path d="M1134.78 870.073L1119.96 878.776V899.083L1134.78 890.702V870.073Z" fill="#E8E0D8"/>
<path d="M1114.8 875.877L1119.96 878.778V899.085L1114.8 896.184V875.877Z" fill="#A7A7A7"/>
<path d="M1129.95 867.174L1114.8 875.877L1119.96 878.778L1134.78 870.075L1129.95 867.174Z" fill="#C2C2C2"/>
<path d="M1139.62 896.181V464.907H1138.97C1138.76 464.907 1138.65 464.907 1138.65 464.907C1137.04 463.94 1134.46 463.94 1132.85 464.907C1132.85 464.907 1132.74 464.907 1132.53 464.907H1131.88V896.181C1131.88 896.826 1132.21 897.363 1132.85 897.793C1134.46 898.76 1137.04 898.76 1138.65 897.793C1139.3 897.363 1139.62 896.826 1139.62 896.181Z" fill="#F0E9E2"/>
<path d="M1138.65 466.52C1137.04 467.487 1134.46 467.487 1132.85 466.52C1131.56 465.876 1131.56 464.264 1132.85 463.297C1134.46 462.652 1137.04 462.652 1138.65 463.297C1139.94 464.264 1140.26 465.876 1138.65 466.52Z" fill="#DAD1C8"/>
<path d="M961.048 585.137L946.221 593.84V614.469L961.048 605.766V585.137Z" fill="#E8E0D8"/>
<path d="M941.064 590.938L946.222 593.838V614.467L941.064 611.566V590.938Z" fill="#A7A7A7"/>
<path d="M956.214 582.56L941.064 590.94L946.222 593.841L961.049 585.138L956.214 582.56Z" fill="#C2C2C2"/>
<path d="M961.048 974.829L946.221 983.532V1003.84L961.048 995.458V974.829Z" fill="#E8E0D8"/>
<path d="M941.064 980.633L946.222 983.534V1003.84L941.064 1001.26V980.633Z" fill="#A7A7A7"/>
<path d="M956.214 972.251L941.064 980.632L946.222 983.532L961.049 974.83L956.214 972.251Z" fill="#C2C2C2"/>
<path d="M958.47 1005.13V574.177H957.826C957.611 574.177 957.503 574.069 957.503 573.855C955.892 573.21 953.313 573.21 952.024 573.855C951.809 574.069 951.701 574.177 951.701 574.177H950.734V1005.13C950.734 1005.77 951.164 1006.31 952.024 1006.74C953.313 1007.71 955.892 1007.71 957.503 1006.74C958.363 1006.31 958.685 1005.77 958.47 1005.13Z" fill="#F0E9E2"/>
<path d="M957.503 575.789C955.891 576.756 953.312 576.756 952.023 575.789C950.412 574.822 950.412 573.533 952.023 572.566C953.312 571.599 955.891 571.599 957.503 572.566C959.114 573.533 959.114 574.822 957.503 575.789Z" fill="#DAD1C8"/>
<path d="M838.888 655.725L824.061 664.427V684.734L838.888 676.354V655.725Z" fill="#E8E0D8"/>
<path d="M819.225 661.529L824.06 664.43V684.737L819.225 682.158V661.529Z" fill="#A7A7A7"/>
<path d="M834.052 652.825L819.225 661.528L824.06 664.429L838.887 655.726L834.052 652.825Z" fill="#C2C2C2"/>
<path d="M838.888 1045.42L824.061 1054.12V1074.43L838.888 1066.05V1045.42Z" fill="#E8E0D8"/>
<path d="M819.225 1051.22L824.06 1054.12V1074.43L819.225 1071.53V1051.22Z" fill="#A7A7A7"/>
<path d="M834.052 1042.52L819.225 1051.22L824.06 1054.12L838.887 1045.42L834.052 1042.52Z" fill="#C2C2C2"/>
<path d="M833.086 1077.97V646.7H832.119C831.904 646.7 831.796 646.593 831.796 646.378C830.185 645.733 827.606 645.733 826.317 646.378C826.102 646.593 825.994 646.7 825.994 646.7H825.027V1077.97C825.027 1078.4 825.457 1078.94 826.317 1079.59C827.606 1080.23 830.185 1080.23 831.796 1079.59C832.656 1078.94 833.086 1078.4 833.086 1077.97Z" fill="#F0E9E2"/>
<path d="M831.796 648.313C830.184 649.28 827.605 649.28 826.316 648.313C824.705 647.346 824.705 646.056 826.316 645.089C827.605 644.123 830.184 644.123 831.796 645.089C833.407 646.056 833.407 647.346 831.796 648.313Z" fill="#DAD1C8"/>
<path d="M1221.98 546.754L1250.67 533.184V1130.06L1221.98 1143.05V546.754Z" fill="#8E5629"/>
<path d="M1221.98 546.754L1193.29 533.184V1130.48L1221.98 1143.47V546.754Z" fill="#AA6A37"/>
<path d="M1251.26 532.796L1221.98 546.754L1192.9 532.796L1221.98 517.093L1251.26 532.796Z" fill="#C88753"/>
<path d="M1396.04 492.269L1057.2 690.44L1067.55 1055.76L1396.04 869.995V492.269Z" fill="#FF8E02"/>
<path d="M1243.41 657.195C1235.06 659.404 1221.88 669.307 1213.62 679.619C1201.67 694.433 1194.63 713.257 1195.29 728.479C1195.78 739.283 1198.81 745.257 1205.93 749.84C1210.02 752.459 1219.92 752.623 1226.55 750.168C1245.62 742.965 1264.69 719.313 1270.91 694.924C1274.35 681.338 1272.87 669.144 1266.82 662.76C1263.71 659.404 1259.29 656.622 1258.22 657.195C1257.81 657.522 1257.24 657.358 1256.91 656.867C1256.26 655.721 1247.99 655.885 1243.41 657.195ZM1243.74 675.364C1243.65 675.773 1243.33 677.492 1243.08 679.21C1242.51 682.157 1242.59 682.238 1244.39 681.829C1245.46 681.584 1247.42 681.747 1248.65 682.238C1250.94 683.057 1250.94 683.221 1250.61 687.967C1250.37 690.914 1249.71 693.369 1248.89 694.351C1247.17 696.233 1247.09 698.28 1248.73 698.934C1250.78 699.671 1250.28 706.627 1247.83 711.62C1246.19 714.893 1244.72 716.53 1241.85 718.167C1236.21 721.359 1233.59 724.305 1233.59 727.17C1233.59 728.807 1232.93 730.034 1231.79 730.853C1228.92 732.899 1228.43 732.408 1228.92 728.479C1229.33 725.615 1229.17 724.796 1228.35 724.796C1227.2 724.796 1225.4 728.807 1225.4 731.426C1225.4 732.735 1223.19 734.617 1221.72 734.617C1221.39 734.617 1221.31 732.981 1221.48 730.935C1221.8 726.761 1221.15 726.188 1217.47 727.743C1214.36 728.97 1213.95 728.561 1214.93 725.042C1215.34 723.323 1216.48 721.932 1218.04 721.114C1219.35 720.459 1220.58 719.231 1220.82 718.495C1222.29 713.338 1225.4 695.006 1224.83 694.433C1224.5 694.106 1223.44 693.696 1222.54 693.533C1219.27 692.878 1222.62 687.149 1226.22 687.149C1228.19 687.149 1231.13 683.384 1231.13 680.929C1231.13 678.883 1233.67 675.691 1235.31 675.691C1235.88 675.691 1236.04 677.001 1235.63 679.865C1235.06 683.875 1235.06 684.039 1236.78 683.139C1237.84 682.484 1238.5 681.42 1238.5 679.947C1238.5 677.082 1240.71 673.89 1242.43 674.3C1243.25 674.463 1243.74 674.873 1243.74 675.364Z" fill="white"/>
<path d="M1234.57 691.077C1233.1 692.55 1231.46 699.179 1232.28 699.997C1232.52 700.243 1233.92 699.997 1235.47 699.506C1239.89 698.033 1242.26 694.76 1241.85 690.586C1241.69 689.031 1236.29 689.358 1234.57 691.077Z" fill="white"/>
<path d="M1232.61 706.055C1231.46 706.547 1230.32 707.692 1230.07 708.674C1229.17 712.521 1228.51 718.25 1229.01 718.25C1229.33 718.25 1231.38 717.35 1233.51 716.204C1238.34 713.831 1241.12 710.475 1240.79 707.692C1240.55 705.892 1240.05 705.564 1237.68 705.401C1236.13 705.319 1233.83 705.646 1232.61 706.055Z" fill="white"/>
<path d="M1361.67 696.806C1354.55 700.816 1353.81 701.389 1350.21 706.136C1346.78 710.801 1345.71 711.21 1345.71 708.182C1345.71 706.3 1345.06 706.463 1337.45 710.883C1334.34 712.765 1331.8 714.648 1331.8 715.22C1331.72 715.793 1331.72 726.842 1331.72 739.937C1331.8 762.198 1331.88 763.671 1333.19 763.426C1335.56 762.934 1345.71 756.633 1345.71 755.569C1345.71 755.078 1345.88 747.63 1345.96 739.118C1346.12 724.714 1346.28 723.323 1348 720.049C1351.28 713.829 1360.44 709.246 1362.65 712.683C1362.98 713.256 1363.47 720.622 1363.72 729.052C1363.96 737.4 1364.37 744.52 1364.7 744.847C1365.27 745.42 1376.73 739.037 1377.88 737.563C1378.2 737.072 1378.37 728.888 1378.2 719.476C1377.88 699.998 1377.22 697.215 1372.39 695.496C1368.38 694.023 1366.17 694.351 1361.67 696.806Z" fill="white"/>
<path d="M1313.3 703.107C1309.29 705.48 1306.59 709.736 1305.85 714.565C1305.53 717.511 1305.69 718.248 1307.16 719.23C1308.15 719.884 1309.78 720.294 1310.93 720.13C1313.63 719.557 1319.03 714.728 1320.67 711.373C1324.35 703.516 1320.26 698.851 1313.3 703.107Z" fill="white"/>
<path d="M1313.39 724.877C1310.28 726.678 1307.41 728.642 1307.08 729.133C1306.27 730.525 1306.68 777.993 1307.58 777.993C1308.72 777.993 1317.64 773.001 1319.44 771.364C1321.16 769.727 1321.16 769.236 1321 745.911C1320.83 730.77 1320.42 721.931 1319.93 721.767C1319.44 721.604 1316.5 722.995 1313.39 724.877Z" fill="white"/>
<path d="M1278.85 744.112C1277.05 744.767 1272.95 747.467 1269.93 750.004C1257.57 760.398 1251.59 772.102 1251.59 785.933C1251.59 791.744 1251.92 793.217 1253.64 795.918C1254.7 797.718 1256.42 799.683 1257.49 800.419C1261.74 803.447 1270.91 801.156 1279.34 794.936C1291.04 786.342 1298 773.739 1298.82 759.826C1299.23 753.196 1299.14 752.46 1297.1 749.022C1295.95 746.976 1294.15 744.767 1293.17 744.03C1290.88 742.475 1283.51 742.475 1278.85 744.112ZM1282.37 758.68C1287.11 763.508 1285.31 774.721 1278.68 781.432C1272.22 787.897 1266.9 787.734 1265.83 780.859C1264.36 770.629 1269.93 760.235 1278.03 758.352C1279.5 757.943 1280.73 757.698 1280.89 757.616C1281.06 757.534 1281.71 758.025 1282.37 758.68Z" fill="white"/>
<path d="M1226.31 774.803C1220.33 777.749 1211.25 786.26 1207.89 792.153C1199.71 806.23 1199.46 824.317 1207.4 828.982C1215.26 833.647 1230.32 826.118 1238.83 813.268C1242.92 807.212 1246.36 798.619 1245.21 797.473C1243.98 796.245 1232.69 803.365 1231.22 806.148C1229.09 810.322 1223.36 815.642 1221.15 815.642C1216.89 815.642 1215.99 814.005 1215.99 806.066C1215.99 800.174 1216.32 798.209 1217.79 795.509C1221.23 789.043 1226.88 786.179 1230.97 788.716C1232.12 789.452 1233.51 789.043 1237.76 786.67C1244.88 782.741 1246.44 781.023 1245.13 778.567C1242.51 773.82 1241.04 772.756 1236.21 772.511C1232.28 772.265 1230.72 772.593 1226.31 774.803Z" fill="white"/>
<path d="M1363.31 773.902C1357.99 774.639 1355.53 775.703 1348.99 780.04C1342.85 784.132 1335.48 792.399 1332.37 798.7C1328.36 806.966 1327.46 810.813 1327.13 820.143C1326.89 828.327 1327.05 829.473 1328.77 832.747C1331.23 837.494 1334.25 839.212 1340.15 839.294C1351.52 839.458 1366.25 828 1373.54 813.35C1376.32 807.703 1377.47 803.365 1376.16 803.365C1375.67 803.365 1372.06 805.248 1368.22 807.621C1363.47 810.404 1360.44 812.859 1359.22 814.823C1354.22 822.68 1346.53 825.463 1343.42 820.389C1342.36 818.67 1342.36 818.015 1343.17 817.033C1343.67 816.296 1351.11 811.877 1359.62 807.048C1368.05 802.22 1375.83 797.555 1376.73 796.736C1379.59 794.035 1378.78 782.659 1375.34 778.076C1374.03 776.194 1368.95 773.002 1367.81 773.247C1367.56 773.247 1365.6 773.575 1363.31 773.902ZM1361.1 791.989C1361.67 792.89 1362 794.281 1361.75 795.017C1361.34 796.245 1346.94 805.002 1344.16 805.739C1342.36 806.148 1343.67 801.401 1346.53 797.227C1350.79 791.089 1358.72 788.225 1361.1 791.989Z" fill="white"/>
<path d="M1179.57 789.861C1172.94 793.871 1173.03 793.871 1173.03 799.846C1173.03 805.002 1172.86 805.411 1170.08 807.948C1167.38 810.485 1167.21 810.812 1167.46 815.396C1167.71 820.306 1168.2 820.715 1171.63 819.324C1172.94 818.751 1173.03 819.651 1173.03 830.291C1173.03 840.357 1173.27 842.322 1174.74 845.514C1176.54 849.278 1177.12 849.524 1182.27 849.196C1183.5 849.115 1187.1 847.56 1190.29 845.759L1195.94 842.485V836.511V830.455L1192.5 832.01C1187.27 834.301 1186.94 833.646 1186.94 821.37C1186.94 809.748 1186.77 810.158 1193.4 806.475C1195.86 805.083 1195.94 804.92 1195.94 799.273C1195.94 796.163 1195.7 793.544 1195.37 793.544C1194.96 793.544 1193.24 794.444 1191.44 795.59C1189.64 796.654 1187.92 797.636 1187.59 797.636C1187.18 797.636 1186.94 795.262 1186.94 792.316C1186.94 785.932 1186.37 785.769 1179.57 789.861Z" fill="white"/>
<path d="M1152.89 796.243C1145.12 801.563 1143.48 814.412 1150.76 812.694C1156.41 811.384 1161.57 805.164 1161.57 799.681C1161.57 797.88 1161.16 795.916 1160.59 795.343C1159.11 793.87 1155.76 794.279 1152.89 796.243Z" fill="white"/>
<path d="M1299.96 807.948C1285.56 815.15 1275.66 829.8 1277.37 841.34C1277.78 844.041 1278.44 845.186 1280.24 846.168C1282.69 847.642 1285.48 847.396 1296.69 844.532C1299.64 843.795 1302.66 843.386 1303.4 843.713C1305.77 844.613 1305.04 847.805 1301.68 851.079C1298.08 854.598 1294.23 855.744 1292.27 853.78C1291.62 853.043 1290.55 852.47 1290.06 852.47C1288.51 852.47 1276.15 859.918 1276.07 860.9C1275.41 867.12 1280.4 871.13 1287.61 870.148C1292.6 869.493 1295.54 868.184 1302.42 863.765C1312.98 856.89 1319.52 846.905 1319.52 837.739C1319.52 831.682 1319.11 830.618 1316 829.063C1313.55 827.754 1306.92 827.999 1302.83 829.554C1296.94 831.682 1294.97 832.092 1293.33 831.191C1292.43 830.7 1291.7 829.8 1291.7 829.145C1291.7 827.508 1295.63 823.171 1298.49 821.616C1300.78 820.47 1301.19 820.47 1303.65 821.779L1306.27 823.171L1312.49 819.815C1320.59 815.314 1321.16 813.186 1316 807.621C1312.4 803.856 1307.9 803.938 1299.96 807.948Z" fill="white"/>
<path d="M1155.02 816.459C1146.43 821.124 1146.84 819.733 1146.84 845.923C1146.84 860.9 1147.16 868.92 1147.65 869.248C1148.14 869.575 1151.25 868.266 1154.61 866.301L1160.75 862.782V838.393C1160.75 824.971 1160.5 814.004 1160.18 814.004C1159.77 814.004 1157.47 815.15 1155.02 816.459Z" fill="white"/>
<path d="M1125.97 821.289C1122.86 822.025 1096.01 837.33 1094.7 839.13C1093.56 840.604 1093.15 899.53 1094.29 900.267C1095.28 900.84 1125.47 883.162 1128.67 880.052C1130.22 878.578 1132.92 874.896 1134.8 871.786C1138 866.466 1138.16 865.729 1138.24 859.673C1138.24 853.698 1138.08 853.044 1136.28 851.57C1135.13 850.67 1133.25 849.688 1131.94 849.443C1130.71 849.197 1129.65 848.788 1129.65 848.624C1129.65 848.46 1130.71 846.742 1132.02 844.859C1135.71 839.458 1137.01 835.529 1137.01 830.046C1137.01 826.609 1136.52 824.481 1135.54 823.253C1133.99 821.289 1129.65 820.389 1125.97 821.289ZM1123.43 838.803C1124.57 843.304 1121.38 848.297 1114.84 852.225C1107.31 856.727 1107.55 856.808 1107.55 849.852C1107.55 843.059 1107.8 842.65 1114.1 839.049C1118.85 836.348 1122.77 836.184 1123.43 838.803ZM1124.57 863.438C1125.23 869.085 1122.36 872.931 1114.02 877.76C1110.83 879.642 1108.04 881.116 1107.88 881.116C1107.63 881.116 1107.63 877.924 1107.72 874.077L1107.96 866.957L1113.28 863.847C1119.99 859.918 1124.17 859.755 1124.57 863.438Z" fill="white"/>
<path d="M1260.02 831.028C1250.37 836.838 1251.35 834.874 1251.02 849.688C1250.61 870.558 1250.28 874.24 1248.32 877.432C1245.7 881.77 1240.79 885.207 1237.19 885.371C1232.2 885.535 1231.95 884.634 1231.95 866.465C1231.95 857.626 1231.62 849.933 1231.21 849.279C1230.64 848.378 1229.41 848.706 1224.91 851.161C1214.93 856.644 1215.58 855.007 1215.58 875.059C1215.58 890.609 1215.75 892.982 1217.22 896.911C1219.51 902.967 1221.23 904.358 1226.47 904.358C1233.18 904.358 1241.36 899.12 1247.75 890.691C1250.12 887.581 1251.59 887.335 1251.59 890.2C1251.59 891.018 1251.84 891.755 1252.17 891.755C1253.07 891.755 1265.92 884.143 1266.49 883.243C1267.47 881.852 1266.9 828.491 1265.92 828.245C1265.51 828.163 1262.81 829.391 1260.02 831.028Z" fill="white"/>
<path d="M1189.39 872.031C1175.48 876.532 1163.78 888.972 1158.05 905.259C1156.66 909.024 1156.25 912.134 1156.25 918.354C1156.25 925.556 1156.49 926.947 1158.29 930.221C1160.83 934.804 1163.86 936.359 1169.83 936.195C1178.84 935.95 1191.85 927.111 1199.3 916.226C1201.02 913.689 1203.63 908.696 1205.03 905.095C1207.4 899.366 1207.65 897.811 1207.73 890.118C1207.81 880.543 1206.5 876.532 1202.33 873.504C1199.87 871.704 1192.83 870.885 1189.39 872.031ZM1188.98 889.464C1193.49 891.51 1193.49 902.476 1188.9 910.415C1185.3 916.553 1177.85 920.482 1174.09 918.108C1173.6 917.781 1172.7 915.817 1172.13 913.771C1170 905.914 1174.58 894.701 1181.54 890.527C1185.38 888.236 1186.04 888.154 1188.98 889.464Z" fill="white"/>
<path d="M1145.12 882.67C1144.05 883.489 1141.52 884.962 1139.55 886.026C1132.19 889.709 1132.1 889.954 1132.1 904.358C1132.1 916.553 1132.02 917.126 1130.3 918.354C1128.42 919.663 1109.93 930.221 1109.43 930.221C1109.27 930.221 1109.19 924.574 1109.19 917.617C1109.19 910.006 1108.86 904.768 1108.37 904.44C1107.88 904.195 1106.49 904.686 1105.18 905.586C1103.87 906.568 1102.64 907.305 1102.4 907.305C1102.15 907.305 1100.1 908.451 1097.81 909.842L1093.64 912.461V946.671C1093.64 965.577 1093.88 980.963 1094.29 980.963C1095.36 980.963 1107.88 973.597 1108.53 972.533C1108.94 972.042 1109.19 966.968 1109.19 961.321C1109.11 955.674 1109.11 949.535 1109.11 947.653L1109.19 944.216L1120.32 937.914C1126.38 934.476 1131.53 931.858 1131.78 932.103C1132.02 932.267 1132.27 938.159 1132.35 945.198C1132.43 952.154 1132.76 958.129 1133.09 958.456C1133.41 958.784 1136.85 957.31 1140.7 955.101L1147.65 951.172V916.144C1147.65 896.911 1147.49 881.115 1147.33 881.115C1147.16 881.115 1146.18 881.77 1145.12 882.67Z" fill="white"/>
<path d="M584.575 198.676V275.851L575.92 271.523V193.627L584.575 198.676Z" fill="#8A8A8A"/>
<path d="M584.576 198.67L591.068 195.063V272.239L584.576 275.845V198.67Z" fill="#DEDEDE"/>
<path d="M591.067 195.069L582.411 190.021L575.92 193.627L584.575 198.676L591.067 195.069Z" fill="#999999"/>
<path d="M546.346 244.107V298.201L538.412 293.152V239.058L546.346 244.107Z" fill="#8A8A8A"/>
<path d="M546.352 244.115L552.843 240.509V294.604L546.352 298.21V244.115Z" fill="#DEDEDE"/>
<path d="M552.837 240.501L544.903 235.452L538.412 239.058L546.346 244.107L552.837 240.501Z" fill="#999999"/>
<path d="M626.425 169.618L491.549 91L361 263.382L496.598 342L626.425 169.618Z" fill="#BABCBF"/>
<path d="M492.474 102.877L612.925 172.118L493.916 330.796L373.465 260.834L492.474 102.877Z" fill="#424242"/>
<path d="M604.267 183.659L602.824 185.823L482.373 115.86L484.537 113.696L604.267 183.659Z" fill="#656565"/>
<path d="M593.446 198.804L591.283 200.967L471.553 131.005L472.995 128.841L593.446 198.804Z" fill="#656565"/>
<path d="M581.909 213.946L580.467 216.11L460.016 146.147L461.458 143.983L581.909 213.946Z" fill="#656565"/>
<path d="M570.365 229.103L568.922 231.267L448.471 161.304L450.635 159.141L570.365 229.103Z" fill="#656565"/>
<path d="M558.827 244.247L557.384 246.412L437.654 176.449L439.097 174.285L558.827 244.247Z" fill="#595959"/>
<path d="M548.009 258.67L545.845 260.834L426.115 191.592L427.558 189.429L548.009 258.67Z" fill="#595959"/>
<path d="M536.464 273.814L535.021 275.978L414.57 206.736L416.013 204.572L536.464 273.814Z" fill="#595959"/>
<path d="M524.927 288.961L523.484 291.125L403.033 221.162L405.197 218.998L524.927 288.961Z" fill="#595959"/>
<path d="M513.387 304.104L511.945 306.268L392.215 236.305L393.657 234.142L513.387 304.104Z" fill="#595959"/>
<path d="M502.571 319.263L500.408 321.426L380.678 251.464L382.12 249.3L502.571 319.263Z" fill="#595959"/>
<path d="M447.754 304.104L445.59 302.662L564.599 143.983L567.484 146.147L447.754 304.104Z" fill="#797979"/>
<path d="M420.926 288.254L418.762 286.811L537.77 128.133L540.655 130.297L420.926 288.254Z" fill="#797979"/>
<path d="M394.098 272.403L391.934 270.96L510.942 112.282L513.827 114.446L394.098 272.403Z" fill="#797979"/>
<path d="M479.489 322.869L476.604 320.705L596.333 162.748L599.219 164.191L479.489 322.869Z" fill="#797979"/>
<path d="M755.575 296.676V373.851L746.92 369.523V291.627L755.575 296.676Z" fill="#8A8A8A"/>
<path d="M755.576 296.67L762.068 293.063V370.239L755.576 373.845V296.67Z" fill="#DEDEDE"/>
<path d="M762.067 293.069L753.411 288.021L746.92 291.627L755.575 296.676L762.067 293.069Z" fill="#999999"/>
<path d="M717.346 342.107V396.201L709.412 391.152V337.058L717.346 342.107Z" fill="#8A8A8A"/>
<path d="M717.352 342.115L723.843 338.509V392.604L717.352 396.21V342.115Z" fill="#DEDEDE"/>
<path d="M723.837 338.501L715.903 333.452L709.412 337.058L717.346 342.107L723.837 338.501Z" fill="#999999"/>
<path d="M797.425 267.618L662.549 189L532 361.382L667.598 440L797.425 267.618Z" fill="#BABCBF"/>
<path d="M663.474 200.877L783.925 270.118L664.916 428.796L544.465 358.834L663.474 200.877Z" fill="#424242"/>
<path d="M775.267 281.659L773.824 283.823L653.373 213.86L655.537 211.696L775.267 281.659Z" fill="#656565"/>
<path d="M764.446 296.804L762.283 298.967L642.553 229.005L643.995 226.841L764.446 296.804Z" fill="#656565"/>
<path d="M752.909 311.946L751.467 314.11L631.016 244.147L632.458 241.983L752.909 311.946Z" fill="#656565"/>
<path d="M741.365 327.103L739.922 329.267L619.471 259.304L621.635 257.141L741.365 327.103Z" fill="#656565"/>
<path d="M729.827 342.247L728.384 344.412L608.654 274.449L610.097 272.285L729.827 342.247Z" fill="#595959"/>
<path d="M719.009 356.67L716.845 358.834L597.115 289.592L598.558 287.429L719.009 356.67Z" fill="#595959"/>
<path d="M707.464 371.814L706.021 373.978L585.57 304.736L587.013 302.572L707.464 371.814Z" fill="#595959"/>
<path d="M695.927 386.961L694.484 389.125L574.033 319.162L576.197 316.998L695.927 386.961Z" fill="#595959"/>
<path d="M684.387 402.104L682.945 404.268L563.215 334.305L564.657 332.142L684.387 402.104Z" fill="#595959"/>
<path d="M673.571 417.263L671.408 419.426L551.678 349.464L553.12 347.3L673.571 417.263Z" fill="#595959"/>
<path d="M618.754 402.104L616.59 400.662L735.599 241.983L738.484 244.147L618.754 402.104Z" fill="#797979"/>
<path d="M591.926 386.254L589.762 384.811L708.77 226.133L711.655 228.297L591.926 386.254Z" fill="#797979"/>
<path d="M565.098 370.403L562.934 368.96L681.942 210.282L684.827 212.446L565.098 370.403Z" fill="#797979"/>
<path d="M650.489 420.869L647.604 418.705L767.333 260.748L770.219 262.191L650.489 420.869Z" fill="#797979"/>
<path d="M926.575 394.676V471.851L917.92 467.523V389.627L926.575 394.676Z" fill="#8A8A8A"/>
<path d="M926.576 394.67L933.068 391.063V468.239L926.576 471.845V394.67Z" fill="#DEDEDE"/>
<path d="M933.067 391.069L924.411 386.021L917.92 389.627L926.575 394.676L933.067 391.069Z" fill="#999999"/>
<path d="M888.346 440.107V494.201L880.412 489.152V435.058L888.346 440.107Z" fill="#8A8A8A"/>
<path d="M888.352 440.115L894.843 436.509V490.604L888.352 494.21V440.115Z" fill="#DEDEDE"/>
<path d="M894.837 436.501L886.903 431.452L880.412 435.058L888.346 440.107L894.837 436.501Z" fill="#999999"/>
<path d="M968.425 365.618L833.549 287L703 459.382L838.598 538L968.425 365.618Z" fill="#BABCBF"/>
<path d="M834.474 298.877L954.925 368.118L835.916 526.796L715.465 456.834L834.474 298.877Z" fill="#424242"/>
<path d="M946.267 379.659L944.824 381.823L824.373 311.86L826.537 309.696L946.267 379.659Z" fill="#656565"/>
<path d="M935.446 394.804L933.283 396.967L813.553 327.005L814.995 324.841L935.446 394.804Z" fill="#656565"/>
<path d="M923.909 409.946L922.467 412.11L802.016 342.147L803.458 339.983L923.909 409.946Z" fill="#656565"/>
<path d="M912.365 425.103L910.922 427.267L790.471 357.304L792.635 355.141L912.365 425.103Z" fill="#656565"/>
<path d="M900.827 440.247L899.384 442.412L779.654 372.449L781.097 370.285L900.827 440.247Z" fill="#595959"/>
<path d="M890.009 454.67L887.845 456.834L768.115 387.592L769.558 385.429L890.009 454.67Z" fill="#595959"/>
<path d="M878.464 469.814L877.021 471.978L756.57 402.736L758.013 400.572L878.464 469.814Z" fill="#595959"/>
<path d="M866.927 484.961L865.484 487.125L745.033 417.162L747.197 414.998L866.927 484.961Z" fill="#595959"/>
<path d="M855.387 500.104L853.945 502.268L734.215 432.305L735.657 430.142L855.387 500.104Z" fill="#595959"/>
<path d="M844.571 515.263L842.408 517.426L722.678 447.464L724.12 445.3L844.571 515.263Z" fill="#595959"/>
<path d="M789.754 500.104L787.59 498.662L906.599 339.983L909.484 342.147L789.754 500.104Z" fill="#797979"/>
<path d="M762.926 484.254L760.762 482.811L879.77 324.133L882.655 326.297L762.926 484.254Z" fill="#797979"/>
<path d="M736.098 468.403L733.934 466.96L852.942 308.282L855.827 310.446L736.098 468.403Z" fill="#797979"/>
<path d="M821.489 518.869L818.604 516.705L938.333 358.748L941.219 360.191L821.489 518.869Z" fill="#797979"/>
</svg>
