<svg width="1290" height="1464" viewBox="0 0 1290 1464" fill="none" xmlns="http://www.w3.org/2000/svg">
<path d="M994.785 1172.86C864.814 1282.71 371.57 1255.69 238.369 1218.2C230.028 1170.25 212.698 1054.64 210.115 975.823C206.886 877.304 269.853 797.965 641.199 715.139C1012.55 632.313 1194.99 783.143 1208.71 858.994C1222.44 934.845 1124.76 1063.01 994.785 1172.86Z" fill="black" fill-opacity="0.06"/>
<path d="M748.525 548.394V649.466C748.525 651.993 750.21 654.52 753.579 656.625C760.738 660.837 772.109 660.837 779.268 656.625C782.638 654.52 784.743 651.993 784.743 649.466V550.078L748.525 548.394Z" fill="#CE6029"/>
<path d="M759.899 1053.75C747.686 1071.86 728.735 1088.71 703.467 1103.45C641.981 1138.82 556.912 1152.3 477.738 1143.88C475.212 1143.59 472.544 1143.45 469.737 1143.45C464.683 1143.45 459.77 1144.02 454.997 1145.14C447.417 1146.54 440.257 1149.21 433.519 1153.14L371.612 1117.34L318.971 1087.02L268.855 1057.96C274.751 1054.59 278.12 1048.7 278.12 1042.38C278.12 1039.86 277.559 1037.47 276.436 1035.22C272.506 1025.96 270.119 1016.41 269.277 1006.59H268.855V558.077H777.587V991.846C779.271 1012.9 773.375 1033.96 759.899 1053.75Z" fill="#FF7AF0"/>
<path d="M754.424 807.809C754.424 854.977 722.418 913.514 678.62 950.153C674.97 952.961 671.46 955.768 668.091 958.576C667.811 958.576 667.67 958.576 667.67 958.576C662.897 962.226 657.843 965.454 652.509 968.262C639.033 976.264 626.399 980.896 614.607 983.002C606.465 984.405 598.885 984.546 591.866 983.423C585.128 982.3 579.091 979.913 573.757 976.264C559.438 967.42 551.016 949.732 551.016 925.306C551.016 869.295 596.498 797.281 652.509 764.854C653.913 764.011 655.176 763.309 656.299 762.748C660.23 760.502 664.02 758.677 667.67 757.273C671.32 755.589 674.97 754.185 678.62 753.062C679.462 752.781 680.304 752.5 681.146 752.22C689.569 749.974 697.57 748.851 705.151 748.851C715.258 749.272 724.102 751.798 731.262 756.431C734.069 758.396 736.736 760.502 739.263 762.748C740.386 763.871 741.369 765.135 742.211 766.538C750.212 776.224 754.424 790.122 754.424 807.809Z" fill="#FFCC83"/>
<path d="M754.421 807.812C754.421 854.979 722.415 913.516 678.617 950.155C674.967 952.963 671.457 955.77 668.088 958.578C667.808 958.578 667.667 958.578 667.667 958.578C666.544 959.42 665.281 960.262 663.877 961.105C662.754 961.947 661.491 962.789 660.087 963.632C657.56 965.316 655.033 966.86 652.506 968.264C650.26 969.668 648.014 970.931 645.768 972.054C644.926 972.616 644.224 973.037 643.662 973.318C643.382 973.318 643.101 973.458 642.82 973.739C641.978 974.019 641.276 974.3 640.715 974.581C639.872 975.143 638.889 975.564 637.766 975.844C636.082 976.687 634.538 977.388 633.134 977.95C632.853 977.95 632.573 977.95 632.292 977.95C631.45 978.511 630.608 978.933 629.765 979.214C627.519 979.775 625.414 980.337 623.448 980.898C622.887 981.179 622.325 981.319 621.764 981.319C621.483 981.6 621.202 981.74 620.921 981.74C620.359 981.74 619.798 981.881 619.237 982.161C617.552 982.442 616.008 982.723 614.604 983.004C606.462 984.408 598.882 984.548 591.863 983.425C589.617 982.863 587.371 982.302 585.125 981.74C584.563 981.459 584.002 981.319 583.44 981.319C581.475 980.477 579.65 979.635 577.965 978.793C577.123 978.512 576.421 978.09 575.86 977.529C575.018 977.248 574.316 976.827 573.754 976.266C566.174 971.633 560.278 964.474 556.066 954.788C561.541 961.947 568.279 967.001 576.281 969.949C582.177 972.195 588.634 973.318 595.653 973.318C603.234 973.318 611.235 972.054 619.658 969.527C628.361 967 637.346 963.07 646.611 957.736C651.664 954.647 656.577 951.419 661.35 948.049C665.281 945.242 668.931 942.434 672.3 939.627C673.704 938.223 675.107 936.959 676.511 935.836C718.203 899.198 748.525 842.766 748.525 796.862C748.525 785.492 746.419 775.806 743.05 767.383C750.209 777.069 754.421 790.966 754.421 807.812Z" fill="#FF9B78"/>
<path d="M734.208 758.537C724.101 756.431 712.731 757.273 700.518 760.642C699.675 760.923 698.833 761.204 697.991 761.485C694.341 762.608 690.691 764.011 687.042 765.696C682.549 767.661 677.917 769.907 673.144 772.434C672.863 772.715 672.583 772.996 672.302 773.276C662.616 778.751 653.351 785.068 644.928 792.649C601.972 829.287 570.387 886.983 570.387 933.729C570.387 946.784 572.914 958.155 577.546 966.998C578.108 968.402 578.81 969.806 579.652 971.21C582.74 975.983 586.39 979.913 590.602 983.002C566.597 978.369 550.594 958.154 550.594 925.306C550.594 869.295 596.497 797.281 652.508 764.854C653.912 764.011 655.175 763.309 656.298 762.748C657.141 762.186 657.983 761.765 658.825 761.485C659.948 760.923 661.071 760.362 662.194 759.8C663.037 759.239 663.879 758.817 664.721 758.537C665.563 757.975 666.546 757.554 667.669 757.273C671.319 755.589 674.969 754.185 678.619 753.062C679.461 752.781 680.303 752.5 681.146 752.22C689.568 749.974 697.57 748.851 705.15 748.851C705.712 748.851 706.273 748.851 706.835 748.851C707.677 749.131 708.519 749.272 709.361 749.272C710.204 749.272 711.046 749.412 711.889 749.693C712.169 749.693 712.59 749.693 713.152 749.693C713.713 749.693 714.415 749.833 715.257 750.114C716.1 750.114 716.942 750.254 717.784 750.535C718.346 750.816 719.047 751.097 719.89 751.378C720.451 751.378 721.153 751.518 721.995 751.799C725.364 753.202 728.453 754.746 731.261 756.431C731.822 756.992 732.384 757.414 732.945 757.695C733.226 757.695 733.507 757.835 733.787 758.116C733.787 758.116 733.928 758.256 734.208 758.537Z" fill="#FFD3C0"/>
<path d="M433.519 1127.45L268.855 1032.27V726.531L433.519 822.971V1127.45Z" fill="#CE6029"/>
<path d="M318.126 929.521C318.126 934.574 314.336 935.838 309.703 933.311C305.071 930.363 300.859 924.467 300.859 919.835C300.859 914.781 305.071 913.518 309.703 916.045C314.336 918.993 318.126 924.888 318.126 929.521Z" fill="#81340D"/>
<path d="M431.836 879.404L313.076 811.18C313.076 778.331 339.608 766.961 372.456 785.912C405.305 804.863 431.836 846.976 431.836 879.404Z" fill="#FFCC83"/>
<path d="M454.995 810.759V1145.14C447.415 1146.54 440.256 1149.21 433.518 1153.14V822.972L454.995 810.759Z" fill="#FFD3C0"/>
<path d="M268.855 727.796L289.912 715.583L454.997 810.759L433.519 822.972L268.855 727.796Z" fill="#FFD3C0"/>
<path d="M433.519 1137.56V1153.14L268.855 1057.96V1042.38L433.519 1137.56Z" fill="#FFE6D9"/>
<path d="M433.519 1137.56L268.855 1042.38L289.912 1030.17L433.519 1113.13V1137.56Z" fill="#FFD3C0"/>
<path d="M273.906 732.006V1045.33L294.963 1033.12V742.956L273.906 732.006Z" fill="#FFB7AB"/>
<path d="M268.855 729.48L273.909 732.007V1045.33L268.855 1042.38V729.48Z" fill="#FFE6D9"/>
<path d="M428.889 821.707L433.521 824.655V1137.56L428.889 1134.61V821.707Z" fill="#FFE6D9"/>
<path d="M268.855 732.006L433.519 828.025V822.972L268.855 727.795V732.006Z" fill="#FFE6D9"/>
<path d="M815.489 560.605C815.208 564.816 814.787 569.027 814.225 573.239C808.329 611.141 780.113 648.201 729.998 677.259C615.871 742.956 430.993 742.956 316.865 677.259C260.012 644.411 231.375 601.034 231.375 558.078C231.375 556.955 231.375 555.972 231.375 555.13C232.217 535.758 238.534 516.386 250.747 497.856C252.151 495.61 253.695 493.364 255.38 491.117L308.443 415.313L325.709 391.309L365.717 334.456L489.531 158H556.912L718.628 387.518L729.156 402.679L747.686 428.79L754.424 438.476L755.688 440.16L770.006 460.375L791.484 491.117C793.169 493.364 794.713 495.469 796.117 497.435V497.856C800.328 504.032 803.697 510.209 806.224 516.386C812.962 530.704 815.91 545.865 815.489 560.605Z" fill="#FF953E"/>
<path opacity="0.7" d="M673.14 772.438L595.652 973.319C590.037 973.319 584.702 972.617 579.649 971.213C578.806 969.809 578.104 968.405 577.543 967.002L644.925 792.652C653.347 785.071 662.612 778.754 672.298 773.28C672.579 772.999 672.86 772.718 673.14 772.438Z" fill="white"/>
<path d="M577.551 966.998C578.112 968.402 578.814 969.806 579.656 971.209C578.533 970.929 577.41 970.508 576.287 969.946L577.551 966.998Z" fill="white"/>
<path opacity="0.7" d="M742.206 766.538L676.509 935.834C675.106 936.957 673.702 938.221 672.298 939.625C668.929 942.432 665.279 945.24 661.349 948.047C656.576 951.416 651.663 954.645 646.609 957.734C637.344 963.068 628.36 966.998 619.656 969.525L700.514 760.642C712.727 757.273 724.097 756.431 734.205 758.537C735.889 759.94 737.574 761.344 739.259 762.748C740.382 763.871 741.364 765.135 742.206 766.538Z" fill="white"/>
<path d="M754.417 419.525L737.151 414.05L665.979 391.73V436.37L577.541 397.204L570.802 452.794L476.047 398.047L464.255 473.43L399.822 397.204L351.391 432.159L348.022 385.834L325.702 391.309L299.592 397.204L365.71 334.456L489.523 158H556.905L646.185 284.761L754.417 419.525Z" fill="#FFC545"/>
<path d="M469.313 187.058L394.352 278.444L434.78 267.916L439.834 294.026L476.052 249.807L502.162 294.026L515.217 252.334L560.7 283.498L570.807 250.65L603.655 282.656V245.175L643.242 257.388L556.909 158H489.528L469.313 187.058Z" fill="#FFE574"/>
<path d="M814.221 573.238L734.206 548.391L737.575 562.709L748.525 609.034L667.667 564.815L681.143 646.936L591.02 585.451L560.699 673.468L499.213 587.977L438.148 697.473L408.669 638.093L372.451 679.785L356.869 627.985L313.913 662.94V574.501L246.111 586.293L254.112 551.339L231.371 555.129L206.945 559.34L250.743 497.855C252.147 495.609 253.691 493.363 255.376 491.117L308.439 415.312C310.544 414.049 377.084 413.628 390.981 415.312C404.878 417.418 646.189 433 646.189 433L770.002 460.374L823.065 521.438L806.22 516.385L781.373 508.383L815.485 560.604L825.592 576.607L814.221 573.238Z" fill="#FFC545"/>
<path d="M673.141 468.797L685.354 557.235L576.28 483.958L570.805 551.339L505.53 499.118L444.465 559.341L409.09 451.109L326.547 506.278L313.913 462.901L272.642 466.691L257.902 467.954L289.487 442.265L325.705 391.308L348.025 385.833L351.394 432.158L399.825 397.204L464.258 473.429L476.05 398.046L570.805 452.794L577.544 397.204L665.982 436.369V391.729L737.154 414.049L784.742 465.007L770.002 460.374L742.207 452.373L785.584 497.013L673.141 468.797Z" fill="#FFE574"/>
<path d="M788.114 659.572L766.636 652.834L761.161 706.739L729.997 677.26L727.892 729.481L687.463 697.474L681.146 732.007L652.508 709.266L646.191 744.642L610.816 718.952L597.761 744.642L573.335 724.006L553.121 786.755L521.114 726.533L501.321 752.222L465.946 723.164L443.626 764.014L394.353 709.687L365.716 732.007L336.236 686.525L319.812 705.055L294.965 662.942L277.699 673.47L271.382 643.148L244.008 655.782L248.219 625.039L222.951 635.989L226.741 609.036L212.423 614.511L217.897 584.189H204L231.374 555.131L254.115 551.341L246.113 586.295L313.916 574.503V662.942L356.872 627.987L372.454 679.787L408.671 638.094L438.151 697.474L499.215 587.979L560.701 673.47L591.023 585.453L681.146 646.938L667.67 564.817L748.527 609.036L737.578 562.711L783.482 634.725L788.114 659.572Z" fill="#CE6029"/>
<path d="M855.919 1046.17C855.919 1046.17 855.779 1046.17 855.498 1046.17C863.921 1041.96 870.237 1035.22 873.606 1025.54C875.01 1021.89 875.853 1017.96 876.134 1013.74C876.134 1013.18 876.134 1012.76 876.134 1012.48C876.414 1008.55 876.835 1005.04 877.397 1001.95C879.502 983.844 882.451 972.894 878.239 932.887C877.959 930.36 877.537 927.692 876.976 924.885C876.695 922.92 876.414 920.674 876.134 918.147C875.853 914.778 875.432 910.987 874.87 906.776C874.589 905.934 874.449 904.951 874.449 903.828H854.234C854.796 908.601 855.358 913.374 855.919 918.147C855.919 918.428 856.059 918.708 856.34 918.989C856.621 922.358 856.902 925.727 857.183 929.096C857.463 930.781 857.604 932.466 857.604 934.15C857.884 935.835 858.025 937.519 858.025 939.204C858.305 940.888 858.446 942.713 858.446 944.679C858.726 946.363 858.867 948.047 858.867 949.732C859.148 954.786 859.429 959.979 859.709 965.314C859.709 966.998 859.709 968.683 859.709 970.368C859.709 973.737 859.709 977.246 859.709 980.896C859.709 983.142 859.709 985.528 859.709 988.055C859.709 988.336 859.709 988.757 859.709 989.319C859.709 992.126 859.709 994.794 859.709 997.32C859.429 999.566 859.288 1001.81 859.288 1004.06C859.288 1004.9 859.288 1005.74 859.288 1006.59C859.008 1008.55 858.867 1010.38 858.867 1012.06C858.867 1013.46 858.726 1014.73 858.446 1015.85C858.446 1017.25 858.446 1018.66 858.446 1020.06C858.165 1020.9 858.025 1021.75 858.025 1022.59C858.025 1025.12 857.884 1027.5 857.604 1029.75C857.604 1030.03 857.604 1030.17 857.604 1030.17C857.323 1032.98 857.042 1035.64 856.761 1038.17C856.48 1040.7 856.2 1043.36 855.919 1046.17Z" fill="#FFC892"/>
<path d="M817.592 903.828V1053.75C831.91 1053.75 845.387 1052.07 855.494 1046.17C855.775 1046.17 855.915 1046.17 855.915 1046.17C856.196 1043.36 856.476 1040.7 856.757 1038.17C857.038 1035.64 857.319 1032.98 857.6 1030.17C857.6 1030.17 857.6 1030.03 857.6 1029.75C857.88 1027.5 858.021 1025.12 858.021 1022.59C858.021 1021.75 858.161 1020.9 858.442 1020.06C858.442 1018.66 858.442 1017.25 858.442 1015.85C858.722 1014.73 858.863 1013.46 858.863 1012.06C858.863 1010.38 859.003 1008.55 859.284 1006.59C859.284 1005.74 859.284 1004.9 859.284 1004.06C859.284 1001.81 859.425 999.566 859.705 997.32C859.705 994.794 859.705 992.126 859.705 989.319C859.705 988.757 859.705 988.336 859.705 988.055C859.705 985.528 859.705 983.142 859.705 980.896C859.705 977.246 859.705 973.737 859.705 970.368C859.705 968.683 859.705 966.998 859.705 965.314C859.425 959.979 859.143 954.786 858.863 949.732C858.863 948.047 858.722 946.363 858.442 944.679C858.442 942.713 858.301 940.888 858.021 939.204C858.021 937.519 857.88 935.835 857.6 934.15C857.6 932.466 857.459 930.781 857.179 929.096C856.898 925.727 856.617 922.358 856.336 918.989C856.055 918.708 855.915 918.428 855.915 918.147C855.353 913.374 854.792 908.601 854.23 903.828H817.592Z" fill="#FFE9B8"/>
<path d="M779.691 1046.17C790.219 1052.07 803.695 1053.75 817.593 1053.75V903.828H781.375C774.216 950.153 773.795 999.426 779.691 1046.17Z" fill="#FFD6AA"/>
<path d="M758.632 1002.79C758.913 1006.16 759.053 1009.39 759.053 1012.48C759.053 1012.76 759.193 1013.18 759.474 1013.74C759.755 1018.24 760.597 1022.17 762.001 1025.54C765.37 1035.22 771.687 1041.96 779.689 1046.17C773.793 999.426 774.214 950.153 781.374 903.828H761.159C760.597 905.513 760.176 907.197 759.895 908.882C759.334 911.128 758.773 913.234 758.211 915.199C758.211 916.322 758.07 917.305 757.79 918.147C757.228 921.235 756.807 924.323 756.526 927.412C754.421 951.416 756.526 979.632 758.632 1002.79Z" fill="#FFC892"/>
<path d="M756.525 927.412C758.21 934.572 764.106 941.31 774.213 947.206C798.639 960.261 838.225 960.261 862.651 947.206C869.81 942.995 875.285 937.941 878.233 932.887C877.953 930.36 877.531 927.693 876.97 924.886C876.97 925.166 876.83 925.588 876.549 926.149C875.145 928.957 873.32 931.343 871.074 933.308C866.862 937.941 861.388 940.889 855.913 943.416C850.017 945.942 844.121 947.627 837.804 948.891C831.908 950.014 825.732 950.575 819.275 950.575C818.432 950.575 817.59 950.575 816.747 950.575C811.413 950.575 806.079 950.014 800.745 948.891C794.849 948.048 788.952 946.504 783.057 944.258C782.214 943.977 781.512 943.696 780.951 943.416L778.845 942.573L776.74 941.31L774.634 940.468C771.826 938.783 769.3 936.958 767.054 934.993C764.808 932.747 762.842 930.361 761.158 927.834C760.316 926.149 758.631 921.938 757.788 918.147C757.227 921.236 756.806 924.324 756.525 927.412Z" fill="#C95039"/>
<path d="M758.631 1002.8C758.912 1006.17 759.052 1009.4 759.052 1012.48C762.14 1016.13 766.632 1019.5 772.528 1022.59C797.375 1036.07 838.225 1036.07 863.072 1022.59C868.687 1019.5 873.039 1016.13 876.128 1012.48C876.408 1008.55 876.829 1005.04 877.391 1001.96C875.987 1004.76 874.162 1007.15 871.916 1009.12C867.284 1013.75 861.809 1016.7 855.913 1019.22C850.017 1021.75 844.121 1023.01 837.804 1024.28C831.627 1025.4 825.31 1025.96 818.853 1025.96C818.011 1025.96 817.168 1025.96 816.326 1025.96C810.711 1025.96 805.236 1025.54 799.902 1024.7C793.444 1023.86 787.268 1022.31 781.372 1020.06C780.53 1019.78 779.828 1019.5 779.267 1019.22L776.739 1017.96L774.634 1017.12L772.528 1015.85C769.72 1014.45 767.194 1012.62 764.948 1010.38C762.421 1008.41 760.315 1006.03 758.631 1003.22C758.631 1003.22 758.631 1003.08 758.631 1002.8Z" fill="#C95039"/>
<path d="M762.002 1025.54C769.582 1047.44 792.745 1053.75 817.592 1053.75C842.86 1053.75 866.022 1047.44 873.603 1025.54C872.48 1027.5 871.076 1029.33 869.391 1031.01C865.18 1035.22 859.705 1038.59 854.231 1041.12C848.756 1043.23 842.86 1044.91 836.964 1046.17C830.788 1047.3 824.751 1047.86 818.855 1047.86C818.013 1047.86 817.171 1047.86 816.328 1047.86C810.994 1047.86 805.8 1047.44 800.747 1046.59C794.57 1045.75 788.674 1044.21 783.059 1041.96C782.216 1041.68 781.515 1041.4 780.953 1041.12L778.847 1039.86L776.742 1039.01L774.636 1037.75C772.109 1036.35 769.723 1034.52 767.477 1032.28C765.231 1030.31 763.406 1028.06 762.002 1025.54Z" fill="#C95039"/>
<path d="M761.163 907.2C761.163 907.762 761.303 908.323 761.584 908.884C762.426 916.465 767.901 923.624 777.588 929.52C799.908 942.154 835.704 942.154 857.603 929.52C867.71 923.624 873.185 916.465 874.028 908.884C874.028 908.323 874.028 907.762 874.028 907.2C874.87 898.356 869.395 889.933 857.603 883.195C835.704 870.561 799.908 870.561 777.588 883.195C766.217 889.933 760.742 898.356 761.163 907.2Z" fill="#B3ED62"/>
<path d="M759.897 907.199C759.897 907.48 760.038 907.761 760.319 908.041C760.6 911.13 761.442 913.797 762.846 916.043C764.249 918.85 766.074 921.237 768.32 923.202C770.566 925.448 772.953 927.273 775.48 928.677L777.585 929.941L779.691 930.783L781.797 932.046C782.358 932.327 783.06 932.608 783.902 932.888C789.237 935.134 794.852 936.678 800.748 937.521C803.836 938.082 806.784 938.363 809.592 938.363C811.276 938.644 812.82 938.784 814.224 938.784C814.785 938.784 815.487 938.784 816.33 938.784C810.995 938.784 805.801 938.223 800.748 937.1C795.133 936.257 789.518 934.573 783.902 932.046C783.341 931.765 782.779 931.484 782.218 931.204L780.112 929.941L778.006 929.098L776.322 927.835C773.795 926.15 771.549 924.325 769.584 922.36C765.372 918.149 762.425 912.674 762.425 907.199C762.425 906.638 762.425 905.936 762.425 905.094C762.425 905.094 762.425 904.953 762.425 904.672C762.425 904.391 762.425 904.251 762.425 904.251C763.267 899.619 765.794 895.407 768.742 892.038C772.953 887.827 777.585 884.879 783.06 882.773C788.113 880.246 794.009 878.983 799.484 877.72C800.888 877.439 802.292 877.298 803.696 877.298C805.38 876.877 806.643 876.456 808.328 876.456L812.539 876.035H816.751C828.542 876.035 839.913 877.72 850.863 881.931C851.424 882.212 851.986 882.492 852.547 882.773L854.653 883.615L856.758 884.879L858.443 885.721C860.97 887.125 863.216 888.81 865.181 890.775C869.392 894.565 872.341 899.198 872.762 904.251C873.043 904.532 873.183 904.813 873.183 905.094C873.183 905.094 873.183 905.234 873.183 905.515C873.183 908.462 872.762 911.41 871.498 914.358C870.375 916.885 868.971 919.131 867.287 921.096C864.76 924.044 861.391 926.571 858.022 928.677C856.618 929.519 854.934 930.361 852.969 931.204C847.073 934.152 840.334 936.257 833.596 937.521C829.104 938.363 824.752 938.784 820.541 938.784C820.822 938.784 821.243 938.784 821.805 938.784C826.577 938.504 831.491 937.942 836.544 937.1C842.019 935.836 847.915 934.152 853.39 932.046C858.864 929.519 864.339 926.15 868.129 921.939C870.235 919.833 872.34 917.306 873.604 914.358C874.165 912.674 874.587 910.989 874.867 909.305C875.148 907.901 875.288 906.497 875.288 905.094C875.288 898.776 871.92 892.881 867.708 888.669C863.076 884.037 858.022 880.668 852.547 878.141C841.176 873.087 828.964 871.403 816.751 870.981C804.538 871.403 792.325 873.508 781.376 878.983C775.901 881.931 770.426 885.3 766.636 889.933C762.425 894.565 759.476 900.882 759.897 907.199ZM819.278 938.784C819.559 938.784 819.979 938.784 820.541 938.784C819.979 938.784 819.418 938.784 818.856 938.784H819.278Z" fill="#E86C4F"/>
<path d="M856.758 894.567C856.758 888.672 848.756 884.039 839.491 884.039C829.805 884.039 822.225 888.672 822.225 894.567C822.225 895.69 822.506 896.813 823.067 897.936C822.225 897.936 821.242 897.936 820.119 897.936C817.593 897.936 815.066 898.217 812.539 898.779C812.819 898.217 812.96 897.515 812.96 896.673C812.96 891.198 804.958 886.566 795.693 886.566C786.007 886.566 778.006 891.198 778.006 896.673C778.006 902.569 786.007 906.78 795.693 906.78C795.974 906.78 796.255 906.78 796.536 906.78C794.43 909.307 793.588 911.834 793.588 914.782C793.588 924.047 805.38 931.206 820.119 931.206C834.859 931.206 846.651 924.047 846.651 914.782C846.651 910.991 844.966 907.622 841.597 904.675C850.02 904.253 856.758 899.621 856.758 894.567Z" fill="#A0D33C"/>
<path d="M785.167 732.851C785.167 734.816 785.308 736.782 785.588 738.747C786.009 743.38 786.851 748.012 787.272 752.644C787.694 756.014 788.536 758.961 789.378 762.33C789.659 764.015 789.94 765.559 790.221 766.963C790.501 768.647 790.922 770.332 791.484 772.017C792.747 779.176 796.117 786.335 798.643 793.495C800.328 798.127 801.591 802.759 802.012 807.813C802.293 810.621 802.574 813.428 802.855 816.236C803.697 825.501 804.96 835.187 805.381 844.873C805.662 848.803 805.943 852.874 806.224 857.086C806.504 859.051 806.645 861.157 806.645 863.403C806.926 869.579 807.206 875.756 807.487 881.933V888.25L807.908 900.884C807.908 903.691 807.908 906.499 807.908 909.307C807.908 915.203 812.12 919.835 817.594 920.256C818.437 920.537 819.139 920.537 819.7 920.256C824.754 920.256 828.965 916.045 829.808 910.991C831.211 902.007 832.053 893.023 832.334 884.039C832.615 877.02 832.755 870.001 832.755 862.982C832.474 856.244 832.053 849.505 831.492 842.767C830.228 830.554 828.544 818.341 825.596 806.55C825.596 805.707 825.455 804.725 825.175 803.602C824.052 800.233 822.929 797.004 821.806 793.916C820.964 791.67 820.121 789.283 819.279 786.756C818.998 786.195 818.717 785.493 818.437 784.651C817.033 781.562 815.629 778.474 814.225 775.386C812.962 772.438 811.277 769.49 810.014 766.542C809.452 765.138 808.891 763.875 808.329 762.752C807.768 761.067 807.207 759.383 806.645 757.698L804.96 753.487C804.539 751.802 803.697 750.539 803.697 748.854L801.591 740.01C801.31 738.887 801.17 737.624 801.17 736.22C801.17 735.939 801.17 735.659 801.17 735.378C800.889 733.693 800.749 732.149 800.749 730.745V726.113C800.749 724.428 800.749 722.884 800.749 721.48C800.749 718.111 800.749 715.163 801.17 712.215L802.434 702.951C802.855 700.845 803.276 698.318 803.697 696.212C803.978 695.37 804.259 694.528 804.539 693.686C805.382 689.193 806.364 684.842 807.487 680.63C812.12 660.837 819.279 641.465 828.123 623.356L820.542 618.724C816.331 625.462 812.541 632.481 809.172 639.78C806.926 644.272 804.96 649.045 803.276 654.099C800.328 661.258 796.537 668.418 793.59 675.577C791.905 680.63 790.22 685.263 789.378 690.738C789.097 692.141 788.817 693.685 788.536 695.37C786.43 707.162 783.903 721.059 785.167 732.851Z" fill="#B45B4D"/>
<path d="M788.533 695.369L803.694 696.212C803.975 695.369 804.256 694.527 804.537 693.685C805.379 689.193 806.361 684.841 807.484 680.63L793.587 675.576C791.902 680.63 790.218 685.262 789.375 690.737C789.095 692.141 788.814 693.685 788.533 695.369Z" fill="#B23B50"/>
<path d="M785.588 738.744C786.009 743.376 786.851 748.009 787.272 752.641C787.693 756.01 788.535 758.958 789.378 762.327C789.658 764.012 789.94 765.556 790.22 766.96C796.116 765.696 802.433 764.012 808.329 762.748C807.767 761.064 807.206 759.379 806.645 757.695L804.96 753.483C804.539 751.799 803.696 750.535 803.696 748.851L801.591 740.007C801.31 738.884 801.17 737.621 801.17 736.217L785.588 738.744Z" fill="#B23B50"/>
<path d="M798.639 793.492C800.323 798.125 801.586 802.757 802.007 807.811C802.288 810.618 802.569 813.426 802.85 816.233L825.591 806.547C825.591 805.705 825.451 804.722 825.17 803.599C824.047 800.23 822.924 797.002 821.801 793.913C820.959 791.667 820.117 789.281 819.274 786.754L798.639 793.492Z" fill="#B23B50"/>
<path d="M806.223 857.084C806.503 859.049 806.644 861.155 806.644 863.401C806.925 869.578 807.206 875.754 807.486 881.931V888.248L832.333 884.037C832.614 877.018 832.754 869.999 832.754 862.98C825.174 861.295 815.488 859.19 806.223 857.084Z" fill="#B23B50"/>
<path opacity="0.4" d="M785.167 732.85C785.167 734.815 785.308 736.781 785.588 738.746C786.009 743.378 786.851 748.011 787.272 752.643C787.694 756.012 788.536 758.96 789.378 762.329C789.659 764.014 789.94 765.558 790.221 766.962C790.501 768.646 790.922 770.331 791.484 772.015C792.747 779.175 796.117 786.334 798.643 793.494C800.328 798.126 801.591 802.758 802.012 807.812C802.293 810.619 802.574 813.427 802.855 816.235C803.697 825.5 804.96 835.186 805.381 844.872C805.662 848.802 805.943 852.873 806.224 857.085C806.504 859.05 806.645 861.156 806.645 863.402C806.926 869.578 807.206 875.755 807.487 881.932V888.249L807.908 900.883C807.908 903.69 807.908 906.498 807.908 909.306C807.908 915.201 812.12 919.834 817.594 920.255C818.437 920.536 819.139 920.536 819.7 920.255C820.542 873.93 815.489 799.81 798.222 761.066C773.375 705.055 807.487 661.257 807.487 661.257L814.225 641.885L809.172 639.779C806.926 644.271 804.96 649.044 803.276 654.098C800.328 661.257 796.537 668.416 793.59 675.576C791.905 680.629 790.22 685.262 789.378 690.737C789.097 692.14 788.817 693.684 788.536 695.369C786.43 707.161 783.903 721.058 785.167 732.85Z" fill="#7F3B4B"/>
<path d="M819.695 638.096C820.257 639.78 820.818 641.324 821.38 642.728C834.014 629.533 847.49 617.039 861.809 605.247C865.178 602.44 868.547 599.772 871.916 597.246L875.706 572.399L894.657 580.822C910.66 569.591 927.225 559.624 944.351 550.921L945.193 534.497L966.25 539.971C966.25 539.971 966.25 540.112 966.25 540.392C988.71 530.285 1011.87 522.003 1035.74 515.546C1035.74 515.546 871.074 511.334 819.695 638.096Z" fill="#95AA3A"/>
<path d="M814.643 638.092C814.081 642.584 813.379 647.076 812.537 651.569C813.8 651.569 872.338 636.408 874.023 561.446C874.023 553.865 873.18 546.285 871.496 538.704L855.914 534.914L869.39 530.282C863.915 513.436 855.072 498.276 844.543 486.063L834.436 499.539L836.963 476.798C834.717 474.552 832.471 472.446 830.225 470.481C810.01 451.53 790.217 443.949 788.111 442.686C813.801 502.908 823.486 570.711 814.643 638.092Z" fill="#606B1C"/>
<path d="M814.643 638.092C816.608 637.811 818.713 637.25 820.96 636.408C863.915 509.225 791.902 445.633 788.111 442.686C813.801 502.908 823.486 570.711 814.643 638.092Z" fill="#95AA3A"/>
<path d="M1006.68 615.773C947.301 606.508 884.131 614.088 825.593 639.778C823.908 641.041 854.651 579.134 926.244 566.079C940.983 563.973 952.775 564.815 962.883 567.763L955.723 580.397L971.726 571.132C1002.05 584.609 1007.1 617.036 1006.68 615.773Z" fill="#606B1C"/>
<path d="M779.692 614.513C780.113 616.197 790.221 555.975 733.789 518.915C676.514 484.803 632.716 521.442 633.98 520.599C665.565 530.286 695.465 544.604 722.418 563.134L731.683 558.502L727.05 566.503C746.423 580.401 763.689 596.404 779.692 614.513Z" fill="#606B1C"/>
<path d="M665.98 483.958C665.98 483.958 666.121 483.958 666.402 483.958C691.248 499.961 713.99 518.491 734.625 539.127L754.84 534.916L748.523 554.288C768.316 575.766 785.161 599.77 799.48 625.038C802.568 630.654 805.516 636.269 808.324 641.884C809.447 643.849 810.43 645.814 811.272 647.78C811.272 648.06 811.412 648.201 811.693 648.201C811.974 649.043 812.254 649.745 812.535 650.307C812.816 650.587 812.957 650.868 812.957 651.149C812.957 651.149 813.097 651.289 813.378 651.57C813.378 651.57 813.378 651.429 813.378 651.149C813.658 650.868 813.939 650.447 814.22 649.885C814.5 649.324 814.782 648.762 815.062 648.201C819.274 637.251 829.802 603.561 817.168 564.395C814.22 554.709 809.587 544.602 803.27 534.495L791.478 542.917L795.269 523.545C793.865 521.58 792.321 519.474 790.636 517.228C733.362 456.163 668.086 482.695 665.98 483.958Z" fill="#B4BE21"/>
<path d="M812.959 651.569C812.959 651.288 813.099 651.148 813.38 651.148C813.661 650.867 813.941 650.586 814.222 650.306C814.503 650.025 814.643 649.744 814.643 649.463C814.924 649.183 815.205 648.902 815.486 648.621C815.486 648.621 815.626 648.621 815.907 648.621C815.907 648.34 815.907 648.2 815.907 648.2C817.591 646.516 819.416 644.69 821.382 642.725C834.016 629.53 847.492 617.036 861.811 605.244C865.18 602.437 868.549 599.769 871.918 597.243L875.708 572.396L894.659 580.818C910.662 569.588 927.227 559.621 944.353 550.918L945.195 534.494L966.252 539.968C966.252 539.968 966.252 540.109 966.252 540.389C988.712 530.282 1011.87 522 1035.74 515.543C1037.42 515.121 962.462 487.327 891.711 530.282C848.334 556.814 828.541 596.821 819.276 623.774C817.17 630.933 815.485 637.251 814.222 641.883C813.941 643.287 813.801 644.41 813.801 645.252L813.38 646.515C813.38 646.515 813.38 646.656 813.38 646.936C813.38 647.217 813.38 647.358 813.38 647.358C813.38 647.638 813.38 647.779 813.38 647.779V648.2C813.099 650.165 812.959 651.288 812.959 651.569Z" fill="#B4BE21"/>
<path d="M597.759 601.454C614.323 600.331 630.888 600.331 647.452 601.454C651.664 595.558 656.296 588.399 656.296 588.399L657.981 602.296C679.88 604.261 701.638 608.052 723.257 613.667C727.468 609.034 735.47 600.611 735.47 600.611L732.1 616.193C755.684 622.932 779.267 632.196 802.009 643.567C806.782 646.094 811.554 648.761 816.327 651.569C818.012 652.832 794.429 590.504 728.732 559.761L725.362 565.236C725.362 565.236 724.099 561.446 722.836 557.235C716.378 554.146 709.359 551.619 701.779 549.654C698.129 548.812 694.76 548.11 691.672 547.548L685.355 557.235L677.774 546.285C655.875 545.443 639.451 551.339 627.659 559.761L629.343 571.132L622.184 563.973C602.812 580.397 597.337 602.296 597.759 601.454Z" fill="#B4BE21"/>
<path d="M597.76 601.456C614.324 600.333 630.889 600.333 647.454 601.456C651.665 595.56 656.297 588.401 656.297 588.401L657.982 602.298C679.881 604.264 701.64 608.054 723.258 613.669C727.469 609.036 735.471 600.614 735.471 600.614L732.102 616.196C755.685 622.934 779.269 632.199 802.01 643.569C800.325 638.516 797.378 633.041 797.378 633.041C797.378 633.041 700.517 526.073 597.76 601.456Z" fill="#95AA3A"/>
<path d="M734.63 539.129L754.845 534.917L748.528 554.289C768.321 575.767 785.166 599.772 799.485 625.04C801.169 624.759 802.994 624.479 804.96 624.198C799.485 514.703 670.196 485.223 666.406 483.96C691.253 499.963 713.994 518.493 734.63 539.129Z" fill="#95AA3A"/>
<path d="M812.541 649.463C815.068 648.901 817.595 648.48 820.122 648.199C855.076 644.409 890.872 646.936 925.826 655.359C924.984 650.726 924.563 643.988 924.563 643.146L936.355 657.886C952.077 662.378 967.519 668.133 982.68 675.152C983.101 673.467 983.101 624.616 924.984 607.349C914.035 604.401 903.085 603.559 892.136 604.822L890.03 616.193C890.03 616.193 886.24 610.297 883.713 606.086C868.552 609.034 854.654 615.351 844.126 622.089C823.069 634.302 812.962 649.463 812.541 649.463Z" fill="#B4BE21"/>
<path d="M820.117 648.202C855.071 644.412 890.868 646.939 925.822 655.361C924.98 650.729 924.559 643.991 924.559 643.149L936.35 657.888C952.073 662.38 967.514 668.136 982.675 675.155C982.675 675.155 917.82 593.876 820.538 644.833C820.257 645.956 820.117 647.079 820.117 648.202Z" fill="#95AA3A"/>
<path d="M822.228 642.726C822.228 648.201 817.596 652.834 812.121 652.834C806.646 652.834 802.014 648.201 802.014 642.726C802.014 637.251 806.646 632.619 812.121 632.619C817.596 632.619 822.228 637.251 822.228 642.726Z" fill="#B4BE21"/>
</svg>
