<svg width="702" height="760" viewBox="0 0 702 760" fill="none" xmlns="http://www.w3.org/2000/svg">
<path opacity="0.07" d="M232.366 528.956L0 690.129L37.1785 729L386.588 652.68L673 446L232.366 528.956Z" fill="black"/>
<path d="M319.028 530.658V28.6233C319.028 11.9772 307.391 5.20093 292.954 13.5976L115.445 116.126C105.87 121.576 98.0625 134.982 98.0625 146.177V648.359C98.0625 664.858 109.7 671.634 124.136 663.384L301.646 560.856C311.221 555.258 319.028 541.853 319.028 530.658Z" fill="#333333"/>
<path fill-rule="evenodd" clip-rule="evenodd" d="M112.499 668.835C102.482 668.835 96 660.733 96 648.359V146.177C96 134.392 104.249 120.103 114.414 114.358L291.923 11.8301C296.342 9.32578 300.614 8 304.592 8C314.609 8 320.943 16.1021 320.943 28.6235V530.658C320.943 542.443 312.841 556.732 302.677 562.477L125.02 665.005C120.601 667.657 116.476 668.835 112.499 668.835ZM304.592 11.9774C301.351 11.9774 297.668 13.1559 293.985 15.2182L116.329 117.746C107.343 123.05 99.9774 135.718 99.9774 146.177V648.359C99.9774 658.523 104.839 664.858 112.499 664.858C115.74 664.858 119.275 663.679 123.105 661.617L300.614 559.089C309.748 553.786 316.966 541.117 316.966 530.658V28.6235C316.966 18.3117 312.252 11.9774 304.592 11.9774Z" fill="#333333"/>
<path d="M335.085 536.696V34.5147C335.085 18.0159 323.447 11.2396 309.011 19.489L131.354 122.017C121.779 127.615 114.119 141.02 114.119 152.068V654.25C114.119 670.896 125.757 677.672 140.046 669.276L317.702 566.748C327.277 561.297 335.085 547.745 335.085 536.696Z" fill="white"/>
<path fill-rule="evenodd" clip-rule="evenodd" d="M128.555 674.874C118.538 674.874 112.057 666.772 112.057 654.251V152.069C112.057 140.432 120.306 126.142 130.47 120.397L307.98 17.8691C312.399 15.2176 316.671 14.0391 320.648 14.0391C330.665 14.0391 337 21.9938 337 34.5152V536.697C337 548.482 328.75 562.624 318.733 568.516L141.077 671.044C136.657 673.548 132.533 674.874 128.555 674.874ZM320.648 18.0165C317.407 18.0165 313.725 19.1949 310.042 21.2573L132.385 123.785C123.4 128.941 116.034 141.757 116.034 152.069V654.251C116.034 664.562 120.895 670.897 128.555 670.897C131.649 670.897 135.332 669.718 139.162 667.656L316.671 565.128C325.657 559.825 333.022 547.156 333.022 536.697V34.5152C333.022 24.3508 328.308 18.0165 320.648 18.0165Z" fill="#333333"/>
<path d="M142.699 203.481L310.78 113.327V476.742L142.699 575.146V203.481Z" fill="#FF8E02"/>
<path fill-rule="evenodd" clip-rule="evenodd" d="M140.783 578.682V202.303L312.695 109.939V477.774L140.783 578.682ZM144.761 204.66V571.758L308.864 475.564V116.716L144.761 204.66Z" fill="#333333"/>
<path d="M307.98 8.14648C307.98 8.14648 327.425 10.5035 332.728 19.784L323.447 15.0701L299.436 20.8152L307.98 8.14648Z" fill="#333333"/>
<path d="M101.893 664.71C101.893 664.71 116.476 677.085 129.734 674.58L121.485 671.339L106.165 650.863L101.893 664.71Z" fill="#333333"/>
<path d="M238.154 104.93C238.154 99.1848 234.029 96.8278 228.874 99.774C223.865 102.72 219.74 109.791 219.74 115.684C219.74 121.429 223.865 123.786 228.874 120.839C234.029 117.893 238.154 110.822 238.154 104.93Z" fill="#333333"/>
<path fill-rule="evenodd" clip-rule="evenodd" d="M161.848 305.862L195.582 286.417V325.16L161.848 344.605V305.862ZM189.1 297.465L168.182 309.545V333.556L189.1 321.477V297.465Z" fill="#333333"/>
<path d="M239.186 382.611L255.243 373.33V298.055L245.226 303.947V258.723L238.744 262.405V314.995L248.761 309.25V369.647L239.186 375.245V382.611Z" fill="#333333"/>
<path d="M172.748 371.562V424.152L182.765 418.259V445.806L189.247 442.123V407.211L179.23 413.103V367.879L172.748 371.562Z" fill="#333333"/>
<path d="M233.439 278.757L255.978 265.793V258.428L233.439 271.391V278.757Z" fill="#333333"/>
<path d="M242.721 288.185L255.979 280.525V273.159L242.721 280.819V288.185Z" fill="#333333"/>
<path fill-rule="evenodd" clip-rule="evenodd" d="M266.879 245.17L300.613 225.725V264.467L266.879 283.912V245.17ZM294.279 236.773L273.361 248.852V272.864L294.279 260.784V236.773Z" fill="#333333"/>
<path d="M286.913 248.853L280.432 252.683V260.048L286.913 256.365V248.853Z" fill="#333333"/>
<path fill-rule="evenodd" clip-rule="evenodd" d="M266.879 358.156L300.613 338.563V377.306L266.879 396.898V358.156ZM294.279 349.759L273.361 361.839V385.85L294.279 373.771V349.759Z" fill="#333333"/>
<path d="M286.913 361.84L280.432 365.523V372.888L286.913 369.205V361.84Z" fill="#333333"/>
<path d="M210.019 301.442L203.537 305.125V312.491L210.019 308.808V301.442Z" fill="#333333"/>
<path d="M174.368 345.487L167.887 349.317V356.683L174.368 352.853V345.487Z" fill="#333333"/>
<path d="M280.286 284.354L273.951 288.036V295.402L280.286 291.719V284.354Z" fill="#333333"/>
<path d="M245.372 336.797L238.891 340.627V347.992L245.372 344.31V336.797Z" fill="#333333"/>
<path d="M231.673 363.313L225.191 366.996V374.362L231.673 370.679V363.313Z" fill="#333333"/>
<path d="M194.551 347.402L188.217 351.085V358.451L194.551 354.768V347.402Z" fill="#333333"/>
<path d="M223.276 415.755L216.941 419.438V426.803L223.276 423.12V415.755Z" fill="#333333"/>
<path d="M213.259 336.944L206.777 340.627V347.993L213.259 344.31V336.944Z" fill="#333333"/>
<path d="M194.844 332.967L188.51 336.65V344.162L194.844 340.332V332.967Z" fill="#333333"/>
<path d="M169.361 373.182L162.879 376.864V384.23L169.361 380.547V373.182Z" fill="#333333"/>
<path d="M286.914 332.819L280.58 336.502V343.868L286.914 340.185V332.819Z" fill="#333333"/>
<path d="M181.292 309.838L174.811 313.668V321.033L181.292 317.351V309.838Z" fill="#333333"/>
<path d="M225.191 411.924L231.378 408.242V374.213L225.191 377.748V411.924Z" fill="#333333"/>
<path d="M184.238 365.081V372.152L213.995 354.917V347.846L184.238 365.081Z" fill="#333333"/>
<path d="M218.562 365.08L224.455 361.84V301.295L218.562 304.683V365.08Z" fill="#333333"/>
<path d="M287.209 287.448L300.025 280.083V273.159L287.209 280.525V287.448Z" fill="#333333"/>
<path d="M238.301 330.904L251.264 323.539V316.615L238.301 323.981V330.904Z" fill="#333333"/>
<path d="M275.57 317.498L288.386 310.133V303.209L275.57 310.575V317.498Z" fill="#333333"/>
<path d="M294.574 299.823V314.554L300.614 311.018V296.287L294.574 299.823Z" fill="#333333"/>
<path d="M260.104 317.942L266.88 313.964V292.31L260.104 296.287V317.942Z" fill="#333333"/>
<path d="M201.768 328.547V336.355L220.623 325.454V317.499L201.768 328.547Z" fill="#333333"/>
<path d="M160.521 398.52V406.327L178.346 396.015V388.208L160.521 398.52Z" fill="#333333"/>
<path d="M210.018 293.487V301.442L228.873 290.393V282.586L210.018 293.487Z" fill="#333333"/>
<path d="M160.67 450.668V458.476L179.526 447.575V439.62L160.67 450.668Z" fill="#333333"/>
<path d="M185.27 421.942V429.75L215.174 412.514V404.707L185.27 421.942Z" fill="#333333"/>
<path d="M203.537 281.997V289.804L222.393 278.903V271.096L203.537 281.997Z" fill="#333333"/>
<path d="M232.557 409.569V417.376L251.412 406.475V398.668L232.557 409.569Z" fill="#333333"/>
<path d="M196.318 400.877L203.095 396.9V375.245L196.318 379.222V400.877Z" fill="#333333"/>
<path d="M160.521 421.205L167.298 417.228V395.573L160.521 399.551V421.205Z" fill="#333333"/>
<path d="M260.104 341.51L294.869 321.329V314.258L260.104 334.292V341.51Z" fill="#333333"/>
<path d="M143.729 208.637L306.065 121.135V478.51L310.779 476.742V113.327L145.202 201.861L143.729 208.637Z" fill="#333333"/>
</svg>
