<svg width="1445" height="937" viewBox="0 0 1445 937" fill="none" xmlns="http://www.w3.org/2000/svg">
<path d="M959.5 818.5L527.5 833.5L495.5 852.5C357.833 786.167 76.2 645.8 51 615C25.8 584.2 6.5 540.167 0 522L271 350.5H506.5L771 179C875.5 194.5 1093.8 228.5 1131 240.5C1177.5 255.5 1302.5 354.5 1355.5 420.5C1397.9 473.3 1409.83 490.5 1410.5 492.5L1247.5 596L771 640.5V698L1110 727.5L959.5 818.5Z" fill="black" fill-opacity="0.1"/>
<path d="M687.329 317.618L509.754 420.331L745.329 556.004L923.16 453.547L687.329 317.618Z" fill="#27AE60"/>
<path d="M893.012 334.992L689.119 217.204V209.028L893.012 326.56V334.992Z" fill="#263545"/>
<path d="M753.249 298.71L693.717 264.472V167.125L753.249 201.363V298.71Z" fill="#F1E9C8"/>
<path d="M820.704 337.8L761.172 303.563V205.96L820.704 240.453V337.8Z" fill="#F1E9C8"/>
<path d="M888.158 376.894L828.881 342.401V245.054L888.158 279.291V376.894Z" fill="#F1E9C8"/>
<path d="M738.943 212.859L709.049 195.996V185.265L738.943 202.383V212.859Z" fill="#E74C3C"/>
<path d="M715.434 209.281L700.359 200.594V195.739L715.434 204.426V209.281Z" fill="#34495E"/>
<path d="M746.608 227.167L717.736 210.56V205.705L746.608 222.313V227.167Z" fill="#34495E"/>
<path d="M746.606 236.876L700.359 210.304V206.982L746.606 233.555V236.876Z" fill="#7F8C8D"/>
<path d="M746.606 242.756L700.359 216.183V212.606L746.606 239.179V242.756Z" fill="#7F8C8D"/>
<path d="M746.606 248.374L700.359 221.802V218.48L746.606 245.053V248.374Z" fill="#7F8C8D"/>
<path d="M746.606 254.253L700.359 227.681V224.359L746.606 250.932V254.253Z" fill="#7F8C8D"/>
<path d="M806.396 251.954L776.502 234.835V224.359L806.396 241.478V251.954Z" fill="#E74C3C"/>
<path d="M782.889 248.376L767.814 239.689V234.579L782.889 243.266V248.376Z" fill="#34495E"/>
<path d="M814.059 266.263L785.188 249.655V244.545L814.059 261.153V266.263Z" fill="#34495E"/>
<path d="M814.061 275.972L767.814 249.399V245.822L814.061 272.395V275.972Z" fill="#7F8C8D"/>
<path d="M814.061 281.59L767.814 255.018V251.696L814.061 278.269V281.59Z" fill="#7F8C8D"/>
<path d="M814.061 287.468L767.814 260.896V257.574L814.061 284.147V287.468Z" fill="#7F8C8D"/>
<path d="M814.061 293.342L767.814 266.77V263.448L814.061 289.765V293.342Z" fill="#7F8C8D"/>
<path d="M873.849 291.043L844.211 273.925V263.193L873.849 280.312V291.043Z" fill="#E74C3C"/>
<path d="M850.343 287.21L835.523 278.778V273.668L850.343 282.355V287.21Z" fill="#34495E"/>
<path d="M881.77 305.352L852.643 288.744V283.634L881.77 300.242V305.352Z" fill="#34495E"/>
<path d="M881.77 314.805L835.523 288.233V284.911L881.77 311.484V314.805Z" fill="#7F8C8D"/>
<path d="M881.77 320.684L835.523 294.112V290.79L881.77 317.363V320.684Z" fill="#7F8C8D"/>
<path d="M881.77 326.559L835.523 299.986V296.409L881.77 322.982V326.559Z" fill="#7F8C8D"/>
<path d="M881.77 332.182L835.523 305.865V302.288L881.77 328.861V332.182Z" fill="#7F8C8D"/>
<path d="M672.256 389.669L665.357 385.836V296.92C665.357 294.365 666.89 293.088 668.934 294.365C670.723 295.387 672.256 298.454 672.256 300.753V389.669Z" fill="#34495E"/>
<path d="M679.409 385.58L673.021 389.412L667.145 283.634C668.167 283.123 673.021 280.312 673.788 279.801C674.469 279.46 675.236 279.546 676.087 280.057C677.876 281.079 679.409 284.145 679.409 286.7V385.58Z" fill="#1F2B38"/>
<path d="M672.256 361.819V300.753C672.256 298.454 670.723 295.387 668.934 294.365C666.89 293.088 665.357 294.365 665.357 296.92V357.986L672.256 361.819Z" fill="#263545"/>
<path d="M675.832 391.967L661.779 383.791V381.492C661.779 378.937 663.312 377.915 665.101 378.937L672.766 383.28C674.554 384.302 675.832 387.113 675.832 389.412V391.967Z" fill="#34495E"/>
<path d="M810.74 461.976L804.097 465.809L798.221 360.03C799.243 359.519 804.097 356.709 805.119 356.198C805.63 355.857 806.312 355.942 807.163 356.453C808.952 357.475 810.74 360.541 810.74 363.096V461.976Z" fill="#1F2B38"/>
<path d="M804.096 465.811L797.197 461.979V362.843C797.197 360.288 798.73 359.266 800.519 360.288H800.774C802.563 361.31 804.096 364.376 804.096 366.931V465.811Z" fill="#34495E"/>
<path d="M755.551 485.993V444.602L762.449 448.69V489.826L755.551 485.993Z" fill="#34495E"/>
<path d="M762.449 448.689L768.837 444.856V486.248L762.449 489.825V448.689Z" fill="#1F2B38"/>
<path d="M614.256 403.978V362.586L621.154 366.674V407.81L614.256 403.978Z" fill="#34495E"/>
<path d="M621.154 366.672L627.798 362.84V404.232L621.154 407.809V366.672Z" fill="#1F2B38"/>
<path d="M804.096 437.958V376.892C804.096 374.337 802.563 371.527 800.774 370.249H800.519C798.73 369.227 797.197 370.505 797.197 373.06V433.87L804.096 437.958Z" fill="#263545"/>
<path d="M804.863 436.683L633.42 337.802L643.896 331.926L815.339 431.061L804.863 436.683Z" fill="#E74C3C"/>
<path d="M804.863 436.683L633.42 337.802L643.896 331.926L815.339 431.061L804.863 436.683Z" fill="#E74C3C"/>
<path d="M820.447 427.741L649.004 328.861V318.641L820.447 417.776V427.741Z" fill="#C0392B"/>
<path d="M827.602 413.429L656.158 314.549L649.004 318.637L820.447 417.773L827.602 413.429Z" fill="#E74C3C"/>
<path d="M820.447 427.741L827.602 423.653V413.433L820.447 417.776V427.741Z" fill="#80261D"/>
<path d="M804.863 446.904L633.42 348.024V337.804L804.863 436.684V446.904Z" fill="#C0392B"/>
<path d="M804.861 446.9L815.337 441.024V430.804L804.861 436.68V446.9Z" fill="#80261D"/>
<path d="M789.276 445.879L617.832 346.743L628.308 341.122L799.751 440.002L789.276 445.879Z" fill="#E74C3C"/>
<path d="M789.276 455.846L617.832 356.966V346.746L789.276 445.882V455.846Z" fill="#C0392B"/>
<path d="M789.277 455.843L799.498 449.966V439.746L789.277 445.878V455.843Z" fill="#80261D"/>
<path d="M773.691 454.822L602.248 355.942L612.724 350.065L783.912 449.201L773.691 454.822Z" fill="#E74C3C"/>
<path d="M773.691 465.044L602.248 365.908V355.943L773.691 454.824V465.044Z" fill="#C0392B"/>
<path d="M773.689 465.045L783.91 459.168V448.948L773.689 454.825V465.045Z" fill="#80261D"/>
<path d="M827.602 398.099L656.158 299.219L649.004 303.307L820.447 402.443L827.602 398.099Z" fill="#E74C3C"/>
<path d="M820.447 412.41L827.602 408.322V398.102L820.447 402.445V412.41Z" fill="#80261D"/>
<path d="M827.602 382.769L656.158 283.889L649.004 287.977L820.447 387.112L827.602 382.769Z" fill="#E74C3C"/>
<path d="M820.447 397.08L827.602 392.992V382.771L820.447 387.115V397.08Z" fill="#80261D"/>
<path d="M820.447 412.411L649.004 313.531V303.311L820.447 402.446V412.411Z" fill="#C0392B"/>
<path d="M820.447 397.081L649.004 298.201V287.98L820.447 387.116V397.081Z" fill="#C0392B"/>
<path d="M509.5 419.565L745.331 556.005V587.687L509.5 451.503V419.565Z" fill="#2C3E50"/>
<path d="M923.161 453.544L745.33 556.001V587.684L923.161 485.226V453.544Z" fill="#233140"/>
<path d="M525.597 235.344L509.5 226.146V419.562L525.597 429.016V235.344Z" fill="#34495E"/>
<path d="M521.764 233.301L513.332 228.446V421.863L521.764 426.718V233.301Z" fill="#2C3E50"/>
<path d="M745.33 362.333L759.383 354.412V547.829L745.33 556.005V362.333Z" fill="#1D2A36"/>
<path d="M525.596 235.343L539.648 227.423V420.84L525.596 429.016V235.343Z" fill="#1D2A36"/>
<path d="M745.331 362.332L729.234 353.134V546.551L745.331 556.004V362.332Z" fill="#34495E"/>
<path d="M741.496 360.284L733.32 355.43V548.846L741.496 553.701V360.284Z" fill="#2C3E50"/>
<path d="M909.107 268.051L923.16 259.875V453.547L909.107 461.468V268.051Z" fill="#1D2A36"/>
<path d="M909.108 268.051L893.012 258.598V452.27L909.108 461.468V268.051Z" fill="#34495E"/>
<path d="M905.275 265.747L896.844 260.893V454.309L905.275 459.164V265.747Z" fill="#2C3E50"/>
<path d="M858.007 132.885L752.228 71.8195C736.642 62.8769 722.589 61.8549 711.347 67.476C696.528 74.6301 567.754 150.259 530.961 171.466L745.329 362.328L923.16 259.871V257.316C923.16 209.281 894.033 153.581 858.007 132.885Z" fill="#FFE26E"/>
<path d="M651.814 279.033L662.29 288.487L886.878 158.691C883.983 155.114 880.917 151.707 877.68 148.471L651.814 279.033Z" fill="#FFEA94"/>
<path d="M676.086 300.756L745.328 362.333L923.159 259.875V257.32C923.159 228.959 912.938 198.043 897.097 173.004L676.086 300.756Z" fill="#E67E22"/>
<path d="M680.432 235.346L574.398 174.28C538.627 153.584 509.5 175.558 509.5 223.592V226.148L745.331 362.331V359.776C745.331 311.997 716.203 256.297 680.432 235.346Z" fill="#F1C40F"/>
<path d="M524.83 234.324C523.553 192.421 546.548 169.937 574.909 174.536L574.398 174.28C538.627 153.584 509.5 175.558 509.5 223.592V226.148L524.83 235.09C524.83 234.749 524.83 234.494 524.83 234.324Z" fill="#F39C12"/>
<path d="M680.431 235.344L674.555 232.278C702.916 260.128 722.589 307.397 723.867 349.299C724.037 349.47 724.123 349.725 724.123 350.066L745.329 362.33V359.775C745.329 311.996 716.202 256.296 680.431 235.344Z" fill="#F39C12"/>
<path fill-rule="evenodd" clip-rule="evenodd" d="M632.907 224.612C634.44 225.634 635.717 227.338 636.739 229.723C637.761 232.278 638.272 235.173 638.272 238.41C638.272 241.816 637.761 244.116 636.739 245.308C635.717 246.671 634.355 246.841 632.651 245.819C632.14 245.479 631.629 245.138 631.118 244.797C630.607 244.286 630.181 243.775 629.841 243.264C629.5 242.924 629.159 242.242 628.819 241.22L628.308 240.965L627.541 242.498L623.453 240.198V212.093L628.819 215.159V221.546C628.819 222.228 628.734 223.42 628.563 225.123L628.819 225.379C629.33 224.527 629.926 224.101 630.607 224.101C631.118 223.931 631.885 224.101 632.907 224.612ZM630.863 229.212C630.181 228.701 629.67 228.701 629.33 229.212C628.989 229.723 628.819 230.745 628.819 232.278V233.3C628.819 234.833 628.989 236.11 629.33 237.132C629.67 237.984 630.181 238.665 630.863 239.176C631.544 239.517 632.055 239.347 632.396 238.665C632.736 237.984 632.907 236.877 632.907 235.344C632.907 231.937 632.226 229.893 630.863 229.212Z" fill="#34495E"/>
<path d="M652.327 256.806L651.56 253.996L651.305 253.74C650.794 254.422 650.197 254.762 649.516 254.762C648.664 254.762 647.727 254.507 646.705 253.996C645.002 252.974 643.639 251.526 642.617 249.652C641.766 247.779 641.34 245.649 641.34 243.265V229.979L646.45 233.045V244.287C646.45 245.649 646.62 246.757 646.961 247.608C647.302 248.46 647.813 249.056 648.494 249.397C649.346 249.908 649.942 249.823 650.282 249.141C650.794 248.29 651.049 246.757 651.049 244.542V235.6L656.159 238.666V259.106L652.327 256.806Z" fill="#34495E"/>
<path d="M671.745 261.919C671.745 263.964 671.234 265.241 670.212 265.752C669.02 266.263 667.401 265.922 665.357 264.73C664.165 264.049 663.143 263.367 662.291 262.686C661.44 262.005 660.588 261.238 659.736 260.386V254.765C660.588 255.617 661.525 256.469 662.547 257.32C663.398 258.342 664.25 259.024 665.102 259.364C666.294 260.046 666.89 260.046 666.89 259.364C666.89 259.024 666.72 258.598 666.379 258.087C666.039 257.576 665.102 256.469 663.569 254.765C662.036 253.232 661.014 251.784 660.503 250.422C659.992 249.229 659.736 247.867 659.736 246.334C659.736 244.46 660.247 243.268 661.269 242.757C662.462 242.416 664.08 242.757 666.124 243.779C667.146 244.46 668.083 245.227 668.934 246.078C669.786 246.76 670.723 247.696 671.745 248.889L670.212 252.721C669.531 251.87 668.764 251.018 667.912 250.166C667.231 249.485 666.635 248.974 666.124 248.633C665.272 248.122 664.846 248.207 664.846 248.889C664.846 249.229 664.932 249.57 665.102 249.911C665.443 250.422 666.379 251.444 667.912 252.977C668.935 254.169 669.701 255.191 670.212 256.043C670.723 256.895 671.149 257.831 671.489 258.853C671.66 259.705 671.745 260.727 671.745 261.919Z" fill="#34495E"/>
<path d="M635.462 274.436C635.462 276.65 634.951 277.927 633.929 278.268C632.736 278.779 631.118 278.438 629.074 277.246C627.882 276.565 626.86 275.883 626.008 275.202C625.156 274.691 624.305 273.925 623.453 272.903V267.281C624.305 268.303 625.156 269.24 626.008 270.092C627.03 270.944 627.967 271.54 628.819 271.881C630.011 272.562 630.607 272.562 630.607 271.881C630.607 271.54 630.437 271.114 630.096 270.603C629.756 270.262 628.819 269.24 627.286 267.537C625.753 265.834 624.731 264.386 624.22 263.193C623.709 261.831 623.453 260.383 623.453 258.85C623.453 256.976 623.964 255.784 624.986 255.273C626.178 254.932 627.797 255.358 629.841 256.55C630.863 257.061 631.8 257.743 632.651 258.594C633.503 259.446 634.44 260.383 635.462 261.405L633.929 265.237C633.247 264.386 632.481 263.619 631.629 262.938C630.948 262.086 630.352 261.49 629.841 261.149C628.989 260.809 628.563 260.894 628.563 261.405C628.563 261.745 628.648 262.086 628.819 262.427C629.159 262.938 630.096 263.96 631.629 265.493C632.651 266.685 633.418 267.707 633.929 268.559C634.44 269.581 634.866 270.518 635.206 271.37C635.377 272.221 635.462 273.243 635.462 274.436Z" fill="#34495E"/>
<path d="M645.939 281.59C646.62 281.931 647.472 282.186 648.494 282.357V287.467C647.813 287.467 647.131 287.382 646.45 287.211C645.769 286.871 645.002 286.53 644.15 286.189C642.447 284.997 641.17 283.634 640.318 282.101C639.637 280.398 639.296 278.354 639.296 275.969V267.537L637.252 266.515V263.705L639.807 262.683L641.085 259.361L644.661 261.15V265.493L648.239 267.537V272.903L644.661 270.604V278.78C644.661 279.972 645.087 280.909 645.939 281.59Z" fill="#34495E"/>
<path fill-rule="evenodd" clip-rule="evenodd" d="M665.867 287.98C665.867 291.387 665.186 293.601 663.823 294.623C662.461 295.645 660.587 295.475 658.202 294.112C655.818 292.75 653.944 290.705 652.581 287.98C651.219 285.255 650.537 282.274 650.537 279.037C650.537 275.801 651.219 273.587 652.581 272.394C653.944 271.372 655.818 271.543 658.202 272.905C659.735 273.757 661.098 274.949 662.29 276.482C663.483 278.015 664.42 279.804 665.101 281.848C665.612 283.722 665.867 285.766 665.867 287.98ZM655.903 282.103C655.903 283.977 656.073 285.425 656.414 286.447C656.755 287.639 657.351 288.491 658.202 289.002C659.054 289.513 659.65 289.343 659.991 288.491C660.331 287.81 660.502 286.617 660.502 284.914C660.502 283.04 660.331 281.592 659.991 280.57C659.65 279.548 659.054 278.782 658.202 278.271C657.351 277.76 656.755 277.845 656.414 278.526C656.073 279.208 655.903 280.4 655.903 282.103Z" fill="#34495E"/>
<path fill-rule="evenodd" clip-rule="evenodd" d="M678.132 305.608C677.45 305.268 676.769 304.757 676.088 304.075C675.406 303.224 674.81 302.202 674.299 301.009H674.044C674.214 302.542 674.299 303.479 674.299 303.82V311.996L668.934 308.93V279.547L673.277 281.846L674.044 284.912L674.299 285.168C675.321 283.805 676.684 283.635 678.387 284.657C680.091 285.509 681.453 287.212 682.475 289.767C683.327 292.152 683.753 294.962 683.753 298.199C683.753 301.605 683.242 303.905 682.22 305.097C681.198 306.46 679.835 306.63 678.132 305.608ZM676.343 289.001C675.662 288.49 675.151 288.575 674.81 289.256C674.469 289.767 674.299 290.704 674.299 292.067V292.833C674.299 294.536 674.469 295.899 674.81 296.921C675.151 297.773 675.662 298.454 676.343 298.965C677.025 299.306 677.536 299.221 677.876 298.71C678.217 298.028 678.387 296.836 678.387 295.133C678.387 293.259 678.217 291.896 677.876 291.045C677.536 290.023 677.025 289.341 676.343 289.001Z" fill="#34495E"/>
<path fill-rule="evenodd" clip-rule="evenodd" d="M617.067 239.435L571.076 212.863C571.587 207.241 572.098 201.45 572.609 195.488C572.865 191.4 574.909 189.101 577.975 189.356C588.45 191.145 599.693 197.532 609.913 208.008C612.979 210.819 615.023 215.673 615.534 220.272C616.045 226.915 616.556 233.303 617.067 239.435ZM614.001 234.325C613.66 229.215 613.234 224.105 612.723 218.995C612.723 215.929 611.19 212.863 609.146 210.819C604.292 205.964 583.596 194.211 578.741 193.189C576.953 192.933 575.42 194.466 575.164 197.277C574.824 202.046 574.398 206.645 573.887 211.074L614.001 234.325Z" fill="#34495E"/>
<path d="M575.162 243.521V249.909C575.162 252.72 576.951 255.786 578.995 256.808C580.783 258.085 582.572 256.808 582.572 254.253V247.61L575.162 243.521Z" fill="#34495E"/>
<path d="M605.568 260.893V267.536C605.568 270.091 607.101 273.157 609.145 274.434C611.19 275.456 612.722 274.179 612.722 271.624V265.236L605.568 260.893Z" fill="#34495E"/>
<path fill-rule="evenodd" clip-rule="evenodd" d="M617.067 239.434V270.35L571.076 243.777V212.861L617.067 239.434ZM582.574 239.945C582.574 237.134 581.041 234.068 578.997 233.046C576.953 231.769 575.42 233.046 575.42 235.601C575.42 238.412 576.953 241.478 578.997 242.5C581.041 243.777 582.574 242.5 582.574 239.945ZM602.503 251.443C602.503 248.887 600.97 245.566 598.926 244.544L589.217 238.923C587.173 237.645 585.384 238.923 585.384 241.478C585.384 244.288 587.173 247.354 589.217 248.376L598.926 254.253C600.97 255.275 602.503 253.998 602.503 251.443ZM612.723 257.319C612.723 254.764 611.19 251.443 609.146 250.421C607.102 249.143 605.569 250.42 605.569 253.231C605.569 255.786 607.102 258.852 609.146 260.13C611.19 261.152 612.723 259.874 612.723 257.319Z" fill="#34495E"/>
<path d="M745.331 353.133L509.5 216.693V226.147L745.331 362.331V353.133Z" fill="#FFDC4D"/>
<path d="M686.649 560.27C685.206 528.52 665.867 493.018 642.488 479.452L250.23 252.872C247.055 251.14 244.457 251.14 242.148 252.295C239.551 253.738 67.2344 349.277 67.2344 354.761L176.628 452.609C176.628 461.845 243.303 451.454 250.23 455.495L514.621 804.746C517.508 806.477 685.494 705.743 687.515 704.877C690.978 703.723 692.999 699.393 692.71 693.332L686.649 560.27Z" fill="#FFE26E"/>
<path d="M514.619 804.746C517.506 806.477 685.492 705.743 687.513 704.877C690.976 703.723 692.997 699.393 692.708 693.332L690.11 638.202L480.271 759.43L514.619 804.746Z" fill="#D35400"/>
<path d="M667.887 505.141L403.496 657.829L480.273 759.43L690.112 638.202L686.649 560.27C685.783 541.509 678.567 521.304 667.887 505.141Z" fill="#1F5F8A"/>
<path d="M514.33 659.56C513.176 627.81 493.837 592.308 470.457 579.03L77.9114 352.45C70.9842 348.41 65.5 352.739 65.5 361.975V530.828C65.5 540.064 70.9842 550.744 77.9114 554.785L159.884 602.121C159.596 581.628 169.409 566.619 189.037 578.164C208.953 589.421 218.766 615.687 218.477 635.892L392.525 736.626C392.525 715.844 402.05 701.124 421.966 712.38C441.594 723.926 451.407 749.903 451.119 770.396L508.269 803.301C515.485 807.342 521.257 802.724 520.68 792.621L514.33 659.56Z" fill="#F1C40F"/>
<path d="M392.528 736.627L440.73 708.629L384.734 695.929L392.528 736.627Z" fill="#7D3200"/>
<path d="M474.212 753.945C474.212 765.202 470.171 772.995 464.11 776.17C463.821 776.459 438.421 790.891 438.133 791.179C433.514 792.911 449.967 777.902 443.905 774.438C428.608 765.779 419.66 742.4 419.66 722.195C419.66 711.804 398.012 718.443 403.208 714.979C403.785 714.691 428.896 700.259 429.473 699.97C434.092 697.372 440.153 697.95 446.792 701.702C461.801 710.361 474.212 733.741 474.212 753.945Z" fill="#121A21"/>
<path d="M159.02 602.122L207.222 574.413L151.227 561.713L159.02 602.122Z" fill="#7D3200"/>
<path d="M242.435 620.304C242.435 631.85 238.394 639.643 232.333 642.818C232.044 643.107 206.644 657.538 206.355 657.538C201.737 659.559 218.189 644.55 212.128 641.086C196.83 632.138 187.882 609.047 187.882 588.843C187.882 578.163 166.235 585.09 171.43 581.627C172.007 581.338 197.119 566.618 197.696 566.329C202.314 564.02 208.376 564.309 215.014 568.061C230.023 576.72 242.435 600.1 242.435 620.304Z" fill="#121A21"/>
<path d="M518.371 737.201L65.5 475.696V530.826C65.5 540.062 70.9842 550.742 77.9114 554.783L159.884 602.119C159.596 581.626 169.409 566.617 189.037 578.162C208.953 589.419 218.766 615.685 218.477 635.89L392.525 736.624C392.525 715.842 402.05 701.122 421.966 712.378C441.594 723.924 451.407 749.901 451.119 770.394L508.269 803.299C515.485 807.34 521.257 802.722 520.68 792.619L518.371 737.201Z" fill="#F39C12"/>
<path d="M496.437 724.789L451.121 657.537V770.394L496.437 796.371V724.789Z" fill="#FFD119"/>
<path d="M469.881 738.36L455.738 729.99V721.619L469.881 729.99V738.36Z" fill="#34495E"/>
<path d="M389.35 541.797L85.993 366.306C82.5294 364.574 79.9316 366.595 79.9316 370.924V427.786L389.35 606.452V541.797Z" fill="#2980B9"/>
<path d="M450.83 677.453C465.839 697.369 481.714 716.13 496.435 724.79C496.435 697.08 493.548 669.371 492.394 654.939C489.796 623.767 477.962 593.748 461.798 584.223L450.83 578.162V677.453Z" fill="#2980B9"/>
<path d="M441.593 572.68C422.543 561.712 399.74 548.724 399.74 548.724V612.512C409.265 617.996 424.274 640.51 441.593 664.467V572.68Z" fill="#2980B9"/>
<path d="M518.372 737.494C512.31 733.741 505.094 729.7 505.094 729.7C505.094 729.7 503.074 665.623 499.61 644.553C496.147 623.482 488.642 599.814 481.715 596.062C490.374 600.968 496.435 605.587 496.435 605.587C496.435 605.587 512.888 626.657 514.331 659.562C515.774 692.755 518.372 737.494 518.372 737.494Z" fill="#2980B9"/>
<path d="M131.886 424.033L389.35 572.681V541.797L85.993 366.306C82.5294 364.574 79.9316 366.595 79.9316 370.924V409.89C96.0953 409.024 113.991 413.642 131.886 424.033Z" fill="#3498DB"/>
<path d="M450.83 619.148C467.282 637.044 482.003 658.403 494.126 681.494C493.548 669.949 492.971 660.135 492.394 654.939C489.796 623.767 477.962 593.748 461.798 584.223L450.83 578.162V619.148Z" fill="#3498DB"/>
<path d="M441.593 572.68C422.543 561.712 399.74 548.724 399.74 548.724V578.742L406.667 582.494C418.79 589.71 430.624 598.658 441.593 609.337V572.68Z" fill="#3498DB"/>
<path d="M499.61 644.553C501.342 654.655 502.497 661.871 503.651 683.807C508.847 695.93 513.754 708.341 517.794 721.041C516.929 700.259 515.485 682.075 514.331 659.562C512.888 626.657 496.435 605.587 496.435 605.587C496.435 605.587 490.374 600.968 481.715 596.062C488.642 599.814 496.147 623.482 499.61 644.553Z" fill="#3498DB"/>
<path d="M73.5819 480.603L65.5 475.696V529.094L73.5819 533.712V480.603Z" fill="#E74C3C"/>
<path d="M88.3024 500.23L65.5 486.953V475.696L96.6728 493.88C96.6728 499.942 92.9206 502.828 88.3024 500.23Z" fill="#E74C3C"/>
<path d="M519.238 758.563L505.961 750.77V767.51L520.104 775.592L519.238 758.563Z" fill="#ECF0F1"/>
<path d="M526.166 422.879L409.845 355.626C406.959 353.895 404.073 353.606 402.052 355.049C401.186 355.338 286.02 421.724 285.443 422.301C284 424.322 421.679 513.511 421.679 513.511L538.577 445.97C538.577 437.022 533.093 426.631 526.166 422.879Z" fill="#BDC3C7"/>
<path d="M405.227 502.83C415.329 509.469 421.679 513.509 421.679 513.509L538.577 445.968C538.577 440.484 536.268 434.134 532.804 429.228L405.227 502.83Z" fill="#7F8C8D"/>
<path d="M409.556 490.133L293.236 422.881C286.308 419.128 280.824 423.169 280.824 432.117L421.679 513.513C421.679 504.565 416.195 494.174 409.556 490.133Z" fill="#95A5A6"/>
<path d="M485.466 543.527L432.068 512.932V519.57L485.466 550.166V543.527Z" fill="#F39C12"/>
<path d="M598.035 478.583L485.467 543.526V550.165L598.035 485.222V478.583Z" fill="#D35400"/>
<path d="M266.392 551.031L221.076 524.765V637.622L266.392 663.599V551.031Z" fill="#FFD119"/>
<path d="M240.125 605.587L225.693 597.216V588.846L239.837 597.216L240.125 605.587Z" fill="#34495E"/>
<path d="M68.9637 517.55L65.5 515.529V486.954L68.9637 488.975V517.55Z" fill="#FFD119"/>
<path d="M68.9648 415.664L77.9126 420.571V426.632L68.9648 421.437V415.664Z" fill="#2C3E50"/>
<path d="M68.9648 406.425L77.9126 411.62V417.682L68.9648 412.486V406.425Z" fill="#2C3E50"/>
<path d="M68.9648 397.478L77.9126 402.673V408.734L68.9648 403.539V397.478Z" fill="#2C3E50"/>
<path d="M68.9648 388.53L77.9126 393.726V399.787L68.9648 394.592V388.53Z" fill="#2C3E50"/>
<path d="M124.093 557.961L110.238 550.168V561.425L124.093 569.218V557.961Z" fill="#2C3E50"/>
<path d="M342.593 684.382L328.738 676.3V687.557L342.593 695.638V684.382Z" fill="#2C3E50"/>
<path d="M141.989 557.092L90.9004 527.651V530.249L141.989 559.69V557.092Z" fill="#2C3E50"/>
<path d="M141.989 552.188L90.9004 522.747V525.056L141.989 554.497V552.188Z" fill="#2C3E50"/>
<path d="M141.989 546.991L90.9004 517.55V519.859L141.989 549.3V546.991Z" fill="#2C3E50"/>
<path d="M141.989 541.797L90.9004 512.356V514.954L141.989 544.395V541.797Z" fill="#2C3E50"/>
<path d="M141.989 536.6L90.9004 507.159V509.757L141.989 539.198V536.6Z" fill="#2C3E50"/>
<path d="M403.782 495.039L299.007 434.425C297.852 433.848 296.986 432.116 296.986 430.384C296.986 428.941 297.852 428.075 299.007 428.941L403.782 489.266C404.936 489.844 405.802 491.864 405.802 493.307C405.802 495.039 404.936 495.616 403.782 495.039Z" fill="#ECF0F1"/>
<path opacity="0.5" d="M450.83 677.457L65.5 454.918V467.907L470.457 701.702L450.83 677.457Z" fill="#1ABC9C"/>
<path opacity="0.5" d="M426.585 643.397L65.5 435.001V447.412L441.594 664.467L426.585 643.397Z" fill="#1ABC9C"/>
<path d="M217.034 635.024C217.034 655.228 204.623 664.465 189.614 655.806C174.605 646.858 162.193 623.767 162.193 603.562C162.193 583.358 174.605 574.121 189.614 582.78C204.623 591.439 217.034 614.819 217.034 635.024Z" fill="#2C3E50"/>
<path d="M209.241 630.695C209.241 645.127 200.293 651.765 189.614 645.415C178.645 639.354 169.986 622.324 169.986 607.893C169.986 593.461 178.645 586.822 189.614 593.172C200.293 599.233 209.241 616.263 209.241 630.695Z" fill="#D9DDDE"/>
<path d="M205.778 628.677C205.778 640.511 198.563 645.995 189.615 640.8C180.667 635.605 173.451 621.75 173.451 609.916C173.451 598.082 180.667 592.598 189.615 597.793C198.563 602.989 205.778 616.843 205.778 628.677Z" fill="#BDC3C7"/>
<path d="M195.677 622.907C195.677 627.237 193.08 629.546 189.616 627.525C186.152 625.505 183.555 620.309 183.555 615.691C183.555 611.073 186.152 609.052 189.616 611.073C193.08 613.093 195.677 618.289 195.677 622.907Z" fill="#D9DDDE"/>
<path d="M190.77 614.822C190.77 615.688 190.193 615.976 189.615 615.688C189.038 615.399 188.461 614.244 188.461 613.378C188.461 612.513 189.038 612.224 189.615 612.513C190.193 613.09 190.77 613.956 190.77 614.822Z" fill="#34495E"/>
<path d="M193.077 618.861C192.789 619.15 191.923 618.573 191.634 617.707C191.057 616.841 191.057 615.975 191.634 615.686C191.923 615.398 192.789 615.686 193.077 616.552C193.655 617.418 193.655 618.284 193.077 618.861Z" fill="#34495E"/>
<path d="M193.367 622.902C192.79 622.613 192.213 621.747 192.213 620.881C192.213 620.015 192.79 619.727 193.367 620.015C193.945 620.304 194.522 621.459 194.522 622.036C194.522 622.902 193.945 623.479 193.367 622.902Z" fill="#34495E"/>
<path d="M191.634 625.214C191.057 624.348 191.057 623.194 191.634 622.905C191.923 622.616 192.789 623.194 193.077 623.771C193.655 624.637 193.655 625.791 193.077 626.08C192.789 626.368 191.923 626.08 191.634 625.214Z" fill="#34495E"/>
<path d="M188.461 623.769C188.461 622.903 189.038 622.615 189.615 622.903C190.193 623.192 190.77 624.346 190.77 625.212C190.77 625.789 190.193 626.367 189.615 626.078C189.038 625.501 188.461 624.635 188.461 623.769Z" fill="#34495E"/>
<path d="M186.152 619.728C186.44 619.44 187.306 620.017 187.595 620.883C188.172 621.46 188.172 622.615 187.595 622.903C187.306 623.192 186.44 622.903 186.152 622.037C185.574 621.172 185.574 620.306 186.152 619.728Z" fill="#34495E"/>
<path d="M185.573 615.687C186.439 615.976 186.727 616.842 186.727 617.708C186.727 618.574 186.439 618.862 185.573 618.574C184.996 618.285 184.707 617.13 184.707 616.265C184.707 615.687 184.996 615.11 185.573 615.687Z" fill="#34495E"/>
<path d="M187.595 613.378C188.172 614.244 188.172 615.11 187.595 615.688C187.306 615.976 186.44 615.399 186.152 614.533C185.574 613.956 185.574 612.801 186.152 612.513C186.44 612.224 187.306 612.513 187.595 613.378Z" fill="#34495E"/>
<path d="M189.615 595.774C187.595 594.619 185.574 594.619 185.574 594.619C185.574 594.619 187.595 607.319 189.615 608.474C191.636 609.628 193.367 599.237 193.367 599.237C193.367 599.237 191.636 596.928 189.615 595.774Z" fill="#1D2A36"/>
<path d="M175.761 596.925C174.607 598.08 174.029 600.389 174.029 600.389C174.029 600.389 182.111 610.202 183.266 608.759C184.42 607.605 178.936 595.193 178.936 595.193C178.936 595.193 177.204 595.482 175.761 596.925Z" fill="#1D2A36"/>
<path d="M172.585 614.533C172.874 617.42 174.029 620.306 174.029 620.306C174.029 620.306 182.11 620.017 181.822 617.131C181.245 614.245 172.297 609.338 172.297 609.338C172.297 609.338 172.008 611.647 172.585 614.533Z" fill="#1D2A36"/>
<path d="M181.822 635.895C183.842 638.204 185.862 639.647 185.862 639.647C185.862 639.647 187.883 629.256 186.151 626.947C184.131 624.638 178.646 630.988 178.646 630.988C178.646 630.988 180.09 633.874 181.822 635.895Z" fill="#1D2A36"/>
<path d="M197.119 644.84C199.14 644.551 200.294 643.397 200.294 643.397C200.294 643.397 194.81 630.985 193.078 630.985C191.347 631.274 193.367 643.974 193.367 643.974C193.367 643.974 195.387 644.84 197.119 644.84Z" fill="#1D2A36"/>
<path d="M206.642 634.45C207.22 632.141 206.931 629.255 206.931 629.255C206.931 629.255 197.983 623.771 197.406 626.368C197.117 628.678 205.199 638.203 205.199 638.203C205.199 638.203 206.354 636.759 206.642 634.45Z" fill="#1D2A36"/>
<path d="M203.18 612.513C202.025 609.916 200.294 607.606 200.294 607.606C200.294 607.606 194.521 613.379 195.964 616.266C197.119 619.152 205.2 618.286 205.2 618.286C205.2 618.286 204.623 615.4 203.18 612.513Z" fill="#1D2A36"/>
<path d="M448.81 768.952C448.81 789.157 436.687 798.393 421.39 789.734C406.381 780.786 394.258 757.407 394.258 737.491C394.258 717.286 406.381 708.05 421.39 716.709C436.687 725.368 448.81 748.748 448.81 768.952Z" fill="#2C3E50"/>
<path d="M441.016 764.625C441.016 779.057 432.357 785.696 421.389 779.346C410.71 772.996 401.762 756.255 401.762 741.823C401.762 727.391 410.71 720.752 421.389 726.814C432.357 733.164 441.016 749.905 441.016 764.625Z" fill="#D9DDDE"/>
<path d="M437.554 762.607C437.554 774.441 430.338 779.925 421.39 774.73C412.442 769.534 405.227 755.68 405.227 743.846C405.227 732.012 412.442 726.527 421.39 731.723C430.338 736.918 437.554 750.484 437.554 762.607Z" fill="#BDC3C7"/>
<path d="M427.739 756.83C427.739 761.159 424.853 763.469 421.39 761.448C418.215 759.428 415.328 754.232 415.328 749.614C415.328 744.996 418.215 742.975 421.39 744.996C424.853 747.016 427.739 752.212 427.739 756.83Z" fill="#D9DDDE"/>
<path d="M422.545 748.75C422.545 749.616 421.968 749.905 421.391 749.616C420.814 749.039 420.236 748.173 420.236 747.307C420.236 746.441 420.814 746.153 421.391 746.441C421.968 747.019 422.545 747.884 422.545 748.75Z" fill="#34495E"/>
<path d="M425.142 752.501C424.564 753.079 423.987 752.501 423.41 751.635C423.121 750.77 423.121 749.904 423.41 749.615C423.987 749.326 424.564 749.615 425.142 750.481C425.43 751.347 425.43 752.213 425.142 752.501Z" fill="#34495E"/>
<path d="M425.43 756.832C424.853 756.543 424.275 755.677 424.275 754.811C424.275 753.945 424.853 753.657 425.43 753.945C426.007 754.234 426.584 755.1 426.584 755.966C426.584 756.831 426.007 757.12 425.43 756.832Z" fill="#34495E"/>
<path d="M423.41 759.14C423.121 758.274 423.121 757.12 423.41 756.831C423.987 756.542 424.564 756.831 425.142 757.697C425.43 758.563 425.43 759.717 425.142 760.006C424.564 760.295 423.987 759.717 423.41 759.14Z" fill="#34495E"/>
<path d="M420.236 757.697C420.236 756.831 420.814 756.542 421.391 756.831C421.968 757.12 422.545 758.274 422.545 758.851C422.545 759.717 421.968 760.295 421.391 759.717C420.814 759.429 420.236 758.563 420.236 757.697Z" fill="#34495E"/>
<path d="M417.927 753.654C418.505 753.365 419.082 753.943 419.659 754.52C419.948 755.386 419.948 756.54 419.659 756.829C419.082 757.118 418.505 756.54 417.927 755.963C417.639 755.097 417.639 753.943 417.927 753.654Z" fill="#34495E"/>
<path d="M417.639 749.328C418.216 749.905 418.794 750.771 418.794 751.637C418.794 752.503 418.216 752.792 417.639 752.503C417.062 752.214 416.484 751.06 416.484 750.194C416.484 749.328 417.062 749.039 417.639 749.328Z" fill="#34495E"/>
<path d="M419.659 747.307C419.948 748.173 419.948 749.039 419.659 749.328C419.082 749.905 418.505 749.328 417.927 748.462C417.639 747.596 417.639 746.73 417.927 746.441C418.505 746.153 419.082 746.441 419.659 747.307Z" fill="#34495E"/>
<path d="M421.389 729.701C419.369 728.547 417.637 728.547 417.637 728.547C417.637 728.547 419.369 741.247 421.389 742.401C423.41 743.556 425.43 732.876 425.43 732.876C425.43 732.876 423.41 730.856 421.389 729.701Z" fill="#1D2A36"/>
<path d="M407.825 730.567C406.382 732.01 405.805 734.319 405.805 734.319C405.805 734.319 413.886 744.133 415.041 742.69C416.484 741.535 410.711 728.835 410.711 728.835C410.711 728.835 408.98 729.412 407.825 730.567Z" fill="#1D2A36"/>
<path d="M404.359 748.461C404.936 751.348 406.091 754.234 406.091 754.234C406.091 754.234 414.172 753.945 413.595 751.059C413.018 748.172 404.359 743.266 404.359 743.266C404.359 743.266 404.07 745.575 404.359 748.461Z" fill="#1D2A36"/>
<path d="M413.886 769.818C415.618 772.127 417.638 773.281 417.638 773.281C417.638 773.281 419.659 763.179 417.927 760.87C416.195 758.561 410.711 764.911 410.711 764.911C410.711 764.911 412.154 767.508 413.886 769.818Z" fill="#1D2A36"/>
<path d="M429.185 778.769C430.916 778.48 432.36 777.325 432.36 777.325C432.36 777.325 426.875 764.914 424.855 764.914C423.123 764.914 425.432 777.903 425.432 777.903C425.432 777.903 427.164 778.769 429.185 778.769Z" fill="#1D2A36"/>
<path d="M438.707 768.377C438.996 765.78 438.707 763.182 438.707 763.182C438.707 763.182 429.76 757.698 429.471 760.007C428.894 762.605 436.975 772.13 436.975 772.13C436.975 772.13 438.13 770.686 438.707 768.377Z" fill="#1D2A36"/>
<path d="M435.245 746.439C433.802 743.552 432.359 741.243 432.359 741.243C432.359 741.243 426.586 747.304 427.741 750.191C429.184 752.789 436.977 752.211 436.977 752.211C436.977 752.211 436.4 749.325 435.245 746.439Z" fill="#1D2A36"/>
<path d="M432.068 512.934L544.925 447.702L598.034 478.586L485.466 543.53L432.068 512.934Z" fill="#F1C40F"/>
<path d="M200.293 383.335L147.184 352.451V359.09L200.293 389.974V383.335Z" fill="#F39C12"/>
<path d="M313.15 318.103L200.293 383.334V389.973L313.15 325.03V318.103Z" fill="#D35400"/>
<path d="M147.184 352.451L259.752 287.508L313.15 318.103L200.293 383.335L147.184 352.451Z" fill="#F1C40F"/>
<path d="M520.104 775.591L571.77 745.862L571.481 740.378C571.193 735.182 565.42 731.719 560.513 734.605L519.238 758.562L520.104 775.591Z" fill="#ECF0F1"/>
<path d="M582.16 761.158L630.073 733.449C632.383 732.005 633.826 729.408 633.826 726.81L633.537 722.48L585.623 750.19C583.314 751.633 581.871 754.23 582.16 756.828V761.158Z" fill="#2C3E50"/>
<path d="M581.007 747.594L628.921 720.173C631.23 718.73 632.673 716.132 632.673 713.246L632.385 709.205L584.471 736.914C582.162 738.357 580.719 740.666 581.007 743.553V747.594Z" fill="#2C3E50"/>
<path d="M580.14 734.317L628.054 706.608C630.363 705.165 631.806 702.856 631.518 699.97L631.229 695.929L583.604 723.349C581.006 724.792 579.852 727.39 579.852 729.988L580.14 734.317Z" fill="#2C3E50"/>
<path d="M640.467 706.028L692.133 676.299L691.267 658.98L647.394 684.38C642.776 687.267 639.889 692.174 640.178 697.658L640.467 706.028Z" fill="#ECF0F1"/>
</svg>
