<svg width="828" height="792" viewBox="0 0 828 792" fill="none" xmlns="http://www.w3.org/2000/svg">
<path opacity="0.07" d="M281.366 526.956L49 688.129L86.1785 727L435.588 650.68L722 444L281.366 526.956Z" fill="black"/>
<path d="M199.889 583.402C202.838 581.295 205.787 582.559 205.787 586.773V611.631C205.787 615.423 203.259 620.057 199.889 622.164L177.98 634.803C174.609 636.489 172.082 635.225 172.082 631.433L171.66 606.153C171.66 602.361 174.609 597.727 177.98 595.62L199.889 583.402Z" fill="#02314B"/>
<path d="M215.898 156.604V162.923L159.02 195.786V189.467L215.898 156.604Z" fill="#02314B"/>
<path d="M277.835 143.123C283.733 139.331 288.789 142.28 288.789 149.443L290.053 504.196C290.053 511.358 284.997 519.784 278.677 523.576L98.773 627.643C92.4532 631.013 87.3974 628.064 87.3974 621.323L86.5547 266.149C86.5547 258.986 91.6106 250.56 97.5091 247.189L277.835 143.123Z" fill="white"/>
<path fill-rule="evenodd" clip-rule="evenodd" d="M276.991 100.145C292.158 91.2972 304.798 98.4597 304.798 115.734L306.062 542.954C306.062 560.649 293.843 582.137 278.254 590.563L99.1928 694.208C84.4465 703.056 71.8069 695.894 71.8069 678.198L70.543 250.978C70.543 233.704 82.7613 212.217 97.9289 203.369L276.991 100.145ZM290.052 504.614L288.788 149.44C288.788 142.277 283.732 139.749 277.833 143.12L97.5075 247.186C91.609 250.557 86.5531 258.983 86.5531 266.146L87.3958 621.32C87.3958 628.061 92.4516 631.01 98.7714 627.64L278.676 523.573C284.996 520.203 290.052 511.355 290.052 504.614ZM205.787 612.051V586.771C205.787 582.98 202.838 581.294 199.889 583.401L177.98 596.041C174.609 597.726 171.66 602.36 171.66 606.574L172.082 631.431C172.082 635.223 174.609 636.909 177.98 634.802L199.889 622.163C203.259 620.477 205.787 615.843 205.787 612.051ZM159.021 189.886V196.206L215.899 162.922V157.023L159.021 189.886Z" fill="#025A82"/>
<path d="M270.25 82.8727C266.879 81.1874 263.087 80.3446 258.874 81.6085C256.346 82.1703 253.537 83.294 250.448 84.9793L71.3859 188.203C66.7514 190.731 62.1169 194.944 58.325 200C49.8986 210.112 44 224.015 44 235.812L45.264 663.032C45.264 671.459 48.2133 677.779 53.2691 680.728L79.8123 695.896C74.7565 692.946 71.8073 687.048 71.8073 678.2L70.5433 250.98C70.5433 239.183 76.4418 225.701 84.8682 215.168C88.6601 210.533 93.2947 206.32 97.9292 203.371L276.991 100.147C280.081 98.4615 282.889 97.338 285.417 96.7763C289.631 95.9336 293.422 96.3548 296.793 98.4614L270.25 82.8727Z" fill="#024462"/>
<path d="M157.145 532.298C190.108 457.696 222.494 384.251 254.879 310.227C236.952 321.793 220.181 332.781 203.41 343.769C202.831 341.456 204.566 338.564 205.723 336.251C220.759 296.926 235.988 257.6 251.409 218.275C253.723 213.07 253.723 211.335 248.518 214.805C227.313 227.528 206.108 240.058 184.903 252.395C180.277 254.709 178.542 256.444 177.385 261.649C166.976 312.54 155.988 363.431 145.578 414.323C145 415.479 145 416.636 145 418.371C157.145 410.275 168.711 402.756 180.855 394.66C186.06 391.19 187.217 391.19 185.482 397.552C176.229 439.768 166.976 482.563 157.723 524.78C157.145 527.093 156.566 528.829 157.145 532.298Z" fill="#DE9400"/>
<path d="M160.035 534.027C192.999 458.846 224.806 385.979 257.77 311.955C239.842 323.521 223.071 334.509 206.3 344.919C205.722 343.184 207.457 340.292 208.035 337.979C223.457 298.654 238.878 259.329 254.3 220.004C256.035 214.799 256.613 213.064 250.83 216.534C229.625 228.871 208.421 241.208 187.216 253.546C183.168 255.859 181.433 258.172 180.276 263.377C169.867 314.268 158.879 365.16 148.469 416.051C147.891 417.208 147.891 418.365 147.891 419.521C160.035 412.003 171.601 404.485 183.746 396.389C188.951 392.341 190.107 392.919 188.372 398.702C179.119 441.497 169.867 483.714 160.614 525.931C160.035 528.244 158.879 530.557 160.035 534.027Z" fill="#DF9500"/>
<path d="M162.352 535.19C195.315 460.588 227.701 387.142 260.086 313.118C242.737 324.685 225.966 335.672 209.195 346.66C208.617 344.347 210.351 342.034 210.93 339.142C226.351 299.817 241.58 260.492 256.616 221.167C258.93 215.962 259.508 214.227 253.725 217.697C232.52 230.42 211.315 242.95 190.111 255.287C186.062 257.6 183.749 259.335 182.593 264.54C172.183 315.432 161.773 366.323 150.785 417.793C150.785 418.371 150.785 419.528 150.207 421.263C162.352 413.166 174.496 405.648 186.062 397.552C191.267 394.082 192.424 394.082 191.267 400.443C181.436 442.66 172.183 485.455 162.93 527.672C162.352 529.985 161.773 532.298 162.352 535.19Z" fill="#E09600"/>
<path d="M165.242 536.918C198.206 461.738 230.591 388.871 262.977 314.847C245.049 326.413 228.278 337.401 211.507 348.389C210.929 346.076 212.664 343.184 213.82 340.871C228.856 301.546 244.085 262.22 259.507 222.895C261.82 217.69 261.82 215.955 256.615 219.425C235.411 232.148 214.206 244.485 193.001 256.437C188.375 258.751 186.64 261.064 185.483 266.269C175.074 317.16 164.086 368.051 153.676 418.943C153.676 420.1 153.098 421.256 153.098 422.991C165.242 414.895 176.809 407.377 188.953 399.28C194.158 395.81 195.314 395.81 194.158 402.172C184.327 444.389 175.074 486.605 165.821 529.4C165.242 531.135 164.664 533.449 165.242 536.918Z" fill="#E19700"/>
<path d="M168.135 538.082C201.099 463.479 232.906 390.612 265.869 316.01C247.942 327.576 231.171 338.564 214.4 349.552C213.821 347.239 215.556 344.925 216.713 342.612C231.749 302.901 246.978 263.384 262.4 224.058C264.134 218.854 264.713 217.119 258.93 220.588C237.725 233.311 216.52 245.841 195.316 258.179C191.267 260.492 189.532 262.227 188.376 267.432C177.966 318.323 166.978 369.793 156.569 420.684C155.99 421.841 155.99 422.419 155.99 424.154C168.135 416.058 179.701 408.54 191.846 400.443C197.05 396.973 198.207 397.552 196.472 403.335C187.219 446.13 177.966 488.347 168.713 530.563C168.135 532.877 166.978 535.19 168.135 538.082Z" fill="#E29800"/>
<path d="M170.445 539.809C203.409 464.629 235.795 391.761 268.18 317.737C250.831 329.304 234.06 340.291 217.289 351.279C216.71 348.966 218.445 346.075 219.024 343.761C234.445 304.436 249.674 265.111 264.71 225.786C267.024 220.581 267.602 218.846 261.819 222.316C240.614 235.039 219.409 247.376 198.204 259.328C194.156 262.219 191.843 263.954 190.686 269.159C180.277 320.051 169.867 370.942 158.879 421.834C158.879 422.99 158.879 424.147 158.301 425.882C170.445 417.785 182.59 410.267 194.156 402.171C199.361 398.701 200.518 398.701 199.361 405.063C189.53 447.279 180.277 489.496 171.024 532.291C170.445 534.026 169.867 536.339 170.445 539.809Z" fill="#E39900"/>
<path d="M173.336 540.967C206.3 466.365 238.685 393.498 271.071 319.474C253.143 331.04 236.372 341.45 219.601 352.438C219.023 350.124 220.758 347.811 221.914 345.498C236.95 306.173 252.179 266.847 267.601 227.522C269.914 222.317 269.914 220.582 264.709 223.474C243.505 236.197 222.3 248.727 201.095 261.064C196.469 263.378 194.734 265.691 193.577 270.317C183.167 321.209 172.179 372.678 161.77 423.57C161.77 424.726 161.191 425.305 161.191 427.04C173.336 418.943 185.481 411.425 197.047 403.329C202.252 399.859 203.408 400.437 202.252 406.22C192.42 449.016 183.167 491.232 173.914 533.449C173.336 535.762 172.758 538.076 173.336 540.967Z" fill="#E49900"/>
<path d="M176.229 542.702C209.192 468.099 240.999 394.654 273.963 320.63C256.036 332.196 239.265 343.184 222.494 354.172C221.915 351.859 223.65 348.967 224.807 346.654C239.843 307.329 255.072 268.004 270.493 228.678C272.228 223.474 272.807 221.739 267.024 225.209C245.819 237.931 224.614 250.461 203.409 262.799C199.361 265.112 197.626 266.847 196.469 272.052C186.06 322.943 175.072 373.835 164.662 424.726C164.084 425.883 164.084 427.039 164.084 428.774C176.229 420.678 187.795 413.16 199.939 405.064C205.144 401.594 206.301 401.594 204.566 407.955C195.313 450.172 186.06 492.967 176.807 535.184C176.229 537.497 175.072 539.232 176.229 542.702Z" fill="#E59A00"/>
<path d="M178.543 543.863C211.507 469.26 243.892 396.393 276.278 322.369C258.928 333.935 242.157 344.923 225.386 355.333C224.808 353.598 226.543 350.706 227.121 348.393C242.543 309.068 257.772 269.743 272.808 230.418C275.121 225.213 275.699 223.478 269.916 226.948C248.711 239.285 227.507 251.622 206.302 263.96C202.254 266.273 199.94 268.586 199.362 273.791C188.374 324.682 177.965 375.574 166.977 426.465C166.977 427.622 166.977 428.779 166.398 429.935C178.543 422.417 190.687 414.899 202.254 406.803C207.458 402.755 208.615 403.333 207.458 409.116C197.627 451.911 188.374 494.128 179.121 536.344C178.543 538.658 177.965 540.971 178.543 543.863Z" fill="#E69B00"/>
<path d="M181.435 545.592C214.399 470.99 246.785 397.544 279.17 323.521C261.243 335.087 244.471 346.075 227.7 357.063C227.122 354.749 228.857 351.858 230.014 349.545C245.05 310.219 260.279 270.894 275.7 231.569C278.014 226.364 278.014 224.629 272.809 228.099C251.604 240.822 230.399 253.352 209.194 265.689C204.568 268.003 202.833 269.738 201.676 274.942C191.267 325.834 180.279 376.725 169.869 428.195C169.869 428.773 169.291 429.93 169.291 431.665C181.436 423.569 193.58 416.051 205.146 407.954C210.351 404.484 211.508 404.484 210.351 410.846C200.52 453.062 191.267 495.858 182.014 538.074C181.435 540.388 180.857 542.701 181.435 545.592Z" fill="#E79C00"/>
<path d="M184.326 547.333C217.29 472.152 249.097 399.285 282.061 325.261C264.133 336.827 247.362 347.815 230.591 358.803C230.013 356.49 231.748 353.598 232.904 351.285C247.94 311.96 263.169 272.634 278.591 233.309C280.326 228.104 280.904 226.37 275.121 229.839C253.916 242.177 232.712 254.514 211.507 266.851C207.459 269.165 205.724 271.478 204.567 276.683C194.157 327.574 183.169 378.465 172.76 429.357C172.181 430.514 172.182 431.67 172.182 433.405C184.326 425.309 195.892 417.791 208.037 409.694C213.242 406.224 214.398 406.224 212.663 412.586C203.41 454.803 194.157 497.019 184.904 539.814C184.326 541.549 183.748 543.863 184.326 547.333Z" fill="#E89D00"/>
<path d="M186.637 548.485C219.601 473.883 251.986 401.015 284.95 326.413C267.022 337.979 250.251 348.967 233.48 359.955C232.902 357.642 234.637 355.329 235.215 353.016C250.637 313.305 266.058 273.787 281.48 234.462C283.215 229.257 283.793 227.522 278.01 230.992C256.805 243.715 235.6 256.245 214.396 268.582C210.347 270.895 208.034 272.63 207.456 277.835C196.468 328.726 186.058 380.196 175.071 431.088C175.071 432.244 175.07 432.823 174.492 434.558C186.637 426.461 198.781 418.943 210.347 410.847C215.552 407.377 216.709 407.955 215.552 413.738C205.721 456.533 196.468 498.75 187.215 540.967C187.215 543.28 186.058 545.593 186.637 548.485Z" fill="#E89E00"/>
<path d="M189.527 550.224C222.491 475.044 254.877 402.176 287.262 328.152C269.913 339.719 253.142 350.707 236.371 361.695C235.214 359.381 236.949 356.49 238.106 354.176C253.142 314.851 268.37 275.526 283.792 236.201C286.105 230.996 286.105 229.261 280.901 232.731C259.696 245.454 238.491 257.791 217.286 269.743C213.238 272.635 210.925 274.369 209.768 279.574C199.359 330.466 188.371 381.357 177.961 432.248C177.961 433.405 177.961 434.562 177.383 436.297C189.527 428.2 201.672 420.682 213.238 412.586C218.443 409.116 219.6 409.116 218.443 415.477C208.612 457.694 199.359 499.911 190.106 542.706C189.527 544.441 188.949 546.754 189.527 550.224Z" fill="#E99F00"/>
<path d="M192.42 551.381C225.384 476.779 257.191 403.912 290.155 329.888C272.227 341.454 255.456 351.864 238.685 362.852C238.107 360.538 239.841 358.225 240.998 355.912C256.034 316.587 271.263 277.261 286.685 237.936C288.42 232.731 288.998 230.997 283.793 233.888C262.203 246.611 240.805 259.141 219.601 271.478C215.552 273.792 213.818 276.105 212.661 280.731C202.251 331.623 191.263 383.093 180.854 433.984C180.275 435.141 180.275 435.719 180.275 437.454C192.42 429.358 203.986 421.839 216.131 413.743C221.335 410.273 222.492 410.851 220.757 416.635C211.504 459.43 202.251 501.646 192.998 543.863C192.42 546.176 191.842 548.49 192.42 551.381Z" fill="#EAA000"/>
<path d="M194.734 553.115C227.698 478.513 260.084 405.067 293.047 331.043C275.12 342.609 258.349 353.597 241.578 364.585C240.999 362.272 242.734 359.38 243.313 357.067C258.734 317.742 274.156 278.417 289.578 239.091C291.312 233.887 291.891 232.152 286.108 235.622C264.903 248.345 243.698 260.875 222.493 273.212C218.445 275.525 216.132 277.26 215.554 282.465C204.566 333.356 194.156 384.248 183.168 435.139C183.168 436.296 183.168 437.452 182.59 439.187C194.734 431.091 206.879 423.573 218.445 415.477C223.65 412.007 224.807 412.007 223.65 418.368C213.819 460.585 205.144 503.38 195.313 545.597C195.313 547.91 194.156 549.645 194.734 553.115Z" fill="#EBA100"/>
<path d="M197.627 554.273C230.591 479.671 262.976 406.803 295.362 332.779C278.012 344.346 261.241 355.334 244.47 365.743C243.314 363.43 245.049 361.117 246.205 358.803C261.241 319.478 276.47 280.153 291.892 240.828C294.205 235.623 294.205 233.888 289 236.78C267.795 249.503 246.591 262.033 225.386 274.37C221.338 276.683 219.025 278.996 217.868 284.201C207.458 335.093 197.049 385.984 186.061 436.876C186.061 438.032 186.061 439.189 185.482 440.345C197.627 432.827 209.772 425.309 221.338 417.213C226.543 413.165 227.699 413.743 226.543 419.526C216.711 462.321 207.458 504.538 198.205 546.755C197.627 549.068 197.049 551.381 197.627 554.273Z" fill="#ECA100"/>
<path d="M200.518 556.007C233.481 481.405 265.289 407.959 298.252 333.936C280.325 345.502 263.554 356.49 246.783 367.478C246.204 365.165 247.939 362.273 249.096 359.96C264.132 320.634 279.361 281.309 294.782 241.984C296.517 236.779 297.096 235.044 291.891 238.514C270.301 251.237 248.903 263.767 227.698 276.104C223.65 278.418 221.915 280.153 220.759 285.357C210.349 336.249 199.361 387.14 188.951 438.61C188.373 439.188 188.373 440.345 188.373 442.08C200.518 433.984 212.084 426.465 224.228 418.369C229.433 414.899 230.59 414.899 228.855 421.261C219.602 463.477 210.349 506.272 201.096 548.489C200.518 550.803 199.939 553.116 200.518 556.007Z" fill="#EDA200"/>
<path d="M203.412 557.735C236.376 482.554 268.183 409.687 301.147 335.663C283.219 347.229 266.448 358.217 249.677 369.205C249.099 366.892 250.834 364 251.412 361.687C266.834 322.362 282.255 283.037 297.677 243.712C299.412 238.507 299.99 236.772 294.207 240.242C273.002 252.579 251.798 264.916 230.593 277.254C226.545 279.567 224.232 281.88 223.653 287.085C213.244 337.976 202.256 388.868 191.268 439.759C191.268 440.916 191.268 442.072 190.689 443.807C203.412 435.711 214.979 428.193 226.545 420.097C232.328 416.627 232.906 416.627 231.75 422.988C222.497 465.205 213.244 507.422 203.412 550.217C203.412 551.952 202.256 554.265 203.412 557.735Z" fill="#EEA300"/>
<path d="M205.725 558.898C238.688 484.296 271.074 411.428 303.459 336.826C286.11 348.392 269.339 359.38 252.568 370.368C251.99 368.055 253.146 365.742 254.303 363.429C269.339 323.718 284.568 284.2 299.989 244.875C302.303 239.67 302.303 237.935 297.098 241.405C275.893 254.128 254.688 266.658 233.484 278.995C229.435 281.308 227.122 283.043 225.966 288.248C215.556 339.139 205.146 390.609 194.158 441.501C194.158 442.657 194.158 443.236 193.58 444.971C205.725 436.874 217.869 429.356 229.435 421.26C234.64 417.79 235.797 418.368 234.64 424.151C224.809 466.946 215.556 509.163 206.303 551.38C205.725 553.693 205.146 556.006 205.725 558.898Z" fill="#EFA400"/>
<path d="M208.617 560.626C241.581 485.446 273.966 412.579 306.352 338.555C288.424 350.121 271.653 361.109 254.882 372.097C254.304 369.784 256.039 366.892 257.195 364.579C272.231 325.254 287.46 285.928 302.882 246.603C304.617 241.398 305.195 239.664 299.99 243.133C278.786 255.856 257.388 268.194 235.798 280.145C231.75 283.037 230.015 284.772 228.858 289.977C218.449 340.868 207.461 391.759 197.051 442.651C196.473 443.808 196.473 444.964 196.473 446.699C208.617 438.603 220.184 431.085 232.328 422.988C237.533 419.518 238.689 419.518 236.954 425.88C227.701 468.097 218.449 510.313 209.196 553.108C208.617 554.843 208.039 557.157 208.617 560.626Z" fill="#F0A500"/>
<path d="M211.508 561.783C244.472 487.181 276.279 414.313 309.243 340.289C291.315 351.856 274.544 362.265 257.773 373.253C257.194 370.94 258.929 368.627 259.508 366.313C274.929 326.988 290.351 287.47 305.773 247.759C307.508 243.133 308.086 241.398 302.303 244.29C281.098 257.012 259.893 269.543 238.689 281.88C234.64 284.193 232.905 286.506 231.749 291.133C221.339 342.024 210.351 393.494 199.363 444.385C199.363 445.542 199.363 446.12 199.363 447.855C211.508 439.759 223.074 432.241 235.219 424.145C240.423 420.675 241.002 421.253 239.845 427.036C230.592 469.831 221.339 512.048 211.508 554.265C211.508 556.578 210.351 558.891 211.508 561.783Z" fill="#F1A600"/>
<path d="M211.508 561.783C244.472 487.181 276.279 414.313 309.243 340.289C291.315 351.856 274.544 362.265 257.773 373.253C257.194 370.94 258.929 368.627 259.508 366.313C274.929 326.988 290.351 287.47 305.773 247.759C307.508 243.133 308.086 241.398 302.303 244.29C281.098 257.012 259.893 269.543 238.689 281.88C234.64 284.193 232.905 286.506 231.749 291.133C221.339 342.024 210.351 393.494 199.363 444.385C199.363 445.542 199.363 446.12 199.363 447.855C211.508 439.759 223.074 432.241 235.219 424.145C240.423 420.675 241.002 421.253 239.845 427.036C230.592 469.831 221.339 512.048 211.508 554.265C211.508 556.578 210.351 558.891 211.508 561.783Z" fill="#F7DA00"/>
</svg>
