<svg width="731" height="803" viewBox="0 0 731 803" fill="none" xmlns="http://www.w3.org/2000/svg">
<path d="M293.5 756.5L103.5 645L69 579.5L212.5 473.5L436.5 448L545.5 536L710 598.5L496.5 743.5L293.5 756.5Z" fill="black" fill-opacity="0.06"/>
<path d="M322.795 719.779L514.387 608.246L514.998 358.902L323.406 470.435L322.795 719.779Z" fill="#31AB05"/>
<path d="M323.409 470.435L515 358.902L459.998 126.976L268.406 238.203L323.409 470.435Z" fill="#60D358"/>
<path d="M268.405 238.203L459.997 126.976L319.435 46L127.844 157.533L268.405 238.203Z" fill="#49C241"/>
<path d="M127.844 157.532L131.205 359.819L130.594 609.163L322.797 719.779L323.408 470.435L268.405 238.202L127.844 157.532Z" fill="#278704"/>
<path d="M322.795 719.779L514.387 608.246L514.998 358.902L323.406 470.435L322.795 719.779Z" fill="#3CB234"/>
<path d="M127.844 157.532L131.205 359.819L130.594 609.163L322.797 719.779L323.408 470.435L268.405 238.202L127.844 157.532Z" fill="#33962D"/>
<path d="M462.748 165.783L504.306 342.096L453.276 315.817L422.719 189.618L462.748 165.783Z" fill="#D9352B"/>
<path d="M453.277 315.816L504.307 342.095L331.355 442.627L319.438 392.82L453.277 315.816Z" fill="#FF6A5C"/>
<path d="M454.498 365.32L486.277 346.986L448.998 327.735L417.219 346.375L454.498 365.32Z" fill="#E6E6E6"/>
<path d="M453.277 315.817L422.72 189.617L288.881 266.926L319.438 392.82L453.277 315.817Z" fill="#BA2D24"/>
<path d="M440.136 296.871L417.523 202.756L298.963 271.814L321.575 365.318L440.136 296.871Z" fill="white"/>
<path d="M305.381 274.564L413.858 211.312L433.72 294.121L325.243 356.762L305.381 274.564Z" fill="#0EE5E1"/>
<path d="M368.939 372.653V374.487C368.939 374.894 369.143 375.2 369.55 375.403V373.57C369.143 373.366 368.939 373.061 368.939 372.653Z" fill="#BFBFBF"/>
<path d="M386.357 373.57V375.403C386.765 375.2 386.969 374.894 386.969 374.487V372.653C386.969 373.061 386.765 373.366 386.357 373.57Z" fill="#BFBFBF"/>
<path d="M379.328 377.544V379.377L386.356 375.405V373.571L379.328 377.544Z" fill="#B9B9B9"/>
<path d="M369.551 373.571V375.405L376.579 379.377V377.544L369.551 373.571Z" fill="#979797"/>
<path d="M376.578 377.542V379.375C377.189 379.987 378.411 379.987 379.328 379.375V377.542C378.411 378.153 377.189 378.153 376.578 377.542Z" fill="#BFBFBF"/>
<path d="M369.551 371.737C368.634 372.348 368.634 372.959 369.551 373.57L376.579 377.543C377.19 378.154 378.412 378.154 379.329 377.543L386.357 373.57C386.968 372.959 386.968 372.348 386.357 372.042L379.329 367.764C378.412 367.459 377.19 367.459 376.579 367.764L369.551 371.737Z" fill="#E6E6E6"/>
<path d="M356.41 379.681V381.514C356.41 381.921 356.614 382.227 357.021 382.431V380.597C356.614 380.394 356.41 380.088 356.41 379.681Z" fill="#BFBFBF"/>
<path d="M374.131 380.597V382.43C374.335 382.226 374.437 382.022 374.437 381.819V379.985C374.437 380.189 374.335 380.393 374.131 380.597Z" fill="#BFBFBF"/>
<path d="M357.021 380.598V382.431L364.355 386.403V384.57L357.021 380.598Z" fill="#979797"/>
<path d="M366.799 384.57V386.403L374.132 382.431V380.598L366.799 384.57Z" fill="#B9B9B9"/>
<path d="M364.355 384.569V386.403C364.967 387.014 366.189 387.014 366.8 386.403V384.569C366.189 385.18 364.967 385.18 364.355 384.569Z" fill="#BFBFBF"/>
<path d="M357.021 379.07C356.41 379.375 356.41 380.292 357.021 380.598L364.355 384.57C364.966 385.181 366.188 385.181 366.799 384.57L374.133 380.598C374.744 380.292 374.744 379.375 374.133 379.07L366.799 374.792C366.188 374.486 364.966 374.486 364.049 374.792L357.021 379.07Z" fill="#E6E6E6"/>
<path d="M344.186 387.015V388.848C344.186 389.052 344.389 389.255 344.797 389.459V387.626C344.389 387.422 344.186 387.218 344.186 387.015Z" fill="#BFBFBF"/>
<path d="M361.605 387.626V389.459C362.013 389.255 362.217 389.052 362.217 388.848V387.015C362.217 387.218 362.013 387.422 361.605 387.626Z" fill="#BFBFBF"/>
<path d="M344.799 387.627V389.46L351.827 393.738V391.905L344.799 387.627Z" fill="#979797"/>
<path d="M354.576 391.905V393.738L361.604 389.46V387.627L354.576 391.905Z" fill="#B9B9B9"/>
<path d="M351.828 391.904V393.738C352.745 394.043 353.967 394.043 354.578 393.738V391.904C353.662 392.21 352.745 392.21 351.828 391.904Z" fill="#BFBFBF"/>
<path d="M344.799 386.099C343.882 386.71 343.882 387.321 344.799 387.627L351.827 391.905C352.744 392.21 353.66 392.21 354.577 391.905L361.605 387.627C362.522 387.321 362.522 386.71 361.605 386.099L354.577 382.126C353.66 381.515 352.438 381.515 351.827 382.126L344.799 386.099Z" fill="#E6E6E6"/>
<path d="M411.107 359.208V361.041C411.515 360.837 411.719 360.532 411.719 360.124V358.291C411.719 358.698 411.515 359.004 411.107 359.208Z" fill="#BFBFBF"/>
<path d="M384.828 363.485V365.319C384.828 365.726 384.93 366.032 385.134 366.235V364.402C384.93 364.198 384.828 363.893 384.828 363.485Z" fill="#BFBFBF"/>
<path d="M385.135 364.402V366.236L392.468 370.208V368.375L385.135 364.402Z" fill="#979797"/>
<path d="M395.219 368.375V370.208L411.108 361.041V359.208L395.219 368.375Z" fill="#B9B9B9"/>
<path d="M392.467 368.375V370.208C393.078 370.82 394.3 370.82 395.217 370.208V368.375C394.3 368.986 393.078 368.986 392.467 368.375Z" fill="#BFBFBF"/>
<path d="M385.134 362.875C384.523 363.18 384.523 364.097 385.134 364.403L392.468 368.375C393.079 368.986 394.301 368.986 395.218 368.375L411.107 359.208C412.024 358.902 412.024 357.986 411.107 357.68L404.079 353.402C403.163 353.096 402.246 353.096 401.329 353.402L385.134 362.875Z" fill="#E6E6E6"/>
<path d="M381.162 379.986V381.82C381.162 382.023 381.366 382.227 381.773 382.431V380.598C381.366 380.394 381.162 380.19 381.162 379.986Z" fill="#BFBFBF"/>
<path d="M398.885 380.598V382.431C399.088 382.227 399.19 382.023 399.19 381.82V379.986C399.19 380.19 399.088 380.394 398.885 380.598Z" fill="#BFBFBF"/>
<path d="M391.551 384.876V386.709L398.885 382.431V380.598L391.551 384.876Z" fill="#B9B9B9"/>
<path d="M381.771 380.598V382.431L389.105 386.709V384.876L381.771 380.598Z" fill="#979797"/>
<path d="M389.107 384.876V386.709C389.719 387.015 390.941 387.015 391.552 386.709V384.876C390.941 385.182 389.719 385.182 389.107 384.876Z" fill="#BFBFBF"/>
<path d="M381.773 379.069C381.162 379.681 381.162 380.292 381.773 380.597L389.107 384.875C389.718 385.181 390.94 385.181 391.551 384.875L398.885 380.597C399.496 380.292 399.496 379.681 398.885 379.069L391.551 375.097C390.94 374.486 389.718 374.486 388.801 375.097L381.773 379.069Z" fill="#E6E6E6"/>
<path d="M368.939 387.015V388.848C368.939 389.052 369.143 389.357 369.55 389.765V387.931C369.143 387.524 368.939 387.218 368.939 387.015Z" fill="#BFBFBF"/>
<path d="M386.357 387.931V389.765C386.765 389.561 386.969 389.256 386.969 388.848V387.015C386.969 387.422 386.765 387.728 386.357 387.931Z" fill="#BFBFBF"/>
<path d="M369.551 387.932V389.765L376.579 393.737V391.904L369.551 387.932Z" fill="#979797"/>
<path d="M379.328 391.904V393.737L386.356 389.765V387.932L379.328 391.904Z" fill="#B9B9B9"/>
<path d="M376.578 391.904V393.738C377.495 394.349 378.717 394.349 379.328 393.738V391.904C378.717 392.515 377.495 392.515 376.578 391.904Z" fill="#BFBFBF"/>
<path d="M369.551 386.098C368.634 386.709 368.634 387.32 369.551 387.931L376.579 391.904C377.496 392.515 378.718 392.515 379.329 391.904L386.357 387.931C387.274 387.32 387.274 386.709 386.357 386.404L379.329 382.126C378.412 381.82 377.19 381.82 376.579 382.126L369.551 386.098Z" fill="#E6E6E6"/>
<path d="M356.715 394.043V395.876C356.715 396.284 356.817 396.589 357.02 396.793V394.96C356.817 394.756 356.715 394.45 356.715 394.043Z" fill="#BFBFBF"/>
<path d="M374.133 394.959V396.792C374.54 396.588 374.744 396.385 374.744 396.181V394.348C374.744 394.551 374.54 394.755 374.133 394.959Z" fill="#BFBFBF"/>
<path d="M357.021 394.96V396.793L364.355 400.766V398.932L357.021 394.96Z" fill="#979797"/>
<path d="M367.105 398.932V400.766L374.134 396.793V394.96L367.105 398.932Z" fill="#B9B9B9"/>
<path d="M364.355 398.933V400.766C364.967 401.377 366.189 401.377 367.105 400.766V398.933C366.189 399.544 364.967 399.544 364.355 398.933Z" fill="#BFBFBF"/>
<path d="M357.021 393.432C356.41 393.738 356.41 394.349 357.021 394.96L364.355 398.932C364.966 399.543 366.188 399.543 367.105 398.932L374.133 394.96C374.744 394.654 374.744 393.738 374.133 393.432L366.799 389.154C366.188 388.848 364.966 388.848 364.355 389.154L357.021 393.432Z" fill="#E6E6E6"/>
<path d="M423.637 366.541V368.374C424.044 368.17 424.248 367.865 424.248 367.457V365.624C424.248 366.031 424.044 366.337 423.637 366.541Z" fill="#BFBFBF"/>
<path d="M397.051 370.819V372.653C397.051 372.856 397.255 373.162 397.662 373.569V371.736C397.255 371.329 397.051 371.023 397.051 370.819Z" fill="#BFBFBF"/>
<path d="M397.662 371.735V373.569L404.69 377.541V375.708L397.662 371.735Z" fill="#979797"/>
<path d="M407.439 375.709V377.542L423.635 368.375V366.542L407.439 375.709Z" fill="#B9B9B9"/>
<path d="M404.689 375.709V377.542C405.606 378.154 406.829 378.154 407.44 377.542V375.709C406.829 376.32 405.606 376.32 404.689 375.709Z" fill="#BFBFBF"/>
<path d="M397.661 369.903C397.05 370.514 397.05 371.125 397.661 371.736L404.69 375.709C405.606 376.32 406.829 376.32 407.44 375.709L423.635 366.542C424.246 365.931 424.246 365.32 423.635 365.014L416.607 360.736C415.69 360.43 414.468 360.43 413.857 360.736L397.661 369.903Z" fill="#E6E6E6"/>
<path d="M393.691 387.015V388.848C393.691 389.256 393.895 389.561 394.303 389.765V387.931C393.895 387.728 393.691 387.422 393.691 387.015Z" fill="#BFBFBF"/>
<path d="M411.109 387.931V389.765C411.517 389.561 411.721 389.256 411.721 388.848V387.015C411.721 387.422 411.517 387.728 411.109 387.931Z" fill="#BFBFBF"/>
<path d="M404.08 391.904V393.737L411.108 389.765V387.932L404.08 391.904Z" fill="#B9B9B9"/>
<path d="M394.303 387.932V389.765L401.331 393.737V391.904L394.303 387.932Z" fill="#979797"/>
<path d="M401.33 391.903V393.737C402.247 394.348 403.469 394.348 404.08 393.737V391.903C403.469 392.514 402.247 392.514 401.33 391.903Z" fill="#BFBFBF"/>
<path d="M394.303 386.404C393.386 386.709 393.386 387.32 394.303 387.931L401.331 391.904C402.248 392.515 403.47 392.515 404.081 391.904L411.109 387.931C412.026 387.626 412.026 386.709 411.109 386.404L404.081 382.126C403.164 381.82 401.942 381.82 401.331 382.126L394.303 386.404Z" fill="#E6E6E6"/>
<path d="M381.469 394.349V396.182C381.469 396.386 381.672 396.589 382.08 396.793L381.774 394.96C381.571 394.756 381.469 394.552 381.469 394.349Z" fill="#BFBFBF"/>
<path d="M398.885 394.96V396.793C399.292 396.589 399.496 396.386 399.496 396.182V394.349C399.496 394.552 399.292 394.756 398.885 394.96Z" fill="#BFBFBF"/>
<path d="M381.773 394.96L382.079 396.793L389.107 401.071V399.238L381.773 394.96Z" fill="#979797"/>
<path d="M391.857 399.238V401.071L398.885 396.793V394.96L391.857 399.238Z" fill="#B9B9B9"/>
<path d="M389.105 399.238V401.072C389.717 401.377 390.939 401.377 391.856 401.072V399.238C390.939 399.544 389.717 399.544 389.105 399.238Z" fill="#BFBFBF"/>
<path d="M381.773 393.432C381.162 393.737 381.162 394.654 381.773 394.96L389.107 399.238C389.718 399.543 390.94 399.543 391.857 399.238L398.885 394.96C399.496 394.654 399.496 394.043 398.885 393.432L391.857 389.459C390.94 388.848 389.718 388.848 389.107 389.459L381.773 393.432Z" fill="#E6E6E6"/>
<path d="M368.939 401.377V403.21C368.939 403.414 369.143 403.72 369.55 404.127V402.294C369.143 401.886 368.939 401.581 368.939 401.377Z" fill="#BFBFBF"/>
<path d="M386.355 402.294V404.127C386.763 403.923 386.967 403.618 386.967 403.21V401.377C386.967 401.784 386.763 402.09 386.355 402.294Z" fill="#BFBFBF"/>
<path d="M369.549 402.295V404.128L376.577 408.101V406.267L369.549 402.295Z" fill="#979797"/>
<path d="M379.328 406.267V408.101L386.356 404.128V402.295L379.328 406.267Z" fill="#B9B9B9"/>
<path d="M376.578 406.266V408.099C377.495 408.405 378.717 408.405 379.328 408.099V406.266C378.717 406.571 377.495 406.571 376.578 406.266Z" fill="#BFBFBF"/>
<path d="M369.55 400.46C368.939 401.072 368.939 401.683 369.55 402.294L376.578 406.266C377.495 406.572 378.717 406.572 379.328 406.266L386.356 402.294C387.273 401.683 387.273 401.071 386.356 400.766L379.328 396.488C378.717 396.182 377.495 396.182 376.578 396.488L369.55 400.46Z" fill="#E6E6E6"/>
<path d="M435.857 373.57V375.403C436.265 375.2 436.469 374.996 436.469 374.792V372.959C436.469 373.163 436.265 373.366 435.857 373.57Z" fill="#BFBFBF"/>
<path d="M409.578 378.154V379.988C409.578 380.191 409.782 380.395 410.189 380.599V378.765C409.782 378.562 409.578 378.358 409.578 378.154Z" fill="#BFBFBF"/>
<path d="M410.189 378.765V380.598L417.217 384.876V383.043L410.189 378.765Z" fill="#979797"/>
<path d="M419.967 383.044V384.877L435.856 375.405V373.571L419.967 383.044Z" fill="#B9B9B9"/>
<path d="M417.217 383.042V384.875C417.828 385.181 419.05 385.181 419.967 384.875V383.042C419.05 383.348 417.828 383.348 417.217 383.042Z" fill="#BFBFBF"/>
<path d="M410.189 377.237C409.273 377.542 409.273 378.459 410.189 378.765L417.218 383.043C417.829 383.348 419.051 383.348 419.968 383.043L435.857 373.57C436.774 373.264 436.774 372.653 435.857 372.042L428.829 368.07C428.218 367.459 426.996 367.459 426.079 368.07L410.189 377.237Z" fill="#E6E6E6"/>
<path d="M335.021 376.014L380.856 349.43L379.023 340.874L333.188 367.458L335.021 376.014Z" fill="#5E1612"/>
<path d="M416.913 330.178L442.276 315.511L440.442 306.955L415.08 321.622L416.913 330.178Z" fill="#5E1612"/>
<path d="M444.451 459.66C440.584 461.66 437.118 464.06 436.984 464.727C436.051 467.26 443.118 467.927 447.251 465.793C452.184 463.26 453.251 463.26 455.784 465.927C457.384 467.393 457.918 470.727 457.918 478.593V489.26L453.784 486.327C449.651 483.393 449.518 483.393 447.784 485.793C444.718 489.927 445.518 491.393 453.651 496.993L461.518 502.193L463.518 498.727C474.984 478.727 477.918 472.06 476.051 470.593C474.451 469.26 473.384 470.46 469.651 477.127L465.251 485.26L464.451 473.66C463.651 463.127 463.251 461.66 460.051 458.86C455.384 454.86 453.118 454.993 444.451 459.66Z" fill="white"/>
<path d="M398.184 467.793C386.717 472.993 373.117 491.393 367.917 508.726C365.384 516.86 365.384 533.26 367.784 538.86C372.45 549.793 383.25 553.26 394.717 547.393C412.584 538.193 427.25 512.46 427.25 490.326C427.25 479.393 425.117 473.66 419.384 468.726C414.05 464.326 406.584 463.926 398.184 467.793ZM404.584 484.326C404.584 486.46 405.517 487.926 407.25 488.46C410.184 489.393 410.984 495.393 408.584 499.793C407.65 501.66 407.65 503.126 408.85 504.993C411.25 508.86 406.984 518.86 401.384 522.193C398.45 523.926 396.717 526.193 396.184 528.993C395.117 534.06 392.584 534.46 392.584 529.526C392.584 525.66 390.45 526.726 389.65 530.993C389.517 532.46 388.45 533.793 387.517 534.193C386.317 534.593 386.05 533.793 386.717 531.26C387.384 528.193 387.117 527.793 384.05 527.793C381.384 527.793 380.85 527.26 381.517 525.393C382.05 524.193 383.25 522.46 384.317 521.66C385.384 520.86 386.984 515.793 388.05 510.326C390.317 497.526 390.317 497.126 387.917 497.126C384.05 497.126 386.317 492.726 390.85 491.26C392.584 490.726 394.05 488.86 394.584 486.46C395.65 481.393 397.517 481.26 398.184 486.06C398.717 489.793 399.25 489.26 401.25 483.126C402.184 479.926 404.584 480.86 404.584 484.326Z" fill="#FF8E02"/>
<path d="M396.05 497.393C394.85 502.06 395.116 503.793 396.983 503.793C399.516 503.793 403.25 499.393 403.25 496.726C403.25 493.126 397.116 493.793 396.05 497.393Z" fill="#FF8E02"/>
<path d="M393.117 513.793C392.051 519.926 392.717 520.46 397.784 517.793C400.717 516.326 401.917 514.726 401.917 512.46C401.917 509.66 401.251 509.126 397.917 509.126C394.584 509.126 393.917 509.66 393.117 513.793Z" fill="#FF8E02"/>
<path d="M448.85 520.46C436.317 526.726 426.717 535.526 423.65 543.526C421.65 548.726 421.25 553.66 421.25 571.926C421.25 591.926 421.517 594.46 423.783 596.993C425.25 598.593 427.517 599.793 428.85 599.793C432.317 599.793 448.45 591.66 459.517 584.193C473.65 574.86 476.317 569.393 477.517 548.193C478.183 536.86 477.917 534.06 476.05 531.126C474.85 529.26 472.85 527.793 471.517 527.793C470.183 527.793 461.117 532.326 451.383 537.926C441.65 543.526 433.383 547.66 432.85 547.26C430.983 545.26 435.65 541.393 450.05 532.993C465.117 524.326 467.65 521.526 464.583 517.793C462.05 514.86 459.25 515.393 448.85 520.46ZM467.783 552.46C467.117 555.126 466.05 557.393 465.25 557.526C463.25 557.926 462.85 549.26 464.717 546.993C467.383 543.793 469.117 546.86 467.783 552.46Z" fill="#6CFAFF"/>
</svg>
