<svg width="1896" height="1370" viewBox="0 0 1896 1370" fill="none" xmlns="http://www.w3.org/2000/svg">
<path d="M566.005 1313L151.943 1099.85L58 933.674L566.005 648.291L1415.84 789.206L1807.8 1159.45L566.005 1313Z" fill="black" fill-opacity="0.07"/>
<path d="M166.942 937.629L615.483 1196.16L1063.75 937.629V915.508L615.483 656.975L166.942 915.508V937.629Z" fill="#FDA44A"/>
<path d="M960.353 538.496C958.974 539.88 1020.74 518.571 1026.53 446.618C1029.56 374.664 972.485 351.971 973.863 353.078C981.032 387.948 982.962 423.371 979.102 458.241L988.477 464.606H978.55C975.242 489.789 969.176 514.419 960.353 538.496Z" fill="#606B1C"/>
<path d="M789.794 393.261C846.961 362.327 913.563 347.413 982.384 352.384C984.327 353.213 930.768 301.287 853.343 313.992C837.803 317.307 826.148 322.555 816.99 328.907L828.645 339.127L808.942 335.536C783.134 360.118 789.794 394.642 789.794 393.261Z" fill="#606B1C"/>
<path d="M615.345 1224.58L575.084 1201.1V1125.11L615.345 1143.63V1224.58Z" fill="#EA864E"/>
<path d="M655.607 1201.1L615.346 1224.58V1143.63L655.607 1125.11V1201.1Z" fill="#E86C4F"/>
<path d="M1001.38 1005.91L961.119 982.634V906.438L1001.38 925.002V1005.91Z" fill="#FDA44A"/>
<path d="M1042.43 982.357L1001.38 1005.91V925.002L1042.43 906.438V982.357Z" fill="#E86C4F"/>
<path d="M239.571 1007.49L198.521 984.397V908.807L239.571 927.223V1007.49Z" fill="#EA864E"/>
<path d="M279.834 984.397L239.572 1007.49V927.223L279.834 908.807V984.397Z" fill="#E86C4F"/>
<path d="M1063.75 937.621L615.483 1196.16L613.269 1195.06L593.346 1183.44H592.793L572.87 1171.83L572.594 1171.55L552.671 1160.22L552.394 1159.94L532.471 1148.33L531.918 1148.05L511.995 1136.71L511.718 1136.44L491.795 1125.1V1124.82H491.242L471.319 1113.21L471.042 1112.93L451.119 1101.59L450.843 1101.32L430.92 1089.7H430.366L410.444 1078.09L410.167 1077.81L390.244 1066.48L389.967 1066.2L370.045 1054.59L369.491 1054.31L349.568 1042.97L349.292 1042.7L329.369 1031.08H328.815L309.169 1019.47H308.893L308.616 1019.19L288.693 1007.86L288.416 1007.58L268.493 995.965H267.94L248.017 984.352L247.74 984.075L227.818 972.738L227.264 972.461L207.341 960.848L207.065 960.571L187.142 949.234L186.865 948.958L166.942 937.621L426.216 788.026L615.483 679.079L634.299 689.863L634.852 690.14L654.775 701.753H655.052L674.975 713.367L675.251 713.644L695.174 724.98L695.728 725.257L715.65 736.871L715.927 737.147L735.85 748.484L736.127 748.761L756.05 760.098L756.603 760.374L776.526 771.988L776.803 772.265L796.726 783.601L797.279 783.878L817.202 795.216L817.478 795.492L837.401 807.105L837.678 807.382H837.955L857.601 818.719L858.154 818.995L878.077 830.609H878.354L898.277 842.223L898.83 842.499L918.753 853.837L919.029 854.113L938.953 865.727H939.229L959.152 877.34L959.705 877.617L979.628 888.954L979.905 889.231L999.828 900.844L1000.1 901.12L1020.03 912.458L1020.58 912.735L1040.5 924.348H1040.78L1060.7 935.962L1063.75 937.621Z" fill="#FC8D29"/>
<path d="M1063.75 915.516L615.483 1174.06L613.269 1172.95L593.346 1161.34H592.793L572.87 1149.72L572.594 1149.45L552.671 1138.11L552.394 1137.83L532.471 1126.22L531.918 1125.94L511.995 1114.61L511.718 1114.33L491.795 1102.99V1102.72H491.242L471.319 1091.1L471.042 1090.83L451.119 1079.49L450.843 1079.21L430.92 1067.6H430.366L410.444 1055.99L410.167 1055.71L390.244 1044.37L389.967 1044.1L370.045 1032.48L369.491 1032.21L349.568 1020.87L349.292 1020.59L329.369 1008.98H328.815L309.169 997.365H308.893L308.616 997.088L288.693 985.751L288.416 985.474L268.493 974.138L267.94 973.861L248.017 962.247L247.74 961.97L227.818 950.634L227.264 950.357L207.341 938.743L207.065 938.467L187.142 927.13L186.865 926.853L166.942 915.516L426.216 765.921L615.483 656.975L634.299 667.758L634.852 668.035L654.775 679.649H655.052L674.975 691.262L675.251 691.539L695.174 702.876L695.728 703.153L715.65 714.766L715.927 715.043L735.85 726.38L736.127 726.656L756.05 737.993L756.603 738.27L776.526 749.883L776.803 750.16L796.726 761.497L797.279 761.774L817.202 773.387H817.478L837.401 785.001L837.678 785.277H837.955L857.601 796.615L858.154 796.891L878.077 808.504H878.354L898.277 820.119L898.83 820.395L918.753 831.732L919.029 832.008L938.953 843.622L939.229 843.899L959.152 855.236L959.705 855.512L979.628 866.849L979.905 867.126L999.828 878.74L1000.1 879.016L1020.03 890.353L1020.58 890.63L1040.5 902.244H1040.78L1060.7 913.857L1063.75 915.516Z" fill="#E8B179"/>
<path d="M634.291 667.763L445.581 777.031L186.865 926.963L166.942 915.622L426.212 765.966L615.475 656.975L634.291 667.763Z" fill="#FFD6AA"/>
<path d="M654.816 679.656L334.234 865.159L206.887 938.805L186.678 927.177L314.302 853.53L634.884 668.027L654.816 679.656Z" fill="#FFC892"/>
<path d="M715.603 714.405L304.145 952.793L265.38 972.751L249.044 963.327L695.667 702.763L715.603 714.405Z" fill="#FFD7AB"/>
<path d="M755.865 737.797L435.445 923.576L308.439 997.223L288.517 985.872L415.799 912.224L735.943 726.445L755.865 737.797Z" fill="#FFC892"/>
<path d="M796.916 761.48L750.154 788.613L349.49 1020.91L329.567 1009.28L390.995 973.839L776.994 750.129L796.916 761.48Z" fill="#FFC892"/>
<path d="M817.442 773.589L425.168 1000.42L368.377 1031.96L350.093 1021.72L405.222 988.805L797.495 761.971L817.442 773.589Z" fill="#FFD6AA"/>
<path d="M857.703 796.973L537.255 982.21L410.238 1055.64L391.144 1044.88L517.33 970.892L837.779 785.654H838.055L857.703 796.973Z" fill="#FFC892"/>
<path d="M878.229 808.322L758.286 877.745L430.035 1067.48L410.091 1055.87L738.342 866.128L858.285 796.705L878.229 808.322Z" fill="#FFE9B8"/>
<path d="M897.965 820.165L524.418 1036.46L450.539 1079.33L430.616 1067.71L504.496 1025.11L878.043 808.548L897.965 820.165Z" fill="#FFD6AA"/>
<path d="M918.49 831.741L729.339 941.38L471.052 1091.17L451.142 1079.81L709.428 930.029L898.58 820.389L918.49 831.741Z" fill="#FFD6AA"/>
<path d="M939.016 843.847L562.924 1061.8L491.578 1103.01L471.667 1091.39L543.014 1050.18L919.105 832.229L939.016 843.847Z" fill="#FFE9B8"/>
<path d="M958.752 855.424L769.489 965.064L511.326 1114.85L491.403 1103.5V1103.22L749.566 953.713L938.83 844.072L958.752 855.424Z" fill="#FFD6AA"/>
<path d="M979.278 867.232L602.91 1084.77L531.839 1125.9L511.929 1114.58L582.999 1073.45L959.367 855.913L979.278 867.232Z" fill="#FFD6AA"/>
<path d="M999.803 878.583L929.797 918.965L552.376 1137.74L532.454 1126.13L910.152 907.625L979.88 866.967L999.803 878.583Z" fill="#FFD6AA"/>
<path d="M1020.33 890.16L699.631 1076.22L572.902 1149.59L552.979 1138.23L679.709 1064.59L1000.41 878.808L1020.33 890.16Z" fill="#FFD6AA"/>
<path d="M1040.06 902.267L850.636 1011.79L592.627 1161.43L572.716 1149.81L830.726 1000.46L1020.15 890.65L1040.06 902.267Z" fill="#FFD6AA"/>
<path d="M1060.59 914.108L698.388 1123.76L613.164 1173.27L593.241 1161.65L678.465 1112.42L1040.67 902.491L1060.59 914.108Z" fill="#FFD6AA"/>
<path d="M445.615 776.986L186.867 926.964L166.942 915.619L426.243 765.918L445.615 776.986Z" fill="#FFEABD"/>
<path d="M654.817 679.623L334.485 864.598L314.568 853.003L634.9 668.027L654.817 679.623Z" fill="#FFD7AB"/>
<path d="M658.764 700.154L226.358 949.858L206.414 938.256L638.819 688.553L658.764 700.154Z" fill="#FFD7AB"/>
<path d="M546.663 835.667L285.63 983.803L268.78 974.13L527.051 824.336L546.663 835.667Z" fill="#FFEABD"/>
<path d="M588.503 764.912L246.842 961.699L226.939 950.352L568.6 753.287L588.503 764.912Z" fill="#FFC892"/>
<path d="M715.603 714.415L304.488 953.015L284.568 941.64L695.684 702.763L715.603 714.415Z" fill="#FFD7AB"/>
<path d="M755.866 737.81L435.273 923.805L415.617 912.44L735.933 726.445L755.866 737.81Z" fill="#FFD6AA"/>
<path d="M587.715 859.345L328.632 1009.07L310.621 998.569L567.764 848.02L587.715 859.345Z" fill="#FFD6AA"/>
<path d="M749.55 788.335L349.461 1020.91L329.567 1009.26L390.907 973.783L729.656 776.97L749.55 788.335Z" fill="#FFC892"/>
<path d="M817.441 773.587L425.293 1000.38L405.354 988.766L797.502 761.971L817.441 773.587Z" fill="#FFD6AA"/>
<path d="M708.499 859.664L389.767 1044.59L369.829 1032.95L688.838 848.02L708.499 859.664Z" fill="#FFEABD"/>
<path d="M857.704 796.974L537.372 982.225L517.455 970.906L837.787 785.654H838.064L857.704 796.974Z" fill="#FFD6AA"/>
<path d="M758.234 877.791L430.032 1067.48L410.091 1055.87L738.293 866.177L758.234 877.791Z" fill="#FFD6AA"/>
<path d="M897.965 820.177L524.729 1036.7L504.823 1025.34L878.059 808.548L897.965 820.177Z" fill="#FFC892"/>
<path d="M729.814 941.467L471.086 1091.17L451.142 1079.82L709.869 930.122L729.814 941.467Z" fill="#FFD6AA"/>
<path d="M939.015 843.855L562.642 1061.96L542.716 1050.33L919.089 832.229L939.015 843.855Z" fill="#FFC892"/>
<path d="M770.076 965.148L511.368 1114.85L491.403 1103.5V1103.23L750.111 953.804L770.076 965.148Z" fill="#FFD6AA"/>
<path d="M979.277 867.236L602.889 1084.85L582.978 1073.53L959.365 855.913L979.277 867.236Z" fill="#FFE9B8"/>
<path d="M929.543 919.338L552.364 1137.74L532.454 1126.15L909.91 908.018L929.543 919.338Z" fill="#FFC892"/>
<path d="M1020.33 890.157L699.236 1076.17L679.289 1064.54L1000.38 878.808L1020.33 890.157Z" fill="#FFD6AA"/>
<path d="M850.599 1011.73L592.624 1161.43L572.716 1149.81L830.691 1000.38L850.599 1011.73Z" fill="#FFC892"/>
<path d="M1060.59 914.096L698.421 1123.53L678.5 1112.21L1040.67 902.491L1060.59 914.096Z" fill="#FFE9B8"/>
<path opacity="0.1" d="M166.942 915.516L615.483 1174.06L709.286 1119.86L1063.75 915.516L615.483 656.975L166.942 915.516Z" fill="#672B22"/>
<path d="M1036.91 829.073V906.157C1036.91 910.87 1033.85 915.584 1027.73 919.189C1015.22 926.398 994.924 926.398 982.413 919.189C976.019 915.584 972.961 910.87 972.961 906.157V829.073C972.961 834.064 976.019 838.779 982.413 842.106C994.924 849.315 1015.22 849.315 1027.73 842.106C1033.85 838.779 1036.91 834.064 1036.91 829.073Z" fill="#AC3734"/>
<path d="M1036.91 473.825V829.607C1036.91 834.591 1033.85 839.299 1027.73 842.621C1015.22 849.82 994.924 849.82 982.413 842.621C976.019 839.299 972.961 834.591 972.961 829.607V473.825H1036.91Z" fill="#F96864"/>
<path d="M1027.5 460.992C1040.04 468.091 1040.04 479.559 1027.5 486.658C1015.24 493.757 994.903 493.757 982.365 486.658C969.826 479.559 969.826 468.091 982.365 460.992C994.903 453.893 1015.24 453.893 1027.5 460.992Z" fill="#F96864"/>
<path d="M271.148 487.245V918.851C271.148 923.824 267.826 928.522 261.736 931.838C249.279 939.022 229.072 939.022 216.615 931.838C210.525 928.522 207.203 923.824 207.203 918.851V487.245H271.148Z" fill="#F96864"/>
<path d="M582.978 699.604V1131.98C582.978 1136.68 586.299 1141.38 592.389 1144.98C604.846 1152.17 625.054 1152.17 637.51 1144.98C643.6 1141.38 646.922 1136.68 646.922 1131.98V699.604H582.978Z" fill="#F96864"/>
<path d="M166.942 915.911V938L615.345 1196.16V1174.07L166.942 915.911Z" fill="#FDA44A"/>
<path d="M1063.75 915.911V938L615.346 1196.16V1174.07L1063.75 915.911Z" fill="#EA864E"/>
<path d="M646.923 762.761L972.962 574.49V555.138L646.923 743.408V762.761Z" fill="#F96864"/>
<path d="M584.556 762.76L271.148 582.369V563.031L584.556 743.422V762.76Z" fill="#AC3734"/>
<path d="M615.344 761.214L614.791 764.534L611.193 798.286L583.242 754.298L571.342 734.932L545.329 755.405L507.415 699.244L484.446 702.841L475.313 680.432L440.997 670.473L369.875 619.569L356.868 621.229L352.44 609.61L284.362 644.467L263.053 607.673L227.63 545.98L207.151 553.726L204.66 554.556L199.956 541L180.03 547.917L144.608 498.119H116.38L113.613 486.5H90.3662L107.524 468.241L438.23 199.89C438.23 199.89 530.661 215.106 535.089 218.149C539.517 220.915 570.789 253.006 570.789 253.006L613.407 385.246L613.684 386.352L615.068 736.869L615.344 761.214Z" fill="#FB823D"/>
<path d="M1164.01 504.588L1120.02 480.53L1104.53 498.504V531.687L1072.45 534.452V554.639L1054.19 549.938L1041.19 575.378L1037.04 573.996L1017.4 566.806V583.121L973.415 574.549L954.328 570.677L939.114 585.61L905.643 601.372L894.855 613.539H878.257V672.715L866.086 666.355L827.083 645.892L809.379 660.548L806.889 662.76H796.931V702.857L746.032 691.243L715.881 714.47L701.773 714.747L687.665 726.361H679.643L687.665 768.67L647.555 754.014L635.66 749.866L629.298 782.496L615.191 764.522L612.978 761.48V736.592L613.808 385.406L614.084 229.169C614.084 229.169 648.385 205.112 654.747 198.199C661.386 191.285 704.263 189.626 704.263 189.626L843.956 242.995L1123.07 468.363L1164.01 504.588Z" fill="#FF953E"/>
<path d="M259.865 345.188L248.255 398.611L288.889 385.048L268.71 473.901L356.613 444.007L361.588 499.367L445.621 441.239L475.751 563.031L532.418 491.339L552.597 555.004L615.345 487.187L614.792 378.958C614.792 378.958 589.361 277.649 593.231 269.345C597.101 261.318 564.207 222.842 552.597 215.092C540.987 207.064 451.149 189.626 451.149 189.626L259.865 345.188Z" fill="#FFC45C"/>
<path d="M613.767 57L432.499 204.278L415.617 236.114L476.501 213.137L456.299 290.651L504.452 241.097L522.164 290.651L547.625 253.278L562.846 466.72L592.457 339.928L613.767 386.437V57Z" fill="#FFE574"/>
<path d="M612.978 487.656L682.33 573.294L662.16 492.904L794.233 530.475L767.432 441.798L866.901 479.368L859.441 396.493H935.977L920.781 354.503H956.424L961.121 338.204L843.692 243.173L733.446 157.259L676.251 190.686L614.083 215.272L612.978 487.656Z" fill="#FFC545"/>
<path d="M613.919 57L843.389 242.981L796.446 226.628L867.966 312.274L715.537 214.987L754.749 279.845L654.787 214.987L605.082 322.252L613.919 57Z" fill="#FFE574"/>
<path d="M646.923 1055.64V1132.04C646.923 1136.72 643.628 1141.41 637.587 1145C625.23 1152.17 605.186 1152.17 592.829 1145C586.788 1141.41 583.768 1136.72 583.768 1132.04V1055.64C583.768 1060.33 586.788 1065.02 592.829 1068.6C605.186 1075.77 625.23 1075.77 637.587 1068.6C643.628 1065.02 646.923 1060.33 646.923 1055.64Z" fill="#AC3734"/>
<path opacity="0.3" d="M646.922 754.29V795.625C646.922 800.341 643.6 805.057 637.51 808.664C625.054 815.877 604.846 815.877 592.389 808.664C586.299 805.057 582.978 800.341 582.978 795.625V754.567L610.936 798.677L614.535 764.832L628.652 782.864L635.019 750.129L646.922 754.29Z" fill="#AC3734"/>
<path d="M271.148 842.493V918.886C271.148 923.575 267.826 928.263 261.736 931.848C249.279 939.019 229.072 939.019 216.615 931.848C210.525 928.263 207.203 923.575 207.203 918.886V842.493C207.203 847.182 210.525 851.87 216.615 855.455C229.072 862.35 249.279 862.35 261.736 855.455C267.826 851.87 271.148 847.182 271.148 842.493Z" fill="#AC3734"/>
<path opacity="0.3" d="M263.253 608.123C262.698 608.307 262.236 608.584 261.866 608.952C249.38 616.143 229.124 616.143 216.637 608.952C210.533 605.357 207.203 600.656 207.203 595.955V554.196L227.736 546.453L263.253 608.123Z" fill="#AC3734"/>
<path d="M90.3662 486.496L117.997 481.719L116.601 498.297L113.81 486.496H90.3662Z" fill="#FFAC5A"/>
<path d="M144.839 498.298L182.14 544.164L200.1 541.125L180.206 548.033L144.839 498.298Z" fill="#FFAC5A"/>
<path d="M200.1 540.927L205.902 552.237L227.73 546.147L204.797 555.137L200.1 540.927Z" fill="#FFAC5A"/>
<path d="M352.461 609.608L359.245 617.502L369.829 619.758L357.074 621.45L352.461 609.608Z" fill="#FFAC5A"/>
<path d="M475.614 680.658L486.625 699.2H507.547L546.912 748.737L571.137 735.176L545.26 755.655L506.996 700.307L484.698 703.074L475.614 680.658Z" fill="#FFAC5A"/>
<path d="M312.233 498.298L279.044 570.926L319.305 499.126L312.233 498.298Z" fill="#F9623E"/>
<path d="M562.813 585.037L520.611 680.658L567.255 596.401V627.166L577.806 591.689L586.135 566.189L562.813 585.037Z" fill="#F9623E"/>
<path d="M204.836 406.722L124.313 464.91H134.241L124.313 490.402L204.836 406.722Z" fill="#F9623E"/>
<path d="M237.891 423.844L274.307 402.774L222.204 521.98L256.379 422.734L237.891 423.844Z" fill="#F9623E"/>
<path d="M394.302 537.705L440.879 461.982L428.886 626.186L431.675 509.413L410.478 534.654L417.172 517.734L394.302 537.705Z" fill="#F9623E"/>
<path d="M606.661 496.302L615.345 679.079L613.445 488.824L606.661 496.302Z" fill="#F9623E"/>
<path d="M715.88 555.027L751.523 647.501L731.353 566.621L776.391 584.011L699.025 523.559L715.88 555.027Z" fill="#F9623E"/>
<path d="M880.465 508.15L903.479 562.614L891.833 521.628L996.643 566.189L872.701 487.245L880.465 508.15Z" fill="#F9623E"/>
<path d="M968.056 438.096L1044.01 538.559L982.194 431.731L1006.03 445.845L959.74 394.092L965.838 418.447L935.068 409.036L968.056 438.096Z" fill="#F9623E"/>
<path d="M671.856 326.199C671.856 326.199 668.237 465.501 668.237 461.915C668.237 458.329 680.207 384.403 680.207 384.403L716.393 438.744L671.856 326.199Z" fill="#FFAC48"/>
<path d="M762.971 289.885L823.266 367.25L778.867 302.595L835.599 320.278L762.971 289.885Z" fill="#FFAC48"/>
<path d="M353.251 408.141L417.985 375.935L395.024 441.458L403.323 387.873L353.251 408.141Z" fill="#FFAC48"/>
<path d="M521.166 380.404L515.087 477.772L528.073 413.598L534.705 462.005V417.194L542.717 458.686L534.705 337.252L521.166 380.404Z" fill="#FFAC48"/>
<path d="M400.476 238.549L365.881 245.704H406.288C406.288 245.704 402.966 267.72 402.966 268.545C402.966 269.646 414.037 233.045 414.037 233.045L400.476 238.549Z" fill="#FFE574"/>
<path d="M310.184 323.83L259.308 330.51H295.806L276.727 367.249L307.143 337.19C307.143 337.19 313.779 366.971 313.779 363.074C313.779 359.456 310.184 323.83 310.184 323.83Z" fill="#FFC45C"/>
<path d="M215.801 380.672L160.526 408.791L190.247 401.348L142.471 432.775H151.359L217.468 381.775L215.801 380.672Z" fill="#FB823D"/>
<path d="M864.809 259.887L896.386 273.854L880.043 272.177L896.386 278.044H887.245L864.809 259.887Z" fill="#FFC545"/>
<path d="M916.91 302.516L956.382 315.093L933.311 312.149L945.819 318.304H937.48L916.91 302.516Z" fill="#FFC545"/>
<path d="M706.131 131.963L712.21 120.155V131.963L721.051 128.668L718.841 135.533L739.287 145.417H722.986L706.131 131.963Z" fill="#FFE574"/>
<path d="M550.193 109.102H526.928L547.11 104.976L538.42 97.2728L556.08 100.574V90.9453L565.61 96.9975L550.193 109.102Z" fill="#FFE574"/>
<path d="M560.361 149.364L549.032 177.227L560.361 161.624L556.216 210.941L569.479 163.017L587.715 166.918L560.361 149.364Z" fill="#FFDB76"/>
<path d="M665.08 141.471V172.474L668.152 153.374L703.059 184.1L684.07 151.713L706.131 154.758L665.08 141.471Z" fill="#FFDB76"/>
<path d="M609.819 170.679V264.622L618.057 194.095L628.766 204.688L609.819 170.679Z" fill="#FFDB76"/>
<path opacity="0.3" d="M1036.91 574.186V603.016C1036.91 607.728 1033.85 612.441 1027.73 616.044C1015.22 623.252 994.924 623.252 982.413 616.044C976.019 612.441 972.961 607.728 972.961 603.016V574.74L1017.17 583.334V566.979L1036.91 574.186Z" fill="#AC3734"/>
<path d="M808.758 660.487L806.276 662.697H796.347V702.761L745.603 691.157L791.107 694.472L796.347 658.553L808.758 660.487Z" fill="#F9623E"/>
<path d="M826.916 646.023L869.868 658.705L877.35 603.293L894.808 613.769H878.181V672.764L826.916 646.023Z" fill="#F9623E"/>
<path d="M939.016 585.925L953.652 564.61L1013.86 577.898L1017.17 567.102V583.434L954.205 570.977L939.016 585.925Z" fill="#F9623E"/>
<path d="M1017.17 567.065L1036.89 566.51L1053.83 544.32L1069.65 547.926L1072.43 534.612V554.86L1054.1 550.145L1041.05 575.663L1017.17 567.065Z" fill="#F9623E"/>
<path d="M736.13 175.416L718.656 195.124L696.466 269.515L695.079 312.262L697.853 329.749L707.284 347.514L736.13 175.416Z" fill="#3D7D02"/>
<path d="M762.373 325.721L764.59 324.891L711.939 357.524C715.819 365.82 720.53 374.669 725.795 383.519C730.506 391.262 735.494 399.006 740.759 406.749L775.398 364.714L784.542 353.928C784.265 354.205 782.325 357.8 779.831 363.055C772.626 377.159 758.771 404.537 750.458 420.3C750.642 420.484 750.735 420.577 750.735 420.577C752.582 423.158 754.522 425.739 756.554 428.32C773.18 450.168 792.301 470.632 807.265 485.289L814.747 449.614L816.687 494.138C826.663 503.541 833.313 509.349 833.313 509.349C833.59 509.349 831.096 480.864 835.53 442.977L819.458 398.729L837.747 428.044C838.117 424.909 838.671 421.683 839.41 418.364C840.518 409.238 842.458 399.836 844.398 390.71L836.916 372.734L825.277 345.632L815.855 322.955L832.759 342.867L850.771 364.161C853.819 353.099 856.867 342.59 859.639 332.634C861.116 327.103 862.502 321.849 863.795 316.871L835.807 285.068L823.06 270.411C824.446 270.964 852.988 283.685 869.892 291.152C870.077 290.599 870.169 290.046 870.169 289.493C871.554 274.282 864.072 260.455 852.157 247.457C848.092 243.033 843.566 238.7 838.578 234.46C838.394 234.275 838.209 234.183 838.024 234.183C812.807 212.336 778.723 192.978 758.494 173.896C752.397 168.088 746.301 167.812 740.759 171.683C740.759 171.683 740.666 171.683 740.481 171.683C735.771 175.002 731.06 181.363 726.626 189.659C717.204 207.358 709.723 234.183 704.735 259.349C700.855 278.154 698.638 296.13 698.361 309.128C697.53 317.977 700.855 331.528 707.506 347.015L762.373 325.721Z" fill="#75B201"/>
<path d="M835.77 285.359L823.009 270.652C824.396 271.207 852.97 283.972 869.892 291.464C870.077 290.909 870.17 290.354 870.17 289.799C871.557 274.537 864.066 260.663 852.137 247.621L726.467 189.626C717.035 207.385 709.545 234.301 704.552 259.553L835.77 285.359Z" fill="#66A307"/>
<path d="M832.441 342.763L850.428 364.092C853.472 353.012 856.515 342.487 859.282 332.515C851.811 335.285 842.68 338.608 832.441 342.763Z" fill="#66A307"/>
<path d="M750.34 420.654C750.525 420.839 750.618 420.931 750.618 420.931L837.178 373.055L825.489 345.935C811.851 351.193 795.986 357.004 779.843 363.369C772.606 377.483 758.69 404.88 750.34 420.654Z" fill="#66A307"/>
<path d="M725.867 383.598C730.591 391.306 735.592 399.014 740.871 406.721L775.602 364.881C759.209 370.937 742.26 377.543 725.867 383.598Z" fill="#66A307"/>
<path d="M746.393 168.587C747.129 170.246 747.865 171.906 748.602 173.566C758.543 193.759 767.38 214.506 774.56 235.806C778.703 247.977 782.569 260.149 785.606 272.597C788.368 283.662 790.485 294.911 791.958 306.344C793.339 318.239 793.615 330.411 792.51 342.305C792.51 343.688 792.234 345.072 791.958 346.732L791.406 351.157C790.853 354.2 790.301 357.243 790.025 360.286C789.749 363.329 789.473 366.372 789.197 369.414C789.197 372.734 788.92 375.776 789.197 378.819C789.197 384.905 789.749 391.267 790.853 397.353C791.958 403.438 793.615 409.524 795.824 415.333C796.377 416.808 797.021 418.284 797.757 419.759C798.31 421.142 799.138 422.526 799.967 423.909C801.44 426.675 803.096 429.257 804.937 431.654C806.962 434.052 809.08 436.357 811.289 438.57C813.498 440.506 815.983 442.442 818.745 443.825L819.021 443.549C818.837 443.18 818.561 442.904 818.193 442.719C817.272 441.981 816.444 441.244 815.707 440.506C814.603 439.584 813.498 438.478 812.394 437.187C810.553 434.974 808.804 432.669 807.147 430.271C805.49 427.689 804.109 425.015 803.004 422.249C802.268 420.958 801.623 419.575 801.071 418.099C800.519 416.716 799.966 415.333 799.69 413.95C797.849 408.233 796.561 402.425 795.824 396.523C795.088 390.622 794.72 384.72 794.72 378.819C794.904 372.918 795.272 366.924 795.824 360.839C796.377 357.796 796.653 355.03 797.205 351.987L797.757 347.285C797.757 345.902 798.033 344.242 798.033 342.582L798.31 338.156C798.586 336.496 798.586 334.837 798.586 333.454C798.586 331.794 798.586 330.411 798.586 328.751L798.31 324.048C798.31 322.573 798.218 321.005 798.033 319.346L797.481 314.92C797.205 311.877 796.929 308.834 796.377 305.791C792.787 281.449 785.883 257.659 777.322 234.976C773.272 224.28 768.853 213.676 764.067 203.164C764.067 203.164 764.067 203.073 764.067 202.888C763.698 202.335 763.422 201.689 763.238 200.951C758.267 190.44 753.02 179.928 747.497 169.417C747.129 168.864 746.853 168.495 746.669 168.311L746.393 168.587Z" fill="#5B8503"/>
<path d="M798.765 328.84C798.765 330.502 798.765 331.887 798.765 333.55C798.765 334.935 798.764 336.598 798.491 338.26L798.217 342.694C798.217 344.356 797.943 346.018 797.943 347.404L797.396 352.114C796.849 355.162 796.575 357.932 796.027 360.98C795.48 367.076 795.115 373.079 794.932 378.99C794.932 384.901 795.297 390.812 796.027 396.723C796.757 402.634 798.034 408.452 799.859 414.179C800.133 415.564 800.681 416.949 801.228 418.335C801.775 419.812 802.414 421.198 803.144 422.491C804.239 425.262 805.608 427.94 807.25 430.526C808.893 432.928 810.626 435.237 812.451 437.453C813.546 438.746 814.641 439.855 815.736 440.778C816.466 441.517 817.287 442.256 818.199 442.995C818.564 443.18 818.838 443.457 819.02 443.826L807.25 428.864L804.513 422.491C793.29 391.458 798.765 344.079 800.681 339.091C807.25 304.457 782.615 242.115 764.549 203.047C769.293 213.576 773.673 224.197 777.688 234.911C786.173 257.631 793.016 281.46 796.575 305.842C797.122 308.89 797.396 311.938 797.67 314.986L798.217 319.419C798.4 321.081 798.491 322.651 798.491 324.129L798.765 328.84Z" fill="#A2D01A"/>
<path d="M707.478 347.514L762.18 326.229C761.075 326.505 730.961 333.14 714.661 336.733C695.322 286.699 740.631 172.258 740.631 172.258C740.631 172.258 740.538 172.258 740.354 172.258C717.147 188.014 699.189 271.772 698.361 309.643C697.532 318.765 700.847 332.034 707.478 347.514Z" fill="#A2D01A"/>
<path d="M822.969 270.669C824.357 271.223 852.947 283.978 869.879 291.464C870.064 290.909 870.157 290.354 870.157 289.8C872.1 269.559 857.943 251.537 838.513 234.624C847.395 242.665 864.05 283.146 864.05 283.146L822.969 270.669Z" fill="#A2D01A"/>
<path d="M784.285 353.83L747.153 385.676C743.027 388.999 737.251 389.276 733.125 386.23L723.498 378.753L740.827 406.723L784.285 353.83Z" fill="#A2D01A"/>
<path d="M855.334 347.01L848.986 353.898L815.862 323.041L850.642 364.092L855.334 347.01Z" fill="#A2D01A"/>
<path d="M814.285 450.245L805.209 473.859L771.655 447.773L806.859 485.667L814.285 450.245Z" fill="#A2D01A"/>
<path d="M833.231 509.526L822.879 511.718L811.127 495.828L814.205 451.721L816.443 494.458L833.231 509.526Z" fill="#3D7D02"/>
<path d="M807.18 485.581L803.849 487.246L746.393 420.677L784.419 353.83L750.556 420.677L807.18 485.581Z" fill="#3D7D02"/>
<path d="M740.705 406.722L736.823 405.073L707.71 357.824L764.55 325.409L711.869 357.824L740.705 406.722Z" fill="#3D7D02"/>
<path d="M613.84 75.0904C616.044 71.7738 619.624 69.2863 623.48 68.1808L624.857 67.9041L627.887 67.0752L629.264 66.7988L630.641 66.5222C634.497 65.9694 638.353 64.864 642.484 64.5876C650.196 63.7585 658.183 64.0347 666.171 65.1403C676.086 66.7986 685.726 70.3917 694.264 75.643C699.221 78.7754 703.812 82.3684 708.035 86.4221C719.603 97.4775 727.865 111.02 734.475 125.116C737.597 132.117 740.351 139.396 742.738 146.95C743.656 150.267 744.574 153.583 745.492 156.9C746.043 158.927 746.502 160.954 746.87 162.981C747.42 165.192 747.788 167.31 747.971 169.337L744.942 169.891C743.565 162.705 741.637 155.242 739.158 148.056C736.587 140.87 733.649 133.868 730.344 127.051C723.734 113.508 715.196 100.794 704.454 90.5679C693.437 80.618 679.666 73.9846 665.069 72.0499C657.908 71.2207 650.471 70.9443 643.31 72.0499C639.455 72.3263 635.874 73.432 632.294 73.9848L630.916 74.2611L629.539 74.8137L627.06 75.643L621.552 77.0249C619.073 77.8541 616.594 76.7486 612.188 78.1305C612.555 77.025 613.106 76.0117 613.84 75.0904Z" fill="#75B201"/>
<path d="M694.29 75.9463C729.051 100.561 745.052 155.599 745.604 157.259C744.684 153.94 743.764 150.621 742.845 147.302C740.454 139.743 737.695 132.459 734.568 125.453C727.947 111.347 719.671 97.7957 708.084 86.7327C703.854 82.6763 699.256 79.0808 694.29 75.9463Z" fill="#A2D01A"/>
<path d="M612.188 78.3142C616.62 76.7792 619.113 78.0071 621.607 77.0861C622.992 76.7791 622.438 74.9371 621.607 72.7881C621.607 72.7881 613.296 75.8582 612.188 78.3142Z" fill="#5B8503"/>
<path d="M620.081 73.4105L621.186 76.7372L626.71 75.351L629.196 74.5192L630.577 73.9649L631.959 73.6877C635.549 73.1332 639.14 72.0241 643.007 71.7468C650.189 70.6379 657.647 70.9151 664.829 71.7468C679.468 73.6875 693.279 80.3414 704.328 90.3219C715.1 100.58 723.663 113.333 730.292 126.917C733.607 133.756 736.554 140.779 739.132 147.987C741.618 155.195 743.551 162.681 744.932 169.889L747.97 169.334C747.786 167.301 747.418 165.176 746.865 162.958L744.379 162.126C744.379 162.126 738.579 140.779 737.198 137.175C735.817 133.571 712.338 88.9357 696.041 80.6186C679.468 72.3015 655.989 59.5487 620.081 73.4105Z" fill="#5B8503"/>
</svg>
