<svg width="700" height="757" viewBox="0 0 700 757" fill="none" xmlns="http://www.w3.org/2000/svg">
<path d="M224.5 730.5L34.5 619L0 553.5L143.5 447.5L533.5 386.5L674.5 475L641 572.5L427.5 717.5L224.5 730.5Z" fill="black" fill-opacity="0.06"/>
<path d="M253.796 693.779L445.387 582.246L445.999 332.902L254.407 444.435L253.796 693.779Z" fill="#31AB05"/>
<path d="M254.409 444.435L446 332.902L390.998 100.976L199.406 212.203L254.409 444.435Z" fill="#FFB55A"/>
<path d="M199.405 212.203L390.997 100.976L250.435 20L58.8438 131.533L199.405 212.203Z" fill="#FFA536"/>
<path d="M58.8438 131.532L62.205 333.819L61.5938 583.163L253.797 693.779L254.408 444.435L199.405 212.202L58.8438 131.532Z" fill="#278704"/>
<path d="M253.796 693.779L445.387 582.246L445.999 332.902L254.407 444.435L253.796 693.779Z" fill="#EA8507"/>
<path d="M58.8438 131.532L62.205 333.819L61.5938 583.163L253.797 693.779L254.408 444.435L199.405 212.202L58.8438 131.532Z" fill="#FF8E02"/>
<path d="M393.748 139.783L435.306 316.096L384.276 289.817L353.719 163.618L393.748 139.783Z" fill="#D9352B"/>
<path d="M384.276 289.816L435.306 316.095L262.354 416.627L250.437 366.82L384.276 289.816Z" fill="#FF6A5C"/>
<path d="M385.498 339.32L417.277 320.986L379.998 301.735L348.219 320.375L385.498 339.32Z" fill="#E6E6E6"/>
<path d="M384.276 289.817L353.719 163.617L219.88 240.926L250.437 366.82L384.276 289.817Z" fill="#BA2D24"/>
<path d="M371.136 270.871L348.523 176.756L229.963 245.814L252.575 339.318L371.136 270.871Z" fill="white"/>
<path d="M236.381 248.564L344.858 185.312L364.72 268.121L256.243 330.762L236.381 248.564Z" fill="#0EE5E1"/>
<path d="M299.938 346.653V348.487C299.938 348.894 300.141 349.2 300.548 349.403V347.57C300.141 347.366 299.938 347.061 299.938 346.653Z" fill="#BFBFBF"/>
<path d="M317.355 347.57V349.403C317.763 349.2 317.967 348.894 317.967 348.487V346.653C317.967 347.061 317.763 347.366 317.355 347.57Z" fill="#BFBFBF"/>
<path d="M310.327 351.544V353.377L317.355 349.405V347.571L310.327 351.544Z" fill="#B9B9B9"/>
<path d="M300.55 347.571V349.405L307.578 353.377V351.544L300.55 347.571Z" fill="#979797"/>
<path d="M307.576 351.542V353.375C308.187 353.987 309.409 353.987 310.326 353.375V351.542C309.409 352.153 308.187 352.153 307.576 351.542Z" fill="#BFBFBF"/>
<path d="M300.549 345.737C299.632 346.348 299.632 346.959 300.549 347.57L307.577 351.543C308.188 352.154 309.41 352.154 310.327 351.543L317.355 347.57C317.966 346.959 317.966 346.348 317.355 346.042L310.327 341.764C309.41 341.459 308.188 341.459 307.577 341.764L300.549 345.737Z" fill="#E6E6E6"/>
<path d="M287.409 353.681V355.514C287.409 355.921 287.613 356.227 288.02 356.431V354.597C287.613 354.394 287.409 354.088 287.409 353.681Z" fill="#BFBFBF"/>
<path d="M305.131 354.597V356.43C305.335 356.226 305.437 356.022 305.437 355.819V353.985C305.437 354.189 305.335 354.393 305.131 354.597Z" fill="#BFBFBF"/>
<path d="M288.021 354.598V356.431L295.355 360.403V358.57L288.021 354.598Z" fill="#979797"/>
<path d="M297.799 358.57V360.403L305.132 356.431V354.598L297.799 358.57Z" fill="#B9B9B9"/>
<path d="M295.354 358.569V360.403C295.966 361.014 297.188 361.014 297.799 360.403V358.569C297.188 359.18 295.966 359.18 295.354 358.569Z" fill="#BFBFBF"/>
<path d="M288.02 353.07C287.409 353.375 287.409 354.292 288.02 354.598L295.354 358.57C295.965 359.181 297.187 359.181 297.798 358.57L305.132 354.598C305.743 354.292 305.743 353.375 305.132 353.07L297.798 348.792C297.187 348.486 295.965 348.486 295.048 348.792L288.02 353.07Z" fill="#E6E6E6"/>
<path d="M275.186 361.015V362.848C275.186 363.052 275.389 363.255 275.797 363.459V361.626C275.389 361.422 275.186 361.218 275.186 361.015Z" fill="#BFBFBF"/>
<path d="M292.604 361.626V363.459C293.011 363.255 293.215 363.052 293.215 362.848V361.015C293.215 361.218 293.011 361.422 292.604 361.626Z" fill="#BFBFBF"/>
<path d="M275.798 361.627V363.46L282.826 367.738V365.905L275.798 361.627Z" fill="#979797"/>
<path d="M285.576 365.905V367.738L292.604 363.46V361.627L285.576 365.905Z" fill="#B9B9B9"/>
<path d="M282.826 365.904V367.738C283.743 368.043 284.965 368.043 285.576 367.738V365.904C284.66 366.21 283.743 366.21 282.826 365.904Z" fill="#BFBFBF"/>
<path d="M275.798 360.099C274.881 360.71 274.881 361.321 275.798 361.627L282.826 365.905C283.743 366.21 284.659 366.21 285.576 365.905L292.604 361.627C293.521 361.321 293.521 360.71 292.604 360.099L285.576 356.126C284.659 355.515 283.437 355.515 282.826 356.126L275.798 360.099Z" fill="#E6E6E6"/>
<path d="M342.105 333.208V335.041C342.513 334.837 342.717 334.532 342.717 334.124V332.291C342.717 332.698 342.513 333.004 342.105 333.208Z" fill="#BFBFBF"/>
<path d="M315.826 337.485V339.319C315.826 339.726 315.928 340.032 316.132 340.235V338.402C315.928 338.198 315.826 337.893 315.826 337.485Z" fill="#BFBFBF"/>
<path d="M316.132 338.402V340.236L323.465 344.208V342.375L316.132 338.402Z" fill="#979797"/>
<path d="M326.216 342.375V344.208L342.105 335.041V333.208L326.216 342.375Z" fill="#B9B9B9"/>
<path d="M323.465 342.375V344.208C324.076 344.82 325.298 344.82 326.215 344.208V342.375C325.298 342.986 324.076 342.986 323.465 342.375Z" fill="#BFBFBF"/>
<path d="M316.132 336.875C315.521 337.18 315.521 338.097 316.132 338.403L323.466 342.375C324.077 342.986 325.299 342.986 326.216 342.375L342.106 333.208C343.022 332.902 343.022 331.986 342.106 331.68L335.077 327.402C334.161 327.096 333.244 327.096 332.327 327.402L316.132 336.875Z" fill="#E6E6E6"/>
<path d="M312.16 353.986V355.82C312.16 356.023 312.364 356.227 312.771 356.431V354.598C312.364 354.394 312.16 354.19 312.16 353.986Z" fill="#BFBFBF"/>
<path d="M329.883 354.598V356.431C330.087 356.227 330.188 356.023 330.188 355.82V353.986C330.188 354.19 330.087 354.394 329.883 354.598Z" fill="#BFBFBF"/>
<path d="M322.549 358.876V360.709L329.883 356.431V354.598L322.549 358.876Z" fill="#B9B9B9"/>
<path d="M312.771 354.598V356.431L320.104 360.709V358.876L312.771 354.598Z" fill="#979797"/>
<path d="M320.104 358.876V360.709C320.716 361.015 321.938 361.015 322.549 360.709V358.876C321.938 359.182 320.716 359.182 320.104 358.876Z" fill="#BFBFBF"/>
<path d="M312.771 353.069C312.16 353.681 312.16 354.292 312.771 354.597L320.105 358.875C320.716 359.181 321.938 359.181 322.549 358.875L329.883 354.597C330.494 354.292 330.494 353.681 329.883 353.069L322.549 349.097C321.938 348.486 320.716 348.486 319.799 349.097L312.771 353.069Z" fill="#E6E6E6"/>
<path d="M299.938 361.015V362.848C299.938 363.052 300.141 363.357 300.548 363.765V361.931C300.141 361.524 299.938 361.218 299.938 361.015Z" fill="#BFBFBF"/>
<path d="M317.355 361.931V363.765C317.763 363.561 317.967 363.256 317.967 362.848V361.015C317.967 361.422 317.763 361.728 317.355 361.931Z" fill="#BFBFBF"/>
<path d="M300.55 361.932V363.765L307.578 367.737V365.904L300.55 361.932Z" fill="#979797"/>
<path d="M310.327 365.904V367.737L317.355 363.765V361.932L310.327 365.904Z" fill="#B9B9B9"/>
<path d="M307.576 365.904V367.738C308.493 368.349 309.715 368.349 310.326 367.738V365.904C309.715 366.515 308.493 366.515 307.576 365.904Z" fill="#BFBFBF"/>
<path d="M300.549 360.098C299.632 360.709 299.632 361.32 300.549 361.931L307.577 365.904C308.494 366.515 309.716 366.515 310.327 365.904L317.355 361.931C318.272 361.32 318.272 360.709 317.355 360.404L310.327 356.126C309.41 355.82 308.188 355.82 307.577 356.126L300.549 360.098Z" fill="#E6E6E6"/>
<path d="M287.714 368.043V369.876C287.714 370.284 287.816 370.589 288.019 370.793V368.96C287.816 368.756 287.714 368.45 287.714 368.043Z" fill="#BFBFBF"/>
<path d="M305.132 368.959V370.792C305.539 370.588 305.743 370.385 305.743 370.181V368.348C305.743 368.551 305.539 368.755 305.132 368.959Z" fill="#BFBFBF"/>
<path d="M288.021 368.96V370.793L295.354 374.766V372.932L288.021 368.96Z" fill="#979797"/>
<path d="M298.105 372.932V374.766L305.134 370.793V368.96L298.105 372.932Z" fill="#B9B9B9"/>
<path d="M295.354 372.933V374.766C295.965 375.377 297.187 375.377 298.104 374.766V372.933C297.187 373.544 295.965 373.544 295.354 372.933Z" fill="#BFBFBF"/>
<path d="M288.02 367.432C287.409 367.738 287.409 368.349 288.02 368.96L295.354 372.932C295.965 373.543 297.187 373.543 298.104 372.932L305.132 368.96C305.743 368.654 305.743 367.738 305.132 367.432L297.798 363.154C297.187 362.848 295.965 362.848 295.354 363.154L288.02 367.432Z" fill="#E6E6E6"/>
<path d="M354.635 340.541V342.374C355.042 342.17 355.246 341.865 355.246 341.457V339.624C355.246 340.031 355.042 340.337 354.635 340.541Z" fill="#BFBFBF"/>
<path d="M328.049 344.819V346.653C328.049 346.856 328.253 347.162 328.66 347.569V345.736C328.253 345.329 328.049 345.023 328.049 344.819Z" fill="#BFBFBF"/>
<path d="M328.661 345.735V347.569L335.689 351.541V349.708L328.661 345.735Z" fill="#979797"/>
<path d="M338.438 349.709V351.542L354.634 342.375V340.542L338.438 349.709Z" fill="#B9B9B9"/>
<path d="M335.688 349.709V351.542C336.605 352.154 337.828 352.154 338.439 351.542V349.709C337.828 350.32 336.605 350.32 335.688 349.709Z" fill="#BFBFBF"/>
<path d="M328.66 343.903C328.048 344.514 328.048 345.125 328.66 345.736L335.688 349.709C336.604 350.32 337.827 350.32 338.438 349.709L354.633 340.542C355.244 339.931 355.244 339.32 354.633 339.014L347.605 334.736C346.688 334.43 345.466 334.43 344.855 334.736L328.66 343.903Z" fill="#E6E6E6"/>
<path d="M324.688 361.015V362.848C324.688 363.256 324.892 363.561 325.3 363.765V361.931C324.892 361.728 324.688 361.422 324.688 361.015Z" fill="#BFBFBF"/>
<path d="M342.106 361.931V363.765C342.514 363.561 342.718 363.256 342.718 362.848V361.015C342.718 361.422 342.514 361.728 342.106 361.931Z" fill="#BFBFBF"/>
<path d="M335.078 365.904V367.737L342.106 363.765V361.932L335.078 365.904Z" fill="#B9B9B9"/>
<path d="M325.3 361.932V363.765L332.328 367.737V365.904L325.3 361.932Z" fill="#979797"/>
<path d="M332.328 365.903V367.737C333.245 368.348 334.467 368.348 335.078 367.737V365.903C334.467 366.514 333.245 366.514 332.328 365.903Z" fill="#BFBFBF"/>
<path d="M325.301 360.404C324.384 360.709 324.384 361.32 325.301 361.931L332.329 365.904C333.246 366.515 334.468 366.515 335.079 365.904L342.107 361.931C343.024 361.626 343.024 360.709 342.107 360.404L335.079 356.126C334.162 355.82 332.94 355.82 332.329 356.126L325.301 360.404Z" fill="#E6E6E6"/>
<path d="M312.467 368.349V370.182C312.467 370.386 312.671 370.589 313.078 370.793L312.772 368.96C312.569 368.756 312.467 368.552 312.467 368.349Z" fill="#BFBFBF"/>
<path d="M329.883 368.96V370.793C330.29 370.589 330.494 370.386 330.494 370.182V368.349C330.494 368.552 330.29 368.756 329.883 368.96Z" fill="#BFBFBF"/>
<path d="M312.771 368.96L313.077 370.793L320.105 375.071V373.238L312.771 368.96Z" fill="#979797"/>
<path d="M322.855 373.238V375.071L329.884 370.793V368.96L322.855 373.238Z" fill="#B9B9B9"/>
<path d="M320.104 373.238V375.072C320.716 375.377 321.938 375.377 322.855 375.072V373.238C321.938 373.544 320.716 373.544 320.104 373.238Z" fill="#BFBFBF"/>
<path d="M312.772 367.432C312.161 367.737 312.161 368.654 312.772 368.96L320.106 373.238C320.717 373.543 321.939 373.543 322.856 373.238L329.884 368.96C330.495 368.654 330.495 368.043 329.884 367.432L322.856 363.459C321.939 362.848 320.717 362.848 320.106 363.459L312.772 367.432Z" fill="#E6E6E6"/>
<path d="M299.938 375.377V377.21C299.938 377.414 300.142 377.72 300.549 378.127V376.294C300.142 375.886 299.938 375.581 299.938 375.377Z" fill="#BFBFBF"/>
<path d="M317.355 376.294V378.127C317.763 377.923 317.967 377.618 317.967 377.21V375.377C317.967 375.784 317.763 376.09 317.355 376.294Z" fill="#BFBFBF"/>
<path d="M300.549 376.295V378.128L307.577 382.101V380.267L300.549 376.295Z" fill="#979797"/>
<path d="M310.327 380.267V382.101L317.355 378.128V376.295L310.327 380.267Z" fill="#B9B9B9"/>
<path d="M307.578 380.266V382.099C308.495 382.405 309.717 382.405 310.328 382.099V380.266C309.717 380.571 308.495 380.571 307.578 380.266Z" fill="#BFBFBF"/>
<path d="M300.549 374.46C299.938 375.072 299.938 375.683 300.549 376.294L307.577 380.266C308.494 380.572 309.716 380.572 310.327 380.266L317.355 376.294C318.272 375.683 318.272 375.071 317.355 374.766L310.327 370.488C309.716 370.182 308.494 370.182 307.577 370.488L300.549 374.46Z" fill="#E6E6E6"/>
<path d="M366.856 347.57V349.403C367.264 349.2 367.468 348.996 367.468 348.792V346.959C367.468 347.163 367.264 347.366 366.856 347.57Z" fill="#BFBFBF"/>
<path d="M340.577 352.154V353.988C340.577 354.191 340.781 354.395 341.188 354.599V352.765C340.781 352.562 340.577 352.358 340.577 352.154Z" fill="#BFBFBF"/>
<path d="M341.189 352.765V354.598L348.217 358.876V357.043L341.189 352.765Z" fill="#979797"/>
<path d="M350.967 357.044V358.877L366.856 349.405V347.571L350.967 357.044Z" fill="#B9B9B9"/>
<path d="M348.217 357.042V358.875C348.828 359.181 350.05 359.181 350.967 358.875V357.042C350.05 357.348 348.828 357.348 348.217 357.042Z" fill="#BFBFBF"/>
<path d="M341.189 351.237C340.272 351.542 340.272 352.459 341.189 352.765L348.217 357.043C348.828 357.348 350.05 357.348 350.967 357.043L366.856 347.57C367.773 347.264 367.773 346.653 366.856 346.042L359.828 342.07C359.217 341.459 357.995 341.459 357.078 342.07L341.189 351.237Z" fill="#E6E6E6"/>
<path d="M266.021 350.014L311.856 323.43L310.023 314.874L264.188 341.458L266.021 350.014Z" fill="#5E1612"/>
<path d="M347.912 304.178L373.275 289.511L371.441 280.955L346.079 295.622L347.912 304.178Z" fill="#5E1612"/>
<path d="M418.642 442.483C417.438 444.006 417.109 444.859 415.424 452.412C413.894 459.13 413.853 459.31 414.889 464.022C416.967 473.504 419.767 473.941 425.25 465.615C429.452 459.229 431.723 451.678 430.172 448.951C429.48 447.844 428.934 447.661 426.841 447.861C423.702 448.161 422.132 449.543 421.532 452.475C421.086 454.571 421.183 454.972 422.213 455.93C422.856 456.514 423.587 456.797 423.914 456.531C424.625 455.993 424.149 457.154 422.475 459.895C421.819 461.014 420.955 461.8 420.648 461.653C419.534 461.056 419.636 456.587 420.909 451.478C422.358 445.766 422.15 441.738 420.488 441.544C419.954 441.478 419.115 441.91 418.642 442.483Z" fill="white"/>
<path d="M403.795 446.13C402.857 447.98 402.16 451.742 402.382 454.068C402.665 457.033 401.945 456.867 400.216 453.512C398.206 449.656 397.696 449.235 395.88 449.877C394.064 450.52 393.159 452.719 392.742 457.57C392.593 459.696 392.111 463.262 391.688 465.591C390.961 469.65 391.161 475.439 392.037 477.233C392.261 477.74 392.939 478.086 393.521 478.03C395.323 477.858 396.638 475.034 396.701 471.39C396.703 469.571 396.836 467.27 396.974 466.26C397.278 464.529 397.278 464.529 398.91 467.483C399.774 469.161 400.752 471.414 400.979 472.566C401.868 476.354 402.231 477.082 403.195 477.342C404.402 477.696 405.999 476.605 406.453 475.212C407.438 472.008 408.446 446.918 407.646 445.293C406.995 444.006 404.639 444.524 403.795 446.13Z" fill="white"/>
<path d="M385.699 458.183C384.279 459.903 384.207 460.379 384.601 464.507C384.834 466.949 384.736 472.063 384.388 475.793C383.818 482.125 383.863 482.59 384.882 483.431C387.244 485.436 389.109 481.62 390.091 472.843C390.873 465.669 390.284 458.274 388.825 457.122C387.546 456.012 387.487 456.018 385.699 458.183Z" fill="white"/>
<path d="M377.236 461.103C375.985 462.748 375.781 464.293 375.738 473.684C375.728 476.032 375.562 477.984 375.271 478.012C375.039 478.034 374.153 477.356 373.308 476.498C372.463 475.639 371.201 474.704 370.47 474.422C369.373 473.998 369.16 473.608 369.467 472.522C369.904 470.955 368.921 468.644 367.874 468.743C366.595 468.866 357.424 476.664 356.743 478.137C355.979 479.97 356.14 481.656 357.262 482.957C358.458 484.427 358.299 491.366 356.921 494.138C355.589 496.788 355.911 500.16 357.559 500.824C361.167 502.357 363.184 497.06 363.746 484.509C363.873 480.918 364.235 479.182 364.977 478.349C365.619 477.701 366.156 477.18 366.226 477.291C366.347 477.338 366.284 478.517 366.115 479.824C365.477 484.814 365.603 492.898 366.329 494.354C367.941 497.721 371.6 494.262 371.173 489.785C370.918 487.111 371.397 486.596 372.756 487.933C373.798 489.007 376.583 488.682 377.693 487.403C379.896 484.67 381.346 477.725 381.325 469.513C381.318 462.063 380.65 459.369 378.784 459.488C378.609 459.505 377.915 460.217 377.236 461.103Z" fill="white"/>
<path d="M351.675 480.381C351.108 481.198 350.225 483.629 349.68 485.91C348.903 489.446 348.557 490.125 346.616 491.307C345.456 492.063 344.402 492.692 344.227 492.709C344.053 492.725 343.795 491.87 343.579 490.834C343.335 489.508 342.931 488.96 342.047 488.927C340.101 488.819 338.695 491.3 336.822 498.109C334.921 504.627 330.775 514.058 329.917 513.671C329.668 513.518 329.363 512.785 329.297 512.087C329.224 511.331 328.723 510.382 328.161 510.025C327.344 509.457 326.879 509.502 325.619 510.443C324.133 511.465 324.232 511.28 326.3 507.738C328.021 504.875 328.481 503.54 328.237 502.214C327.652 499.16 325.83 499.745 322.545 504.048C319.207 508.415 318.354 510.55 317.42 516.741C316.479 522.874 316.679 524.967 318.413 525.916C321.578 527.726 328.867 523.569 329.658 519.563C329.86 518.605 330.303 518.328 331.604 518.438C333.551 518.546 335.38 516.2 337.971 510.145C339.614 506.467 342.557 502.256 343.661 502.15C344.01 502.117 344.049 502.524 343.709 503.26C342.998 505.03 343.458 508.623 344.48 508.878C345.803 509.221 347.547 507.822 348.394 505.629C348.875 504.527 349.971 502.487 350.885 500.991C352.612 498.186 353.201 496.37 354.648 488.781C356.1 481.249 354.493 476.709 351.675 480.381ZM323.204 517.714C323.074 518.196 322.883 518.038 322.822 517.399C322.702 516.765 322.843 516.399 323.04 516.615C323.231 516.773 323.339 517.291 323.204 517.714Z" fill="white"/>
<path d="M387.218 493.769C386.122 494.578 384.639 497.477 382.129 503.76C378.207 513.698 376.898 516.58 376.201 516.647C375.968 516.669 374.921 514.305 373.877 511.353C372.89 508.396 371.636 505.7 371.132 505.337C369.753 504.413 367.516 505.565 366.716 507.636C365.759 509.899 363.201 526.747 362.848 532.882C362.638 536.833 362.699 537.473 363.649 538.204C364.604 538.992 364.779 538.976 366.085 537.912C367.771 536.519 368.272 535.005 368.534 529.758C368.677 527.573 369.04 524.605 369.313 523.171L369.82 520.483L371.493 524.489C373.268 528.954 375.149 530.828 376.63 529.748C377.12 529.349 378.979 525.475 380.679 521.148C382.378 516.82 384.235 512.301 384.885 511.124L386.028 508.961L386.01 513.07C386.046 515.296 385.903 518.713 385.79 520.601C385.464 524.563 386.037 526.269 387.491 526.13C388.828 526.002 390.021 524.363 390.881 521.699C391.183 520.556 391.578 514.24 391.665 507.778C391.804 497.556 391.749 495.742 390.918 494.414C389.671 492.42 389.131 492.296 387.218 493.769Z" fill="white"/>
<path d="M309.407 510.231C307.187 511.557 307.049 512.568 306.751 532.193C306.71 536.069 307.729 536.911 310.074 535.044C311.981 533.513 312.669 529.046 312.504 519.323C312.414 512.232 312.223 510.842 311.464 510.269C310.827 509.743 310.24 509.741 309.407 510.231Z" fill="white"/>
<path d="M354.701 514.532C350.665 517.733 346.163 520.979 344.701 521.646C342.628 522.666 341.822 523.447 341.211 525.03C339.675 529.225 342.53 531.476 346.915 529.473L348.657 528.662L348.488 531.201C348.149 538.097 348.242 545.833 348.718 547.137C349.367 549.012 351.698 548.848 352.858 546.86C353.256 546.117 354.639 540.94 355.926 535.36C357.705 527.563 358.083 524.77 357.637 523.169C357.163 521.278 357.31 520.971 358.938 519.584C362.257 516.861 363.685 514.613 363.71 511.794C363.759 509.853 363.576 509.167 362.909 508.937C362.369 508.813 358.9 511.197 354.701 514.532Z" fill="white"/>
<path d="M290.291 524.493C289.101 526.778 287.639 537.889 288.022 541.901C288.574 548.302 290.628 548.927 295.949 544.43C299.916 541.118 300.829 539.622 300.552 536.715C300.324 534.331 299.017 534.163 296.166 536.254C294.79 537.206 293.636 538.021 293.461 538.037C293.345 538.048 293.608 535.266 294.1 531.816C295.009 524.747 294.635 522.671 292.484 522.876C291.612 522.959 290.731 523.571 290.291 524.493Z" fill="white"/>
<path d="M331.295 525.626C329.495 527.675 328.353 531.07 325.957 541.625C324.759 546.902 322.856 554.007 321.707 557.344C319.15 564.98 318.633 567.553 319.508 569.347C320.384 571.141 321.128 570.952 323.08 568.654C323.916 567.576 325.375 566.264 326.203 565.715C328.301 564.342 331.869 559.307 332.145 557.286C332.237 556.397 331.987 555.013 331.613 554.169C331.031 552.992 331.064 552.109 331.754 550.107C332.26 548.651 332.6 546.682 332.511 545.752C332.411 544.705 332.965 543.127 333.842 541.87L335.282 539.737L335.808 541.565C336.232 542.932 336.13 543.705 335.399 544.655C334.095 546.363 333.343 550.777 333.997 552.709C334.312 553.559 334.327 555.553 334.128 557.156C333.727 559.717 333.766 560.124 334.721 560.913C335.682 561.76 336.089 561.721 339.04 560.677C344.937 558.53 345.551 555.127 342.37 541.467C341.635 538.075 340.145 533.524 339.103 531.217C336.001 524.532 333.731 522.871 331.295 525.626Z" fill="white"/>
<path d="M311.88 541.677C310.404 542.815 307.315 544.87 305.031 546.144C302.752 547.476 297.354 551.16 293.022 554.331C284.905 560.268 283.59 561.861 283.895 565.058C284.211 568.372 286.761 567.425 295.055 560.884C298.275 558.347 303.119 555.01 305.73 553.47C312.064 549.756 317.116 545.518 317.415 543.73C317.774 541.349 317.079 539.596 315.783 539.544C315.138 539.547 313.408 540.475 311.88 541.677Z" fill="white"/>
<path d="M302.38 558.954C290.285 568.087 284.012 573.673 283.34 575.849C282.668 578.026 283.446 580.65 284.725 580.528C285.016 580.501 286.555 579.415 288.125 578.033C297.855 569.946 301.407 567.202 305.382 564.593C307.813 563.012 310.111 561.267 310.473 560.763C310.83 560.201 311.093 558.65 310.965 557.313C310.668 553.586 309.057 553.916 302.38 558.954Z" fill="white"/>
<path d="M297.353 574.511C290.161 580.302 283.767 585.841 283.158 586.838C281.976 588.593 281.918 591.063 282.918 592.317C283.392 592.976 283.793 592.879 285.174 591.985C287.442 590.536 311.479 571.286 312.699 569.937C314.078 568.398 313.313 564.07 311.663 563.993C310.896 563.949 305.578 567.859 297.353 574.511Z" fill="white"/>
</svg>
