<svg width="1020" height="1020" viewBox="0 0 1020 1020" fill="none" xmlns="http://www.w3.org/2000/svg">
<path d="M248.5 958.5L147.5 904.5L78 788L708.5 364L988.5 516.5L490.5 839.5L394 862L248.5 958.5Z" fill="black" fill-opacity="0.04"/>
<path opacity="0.4" d="M77.8442 489.919C80.7881 501.015 85.5435 511.206 92.1107 520.717C107.283 542.456 132.193 559.44 162.764 569.857C206.922 585.029 263.082 586.841 320.827 572.121C435.865 542.909 513.765 458.669 494.743 383.713C481.382 330.95 422.957 296.982 349.134 292L152 315L98.5 383.713L76.4855 449.384C74.221 462.971 74.4474 476.559 77.8442 489.919Z" fill="black" fill-opacity="0.12"/>
<path d="M729.832 381.771C729.832 384.488 734.587 386.753 740.702 386.753C746.589 386.753 751.345 384.488 751.345 381.771C751.345 379.28 746.589 377.016 740.702 377.016C734.587 377.016 729.832 379.28 729.832 381.771Z" fill="#FF8C3E"/>
<path d="M626.344 263.334H632.005V386.75C632.005 388.336 630.646 389.694 629.288 389.694C627.703 389.694 626.344 388.336 626.344 386.75V263.334Z" fill="#FFE9B8"/>
<path d="M598.943 333.083V338.744L630.194 320.628C630.496 320.477 630.647 320.099 630.647 319.495C630.647 318.363 629.967 317.231 628.835 316.552C628.382 316.25 628.005 316.25 627.703 316.552L598.943 333.083Z" fill="#FFC892"/>
<path d="M617.285 296.396V419.812C617.285 421.397 618.644 422.756 620.229 422.756C621.814 422.756 622.946 421.397 622.946 419.812V296.396H617.285Z" fill="#FFE9B8"/>
<path d="M593.282 282.809H598.944V406.225C598.944 407.81 597.811 408.942 596.226 408.942C594.641 408.942 593.282 407.81 593.282 406.225V282.809Z" fill="#FFE9B8"/>
<path d="M650.348 277.146H656.009V400.563C656.009 402.148 654.65 403.28 653.065 403.28C651.48 403.28 650.348 402.148 650.348 400.563V277.146Z" fill="#FFE9B8"/>
<path d="M593.282 277.149V284.395C593.282 288.019 595.094 291.642 598.944 294.812C600 295.567 601.133 296.397 602.34 297.303C605.058 298.662 608.228 300.021 611.398 300.926C617.513 302.512 624.08 302.965 630.42 302.285C636.535 301.606 642.196 299.794 646.725 297.303C652.839 293.68 656.009 288.925 656.009 284.395V275.564L647.631 272.167C647.329 272.016 647.027 271.79 646.725 271.488C634.497 264.468 614.569 264.468 602.34 271.488C602.038 271.79 601.736 272.016 601.435 272.167L593.282 277.149Z" fill="#EAB8A0"/>
<path d="M630.42 292.776C632.383 292.625 634.27 292.323 636.081 291.87C638.195 291.417 640.157 290.814 641.969 290.059C643.63 289.455 645.215 288.7 646.724 287.794C647.932 287.19 648.989 286.511 649.895 285.756C652.839 283.492 654.65 281.001 655.33 278.51L630.42 292.776Z" fill="#FFD6AA"/>
<path d="M611.398 291.412C611.851 291.563 612.304 291.714 612.757 291.865C618.418 292.997 624.533 293.45 630.42 292.771L655.33 278.504C655.481 278.202 655.557 277.9 655.557 277.599C655.859 276.693 656.01 275.862 656.01 275.108C656.01 272.39 655.104 269.899 653.066 267.408L611.398 291.412Z" fill="#FFC892"/>
<path d="M599.623 285.977C600.529 286.581 601.435 287.185 602.34 287.789C603.85 288.694 605.435 289.449 607.096 290.053C608.455 290.506 609.889 290.959 611.399 291.412L653.066 267.408C651.481 265.596 649.442 263.785 646.725 262.199C645.668 261.596 644.612 261.067 643.555 260.614L599.623 285.977Z" fill="#FFE9B8"/>
<path d="M622.946 339.651V345.086L653.97 326.97C654.423 326.819 654.65 326.517 654.65 326.064C654.65 324.932 653.744 323.573 652.838 323.12C652.385 322.818 652.008 322.743 651.706 322.894L622.946 339.651Z" fill="#FFC892"/>
<path d="M598.943 294.811C600 295.566 601.132 296.321 602.34 297.076C605.058 298.661 608.228 300.019 611.398 300.925V291.414C609.889 290.961 608.454 290.509 607.096 290.056C605.435 289.452 603.85 288.697 602.34 287.791C601.434 287.187 600.529 286.583 599.623 285.979L598.943 294.811Z" fill="#EAB8A0"/>
<path d="M611.398 291.416V300.927C617.513 302.512 624.08 302.965 630.42 302.286V292.775C624.533 293.454 618.418 293.001 612.757 291.869C612.304 291.718 611.851 291.567 611.398 291.416Z" fill="#FFCFAB"/>
<path d="M542.331 355.503H547.992V478.919C547.992 480.504 546.634 481.637 545.049 481.637C543.463 481.637 542.331 480.504 542.331 478.919V355.503Z" fill="#FFE9B8"/>
<path d="M514.93 425.247V430.682L545.954 412.566C546.256 412.415 546.482 412.113 546.633 411.66C546.633 410.528 545.727 409.169 544.821 408.716C544.368 408.414 543.991 408.339 543.689 408.49L514.93 425.247Z" fill="#FFC892"/>
<path d="M509.042 333.537V367.052C509.042 364.335 510.174 361.391 512.439 358.9V331.726L509.042 333.537Z" fill="#E8A0A0"/>
<path d="M512.438 323.12V367.052L519.685 362.976L523.082 360.937V317.006L512.438 323.12Z" fill="#EAB8A0"/>
<path d="M533.272 388.561V511.977C533.272 513.562 534.405 514.694 535.99 514.694C537.575 514.694 538.934 513.562 538.934 511.977V388.561H533.272Z" fill="#FFE9B8"/>
<path d="M509.269 374.752H514.93V498.168C514.93 499.753 513.798 501.112 512.212 501.112C510.627 501.112 509.269 499.753 509.269 498.168V374.752Z" fill="#FFE9B8"/>
<path d="M566.108 369.09H571.77V492.506C571.77 494.091 570.637 495.45 569.052 495.45C567.467 495.45 566.108 494.091 566.108 492.506V369.09Z" fill="#FFE9B8"/>
<path d="M509.042 369.087V376.333C509.042 379.956 511.08 383.806 514.93 386.75C515.836 387.656 516.968 388.486 518.327 389.241C521.044 390.826 523.988 391.958 527.385 392.864C533.272 394.449 540.066 394.902 546.407 394.223C552.294 393.543 557.956 391.958 562.711 389.241C568.825 385.618 571.769 381.089 571.769 376.333V367.501L563.617 364.105C563.315 363.954 563.013 363.803 562.711 363.652C550.483 356.632 530.555 356.632 518.327 363.652C518.025 363.803 517.723 363.954 517.421 364.105L509.042 369.087Z" fill="#EAB8A0"/>
<path d="M495.001 317.232L528.969 297.077C529.271 296.775 529.573 296.7 529.875 296.851L535.763 300.474C535.914 300.625 535.989 300.852 535.989 301.153L534.857 300.474L500.889 320.628C500.21 321.081 499.757 321.987 499.757 322.666V339.877L500.889 340.556C500.587 340.858 500.285 340.934 499.983 340.783L494.322 337.159C494.02 337.008 493.869 336.782 493.869 336.48V319.27C493.869 318.364 494.322 317.458 495.001 317.232Z" fill="#E8A0A0"/>
<path d="M500.889 320.624C500.21 321.076 499.757 321.982 499.757 322.662V339.872C499.757 340.778 500.21 341.004 500.889 340.551L534.857 320.397C535.536 320.171 535.989 319.265 535.989 318.359V301.149C535.989 300.469 535.536 300.017 534.857 300.469L500.889 320.624Z" fill="#FFE9B8"/>
<path d="M546.406 384.936C548.369 384.634 550.256 384.257 552.068 383.804C554.03 383.351 555.917 382.823 557.729 382.219C559.54 381.464 561.201 380.709 562.711 379.954C563.919 379.2 564.975 378.445 565.881 377.69C568.599 375.425 570.41 372.934 571.316 370.443L546.406 384.936Z" fill="#FFC892"/>
<path d="M527.385 383.582C527.838 383.582 528.291 383.657 528.743 383.808C534.405 385.167 540.519 385.394 546.407 384.941L571.316 370.448C571.467 370.146 571.543 369.844 571.543 369.542C571.694 368.787 571.769 367.957 571.769 367.051C571.769 364.56 570.864 361.843 569.052 359.352L527.385 383.582Z" fill="#FFD6AA"/>
<path d="M515.608 377.92C516.363 378.675 517.269 379.354 518.326 379.958C519.836 380.713 521.421 381.393 523.081 381.996C524.44 382.6 525.874 383.129 527.384 383.581L569.051 359.351C567.541 357.54 565.428 355.803 562.71 354.143C561.654 353.69 560.597 353.161 559.54 352.558L515.608 377.92Z" fill="#FFE9B8"/>
<path d="M509.269 369.314C509.42 369.616 509.57 369.918 509.721 370.22C510.174 371.881 511.005 373.391 512.212 374.749C512.967 375.655 513.873 376.561 514.93 377.467C515.081 377.618 515.307 377.768 515.609 377.919L559.314 352.557C554.785 350.745 549.577 349.387 544.142 349.16L509.269 369.314Z" fill="#FFD6AA"/>
<path d="M509.042 367.051C509.042 367.805 509.117 368.56 509.268 369.315L544.142 349.161C536.896 348.482 529.423 349.614 523.082 352.105C521.874 352.558 520.742 353.011 519.685 353.463C519.232 353.765 518.779 353.992 518.327 354.143C515.911 355.652 513.948 357.238 512.439 358.898C510.174 361.389 509.042 364.333 509.042 367.051Z" fill="#FFC892"/>
<path d="M538.934 431.589V437.251L569.958 419.135C570.259 418.984 570.41 418.606 570.41 418.002C570.41 416.87 569.731 415.511 568.825 415.058C568.372 414.757 567.919 414.757 567.467 415.058L538.934 431.589Z" fill="#FFC892"/>
<path d="M514.93 386.75C515.835 387.655 516.968 388.486 518.326 389.241C521.044 390.826 523.988 391.958 527.385 392.864V383.579C525.875 383.126 524.441 382.598 523.082 381.994C521.421 381.39 519.836 380.711 518.326 379.956C517.27 379.352 516.364 378.673 515.609 377.918L514.93 386.75Z" fill="#FFCFAB"/>
<path d="M527.385 383.58V392.865C533.273 394.45 540.066 394.903 546.407 394.223V384.939C540.519 385.392 534.405 385.165 528.743 383.807C528.291 383.656 527.838 383.58 527.385 383.58Z" fill="#EAB8A0"/>
<path d="M395.137 480.503H400.798V603.919C400.798 605.504 399.439 606.863 398.081 606.863C396.495 606.863 395.137 605.504 395.137 603.919V480.503Z" fill="#FFE9B8"/>
<path d="M367.735 550.248V555.909L398.986 537.793C399.288 537.642 399.439 537.264 399.439 536.66C399.439 535.755 398.759 534.396 397.627 533.717C397.174 533.566 396.797 533.566 396.495 533.717L367.735 550.248Z" fill="#FFC892"/>
<path d="M362.074 458.763V492.278C362.074 489.334 363.206 486.616 365.245 484.125V456.951L362.074 458.763Z" fill="#E8A0A0"/>
<path d="M365.244 448.119V492.277L372.491 487.975L375.887 486.163V442.231L365.244 448.119Z" fill="#EAB8A0"/>
<path d="M386.079 513.564V637.207C386.079 638.566 387.438 639.925 389.023 639.925C390.608 639.925 391.74 638.566 391.74 637.207V513.564H386.079Z" fill="#FFE9B8"/>
<path d="M362.074 499.977H367.736V623.393C367.736 624.978 366.603 626.337 365.018 626.337C363.433 626.337 362.074 624.978 362.074 623.393V499.977Z" fill="#FFE9B8"/>
<path d="M419.14 494.315H424.801V617.732C424.801 619.317 423.442 620.676 421.857 620.676C420.272 620.676 419.14 619.317 419.14 617.732V494.315Z" fill="#FFE9B8"/>
<path d="M362.074 494.319V501.565C362.074 505.189 363.886 508.812 367.736 511.982C368.792 512.888 369.925 513.718 371.132 514.473C373.85 516.058 377.02 517.191 380.19 518.096C386.305 519.682 392.872 520.134 399.212 519.455C405.327 518.776 410.988 516.964 415.517 514.473C421.631 510.85 424.801 506.321 424.801 501.565V492.734L416.423 489.337C416.121 489.186 415.819 489.035 415.517 488.884C403.288 481.638 383.361 481.638 371.132 488.884C370.83 489.035 370.528 489.186 370.226 489.337L362.074 494.319Z" fill="#FFCFAB"/>
<path d="M347.807 442.455L382.001 422.074C382.303 421.923 382.53 421.923 382.681 422.074L388.568 425.471C388.719 425.622 388.795 425.924 388.795 426.377L387.663 425.697L353.695 445.852C353.015 446.305 352.563 447.21 352.563 447.89V465.1L353.695 465.78C353.393 465.93 353.166 465.93 353.016 465.78L347.128 462.383C346.977 462.232 346.901 462.005 346.901 461.703L346.675 444.267C346.675 443.587 347.354 442.681 347.807 442.455Z" fill="#E8A0A0"/>
<path d="M353.696 445.853C353.016 446.306 352.563 447.212 352.563 447.891V465.102C352.563 465.781 353.243 466.234 353.696 465.781L387.89 445.627C388.343 445.174 389.022 444.268 389.022 443.589L388.796 426.378C388.796 425.473 388.343 425.246 387.664 425.699L353.696 445.853Z" fill="#FFE9B8"/>
<path d="M399.213 509.94C401.175 509.789 403.063 509.487 404.874 509.035C406.988 508.582 408.95 507.978 410.762 507.223C412.423 506.619 414.008 505.864 415.517 504.958C416.725 504.354 417.782 503.675 418.688 502.92C421.632 500.656 423.443 498.165 424.123 495.674L399.213 509.94Z" fill="#FFD6AA"/>
<path d="M380.19 508.585C380.643 508.736 381.096 508.887 381.549 509.038C387.21 510.397 393.325 510.623 399.212 509.944L424.122 495.677C424.273 495.375 424.349 495.073 424.349 494.771C424.651 494.017 424.801 493.186 424.801 492.28C424.801 489.563 423.896 487.072 421.858 484.581L380.19 508.585Z" fill="#FFE9B8"/>
<path d="M368.415 503.15C369.321 503.754 370.227 504.357 371.132 504.961C372.642 505.867 374.227 506.622 375.888 507.226C377.247 507.83 378.681 508.283 380.191 508.585L421.858 484.581C420.348 482.769 418.234 481.033 415.517 479.372C414.46 478.768 413.404 478.24 412.347 477.787L368.415 503.15Z" fill="#FFC892"/>
<path d="M362.301 494.314C362.301 494.767 362.376 495.145 362.527 495.447C362.98 496.956 363.81 498.466 365.018 499.976C365.773 500.882 366.679 501.787 367.736 502.693C368.038 502.844 368.264 502.995 368.415 503.146L412.347 477.783C407.818 475.745 402.609 474.613 397.174 474.16L362.301 494.314Z" fill="#FFE9B8"/>
<path d="M362.074 492.278C362.074 493.033 362.15 493.712 362.301 494.316L397.174 474.162C389.701 473.709 382.228 474.615 375.888 477.106C374.68 477.559 373.548 478.087 372.491 478.691C372.038 478.993 371.585 479.22 371.132 479.371C368.717 480.88 366.754 482.465 365.245 484.126C363.206 486.617 362.074 489.334 362.074 492.278Z" fill="#FFC892"/>
<path d="M391.74 556.815V562.25L422.764 544.36C423.217 544.059 423.444 543.681 423.444 543.228C423.444 542.096 422.538 540.737 421.632 540.285C421.179 539.983 420.802 539.907 420.5 540.058L391.74 556.815Z" fill="#FFC892"/>
<path d="M367.735 511.98C368.792 512.886 369.924 513.716 371.132 514.471C373.85 516.056 377.02 517.188 380.19 518.094V508.583L368.415 503.148L367.735 511.98Z" fill="#EAB8A0"/>
<path d="M380.19 508.58V518.091C386.305 519.676 392.872 520.129 399.212 519.45V509.939C393.325 510.618 387.21 510.392 381.549 509.033C381.096 508.882 380.643 508.731 380.19 508.58Z" fill="#FFCFAB"/>
<path d="M262.888 564.061H268.549V687.477C268.549 689.062 267.19 690.421 265.605 690.421C264.02 690.421 262.888 689.062 262.888 687.477V564.061Z" fill="#FFE9B8"/>
<path d="M235.488 633.813V639.474L266.512 621.358C266.814 621.207 266.965 620.83 266.965 620.226C266.965 619.094 266.286 617.961 265.38 617.282C264.927 616.98 264.55 616.98 264.248 617.282L235.488 633.813Z" fill="#FFC892"/>
<path d="M229.6 542.324V575.839C229.6 572.895 230.732 570.178 232.996 567.687V540.513L229.6 542.324Z" fill="#E8A0A0"/>
<path d="M232.997 531.678V575.836L240.243 571.533L243.64 569.722V525.563L232.997 531.678Z" fill="#EAB8A0"/>
<path d="M253.83 597.126V720.542C253.83 722.128 254.962 723.486 256.548 723.486C258.133 723.486 259.491 722.128 259.491 720.542V597.126H253.83Z" fill="#FFE9B8"/>
<path d="M229.827 583.539H235.488V706.955C235.488 708.541 234.13 709.673 232.771 709.673C231.186 709.673 229.827 708.541 229.827 706.955V583.539Z" fill="#FFE9B8"/>
<path d="M286.665 577.877H292.326V701.293C292.326 702.879 291.194 704.011 289.609 704.011C288.024 704.011 286.665 702.879 286.665 701.293V577.877Z" fill="#FFE9B8"/>
<path d="M229.6 577.879V585.126C229.6 588.749 231.638 592.372 235.261 595.543C236.318 596.297 237.525 597.052 238.884 597.807C241.602 599.392 244.545 600.751 247.942 601.431C253.83 603.242 260.624 603.695 266.964 602.789C272.852 602.336 278.513 600.524 283.269 597.807C289.383 594.41 292.327 589.655 292.327 585.126V576.294L284.175 572.897C283.873 572.746 283.571 572.52 283.269 572.218C271.04 565.198 251.113 565.198 238.884 572.218C238.582 572.52 238.28 572.746 237.978 572.897L229.6 577.879Z" fill="#EAB8A0"/>
<path d="M215.56 525.795L249.528 505.641C249.83 505.49 250.132 505.49 250.434 505.641L256.321 509.037C256.472 509.188 256.548 509.415 256.548 509.717L255.416 509.264L221.448 529.418C220.768 529.644 220.316 530.55 220.316 531.456V548.666L221.448 549.346C221.146 549.497 220.844 549.497 220.542 549.346L214.881 545.949C214.579 545.798 214.428 545.572 214.428 545.27V527.833C214.428 527.154 214.881 526.248 215.56 525.795Z" fill="#E8A0A0"/>
<path d="M221.448 529.416C220.768 529.643 220.315 530.549 220.315 531.454V548.665C220.315 549.344 220.768 549.571 221.448 549.344L255.416 529.19C256.095 528.737 256.548 527.831 256.548 527.152V509.715C256.548 509.036 256.095 508.809 255.416 509.262L221.448 529.416Z" fill="#FFE9B8"/>
<path d="M266.965 593.503C268.927 593.352 270.815 593.05 272.626 592.597C274.589 592.144 276.476 591.54 278.287 590.785C280.099 590.181 281.76 589.426 283.269 588.521C284.326 587.917 285.383 587.237 286.44 586.483C289.157 584.218 290.969 581.727 291.875 579.01L266.965 593.503Z" fill="#FFD6AA"/>
<path d="M247.943 592.142C248.396 592.293 248.849 592.444 249.302 592.595C254.963 593.727 261.078 594.18 266.965 593.5L291.875 579.008C292.026 578.857 292.102 578.63 292.102 578.328C292.252 577.422 292.328 576.592 292.328 575.837C292.328 573.12 291.422 570.402 289.611 568.138L247.943 592.142Z" fill="#FFE9B8"/>
<path d="M236.167 586.708C236.922 587.311 237.828 587.915 238.884 588.519C240.394 589.425 241.979 590.18 243.64 590.783C244.999 591.236 246.433 591.689 247.942 592.142L289.383 568.138C288.025 566.176 285.986 564.44 283.269 562.93C282.212 562.326 281.08 561.798 279.872 561.345L236.167 586.708Z" fill="#FFC892"/>
<path d="M229.827 577.877C229.978 578.179 230.129 578.556 230.28 579.009C230.733 580.519 231.488 582.029 232.545 583.538C233.45 584.444 234.432 585.35 235.488 586.256C235.639 586.407 235.866 586.558 236.168 586.709L279.873 561.346C275.344 559.308 270.136 558.176 264.701 557.723L229.827 577.877Z" fill="#FFE9B8"/>
<path d="M229.6 575.84C229.6 576.444 229.675 577.123 229.826 577.878L264.7 557.724C257.453 557.271 249.98 558.177 243.64 560.668C242.432 561.12 241.3 561.649 240.243 562.253C239.79 562.404 239.337 562.63 238.884 562.932C236.469 564.291 234.506 565.876 232.996 567.687C230.732 570.178 229.6 572.896 229.6 575.84Z" fill="#FFD6AA"/>
<path d="M259.491 640.377V645.812L290.515 627.696C290.817 627.545 290.968 627.243 290.968 626.79C290.968 625.658 290.289 624.299 289.383 623.846C288.779 623.544 288.326 623.468 288.024 623.619L259.491 640.377Z" fill="#FFC892"/>
<path d="M235.488 595.536C236.394 596.291 237.526 597.046 238.885 597.801C241.602 599.386 244.546 600.745 247.943 601.424V592.14C246.433 591.687 244.999 591.234 243.641 590.781C241.98 590.177 240.395 589.422 238.885 588.517C237.828 587.913 236.923 587.309 236.168 586.705L235.488 595.536Z" fill="#FFCFAB"/>
<path d="M247.943 592.146V601.43C253.831 603.242 260.625 603.695 266.965 602.789V593.504C261.078 594.184 254.963 593.731 249.302 592.599C248.849 592.448 248.396 592.296 247.943 592.146Z" fill="#FFCFAB"/>
<path d="M678.428 626.563L687.486 621.354V434.531L678.428 439.74V626.563Z" fill="#FFC994"/>
<path d="M669.369 621.354L678.427 626.563V439.74L669.369 434.531V621.354Z" fill="#E8A395"/>
<path d="M597.812 579.689L606.87 574.481V387.658L597.812 393.093V579.689Z" fill="#FFC994"/>
<path d="M588.753 574.481L597.811 579.689V393.093L588.753 387.658V574.481Z" fill="#E8A395"/>
<path d="M669.37 546.627L669.144 537.569L597.812 496.354V505.413L669.37 546.627Z" fill="#E8A395"/>
<path d="M669.144 537.568L669.37 527.151L606.87 490.919L597.812 496.354L669.144 537.568Z" fill="#FFC994"/>
<path d="M841.473 527.83L850.757 522.395V335.799L841.473 341.007V527.83Z" fill="#FFC994"/>
<path d="M832.415 522.395L841.7 527.83V341.007L832.415 335.799V522.395Z" fill="#E8A395"/>
<path d="M760.856 480.952L770.141 475.744V288.921L760.856 294.129V480.952Z" fill="#FFC994"/>
<path d="M751.799 475.744L761.083 480.952V294.129L751.799 288.921V475.744Z" fill="#E8A395"/>
<path d="M832.415 447.895V438.837L760.856 397.396L761.083 406.681L832.415 447.895Z" fill="#E8A395"/>
<path d="M832.415 438.836V428.192L770.141 392.187L760.856 397.395L832.415 438.836Z" fill="#FFC994"/>
<path d="M669.369 443.363L681.145 450.157L869.1 341.913L857.098 334.893L669.369 443.363Z" fill="#FFC892"/>
<path d="M657.368 436.57L669.37 443.364L857.099 334.893L845.097 328.1L657.368 436.57Z" fill="#FFD6AA"/>
<path d="M645.366 429.551L657.368 436.571L845.097 328.1L833.321 321.08L645.366 429.551Z" fill="#FFC892"/>
<path d="M633.591 422.757L645.366 429.55L833.322 321.08L821.32 314.286L633.591 422.757Z" fill="#FFE9B8"/>
<path d="M621.589 415.963L633.591 422.756L821.32 314.286L809.544 307.492L621.589 415.963Z" fill="#FFD6AA"/>
<path d="M609.586 408.944L621.588 415.964L809.543 307.494L797.541 300.474L609.586 408.944Z" fill="#FFC892"/>
<path d="M597.812 402.15L609.587 408.944L797.542 300.473L785.54 293.68L597.812 402.15Z" fill="#FFE9B8"/>
<path d="M585.809 395.127L597.811 402.147L785.539 293.676L773.764 286.656L585.809 395.127Z" fill="#FFD6AA"/>
<path d="M574.034 388.334L585.81 395.127L773.765 286.657L761.763 279.863L574.034 388.334Z" fill="#FFE9B8"/>
<path d="M869.101 341.916V352.333L681.146 460.803V450.16L869.101 341.916Z" fill="#FFC06E"/>
<path d="M669.369 443.363V454.007L681.145 460.8V450.157L669.369 443.363Z" fill="#FFB294"/>
<path d="M657.368 436.57V446.987L669.37 454.007V443.364L657.368 436.57Z" fill="#EAB8A0"/>
<path d="M645.366 429.551V440.194L657.368 446.987V436.571L645.366 429.551Z" fill="#FFB294"/>
<path d="M633.591 422.758V433.401L645.366 440.195V429.551L633.591 422.758Z" fill="#FFCFAB"/>
<path d="M621.589 415.964V426.381L633.591 433.401V422.757L621.589 415.964Z" fill="#EAB8A0"/>
<path d="M609.586 408.94V419.584L621.588 426.377V415.961L609.586 408.94Z" fill="#FFB294"/>
<path d="M597.812 402.146V412.79L609.587 419.583V408.94L597.812 402.146Z" fill="#FFCFAB"/>
<path d="M585.809 395.133V405.776L597.811 412.796V402.153L585.809 395.133Z" fill="#EAB8A0"/>
<path d="M574.034 388.339V398.982L585.81 405.776V395.132L574.034 388.339Z" fill="#FFCFAB"/>
<path d="M394.23 838.977L403.289 833.768V646.945L394.23 652.154V838.977Z" fill="#FFC994"/>
<path d="M385.172 833.768L394.23 838.977V652.154L385.172 646.945V833.768Z" fill="#E8A395"/>
<path d="M313.614 792.103L322.672 786.894V600.071L313.614 605.506V792.103Z" fill="#FFC994"/>
<path d="M304.556 786.894L313.614 792.103V605.506L304.556 600.071V786.894Z" fill="#E8A395"/>
<path d="M385.173 759.037L384.947 749.979L313.614 708.538V717.823L385.173 759.037Z" fill="#E8A395"/>
<path d="M384.947 749.977L385.173 739.334L322.672 703.328L313.614 708.536L384.947 749.977Z" fill="#FFC994"/>
<path d="M557.275 740.014L566.56 734.805V548.209L557.275 553.417V740.014Z" fill="#FFC994"/>
<path d="M548.218 734.805L557.502 740.014V553.417L548.218 548.209V734.805Z" fill="#E8A395"/>
<path d="M476.659 693.366L485.944 688.158V501.335L476.659 506.543V693.366Z" fill="#FFC994"/>
<path d="M467.827 688.158L476.885 693.366V506.543L467.827 501.335V688.158Z" fill="#E8A395"/>
<path d="M548.218 660.306V651.021L476.659 609.807L476.886 618.865L548.218 660.306Z" fill="#E8A395"/>
<path d="M548.218 651.023V640.607L485.944 604.601L476.659 609.809L548.218 651.023Z" fill="#FFC994"/>
<path d="M385.172 655.777L396.947 662.571L584.903 554.1L572.901 547.307L385.172 655.777Z" fill="#FFC892"/>
<path d="M373.171 648.983L385.173 655.777L572.902 547.306L561.126 540.513L373.171 648.983Z" fill="#FFD6AA"/>
<path d="M361.169 641.96L373.171 648.98L561.126 540.509L549.124 533.489L361.169 641.96Z" fill="#FFC892"/>
<path d="M349.393 635.166L361.168 641.959L549.123 533.489L537.121 526.695L349.393 635.166Z" fill="#FFE9B8"/>
<path d="M337.392 628.151L349.394 635.171L537.122 526.701L525.347 519.681L337.392 628.151Z" fill="#FFD6AA"/>
<path d="M325.615 621.357L337.391 628.151L525.346 519.68L513.344 512.887L325.615 621.357Z" fill="#FFC892"/>
<path d="M313.614 614.564L325.616 621.358L513.345 512.887L501.343 506.094L313.614 614.564Z" fill="#FFE9B8"/>
<path d="M301.611 607.541L313.613 614.561L501.342 506.09L489.567 499.07L301.611 607.541Z" fill="#FFD6AA"/>
<path d="M289.837 600.748L301.612 607.542L489.568 499.071L477.566 492.277L289.837 600.748Z" fill="#FFE9B8"/>
<path d="M584.903 554.1V564.743L396.948 673.213V662.57L584.903 554.1Z" fill="#FFC06E"/>
<path d="M385.172 655.773V666.417L396.947 673.21V662.567L385.172 655.773Z" fill="#FFB294"/>
<path d="M373.171 648.979V659.396L385.173 666.416V655.773L373.171 648.979Z" fill="#EAB8A0"/>
<path d="M361.169 641.965V652.608L373.171 659.402V648.985L361.169 641.965Z" fill="#FFB294"/>
<path d="M349.393 635.172V645.815L361.168 652.609V641.965L349.393 635.172Z" fill="#FFCFAB"/>
<path d="M337.392 628.148V638.792L349.394 645.812V635.168L337.392 628.148Z" fill="#EAB8A0"/>
<path d="M325.615 621.354V631.998L337.391 638.791V628.148L325.615 621.354Z" fill="#FFB294"/>
<path d="M313.614 614.561V624.977L325.616 631.998V621.354L313.614 614.561Z" fill="#FFCFAB"/>
<path d="M301.611 607.542V618.185L313.613 624.979V614.562L301.611 607.542Z" fill="#EAB8A0"/>
<path d="M289.837 600.748V611.391L301.612 618.185V607.542L289.837 600.748Z" fill="#FFCFAB"/>
<path d="M420.726 735.261C420.726 740.696 421.405 745.452 422.764 749.754C423.066 750.811 423.519 751.867 424.123 752.924C424.274 753.377 424.425 753.83 424.576 754.283C425.934 756.85 427.595 759.114 429.557 761.077C430.161 761.681 430.463 761.982 430.463 761.982C431.52 762.888 432.652 763.719 433.86 764.474L454.241 776.249C454.241 776.249 454.165 776.249 454.014 776.249C453.712 775.947 453.41 775.72 453.108 775.569C452.656 775.268 452.278 774.966 451.976 774.664C451.674 774.362 451.372 774.135 451.07 773.984C450.919 773.833 450.768 773.683 450.618 773.532C450.316 773.23 450.014 772.928 449.712 772.626C449.561 772.475 449.41 772.324 449.259 772.173C449.108 771.871 448.881 771.644 448.579 771.494C448.428 771.192 448.278 770.965 448.127 770.814C447.825 770.512 447.598 770.21 447.447 769.908C447.296 769.757 447.221 769.606 447.221 769.455C446.919 769.153 446.692 768.776 446.541 768.323C446.39 768.323 446.315 768.248 446.315 768.097C445.711 767.191 445.183 766.134 444.73 764.926C444.579 764.624 444.428 764.247 444.277 763.794C443.975 763.19 443.749 762.586 443.598 761.982C443.447 761.831 443.371 761.756 443.371 761.756C443.22 761.152 443.069 760.624 442.918 760.171C442.616 758.812 442.314 757.453 442.012 756.095C441.861 755.491 441.786 754.811 441.786 754.057C441.635 753.604 441.559 753.151 441.559 752.698V752.471C441.408 752.17 441.333 751.792 441.333 751.339C441.333 749.98 441.333 748.546 441.333 747.037V746.81C441.333 746.055 441.333 745.225 441.333 744.319C441.333 743.564 441.408 742.734 441.559 741.828C441.559 740.621 441.635 739.413 441.786 738.205C441.937 737.601 442.012 737.073 442.012 736.62C442.012 736.469 442.012 736.318 442.012 736.167C442.163 735.412 442.314 734.733 442.465 734.129C442.616 733.223 442.767 732.393 442.918 731.638C442.918 731.487 442.994 731.336 443.145 731.185C443.296 730.128 443.522 729.071 443.824 728.015C444.126 726.958 444.428 725.977 444.73 725.071C444.73 724.92 444.73 724.693 444.73 724.391C445.032 723.787 445.258 723.259 445.409 722.806C445.56 722.051 445.787 721.297 446.088 720.542C447.145 717.824 448.278 715.107 449.485 712.39C450.693 709.521 452.052 706.804 453.561 704.237C454.014 703.18 454.543 702.199 455.147 701.293C456.052 699.633 457.034 697.972 458.09 696.311C458.845 695.254 459.6 694.198 460.355 693.141C460.506 692.839 460.732 692.537 461.034 692.235C461.336 691.933 461.563 691.631 461.714 691.329C463.374 689.065 465.11 686.951 466.922 684.989C467.526 684.385 468.13 683.706 468.734 682.951C469.338 682.347 469.941 681.743 470.545 681.139C470.847 680.837 471.149 680.46 471.451 680.007C472.357 679.252 473.187 678.497 473.942 677.742C475.15 676.685 476.358 675.629 477.565 674.572C479.075 673.515 480.509 672.458 481.868 671.402C482.321 671.1 482.774 670.798 483.227 670.496C483.831 670.043 484.434 669.666 485.038 669.364C485.642 669.062 486.246 668.684 486.85 668.231C487.303 667.929 487.756 667.627 488.209 667.326C488.812 667.175 489.341 666.948 489.794 666.646C490.247 666.344 490.7 666.118 491.152 665.967C493.266 664.91 495.304 664.155 497.267 663.702C497.871 663.551 498.399 663.4 498.852 663.249C499.909 662.947 500.965 662.721 502.022 662.57C504.438 662.117 506.702 661.966 508.816 662.117C509.118 662.117 509.42 662.117 509.722 662.117C510.174 662.117 510.627 662.192 511.08 662.343C511.231 662.343 511.382 662.343 511.533 662.343C511.835 662.343 512.137 662.419 512.439 662.57C512.741 662.57 513.043 662.646 513.345 662.796C513.798 662.796 514.251 662.872 514.703 663.023C515.005 663.174 515.307 663.325 515.609 663.476C515.911 663.476 516.213 663.551 516.515 663.702C516.968 664.004 517.421 664.231 517.874 664.382C518.327 664.533 518.78 664.759 519.233 665.061C519.082 664.91 518.855 664.759 518.553 664.608L498.625 653.059C495.757 651.398 492.587 650.417 489.114 650.115C486.699 649.964 484.132 650.115 481.415 650.568C480.207 650.719 478.999 650.946 477.792 651.247C474.018 652.304 470.168 653.965 466.243 656.229C463.827 657.588 461.487 659.173 459.223 660.985C456.354 663.098 453.561 665.438 450.844 668.005C450.542 668.458 450.24 668.835 449.938 669.137C446.768 672.307 443.824 675.704 441.107 679.327C440.956 679.629 440.729 679.931 440.427 680.233C432.728 690.876 426.614 703.105 423.443 715.333C423.292 715.484 423.217 715.711 423.217 716.013C422.915 717.22 422.613 718.428 422.311 719.636C421.556 722.957 421.103 726.203 420.952 729.373C420.65 731.336 420.575 733.299 420.726 735.261Z" fill="#FFDEDE"/>
<path fill-rule="evenodd" clip-rule="evenodd" d="M441.333 744.319C441.333 743.413 441.408 742.583 441.559 741.828C441.559 740.771 441.635 739.714 441.786 738.657C441.937 737.148 442.163 735.638 442.465 734.128C442.616 733.223 442.767 732.392 442.918 731.637C442.918 731.487 442.994 731.335 443.145 731.184C443.296 730.128 443.522 729.071 443.824 728.014C444.126 726.957 444.428 725.976 444.73 725.07C444.73 724.768 444.73 724.542 444.73 724.391C445.032 723.787 445.258 723.259 445.409 722.806C445.56 722.051 445.787 721.296 446.088 720.541C447.145 717.824 448.277 715.106 449.485 712.389C450.693 709.521 452.052 706.803 453.561 704.237C454.014 703.18 454.543 702.199 455.147 701.293C456.052 699.632 457.034 697.971 458.09 696.311C458.845 695.254 459.6 694.197 460.355 693.141C460.808 692.537 461.261 691.933 461.714 691.329C463.374 689.064 465.11 686.951 466.922 684.988C467.526 684.384 468.13 683.705 468.734 682.95C469.338 682.346 469.941 681.742 470.545 681.139C470.847 680.837 471.149 680.459 471.451 680.006C472.357 679.251 473.187 678.497 473.942 677.742C475.15 676.685 476.358 675.628 477.565 674.571C479.075 673.515 480.509 672.458 481.868 671.401C482.321 671.099 482.774 670.797 483.227 670.495C483.831 670.043 484.434 669.665 485.038 669.363C485.642 668.91 486.246 668.533 486.85 668.231C487.303 667.929 487.756 667.627 488.209 667.325C488.812 667.174 489.341 666.947 489.794 666.646C490.247 666.344 490.7 666.117 491.152 665.966C493.266 664.91 495.304 664.155 497.267 663.702C497.569 663.551 497.946 663.4 498.399 663.249C498.55 663.249 498.701 663.249 498.852 663.249C499.909 662.947 500.965 662.645 502.022 662.343C504.438 662.041 506.702 661.966 508.816 662.117C509.118 662.117 509.42 662.117 509.722 662.117C510.174 662.117 510.627 662.192 511.08 662.343C511.231 662.343 511.382 662.343 511.533 662.343C511.835 662.343 512.137 662.419 512.439 662.57C512.741 662.57 513.043 662.645 513.345 662.796C513.798 662.796 514.251 662.871 514.703 663.022C515.005 663.173 515.307 663.324 515.609 663.475C515.911 663.475 516.213 663.551 516.515 663.702C516.968 664.004 517.421 664.23 517.874 664.381C518.176 664.532 518.402 664.607 518.553 664.607C518.855 664.758 519.082 664.91 519.233 665.061C523.535 667.551 526.932 671.628 529.196 676.836C529.8 678.044 530.329 679.402 530.782 680.912C531.989 684.837 532.593 689.291 532.593 694.273C532.593 700.387 531.687 706.728 530.102 713.068C529.8 714.125 529.498 715.182 529.196 716.239C525.573 729.146 518.78 742.054 509.948 752.924C507.382 756.245 504.664 759.264 501.796 761.982C497.04 766.511 492.285 770.361 487.076 773.304C481.868 776.248 476.886 778.06 472.357 778.966C471.602 779.117 470.847 779.268 470.092 779.419C463.978 780.098 458.543 778.966 454.014 776.248C453.712 775.946 453.41 775.72 453.108 775.569C452.656 775.267 452.278 774.965 451.976 774.663C451.674 774.361 451.372 774.135 451.07 773.984C450.919 773.833 450.768 773.682 450.617 773.531C450.316 773.229 450.014 772.927 449.712 772.625C449.561 772.474 449.41 772.323 449.259 772.172C449.108 771.87 448.881 771.644 448.579 771.493C448.428 771.191 448.278 770.964 448.127 770.814C447.976 770.512 447.749 770.21 447.447 769.908C447.296 769.757 447.221 769.606 447.221 769.455C446.919 769.153 446.692 768.776 446.541 768.323C446.39 768.323 446.315 768.247 446.315 768.096C445.711 767.039 445.183 765.983 444.73 764.926C444.579 764.624 444.428 764.246 444.277 763.794C444.126 763.492 443.975 763.114 443.824 762.661C443.673 762.51 443.598 762.359 443.598 762.209C443.145 761.001 442.767 759.717 442.465 758.359C442.314 757.604 442.163 756.849 442.012 756.094C441.861 755.49 441.786 754.811 441.786 754.056C441.635 753.603 441.559 753.075 441.559 752.471C441.559 752.169 441.484 751.792 441.333 751.339C441.333 750.735 441.333 750.131 441.333 749.527C441.333 748.772 441.333 748.017 441.333 747.262V746.81C441.333 746.055 441.333 745.225 441.333 744.319ZM466.016 733.223C466.016 733.826 466.016 734.43 466.016 735.034C466.016 735.638 466.092 736.166 466.243 736.619C466.243 737.223 466.318 737.751 466.469 738.204C466.469 738.204 466.469 738.28 466.469 738.431C466.62 738.733 466.771 739.11 466.922 739.563C466.922 739.714 466.922 739.79 466.922 739.79C467.073 740.243 467.224 740.62 467.375 740.922C467.375 741.073 467.45 741.148 467.601 741.148C467.752 741.601 467.903 741.979 468.054 742.281C468.054 742.432 468.13 742.507 468.281 742.507C468.432 742.809 468.583 743.111 468.734 743.413C468.885 743.413 468.96 743.488 468.96 743.639C469.262 743.941 469.489 744.243 469.64 744.545C469.79 744.696 470.017 744.847 470.319 744.998C470.47 745.149 470.621 745.375 470.772 745.677C471.678 746.281 472.734 746.81 473.942 747.262C472.734 746.508 471.527 745.753 470.319 744.998C470.47 745.149 470.621 745.375 470.772 745.677C471.678 746.281 472.734 746.81 473.942 747.262C473.942 747.262 474.018 747.262 474.169 747.262C474.471 747.413 474.697 747.489 474.848 747.489C474.999 747.489 475.15 747.489 475.301 747.489C475.452 747.64 475.603 747.716 475.754 747.716C476.358 747.716 476.961 747.716 477.565 747.716C477.867 747.716 478.245 747.716 478.698 747.716C479 747.716 479.377 747.716 479.83 747.716C480.132 747.565 480.434 747.489 480.736 747.489C481.943 747.187 483.076 746.81 484.132 746.357C484.434 746.206 484.661 746.055 484.812 745.904C484.963 745.904 485.114 745.904 485.265 745.904C485.869 745.602 486.472 745.3 487.076 744.998C487.227 744.847 487.378 744.696 487.529 744.545C487.982 744.394 488.36 744.168 488.661 743.866C489.265 743.413 489.869 743.035 490.473 742.733C490.473 742.582 490.549 742.432 490.7 742.281C490.851 742.13 491.002 742.054 491.152 742.054C491.605 741.601 492.058 741.148 492.511 740.696C493.115 740.394 493.568 740.016 493.87 739.563L494.549 738.884C495.757 737.676 496.965 736.317 498.172 734.808C498.776 733.902 499.38 732.996 499.984 732.09C500.286 731.788 500.588 731.411 500.89 730.958C500.89 730.958 500.89 730.883 500.89 730.732C501.041 730.581 501.116 730.43 501.116 730.279C501.267 730.279 501.343 730.279 501.343 730.279C501.343 730.128 501.418 729.977 501.569 729.826L501.796 729.373C501.796 729.373 501.796 729.297 501.796 729.146C502.098 728.844 502.324 728.467 502.475 728.014C502.626 727.712 502.777 727.486 502.928 727.335C503.23 726.731 503.532 726.052 503.834 725.297C503.985 724.995 504.136 724.617 504.287 724.164C504.438 724.013 504.513 723.863 504.513 723.712C504.664 723.561 504.74 723.41 504.74 723.259C504.891 723.108 504.966 722.957 504.966 722.806C505.268 722.051 505.57 721.296 505.872 720.541C506.174 719.786 506.4 718.956 506.551 718.05C506.702 717.296 506.853 716.616 507.004 716.012C507.155 715.408 507.306 714.88 507.457 714.427C507.457 714.276 507.457 714.05 507.457 713.748C507.457 713.597 507.532 713.446 507.683 713.295C507.683 712.993 507.683 712.691 507.683 712.389C507.834 711.785 507.91 711.181 507.91 710.577C507.91 710.426 507.91 710.351 507.91 710.351C507.91 710.049 507.91 709.747 507.91 709.445C507.91 709.143 507.91 708.917 507.91 708.766V708.539C507.91 707.633 507.91 706.803 507.91 706.048C507.759 705.142 507.608 704.312 507.457 703.557C507.457 703.406 507.457 703.331 507.457 703.331C507.306 703.331 507.306 703.331 507.457 703.331C507.306 703.18 507.231 703.104 507.231 703.104C507.231 703.104 507.231 703.029 507.231 702.878C507.231 702.727 507.231 702.651 507.231 702.651C506.778 701.444 506.325 700.311 505.872 699.255C505.57 698.802 505.268 698.424 504.966 698.122C504.815 697.821 504.664 697.594 504.513 697.443C504.362 697.292 504.211 697.141 504.06 696.99C504.06 696.99 504.06 696.915 504.06 696.764C503.909 696.613 503.683 696.462 503.381 696.311C503.23 696.16 503.079 696.009 502.928 695.858H502.701C502.701 695.858 502.701 695.783 502.701 695.632C502.551 695.632 502.4 695.556 502.249 695.405C502.098 695.254 501.947 695.178 501.796 695.178C500.739 694.575 499.682 694.197 498.625 694.046C495.229 693.367 491.379 694.046 487.303 696.311C487.152 696.462 487.001 696.537 486.85 696.537C482.774 699.028 478.924 702.652 475.527 706.954C475.376 707.105 475.301 707.256 475.301 707.407C473.64 709.52 472.206 711.71 470.998 713.974C469.79 716.39 468.809 718.805 468.054 721.22C466.696 725.07 465.79 729.146 466.016 732.996V733.223Z" fill="white"/>
<path d="M466.016 733.221C466.016 738.655 467.601 742.731 470.318 744.996C471.526 745.751 472.734 746.506 473.941 747.261C474.092 747.261 474.168 747.261 474.168 747.261C474.47 747.412 474.696 747.487 474.847 747.487C475.149 747.638 475.451 747.714 475.753 747.714C476.357 747.714 476.961 747.714 477.565 747.714C477.867 747.714 478.244 747.714 478.697 747.714C478.999 747.714 479.376 747.714 479.829 747.714C480.131 747.563 480.433 747.487 480.735 747.487C481.943 747.185 483.075 746.808 484.132 746.355C484.434 746.204 484.66 746.053 484.811 745.902C485.566 745.6 486.321 745.298 487.076 744.996C488.132 744.241 489.265 743.486 490.472 742.731C490.623 742.43 490.85 742.203 491.152 742.052C492.209 741.297 493.114 740.467 493.869 739.561C494.171 739.259 494.398 739.033 494.549 738.882C495.756 737.674 496.964 736.315 498.172 734.806C498.776 733.9 499.38 732.994 499.983 732.088C500.285 731.635 500.587 731.183 500.889 730.73C501.191 730.277 501.493 729.824 501.795 729.371C501.795 729.371 501.795 729.295 501.795 729.144C502.097 728.842 502.323 728.465 502.474 728.012C502.625 727.71 502.776 727.484 502.927 727.333C504.512 724.389 505.645 721.219 506.551 718.048C506.702 717.294 506.853 716.614 507.003 716.01C507.154 715.406 507.305 714.878 507.456 714.425C507.456 714.123 507.532 713.746 507.683 713.293C507.683 712.991 507.683 712.689 507.683 712.387C507.834 711.783 507.909 711.179 507.909 710.575C507.909 710.424 507.909 710.349 507.909 710.349C507.909 709.745 507.909 709.217 507.909 708.764V708.537C507.909 707.631 507.909 706.801 507.909 706.046C507.758 705.141 507.607 704.31 507.456 703.555C507.305 703.254 507.23 702.952 507.23 702.65C506.777 701.442 506.324 700.31 505.871 699.253C505.116 698.196 504.286 697.215 503.38 696.309C503.229 696.158 503.078 696.007 502.927 695.856C502.776 695.856 502.701 695.856 502.701 695.856C502.55 695.705 502.399 695.554 502.248 695.403C502.097 695.252 501.946 695.177 501.795 695.177C500.738 694.573 499.681 694.195 498.625 694.044C495.228 693.365 491.378 694.044 487.302 696.309C487.302 696.46 487.302 696.535 487.302 696.535C487.302 697.894 487.227 699.177 487.076 700.385C486.925 702.348 486.547 704.31 485.943 706.273C485.34 708.084 484.66 709.896 483.905 711.708C483.754 712.161 483.603 712.613 483.452 713.066C482.999 713.821 482.622 714.576 482.32 715.331C482.018 715.784 481.716 716.237 481.414 716.69C481.112 717.293 480.81 717.822 480.509 718.275C480.207 719.03 479.829 719.709 479.376 720.313C479.074 720.615 478.848 720.917 478.697 721.219C478.244 721.822 477.791 722.351 477.338 722.804C476.734 723.861 475.98 724.842 475.074 725.748C474.772 726.05 474.47 726.352 474.168 726.653C473.564 727.257 472.96 727.861 472.356 728.465C471.601 729.069 470.922 729.673 470.318 730.277C469.412 730.881 468.582 731.484 467.827 732.088C467.374 732.39 466.921 732.692 466.468 732.994C466.318 732.994 466.167 733.07 466.016 733.221Z" fill="white"/>
<path d="M470.545 681.138L475.527 706.953C478.924 702.651 482.773 699.028 486.849 696.537C487 696.537 487.151 696.461 487.302 696.31C491.379 694.045 495.228 693.366 498.625 694.045C499.682 694.196 500.739 694.574 501.795 695.178C501.946 695.178 502.097 695.253 502.248 695.404C502.399 695.555 502.55 695.631 502.701 695.631C502.701 695.782 502.777 695.857 502.928 695.857C503.079 696.008 503.23 696.159 503.38 696.31C503.682 696.461 503.909 696.612 504.06 696.763L504.286 695.857L509.721 662.116C507.306 661.814 504.739 661.889 502.022 662.342C497.266 663.248 492.058 665.06 486.849 668.23C481.415 671.4 476.206 675.476 471.451 680.006C471.149 680.458 470.847 680.836 470.545 681.138Z" fill="#40B394"/>
<path d="M470.092 779.418C470.847 779.267 471.601 779.116 472.356 778.965C476.885 778.06 481.867 776.248 487.076 773.304C492.284 770.36 497.04 766.51 501.795 761.981C504.663 759.264 507.381 756.245 509.947 752.923L504.286 724.164C503.833 725.221 503.38 726.278 502.927 727.334C502.776 727.485 502.625 727.712 502.474 728.014C502.324 728.467 502.097 728.844 501.795 729.146C501.795 729.297 501.795 729.373 501.795 729.373C501.493 729.825 501.191 730.278 500.889 730.731C500.587 731.184 500.285 731.637 499.984 732.09C499.38 732.996 498.776 733.901 498.172 734.807C496.964 736.317 495.756 737.676 494.549 738.883C494.398 739.185 494.171 739.412 493.869 739.563C493.114 740.469 492.209 741.299 491.152 742.054C490.85 742.205 490.623 742.431 490.472 742.733C489.265 743.488 488.132 744.243 487.076 744.998C486.321 745.299 485.566 745.677 484.811 746.13C484.66 746.13 484.434 746.206 484.132 746.356C483.075 746.809 481.943 747.187 480.735 747.489C480.433 747.489 480.131 747.564 479.829 747.715C479.376 747.715 478.999 747.715 478.697 747.715C478.244 747.715 477.867 747.715 477.565 747.715C476.961 747.715 476.357 747.715 475.753 747.715C475.602 747.715 475.451 747.64 475.3 747.489L470.092 779.418Z" fill="#40B394"/>
<path d="M507.91 708.538V708.765C507.91 709.218 507.91 709.746 507.91 710.35C507.91 710.35 507.91 710.425 507.91 710.576C507.91 711.18 507.834 711.784 507.683 712.388C507.683 712.69 507.683 712.992 507.683 713.294C507.532 713.747 507.457 714.124 507.457 714.426C507.306 714.879 507.155 715.407 507.004 716.011C506.853 716.615 506.702 717.295 506.551 718.049C506.098 719.71 505.494 721.446 504.74 723.258L530.102 713.067C531.687 706.727 532.593 700.386 532.593 694.498C532.593 689.365 531.989 684.836 530.782 680.911C530.329 679.402 529.8 678.043 529.196 676.835L504.287 695.857L503.381 696.31C503.683 696.461 503.909 696.687 504.06 696.989C504.664 697.593 505.268 698.348 505.872 699.254C506.325 700.311 506.778 701.443 507.231 702.651C507.231 702.952 507.306 703.254 507.457 703.556C507.608 704.311 507.759 705.142 507.91 706.047C507.91 706.802 507.91 707.632 507.91 708.538Z" fill="#40B394"/>
<path d="M441.333 747.037C441.333 753.604 442.239 759.265 444.277 763.794L469.866 744.546C467.375 742.055 466.017 738.205 466.017 733.223V732.997C465.79 729.147 466.696 725.071 468.055 721.221C468.81 718.805 469.791 716.39 470.999 713.975L444.73 724.391C444.126 726.807 443.522 729.222 442.919 731.638C441.786 736.846 441.107 742.055 441.333 747.037Z" fill="#40B394"/>
<path d="M449.938 669.137L470.545 681.139C470.847 680.837 471.149 680.46 471.45 680.007C476.206 675.478 481.414 671.402 486.849 668.231C492.058 665.061 497.266 663.249 502.021 662.343C504.739 661.891 507.305 661.815 509.721 662.117L489.114 650.115C486.698 649.964 484.132 650.115 481.414 650.568C480.207 650.719 478.999 650.946 477.791 651.247C474.017 652.304 470.167 653.965 466.242 656.229C463.827 657.588 461.487 659.173 459.222 660.985C456.354 663.098 453.561 665.438 450.843 668.005C450.541 668.458 450.239 668.835 449.938 669.137Z" fill="#429DB2"/>
<path d="M420.726 735.261C420.726 740.696 421.405 745.452 422.764 749.754C423.066 750.811 423.519 751.867 424.123 752.924C424.274 753.377 424.425 753.83 424.576 754.283L444.277 763.794C443.975 763.19 443.749 762.586 443.598 761.982C443.296 761.378 443.069 760.775 442.918 760.171C442.616 758.812 442.314 757.453 442.012 756.095C441.861 755.491 441.786 754.811 441.786 754.056C441.635 753.604 441.559 753.151 441.559 752.698V752.471C441.408 752.169 441.333 751.792 441.333 751.339C441.333 749.98 441.333 748.546 441.333 747.037V746.81C441.333 746.055 441.333 745.225 441.333 744.319C441.333 743.564 441.408 742.734 441.559 741.828C441.559 740.621 441.635 739.413 441.786 738.205C441.937 737.601 442.012 737.073 442.012 736.62C442.012 736.469 442.012 736.318 442.012 736.167C442.163 735.412 442.314 734.733 442.465 734.129C442.616 733.223 442.767 732.393 442.918 731.638C442.918 731.487 442.994 731.336 443.145 731.185C443.296 730.128 443.522 729.071 443.824 728.014C444.126 726.958 444.428 725.977 444.73 725.071C444.73 724.92 444.73 724.693 444.73 724.391L423.217 716.013C422.915 717.22 422.613 718.428 422.311 719.636C421.556 722.957 421.103 726.203 420.952 729.373C420.65 731.336 420.575 733.299 420.726 735.261Z" fill="#429DB2"/>
<path d="M476.206 626.111V659.173C476.206 659.626 476.659 660.306 477.338 660.532C478.697 661.438 480.735 661.438 482.094 660.532C482.773 660.306 483.226 659.626 483.226 659.173V622.035L476.206 626.111Z" fill="#FFC994"/>
<path d="M476.206 650.112V652.603C476.206 653.056 476.659 653.735 477.338 653.962C478.697 654.868 480.735 654.868 482.094 653.962C482.773 653.735 483.226 653.056 483.226 652.603V650.112C483.226 650.565 482.773 651.245 482.094 651.471C480.735 652.377 478.697 652.377 477.338 651.471C476.659 651.245 476.206 650.565 476.206 650.112Z" fill="#E8A395"/>
<path d="M476.206 643.549V646.04C476.206 646.493 476.659 646.945 477.338 647.398C478.697 648.304 480.735 648.304 482.094 647.398C482.773 646.945 483.226 646.493 483.226 646.04V643.549C483.226 644.002 482.773 644.455 482.094 644.907C480.735 645.587 478.697 645.587 477.338 644.907C476.659 644.455 476.206 644.002 476.206 643.549Z" fill="#E8A395"/>
<path d="M476.206 636.98V639.471C476.206 639.924 476.659 640.377 477.338 640.83C478.697 641.509 480.735 641.509 482.094 640.83C482.773 640.377 483.226 639.924 483.226 639.471V636.98C483.226 637.433 482.773 637.886 482.094 638.339C480.735 639.018 478.697 639.018 477.338 638.339C476.659 637.886 476.206 637.433 476.206 636.98Z" fill="#E8A395"/>
<path d="M476.206 630.187V632.677C476.206 633.357 476.659 633.81 477.338 634.263C478.697 634.942 480.735 634.942 482.094 634.263C482.773 633.81 483.226 633.357 483.226 632.677V630.187C483.226 630.866 482.773 631.319 482.094 631.772C480.735 632.451 478.697 632.451 477.338 631.772C476.659 631.319 476.206 630.866 476.206 630.187Z" fill="#E8A395"/>
<path d="M476.206 626.11C476.206 626.789 476.659 627.243 477.338 627.469C478.697 628.375 480.735 628.375 482.094 627.469C482.773 627.243 483.226 626.789 483.226 626.11V623.619C483.226 624.072 482.773 624.751 482.094 624.978C480.962 625.884 478.923 625.884 477.565 625.204L476.206 626.11Z" fill="#E8A395"/>
<path d="M708.093 522.622C708.093 528.057 708.999 532.813 710.357 537.115C710.659 538.172 711.037 539.229 711.49 540.286C711.791 540.739 712.018 541.192 712.169 541.645C713.528 544.211 715.188 546.476 717.151 548.438C717.755 549.042 718.057 549.344 718.057 549.344C719.113 550.25 720.246 551.08 721.453 551.835L741.834 563.61C741.834 563.61 741.759 563.61 741.608 563.61C741.306 563.459 741.004 563.233 740.702 562.931C740.249 562.629 739.872 562.327 739.57 562.025C739.268 561.874 738.966 561.648 738.664 561.346C738.513 561.195 738.362 561.044 738.211 560.893C737.909 560.591 737.607 560.364 737.305 560.213C737.154 559.912 737.003 559.685 736.852 559.534C736.701 559.383 736.475 559.157 736.173 558.855C736.022 558.704 735.871 558.477 735.72 558.175C735.418 557.873 735.192 557.572 735.041 557.27C734.89 557.119 734.814 556.968 734.814 556.817C734.512 556.515 734.286 556.137 734.135 555.684C733.984 555.684 733.908 555.609 733.908 555.458C733.304 554.552 732.776 553.495 732.323 552.288C732.172 551.986 732.021 551.608 731.87 551.155C731.568 550.703 731.342 550.174 731.191 549.57C731.04 549.268 730.964 549.117 730.964 549.117C730.813 548.664 730.662 548.136 730.512 547.532C730.21 546.324 729.908 544.966 729.606 543.456C729.455 542.852 729.379 542.173 729.379 541.418C729.228 540.965 729.153 540.512 729.153 540.059V539.833C729.002 539.531 728.926 539.153 728.926 538.701C728.926 537.342 728.926 535.983 728.926 534.625V534.171C728.926 533.417 728.926 532.586 728.926 531.681C728.926 530.926 728.926 530.095 728.926 529.19C729.077 527.982 729.228 526.774 729.379 525.566C729.53 524.963 729.606 524.434 729.606 523.981C729.606 523.83 729.606 523.679 729.606 523.528C729.757 522.924 729.908 522.245 730.059 521.49C730.21 520.584 730.361 519.754 730.512 518.999C730.512 518.848 730.587 518.697 730.738 518.546C730.889 517.489 731.115 516.433 731.417 515.376C731.719 514.319 732.021 513.338 732.323 512.432C732.323 512.281 732.323 512.055 732.323 511.753C732.625 511.3 732.852 510.772 733.003 510.168C733.153 509.413 733.38 508.658 733.682 507.903C734.739 505.186 735.871 502.468 737.079 499.751C738.286 497.033 739.645 494.316 741.155 491.599C741.608 490.542 742.136 489.56 742.74 488.655C743.646 486.994 744.627 485.333 745.684 483.673C746.439 482.616 747.194 481.635 747.948 480.729C748.099 480.427 748.326 480.125 748.628 479.823C748.93 479.37 749.156 478.993 749.307 478.691C750.968 476.577 752.704 474.464 754.515 472.35C755.119 471.746 755.723 471.067 756.327 470.312C756.931 469.708 757.535 469.104 758.139 468.5C758.441 468.198 758.743 467.897 759.044 467.595C759.95 466.689 760.781 465.858 761.535 465.104C762.743 464.047 763.951 462.99 765.159 461.933C766.668 460.877 768.103 459.82 769.461 458.763C769.914 458.461 770.367 458.159 770.82 457.857C771.424 457.555 772.028 457.178 772.632 456.725C773.235 456.423 773.839 456.046 774.443 455.593C774.896 455.291 775.349 455.064 775.802 454.913C776.406 454.611 776.934 454.309 777.387 454.008C777.84 453.857 778.293 453.63 778.746 453.328C780.859 452.422 782.897 451.668 784.86 451.064C785.464 450.913 785.992 450.762 786.445 450.611C787.502 450.309 788.559 450.082 789.616 449.931C792.031 449.479 794.296 449.328 796.409 449.478C796.711 449.478 797.013 449.478 797.315 449.478C797.768 449.478 798.221 449.554 798.674 449.705C798.825 449.705 798.976 449.705 799.127 449.705C799.428 449.705 799.73 449.78 800.032 449.931C800.334 449.931 800.636 450.007 800.938 450.158C801.391 450.309 801.844 450.384 802.297 450.384C802.599 450.535 802.901 450.686 803.203 450.837C803.505 450.837 803.807 450.913 804.109 451.064C804.561 451.366 805.014 451.592 805.467 451.743C805.92 452.045 806.373 452.271 806.826 452.422C806.675 452.271 806.448 452.196 806.147 452.196L786.219 440.42C783.35 438.76 780.18 437.778 776.708 437.477C774.292 437.326 771.726 437.476 769.008 437.929C767.801 438.08 766.593 438.307 765.385 438.609C761.611 439.666 757.761 441.326 753.836 443.591C751.421 445.1 749.081 446.686 746.816 448.346C743.948 450.46 741.155 452.875 738.437 455.593C738.135 455.895 737.833 456.197 737.532 456.498C734.361 459.669 731.417 463.066 728.7 466.689C728.398 466.991 728.171 467.368 728.021 467.821C720.321 478.238 714.207 490.466 711.037 502.695C710.886 502.846 710.81 503.072 710.81 503.374C710.508 504.582 710.206 505.789 709.904 506.997C709.15 510.319 708.697 513.564 708.546 516.735C708.244 518.697 708.093 520.66 708.093 522.622Z" fill="#FFDEDE"/>
<path fill-rule="evenodd" clip-rule="evenodd" d="M728.927 531.678C728.927 530.923 728.927 530.093 728.927 529.187C729.078 528.13 729.229 527.073 729.38 526.016C729.531 524.507 729.757 522.997 730.059 521.487C730.21 520.581 730.361 519.751 730.512 518.996C730.512 518.845 730.587 518.77 730.738 518.77C730.889 517.562 731.116 516.43 731.418 515.373C731.72 514.316 732.022 513.335 732.324 512.429C732.324 512.278 732.324 512.052 732.324 511.75C732.625 511.297 732.852 510.769 733.003 510.165C733.154 509.41 733.38 508.655 733.682 507.9C734.739 505.183 735.871 502.465 737.079 499.748C738.287 497.031 739.645 494.313 741.155 491.596C741.608 490.539 742.136 489.558 742.74 488.652C743.646 486.991 744.627 485.33 745.684 483.67C746.439 482.613 747.194 481.632 747.949 480.726C748.402 479.971 748.855 479.292 749.307 478.688C750.968 476.574 752.704 474.461 754.516 472.347C755.12 471.743 755.724 471.064 756.327 470.309C756.931 469.705 757.535 469.101 758.139 468.497C758.441 468.196 758.743 467.894 759.045 467.592C759.951 466.686 760.781 465.856 761.536 465.101C762.744 464.044 763.951 462.987 765.159 461.93C766.669 460.874 768.103 459.817 769.462 458.76C769.915 458.458 770.367 458.156 770.82 457.854C771.424 457.552 772.028 457.175 772.632 456.722C773.236 456.269 773.84 455.892 774.444 455.59C774.896 455.288 775.349 455.061 775.802 454.91C776.406 454.608 776.935 454.307 777.387 454.005C777.84 453.854 778.293 453.627 778.746 453.325C780.86 452.419 782.898 451.665 784.86 451.061C785.162 450.91 785.54 450.759 785.993 450.608C786.144 450.608 786.295 450.608 786.446 450.608C787.502 450.306 788.559 450.079 789.616 449.928C792.031 449.476 794.296 449.325 796.409 449.476C796.711 449.476 797.013 449.476 797.315 449.476C797.768 449.476 798.221 449.551 798.674 449.702C798.825 449.702 798.976 449.702 799.127 449.702C799.429 449.702 799.731 449.778 800.033 449.928C800.335 449.928 800.637 450.004 800.939 450.155C801.391 450.306 801.844 450.381 802.297 450.381C802.599 450.532 802.901 450.683 803.203 450.834C803.505 450.834 803.807 450.91 804.109 451.061C804.562 451.363 805.015 451.589 805.468 451.74C805.769 451.891 805.996 452.042 806.147 452.193C806.449 452.193 806.675 452.268 806.826 452.419C811.129 454.91 814.526 458.987 816.79 464.195C817.394 465.403 817.922 466.761 818.375 468.271C819.583 472.196 820.187 476.725 820.187 481.858C820.187 487.746 819.281 494.086 817.696 500.427C817.394 501.484 817.092 502.541 816.79 503.598C813.167 516.505 806.147 529.413 797.542 540.283C794.975 543.604 792.258 546.624 789.389 549.341C784.634 553.87 779.878 557.72 774.67 560.664C769.462 563.607 764.48 565.419 759.951 566.325C759.196 566.476 758.441 566.627 757.686 566.778C751.572 567.457 746.137 566.325 741.608 563.607C741.306 563.456 741.004 563.23 740.702 562.928C740.249 562.626 739.872 562.324 739.57 562.022C739.268 561.871 738.966 561.645 738.664 561.343C738.513 561.192 738.362 561.041 738.211 560.89C737.909 560.588 737.607 560.362 737.305 560.211C737.154 559.909 737.004 559.682 736.853 559.531C736.702 559.38 736.475 559.154 736.173 558.852C736.022 558.701 735.871 558.474 735.72 558.172C735.418 557.87 735.192 557.569 735.041 557.267C734.89 557.116 734.814 556.965 734.814 556.814C734.513 556.512 734.286 556.134 734.135 555.681C733.984 555.681 733.909 555.606 733.909 555.455C733.305 554.549 732.776 553.492 732.324 552.285C732.022 551.983 731.871 551.605 731.871 551.152C731.72 550.851 731.569 550.473 731.418 550.02C731.267 549.869 731.191 549.718 731.191 549.567C730.738 548.36 730.361 547.076 730.059 545.718C729.908 544.963 729.757 544.208 729.606 543.453C729.455 542.849 729.38 542.17 729.38 541.415C729.229 540.962 729.153 540.434 729.153 539.83C729.002 539.528 728.927 539.15 728.927 538.698C728.927 538.094 728.927 537.49 728.927 536.886C728.927 536.131 728.927 535.376 728.927 534.622V534.169C728.927 533.414 728.927 532.583 728.927 531.678ZM753.61 520.581C753.61 521.185 753.61 521.789 753.61 522.393C753.61 522.997 753.686 523.601 753.836 524.205C753.836 524.658 753.912 525.111 754.063 525.564C754.063 525.564 754.063 525.639 754.063 525.79C754.214 526.092 754.365 526.469 754.516 526.922C754.516 527.073 754.516 527.224 754.516 527.375C754.667 527.677 754.818 528.054 754.969 528.507C754.969 528.507 755.044 528.583 755.195 528.734C755.346 529.036 755.497 529.338 755.648 529.64C755.648 529.79 755.724 529.866 755.875 529.866C756.026 530.168 756.176 530.47 756.327 530.772C756.478 530.923 756.554 530.998 756.554 530.998C756.856 531.3 757.082 531.602 757.233 531.904C757.384 532.055 757.611 532.282 757.913 532.583C758.064 532.734 758.215 532.885 758.366 533.036C759.271 533.791 760.328 534.32 761.536 534.622C760.328 533.867 759.12 533.187 757.913 532.583C758.064 532.734 758.215 532.885 758.366 533.036C759.271 533.791 760.328 534.32 761.536 534.622C761.536 534.622 761.611 534.622 761.762 534.622C762.064 534.773 762.291 534.848 762.442 534.848C762.593 534.848 762.744 534.848 762.895 534.848C763.046 534.999 763.196 535.074 763.347 535.074C763.951 535.225 764.555 535.301 765.159 535.301C765.461 535.301 765.838 535.225 766.291 535.074C766.593 535.074 766.971 535.074 767.424 535.074C767.726 534.923 768.027 534.848 768.329 534.848C769.537 534.546 770.669 534.169 771.726 533.716C772.028 533.565 772.255 533.489 772.406 533.489C772.556 533.338 772.707 533.263 772.858 533.263C773.462 532.961 774.066 532.659 774.67 532.357C774.821 532.206 774.972 532.055 775.123 531.904C775.576 531.753 775.953 531.527 776.255 531.225C776.859 530.923 777.463 530.545 778.067 530.093C778.067 529.942 778.142 529.79 778.293 529.64C778.444 529.64 778.595 529.564 778.746 529.413C779.199 528.96 779.652 528.583 780.105 528.281C780.558 527.828 781.011 527.375 781.464 526.922L782.143 526.243C783.351 525.035 784.558 523.752 785.766 522.393C786.37 521.487 786.974 520.506 787.578 519.449C787.88 519.147 788.182 518.77 788.484 518.317C788.484 518.317 788.484 518.241 788.484 518.091C788.635 517.94 788.71 517.789 788.71 517.638C788.861 517.487 788.937 517.336 788.937 517.185L789.389 516.732C789.389 516.732 789.389 516.656 789.389 516.505C789.691 516.204 789.918 515.826 790.069 515.373C790.22 515.222 790.371 514.996 790.522 514.694C790.824 514.09 791.126 513.41 791.427 512.656C791.578 512.354 791.729 512.052 791.88 511.75V511.523C792.031 511.372 792.107 511.222 792.107 511.071C792.258 510.92 792.333 510.768 792.333 510.617C792.484 510.467 792.56 510.316 792.56 510.165C792.862 509.41 793.164 508.655 793.466 507.9C793.768 507.145 793.994 506.315 794.145 505.409C794.296 504.805 794.447 504.126 794.598 503.371C794.749 502.918 794.9 502.39 795.051 501.786C795.051 501.635 795.051 501.409 795.051 501.107C795.051 500.956 795.126 500.805 795.277 500.654C795.277 500.352 795.277 500.05 795.277 499.748C795.428 499.144 795.504 498.54 795.504 497.936C795.504 497.785 795.504 497.71 795.504 497.71C795.504 497.408 795.504 497.106 795.504 496.804C795.504 496.653 795.504 496.427 795.504 496.125C795.504 495.219 795.428 494.313 795.277 493.407C795.277 492.501 795.202 491.671 795.051 490.916C795.051 490.765 794.975 490.69 794.824 490.69C794.824 490.69 794.824 490.614 794.824 490.463C794.824 490.463 794.824 490.388 794.824 490.237C794.824 490.237 794.824 490.161 794.824 490.01C794.371 488.803 793.919 487.67 793.466 486.614C793.164 486.161 792.862 485.783 792.56 485.481C792.409 485.33 792.258 485.18 792.107 485.029C791.956 484.727 791.805 484.5 791.654 484.349C791.503 484.198 791.277 483.972 790.975 483.67C790.824 483.519 790.673 483.368 790.522 483.217H790.295C790.144 483.066 789.993 482.915 789.842 482.764C789.691 482.764 789.54 482.688 789.389 482.538C788.333 481.934 787.276 481.556 786.219 481.405C782.822 480.726 778.973 481.405 774.897 483.67C774.746 483.821 774.595 483.972 774.444 484.123C770.367 486.387 766.518 490.01 763.121 494.313C762.97 494.464 762.895 494.615 762.895 494.766C761.234 496.879 759.8 499.068 758.592 501.333C757.384 503.748 756.327 506.164 755.422 508.58C754.289 512.656 753.384 516.505 753.61 520.355V520.581Z" fill="white"/>
<path d="M753.61 520.582C753.61 526.017 755.196 530.094 757.913 532.585C759.121 533.188 760.328 533.868 761.536 534.623C761.687 534.623 761.763 534.623 761.763 534.623C762.065 534.774 762.291 534.849 762.442 534.849C762.744 535 763.046 535.075 763.348 535.075C763.952 535.226 764.556 535.302 765.159 535.302C765.461 535.302 765.839 535.226 766.292 535.075C766.594 535.075 766.971 535.075 767.424 535.075C767.726 534.924 768.028 534.849 768.33 534.849C769.537 534.547 770.67 534.17 771.727 533.717C772.028 533.566 772.255 533.49 772.406 533.49C773.161 533.188 773.916 532.811 774.67 532.358C775.727 531.603 776.784 530.848 777.841 530.094C778.143 529.792 778.445 529.565 778.747 529.414C779.652 528.659 780.558 527.829 781.464 526.923C781.766 526.772 781.992 526.546 782.143 526.244C783.351 525.036 784.559 523.677 785.767 522.168C786.37 521.413 786.974 520.507 787.578 519.45C787.88 518.997 788.182 518.544 788.484 518.092C788.786 517.639 789.088 517.186 789.39 516.733C789.39 516.733 789.39 516.657 789.39 516.506C789.692 516.205 789.918 515.827 790.069 515.374C790.22 515.223 790.371 514.997 790.522 514.695C792.107 511.751 793.239 508.581 794.145 505.41C794.296 504.806 794.447 504.127 794.598 503.372C794.749 502.919 794.9 502.391 795.051 501.787C795.051 501.485 795.051 501.108 795.051 500.655C795.202 500.353 795.278 500.051 795.278 499.749C795.428 499.145 795.504 498.541 795.504 497.937C795.504 497.937 795.504 497.862 795.504 497.711C795.504 497.107 795.504 496.579 795.504 496.126C795.504 495.22 795.504 494.314 795.504 493.408C795.353 492.502 795.202 491.672 795.051 490.917C794.9 490.615 794.825 490.313 794.825 490.011C794.372 488.804 793.919 487.671 793.466 486.615C792.711 485.558 791.881 484.577 790.975 483.671C790.824 483.52 790.597 483.369 790.296 483.218C790.145 483.067 789.994 482.916 789.843 482.765C789.692 482.765 789.541 482.69 789.39 482.539C788.333 481.935 787.276 481.557 786.219 481.406C782.823 480.727 778.973 481.406 774.897 483.897C774.897 483.897 774.897 483.973 774.897 484.124C774.897 485.331 774.821 486.539 774.67 487.747C774.519 489.709 774.142 491.672 773.538 493.635C772.934 495.446 772.255 497.258 771.5 499.07C771.349 499.522 771.198 499.975 771.047 500.428C770.594 501.183 770.217 501.938 769.915 502.693C769.613 503.146 769.311 503.674 769.009 504.278C768.707 504.731 768.405 505.184 768.103 505.637C767.801 506.392 767.424 507.071 766.971 507.675C766.669 507.977 766.443 508.279 766.292 508.581C765.839 509.185 765.386 509.788 764.933 510.392C764.178 511.298 763.423 512.204 762.668 513.11C762.366 513.412 762.065 513.713 761.763 514.015C761.159 514.619 760.555 515.223 759.951 515.827C759.196 516.582 758.441 517.186 757.686 517.639C756.932 518.243 756.177 518.846 755.422 519.45C754.969 519.752 754.441 520.054 753.837 520.356C753.837 520.356 753.761 520.431 753.61 520.582Z" fill="white"/>
<path d="M758.139 468.497L763.121 494.313C766.517 490.01 770.367 486.387 774.443 484.123C774.594 483.972 774.745 483.821 774.896 483.67C778.972 481.405 782.822 480.726 786.219 481.405C787.275 481.556 788.332 481.934 789.389 482.538C789.54 482.688 789.691 482.764 789.842 482.764C789.993 482.915 790.144 483.066 790.295 483.217C790.295 483.217 790.37 483.217 790.521 483.217C790.672 483.368 790.823 483.519 790.974 483.67C791.276 483.972 791.503 484.198 791.654 484.349L791.88 483.217L797.088 449.702C797.239 449.551 797.315 449.476 797.315 449.476C794.899 449.325 792.333 449.476 789.615 449.928C784.86 450.608 779.652 452.646 774.443 455.59C769.008 458.76 763.8 462.836 759.044 467.592C758.743 467.894 758.441 468.196 758.139 468.497Z" fill="#40B394"/>
<path d="M757.686 566.783C758.44 566.632 759.195 566.481 759.95 566.33C764.479 565.651 769.461 563.613 774.669 560.669C779.878 557.725 784.633 553.875 789.389 549.573C792.257 546.704 794.975 543.609 797.541 540.288L791.88 511.755C791.427 512.661 790.974 513.642 790.521 514.699C790.37 515.001 790.219 515.227 790.068 515.378C789.917 515.831 789.691 516.209 789.389 516.511C789.389 516.662 789.389 516.737 789.389 516.737C789.087 517.19 788.785 517.643 788.483 518.096C788.181 518.549 787.879 519.001 787.577 519.454C786.973 520.511 786.369 521.417 785.766 522.172C784.558 523.682 783.35 525.04 782.142 526.248C781.991 526.55 781.765 526.776 781.463 526.927C780.557 527.833 779.651 528.663 778.746 529.418C778.444 529.569 778.142 529.796 777.84 530.098C776.783 531.004 775.726 531.758 774.669 532.362C773.915 532.815 773.16 533.193 772.405 533.495C772.254 533.495 772.028 533.57 771.726 533.721C770.669 534.174 769.537 534.551 768.329 534.853C768.027 534.853 767.725 534.929 767.423 535.08C766.97 535.08 766.593 535.08 766.291 535.08C765.838 535.231 765.46 535.306 765.159 535.306C764.555 535.306 763.951 535.231 763.347 535.08C763.196 535.08 763.045 535.08 762.894 535.08L757.686 566.783Z" fill="#40B394"/>
<path d="M795.504 496.13C795.504 496.583 795.504 497.111 795.504 497.715C795.504 497.715 795.504 497.791 795.504 497.941C795.504 498.545 795.428 499.149 795.277 499.753C795.277 500.055 795.277 500.357 795.277 500.659C795.126 501.112 795.051 501.489 795.051 501.791C794.9 502.395 794.749 502.923 794.598 503.376C794.447 504.131 794.296 504.811 794.145 505.415C793.692 507.226 793.088 508.962 792.333 510.623L817.696 500.432C819.281 494.092 820.187 487.751 820.187 481.863C820.187 476.731 819.583 472.201 818.375 468.276C817.922 466.918 817.394 465.559 816.79 464.2L791.88 483.222L790.975 483.675C791.277 483.977 791.503 484.203 791.654 484.354C792.258 484.958 792.862 485.713 793.466 486.619C793.919 487.676 794.371 488.808 794.824 490.016C794.824 490.318 794.9 490.62 795.051 490.922C795.202 491.676 795.277 492.507 795.277 493.412C795.428 494.318 795.504 495.224 795.504 496.13Z" fill="#40B394"/>
<path d="M728.927 534.624C728.927 540.964 729.833 546.625 731.871 551.154L757.234 531.906C754.969 529.415 753.61 525.565 753.61 520.583V520.357C753.384 516.507 754.29 512.658 755.422 508.582C756.328 506.166 757.385 503.75 758.592 501.335L732.324 511.752C731.72 514.167 731.116 516.583 730.512 518.998C729.38 524.207 728.701 529.415 728.927 534.624Z" fill="#40B394"/>
<path d="M737.531 456.498L758.138 468.5C758.44 468.198 758.742 467.897 759.044 467.595C763.8 462.839 769.008 458.763 774.443 455.593C779.651 452.649 784.86 450.611 789.615 449.931C792.333 449.479 794.899 449.328 797.315 449.478L776.707 437.477C774.292 437.326 771.726 437.476 769.008 437.929C767.8 438.08 766.593 438.307 765.385 438.609C761.611 439.666 757.761 441.326 753.836 443.591C751.42 445.1 749.08 446.686 746.816 448.346C743.947 450.46 741.154 452.875 738.437 455.593C738.135 455.895 737.833 456.197 737.531 456.498Z" fill="#429DB2"/>
<path d="M708.093 522.621C708.093 528.056 708.999 532.812 710.357 537.114C710.659 538.171 711.037 539.228 711.49 540.285C711.791 540.738 712.018 541.191 712.169 541.644L731.87 551.154C731.568 550.701 731.342 550.173 731.191 549.569C730.889 548.965 730.662 548.286 730.512 547.531C730.21 546.323 729.908 544.965 729.606 543.455C729.455 542.851 729.379 542.172 729.379 541.417C729.228 540.964 729.153 540.511 729.153 540.058V539.832C729.002 539.53 728.926 539.152 728.926 538.7C728.926 537.341 728.926 535.982 728.926 534.624V534.17C728.926 533.416 728.926 532.585 728.926 531.68C728.926 530.925 728.926 530.094 728.926 529.189C729.077 527.981 729.228 526.773 729.379 525.565C729.53 525.113 729.606 524.584 729.606 523.98C729.606 523.829 729.606 523.678 729.606 523.527C729.757 522.923 729.908 522.244 730.059 521.489C730.21 520.583 730.361 519.753 730.512 518.998C730.512 518.847 730.587 518.696 730.738 518.545C730.889 517.488 731.115 516.432 731.417 515.375C731.719 514.318 732.021 513.337 732.323 512.431C732.323 512.28 732.323 512.054 732.323 511.752L710.81 503.373C710.508 504.581 710.206 505.788 709.904 506.996C709.15 510.318 708.697 513.563 708.546 516.734C708.244 518.696 708.093 520.659 708.093 522.621Z" fill="#429DB2"/>
<path d="M763.801 413.473V446.535C763.801 447.214 764.254 447.667 764.933 448.12C766.292 448.799 768.33 448.799 769.689 448.12C770.368 447.667 770.821 447.214 770.821 446.535V409.396L763.801 413.473Z" fill="#FFC994"/>
<path d="M763.801 437.477V439.967C763.801 440.42 764.254 441.1 764.933 441.326C766.292 442.232 768.33 442.232 769.689 441.326C770.368 441.1 770.821 440.42 770.821 439.967V437.477C770.821 437.929 770.368 438.609 769.689 438.835C768.33 439.741 766.292 439.741 764.933 438.835C764.254 438.609 763.801 437.929 763.801 437.477Z" fill="#E8A395"/>
<path d="M763.801 430.909V433.4C763.801 433.853 764.254 434.532 764.933 434.759C766.292 435.665 768.33 435.665 769.689 434.759C770.368 434.532 770.821 433.853 770.821 433.4V430.909C770.821 431.362 770.368 432.041 769.689 432.268C768.33 433.174 766.292 433.174 764.933 432.268C764.254 432.041 763.801 431.362 763.801 430.909Z" fill="#E8A395"/>
<path d="M763.801 424.341V426.832C763.801 427.285 764.254 427.738 764.933 428.191C766.292 428.87 768.33 428.87 769.689 428.191C770.368 427.738 770.821 427.285 770.821 426.832V424.341C770.821 424.794 770.368 425.247 769.689 425.7C768.33 426.379 766.292 426.379 764.933 425.7C764.254 425.247 763.801 424.794 763.801 424.341Z" fill="#E8A395"/>
<path d="M763.801 417.777V420.268C763.801 420.721 764.254 421.174 764.933 421.627C766.292 422.306 768.33 422.306 769.689 421.627C770.368 421.174 770.821 420.721 770.821 420.268V417.777C770.821 418.23 770.368 418.683 769.689 419.136C768.33 419.815 766.292 419.815 764.933 419.136C764.254 418.683 763.801 418.23 763.801 417.777Z" fill="#E8A395"/>
<path d="M763.801 413.475C763.801 414.155 764.254 414.608 764.933 415.06C766.292 415.74 768.33 415.74 769.689 415.06C770.368 414.608 770.821 414.155 770.821 413.475V410.984C770.821 411.664 770.368 412.117 769.689 412.57C768.556 413.249 766.518 413.249 765.16 412.57L763.801 413.475Z" fill="#E8A395"/>
<path d="M219.409 118.405L328.333 504.959C329.012 507.676 327.427 510.62 324.71 511.073C321.992 511.753 319.501 510.167 319.048 507.677L209.898 120.896L219.409 118.405Z" fill="#FFE9B8"/>
<path d="M38.4733 304.547C38.6243 305.151 38.7753 305.755 38.9262 306.359C39.0772 306.811 39.2282 307.34 39.3791 307.944C39.6811 308.85 40.0585 309.755 40.5114 310.661C56.363 351.196 105.956 375.2 168.91 378.37C206.727 380.182 249.3 374.747 292.779 360.481C336.031 346.441 373.849 326.06 403.288 302.282C452.201 262.88 478.243 214.419 467.374 172.299C467.223 171.242 466.996 170.185 466.694 169.129C466.543 168.525 466.317 167.996 466.015 167.543C465.864 166.94 465.713 166.411 465.562 165.958C437.255 82.6239 328.332 42.3154 216.691 71.9806C211.256 73.3393 205.821 74.9244 200.387 76.736C194.197 78.6986 188.083 80.8877 182.044 83.3032C117.732 108.892 69.2708 153.956 46.6256 204.002C31.9062 236.838 28.0565 271.711 38.4733 304.547Z" fill="#FFC545"/>
<path d="M40.2861 310.891C56.5907 351.426 105.957 375.43 168.911 378.374C168.911 378.223 168.835 378.072 168.684 377.921C153.739 316.326 169.137 185.21 195.406 119.086C199.029 110.028 202.652 102.329 206.728 96.2148C180.46 105.046 156.23 124.521 135.17 148.072C78.3301 211.479 42.3242 305.683 40.2861 310.891Z" fill="#FF953E"/>
<path d="M206.729 96.2148C213.522 98.9322 220.995 103.008 229.147 107.99C289.61 146.261 379.285 243.635 403.289 302.286C452.203 262.884 478.245 214.423 467.375 172.303C462.846 169.132 378.379 114.105 295.045 96.2148C264.021 89.4213 233.223 87.8361 206.729 96.2148Z" fill="#FF953E"/>
<path opacity="0.5" d="M368.641 602.106C373.396 604.823 381.322 604.823 386.078 602.106C390.833 599.388 390.833 594.859 386.078 592.142C384.04 590.783 381.549 590.33 378.831 590.104V570.402C378.378 570.553 377.925 570.629 377.472 570.629C376.869 570.629 376.34 570.553 375.887 570.402V590.104C373.17 590.33 370.679 590.783 368.641 592.142C363.885 594.859 363.885 599.388 368.641 602.106Z" fill="white"/>
<path opacity="0.5" d="M361.848 547.987V555.008C361.848 556.517 362.074 557.951 362.527 559.31C364.112 565.198 369.547 569.953 375.888 570.406C376.341 570.557 376.869 570.633 377.473 570.633C377.926 570.633 378.379 570.557 378.832 570.406C379.284 570.406 379.662 570.406 379.964 570.406C381.775 570.104 383.436 569.5 384.946 568.595C386.606 567.538 388.041 566.33 389.248 564.971C389.701 564.367 390.154 563.764 390.607 563.16C391.362 561.952 391.89 560.669 392.192 559.31C392.645 557.951 392.872 556.517 392.872 555.008V547.987C392.645 550.025 391.06 552.29 388.343 553.875C387.135 554.479 385.852 555.007 384.493 555.46C383.738 555.611 382.983 555.762 382.228 555.913C380.19 556.366 377.926 556.593 375.661 556.366C372.717 556.14 370 555.46 367.735 554.554L367.509 554.328C367.207 554.177 366.83 554.026 366.377 553.875C363.659 552.29 362.074 550.025 361.848 547.987Z" fill="white"/>
<path d="M377.473 569.496C377.926 569.496 378.379 569.496 378.832 569.496C384.266 569.043 389.022 565.194 390.834 560.212H363.886C365.924 565.194 370.453 569.043 375.888 569.496C376.492 569.496 377.02 569.496 377.473 569.496Z" fill="#AC3734"/>
<path d="M363.886 560.212C363.886 562.93 370 564.968 377.473 564.968C384.946 564.968 390.834 562.93 390.834 560.212C390.834 557.721 384.946 555.457 377.473 555.457C370 555.457 363.886 557.721 363.886 560.212Z" fill="#F96864"/>
<path opacity="0.5" d="M361.848 547.988C362.075 550.026 363.66 552.29 366.377 553.876C372.492 557.272 382.229 557.272 388.343 553.876C391.061 552.29 392.646 550.026 392.872 547.988C393.099 545.497 391.514 543.006 388.343 541.194C382.229 537.797 372.492 537.797 366.377 541.194C363.207 543.006 361.622 545.497 361.848 547.988Z" fill="#FFEDE6"/>
<path opacity="0.5" d="M465.11 564.29C470.092 567.008 477.791 567.008 482.546 564.29C487.302 561.573 487.302 557.044 482.546 554.1C480.508 552.968 478.017 552.288 475.3 552.288V532.587C474.847 532.587 474.394 532.587 473.941 532.587C473.488 532.587 472.96 532.587 472.356 532.587V552.288C469.865 552.288 467.148 552.968 465.11 554.1C460.354 557.044 460.354 561.573 465.11 564.29Z" fill="white"/>
<path opacity="0.5" d="M458.543 510.168L458.316 517.188C458.467 518.698 458.694 520.056 458.996 521.264C460.581 526.925 465.11 531.228 470.771 532.36C471.375 532.511 471.903 532.587 472.356 532.587C472.809 532.587 473.338 532.587 473.942 532.587C474.394 532.587 474.847 532.587 475.3 532.587C476.508 532.436 477.64 532.209 478.697 531.907C479.905 531.454 481.037 530.926 482.094 530.322C483.151 529.718 484.132 528.964 485.038 528.058C486.849 526.246 488.208 523.982 488.887 521.264C489.189 520.056 489.34 518.698 489.34 517.188V510.168C489.114 512.206 487.755 514.471 484.811 516.056C483.604 516.66 482.245 517.188 480.735 517.641C479.527 518.094 478.244 518.32 476.885 518.32C475.678 518.471 474.47 518.547 473.262 518.547C470.092 518.547 466.922 517.867 464.431 516.735C463.827 516.433 463.374 516.207 463.072 516.056C460.128 514.471 458.543 512.206 458.543 510.168Z" fill="white"/>
<path d="M473.942 531.681C474.395 531.681 474.847 531.681 475.3 531.681C480.735 531.002 485.491 527.378 487.302 522.396H460.354C462.393 527.378 467.148 531.002 472.583 531.681C473.036 531.681 473.489 531.681 473.942 531.681Z" fill="#AC3734"/>
<path d="M460.354 522.393C460.354 525.111 466.469 527.149 473.942 527.149C481.415 527.149 487.302 525.111 487.302 522.393C487.302 519.676 481.415 517.638 473.942 517.638C466.469 517.638 460.354 519.676 460.354 522.393Z" fill="#F96864"/>
<path opacity="0.5" d="M458.543 510.167C458.543 512.205 460.128 514.47 463.072 516.055C468.959 519.452 478.923 519.452 484.811 516.055C487.755 514.47 489.114 512.205 489.34 510.167C489.567 507.676 487.981 505.185 484.811 503.374C478.923 499.977 468.959 499.977 463.072 503.374C459.675 505.185 458.316 507.676 458.543 510.167Z" fill="#FFEDE6"/>
<path opacity="0.5" d="M673.22 354.592V384.031C673.22 385.842 674.578 387.88 677.069 389.465C680.013 391.051 684.089 391.73 687.939 391.503C690.43 391.503 692.695 390.824 694.959 389.918C695.261 389.767 695.563 389.616 695.865 389.465C696.167 389.164 696.469 388.937 696.771 388.786C697.677 388.031 698.356 387.276 698.809 386.522C699.413 385.767 699.715 384.936 699.715 384.031V354.592H673.22Z" fill="white"/>
<path opacity="0.5" d="M673.22 354.592H699.715C699.715 352.554 698.356 350.516 695.865 349.157C690.657 346.213 682.278 346.213 677.069 349.157C674.578 350.516 673.22 352.554 673.22 354.592Z" fill="white"/>
<path opacity="0.5" d="M664.84 365.013V380.185C664.84 381.543 665.972 382.449 667.331 382.449H673.219V378.826H670.275C669.369 378.826 668.463 378.147 668.463 377.241V367.956C668.463 367.051 669.369 366.371 670.275 366.371H673.219V362.748H667.331C665.972 362.748 664.84 363.654 664.84 365.013Z" fill="white"/>
<path d="M686.353 390.601C689.75 390.601 692.921 389.696 695.185 388.337C697.45 387.205 698.582 385.619 698.582 384.034V366.145H674.352V384.034C674.352 385.619 675.484 387.205 677.522 388.337C680.013 389.696 683.183 390.601 686.353 390.601Z" fill="#8E5C36"/>
<path d="M677.748 362.972C672.993 364.784 672.993 367.728 677.748 369.539C682.504 371.124 690.203 371.124 694.959 369.539C699.714 367.728 699.714 364.784 694.959 362.972C690.203 361.387 682.504 361.387 677.748 362.972Z" fill="#AA8359"/>
<path opacity="0.5" fill-rule="evenodd" clip-rule="evenodd" d="M676.389 348.026C682.051 344.856 690.882 344.856 696.317 348.026C699.261 349.838 700.846 352.102 700.846 354.593C700.846 357.084 699.261 359.349 696.317 360.934C693.826 362.293 690.656 363.198 687.486 363.198C687.184 363.349 686.806 363.425 686.353 363.425C685.749 363.425 685.07 363.349 684.315 363.198C683.41 363.198 682.579 363.048 681.824 362.746C679.786 362.519 677.975 361.84 676.389 360.934C674.578 359.877 673.37 358.669 672.766 357.311V357.084C672.313 356.329 672.087 355.499 672.087 354.593C672.087 352.102 673.672 349.838 676.389 348.026ZM677.748 358.896C678.503 359.349 679.409 359.726 680.466 360.028C681.371 360.33 682.277 360.556 683.183 360.707C684.24 360.858 685.297 360.934 686.353 360.934C689.524 360.934 692.694 360.255 695.185 358.896C697.223 357.764 698.582 356.178 698.582 354.593C698.582 353.008 697.223 351.423 695.185 350.064C692.694 348.705 689.524 348.026 686.353 348.026C683.183 348.026 680.013 348.705 677.748 350.064C675.484 351.423 674.351 353.008 674.351 354.593C674.351 355.046 674.502 355.575 674.804 356.178C675.257 357.235 676.239 358.141 677.748 358.896Z" fill="white"/>
<path opacity="0.5" d="M754.063 300.022V300.249L754.29 301.608L756.102 317.912L759.045 342.142C759.045 343.501 759.951 344.86 761.763 345.992C765.613 348.257 771.727 348.257 775.576 345.992C777.388 344.86 778.294 343.501 778.294 342.142L781.238 317.912L783.049 301.608L783.276 300.249V300.022H754.063Z" fill="white"/>
<path opacity="0.5" d="M754.063 300.02H783.276C783.049 297.982 781.691 295.944 778.973 294.359C773.312 291.189 764.027 291.189 758.366 294.359C755.649 295.944 754.29 297.982 754.063 300.02Z" fill="white"/>
<path opacity="0.5" fill-rule="evenodd" clip-rule="evenodd" d="M757.912 307.041C754.968 305.229 753.156 302.965 753.156 300.247C753.156 297.756 754.968 295.492 757.912 293.68C763.8 290.284 773.537 290.284 779.425 293.68C782.369 295.492 784.18 297.756 784.18 300.247C784.18 302.965 782.369 305.229 779.425 307.041C776.481 308.853 772.631 309.532 768.781 309.532C764.705 309.532 760.856 308.853 757.912 307.041ZM758.818 295.265C756.327 296.624 754.968 298.436 754.968 300.247C754.968 302.285 756.327 304.097 758.818 305.456C764.252 308.626 773.084 308.626 778.519 305.456C781.01 304.097 782.369 302.285 782.369 300.247C782.369 298.436 781.01 296.624 778.519 295.265C775.801 293.68 772.178 292.775 768.781 292.775C765.158 292.775 761.535 293.68 758.818 295.265Z" fill="white"/>
<path d="M768.782 346.442C771.046 346.442 773.311 345.762 774.896 344.857C776.255 344.177 777.16 343.045 777.16 342.139V341.913L779.651 319.041H757.686L760.177 341.913V342.139C760.177 343.045 761.082 344.177 762.441 344.857C764.026 345.762 766.291 346.442 768.782 346.442Z" fill="#FFD358"/>
<path d="M757.686 319.038C757.686 321.982 762.667 324.473 768.782 324.473C774.896 324.473 779.651 321.982 779.651 319.038C779.651 316.095 774.896 313.83 768.782 313.83C762.667 313.83 757.686 316.095 757.686 319.038Z" fill="#FFE59B"/>
<path opacity="0.5" d="M382.229 555.91L389.249 564.968C389.701 564.364 390.154 563.76 390.607 563.156L384.493 555.457C383.738 555.608 382.983 555.759 382.229 555.91Z" fill="white"/>
<path opacity="0.5" d="M367.735 554.551L379.964 570.402C381.775 570.1 383.436 569.497 384.946 568.591L375.661 556.363C372.717 556.136 370 555.457 367.735 554.551Z" fill="white"/>
<path d="M392.646 546.623C392.495 546.623 392.42 546.548 392.42 546.397C392.42 546.397 391.514 541.868 383.814 539.83C383.814 539.603 383.588 539.603 383.588 539.377C383.814 539.15 383.814 539.15 384.041 539.15C392.193 541.415 393.099 546.17 393.099 546.397C393.099 546.623 392.872 546.623 392.872 546.623C392.721 546.623 392.646 546.623 392.646 546.623Z" fill="white"/>
<path d="M363.207 544.361C363.207 544.361 363.131 544.285 362.981 544.135C362.981 544.135 362.754 543.908 362.981 543.682C364.566 541.417 369.095 539.605 369.321 539.605C369.548 539.605 369.774 539.605 369.774 539.832C369.774 539.832 369.774 540.058 369.548 540.058C369.548 540.058 364.792 541.87 363.433 544.135C363.433 544.285 363.358 544.361 363.207 544.361Z" fill="white"/>
<path d="M377.473 556.818C376.416 556.818 375.284 556.743 374.076 556.592C374.076 556.592 373.85 556.366 373.85 556.139C373.85 555.988 374.001 555.912 374.303 555.912C381.323 556.818 386.304 554.554 386.304 554.554C386.531 554.327 386.531 554.554 386.757 554.554C386.757 554.78 386.757 555.007 386.531 555.007C386.304 555.233 382.908 556.818 377.473 556.818Z" fill="white"/>
<path opacity="0.5" d="M476.885 518.317L482.093 530.319C483.15 529.715 484.131 528.96 485.037 528.054L480.734 517.638C479.527 518.091 478.243 518.317 476.885 518.317Z" fill="white"/>
<path opacity="0.5" d="M464.431 516.735L470.771 532.361C471.375 532.512 471.904 532.587 472.356 532.587C472.809 532.587 473.338 532.587 473.942 532.587C474.395 532.587 474.848 532.587 475.3 532.587C476.508 532.436 477.64 532.209 478.697 531.908L473.262 518.547C470.092 518.547 466.922 517.868 464.431 516.735Z" fill="white"/>
<path d="M488.661 512.659C488.434 512.432 488.434 512.433 488.434 512.206C490.473 507.904 486.623 504.96 486.396 504.733C486.17 504.733 486.17 504.507 486.396 504.28H486.623C486.849 504.28 491.152 507.677 488.887 512.432C488.887 512.583 488.812 512.659 488.661 512.659Z" fill="white"/>
<path d="M460.807 505.186C460.807 505.186 460.732 505.111 460.581 504.96V504.733C463.751 501.563 469.186 500.884 469.413 500.884C469.639 500.884 469.639 501.11 469.866 501.337C469.866 501.337 469.639 501.563 469.413 501.563C469.413 501.563 463.978 502.016 461.034 504.96C461.034 505.111 460.958 505.186 460.807 505.186Z" fill="white"/>
<path d="M463.298 516.508C463.147 516.508 463.071 516.508 463.071 516.508C463.071 516.282 460.807 515.376 459.448 513.338C459.222 513.111 459.222 512.885 459.448 512.885C459.675 512.658 459.675 512.658 459.901 512.885C461.26 514.923 463.298 515.829 463.298 515.829C463.524 515.829 463.524 516.055 463.524 516.281C463.524 516.432 463.449 516.508 463.298 516.508Z" fill="white"/>
<path opacity="0.4" d="M684.315 363.199L696.77 388.788C697.676 388.034 698.355 387.279 698.808 386.524L687.486 363.199C687.184 363.35 686.806 363.426 686.353 363.426C685.75 363.426 685.07 363.35 684.315 363.199Z" fill="white"/>
<path opacity="0.4" d="M673.22 357.988V361.385L687.939 391.503C690.43 391.503 692.695 390.824 694.959 389.918L681.825 362.744C679.787 362.517 677.975 361.838 676.39 360.932C675.031 360.026 673.975 359.045 673.22 357.988Z" fill="white"/>
<path fill-rule="evenodd" clip-rule="evenodd" d="M35.7569 230.951C42.0976 206.947 54.326 184.528 69.4983 165.053C76.9712 155.316 85.5764 146.031 94.6345 137.652C103.693 129.274 113.43 121.574 123.62 114.554C133.811 107.534 144.454 100.967 155.55 95.5324C166.42 89.8711 177.742 84.6626 189.518 80.5865C195.406 78.5484 201.067 76.5104 207.181 74.6988L216.013 72.2077C218.957 71.3019 221.901 70.6225 225.071 69.9432C236.997 67.0748 249.15 64.9613 261.53 63.6025C286.213 60.8851 311.123 61.5646 335.579 66.0936C359.81 70.6226 383.814 78.5484 405.1 91.4561C426.387 104.364 445.182 122.027 457.411 143.767C460.355 149.201 463.298 154.863 465.563 160.751C466.695 163.694 467.827 166.638 468.733 169.582C469.186 171.092 469.564 172.677 469.866 174.338L470.771 178.867C473.036 191.548 471.677 204.456 468.507 216.458C465.337 228.686 459.902 240.235 453.335 251.105C446.994 261.748 439.068 271.712 430.689 280.997C413.479 299.113 393.551 314.738 372.265 327.872C351.205 341.006 328.333 351.65 305.008 360.255C281.457 368.86 257.227 374.974 232.317 378.598C220.089 380.56 207.71 381.692 195.179 381.994C182.649 382.447 170.118 382.07 157.588 380.862C132.678 378.145 107.769 372.483 85.5764 360.708C74.2538 354.82 63.837 347.347 55.2318 337.836C46.6266 328.552 40.2859 317.455 36.4363 305.227C29.1898 281.223 29.4163 255.181 35.7569 230.951ZM58.6286 334.892C67.0073 343.497 76.9712 350.517 87.8409 355.952C109.58 367.048 133.811 372.257 158.267 374.295C182.498 376.333 207.181 374.974 231.412 371.351C255.642 367.728 279.419 361.614 302.517 353.461C325.616 345.309 348.034 334.892 368.868 322.211C389.928 309.756 409.403 294.584 426.387 276.92C434.766 268.089 442.465 258.578 449.032 248.388C455.599 237.971 461.034 227.101 464.204 215.325C467.601 203.776 468.96 191.548 466.922 179.546L466.242 175.017C465.94 173.507 465.563 172.073 465.11 170.714C464.431 167.77 463.298 164.827 462.393 162.109C460.128 156.221 457.637 150.787 454.693 145.352C442.918 123.839 425.028 106.176 404.194 93.0413C383.361 79.9071 359.583 71.302 335.353 66.7729C311.123 62.2439 286.213 61.5645 261.53 64.0555C249.301 65.2632 237.148 67.2257 225.071 69.9432C221.901 70.849 218.957 71.5283 216.013 72.2077L207.181 74.9251C201.067 76.2839 195.406 78.5485 189.518 80.813C177.742 84.6627 166.646 90.0975 155.55 95.7588C144.454 101.194 134.037 107.761 123.847 115.007C113.883 122.027 104.372 129.953 95.3138 138.332C86.4822 146.937 78.1035 155.995 70.6305 165.959C55.9111 185.66 44.1356 207.853 38.4743 231.63C32.3601 255.408 32.813 280.77 40.286 304.095C43.9092 315.644 50.2498 326.061 58.6286 334.892Z" fill="#FF953E"/>
<path d="M163.5 895.5L183.5 743L218.5 864.5L163.5 895.5Z" fill="#E28819"/>
<path d="M299.5 677L183 741.5L232 929.5L342.5 858.5L299.5 677Z" fill="url(#paint0_radial_33_9258)"/>
<path d="M266.427 763.658C264.542 764.633 264.477 764.958 265.712 769.833C266.037 771.198 265.777 771.588 264.087 772.303C262.267 773.083 262.137 773.343 262.527 775.163C263.047 777.763 262.982 777.698 264.997 776.788C265.907 776.333 266.817 776.138 267.012 776.333C267.207 776.528 268.182 779.518 269.157 783.028C271.302 790.697 271.952 791.347 276.047 789.397C278.907 787.967 278.972 787.902 278.322 785.823C277.997 784.653 277.737 783.548 277.737 783.418C277.737 783.288 277.022 783.678 276.177 784.263C274.227 785.498 274.032 785.303 272.472 779.193C270.912 773.278 270.912 773.408 273.122 772.108C274.552 771.263 274.877 770.678 274.617 769.378C274.227 767.168 273.512 766.843 271.627 768.078C270.002 769.118 270.002 769.118 269.287 766.323C268.897 764.763 268.507 763.333 268.442 763.073C268.377 762.878 267.467 763.073 266.427 763.658Z" fill="black"/>
<path d="M253.688 768.469C252.778 770.094 253.428 773.344 254.728 773.864C257.068 774.774 258.823 772.044 257.978 768.729C257.458 766.649 254.728 766.454 253.688 768.469Z" fill="black"/>
<path d="M227.883 776.723C225.544 777.828 225.479 778.088 226.454 781.598L227.104 784.003L229.183 782.963C230.353 782.378 231.328 781.858 231.393 781.793C231.458 781.728 231.198 780.363 230.743 778.673L229.963 775.748L227.883 776.723Z" fill="black"/>
<path d="M257.133 776.333C256.288 776.723 255.638 777.308 255.638 777.633C255.638 778.283 259.993 796.092 260.513 797.522C260.772 798.172 261.227 798.172 262.722 797.262L264.542 796.157L261.877 785.888C260.448 780.168 259.083 775.553 258.888 775.618C258.693 775.618 257.913 775.943 257.133 776.333Z" fill="black"/>
<path d="M234.708 779.129C232.953 780.104 232.953 780.104 233.863 783.224C234.318 784.914 236.073 791.543 237.763 797.978C239.453 804.413 240.883 809.743 241.013 809.873C241.143 810.003 241.988 809.613 242.963 808.963C244.133 808.183 244.588 807.468 244.393 806.623C244.068 805.583 244.328 805.453 246.278 805.843C248.098 806.168 248.943 805.908 250.827 804.478C253.687 802.268 254.987 799.408 254.987 795.183C254.987 788.748 252.387 783.549 248.683 782.444C246.343 781.729 242.898 783.614 241.403 786.408L240.168 788.878L239.518 787.253C239.193 786.343 238.543 783.939 238.088 781.859C237.633 779.844 237.048 778.154 236.853 778.154C236.658 778.219 235.683 778.609 234.708 779.129ZM248.683 788.878C251.412 791.543 251.607 797.458 249.073 800.123C246.343 803.113 242.898 801.228 241.988 796.223C240.883 790.503 245.433 785.563 248.683 788.878Z" fill="black"/>
<path d="M290.281 783.418C283.391 787.448 282.871 788.163 284.106 791.283C284.496 792.193 285.666 791.673 291.776 788.033L298.926 783.678L298.406 781.533C298.081 780.428 297.626 779.453 297.366 779.453C297.106 779.518 293.921 781.273 290.281 783.418Z" fill="black"/>
<path d="M224.243 785.693C223.009 786.343 222.554 787.058 222.749 787.773C222.944 788.358 223.269 789.658 223.528 790.633C223.918 792.388 223.983 792.388 225.738 791.478C228.208 790.178 228.403 789.788 227.623 787.058C226.908 784.393 226.778 784.328 224.243 785.693Z" fill="black"/>
<path d="M310.17 787.188L308.61 788.423L312.12 802.397L315.695 816.437L317.515 815.462C318.49 814.942 319.335 814.357 319.335 814.097C319.335 812.992 312.575 786.863 312.185 786.408C311.925 786.148 311.015 786.473 310.17 787.188Z" fill="black"/>
<path d="M232.043 793.623C230.353 794.598 230.223 794.988 230.613 797.328C231.133 800.578 231.263 800.708 233.408 799.408C234.838 798.498 235.163 797.913 235.033 795.898C234.773 792.713 234.253 792.323 232.043 793.623Z" fill="black"/>
<path d="M221.319 793.947C219.954 794.597 219.824 794.987 220.149 797.262C220.734 800.837 221.059 801.097 223.204 799.797C225.219 798.627 225.284 798.302 224.699 795.117C224.244 792.972 223.724 792.777 221.319 793.947Z" fill="black"/>
<path d="M228.793 802.072C227.233 803.047 227.038 803.437 227.363 805.322C227.558 806.492 227.883 807.857 228.078 808.312C228.273 808.832 227.428 809.742 226.193 810.522C223.918 811.822 223.918 811.822 224.633 814.747L225.283 817.672L227.493 816.632C229.508 815.657 229.703 815.332 229.443 813.577C229.248 812.537 228.923 811.107 228.663 810.522C228.338 809.677 228.793 809.027 230.483 808.052C232.693 806.752 232.693 806.687 232.043 803.827C231.653 802.202 231.198 800.903 231.003 800.903C230.808 800.903 229.768 801.422 228.793 802.072Z" fill="black"/>
<path d="M284.236 802.137C283.261 803.957 283.456 806.492 284.561 807.402C286.771 809.222 289.371 805.842 288.201 802.657C287.421 800.577 285.276 800.317 284.236 802.137Z" fill="black"/>
<path d="M297.886 804.022C296.261 805.582 295.221 807.402 294.961 808.897C294.376 811.822 294.701 812.212 296.781 811.692C297.886 811.432 298.471 810.717 298.731 809.352C299.316 806.687 302.176 805.257 303.476 807.077C304.776 808.832 304.646 809.092 302.306 810.522C301.136 811.302 299.316 812.797 298.211 813.902C296.586 815.592 296.261 816.502 296.261 819.037C296.261 823.002 297.886 825.602 300.421 825.602C302.761 825.602 306.011 823.002 306.596 820.727C306.921 819.362 307.246 819.167 308.091 819.687C309.455 820.402 312.835 818.842 312.835 817.542C312.835 815.787 312.055 814.552 310.885 814.552C309.91 814.552 309.455 813.512 308.545 809.612C307.051 803.372 305.751 801.552 302.631 801.552C300.811 801.552 299.771 802.072 297.886 804.022ZM304.711 818.387C303.606 820.662 300.746 821.182 300.031 819.362C299.511 817.932 300.421 816.502 303.151 814.682L305.361 813.122L305.556 814.812C305.686 815.657 305.296 817.282 304.711 818.387Z" fill="black"/>
<path d="M287.096 810.392L285.666 811.367L288.136 821.117C289.501 826.511 290.801 831.061 290.996 831.256C291.191 831.451 292.036 831.191 292.946 830.606L294.506 829.566L292.556 821.897C288.981 807.597 289.501 808.702 287.096 810.392Z" fill="black"/>
<path d="M275.202 816.957C268.897 820.076 267.207 831.906 272.277 837.951C276.632 843.086 284.302 838.211 285.862 829.306C286.317 827.096 286.252 826.901 284.757 826.901C282.742 826.901 281.637 828.071 281.637 830.151C281.637 832.361 279.037 834.896 276.957 834.571C273.122 834.051 272.017 825.471 275.462 822.546C277.542 820.726 278.062 820.726 279.752 822.416L281.117 823.781L282.742 822.156C284.302 820.661 284.302 820.466 283.327 818.971C282.287 817.347 279.752 815.852 278.192 815.852C277.737 815.852 276.437 816.372 275.202 816.957Z" fill="black"/>
<path d="M257.977 827.551C251.738 829.436 248.618 838.601 251.608 846.336C253.752 851.925 259.277 853.095 263.502 848.806C266.297 846.076 267.337 843.281 267.337 838.796C267.272 831.126 263.112 826.056 257.977 827.551ZM261.877 834.376C263.502 836.846 263.827 841.461 262.527 843.411C260.187 847.051 257.067 847.116 255.377 843.541C254.077 840.811 254.077 837.821 255.312 835.351C256.872 832.296 260.187 831.776 261.877 834.376Z" fill="black"/>
<path d="M238.348 839.186C234.968 841.266 233.538 843.606 233.538 847.116C233.538 851.665 235.228 853.225 239.323 852.575C244.588 851.73 244.913 851.795 245.108 853.485C245.303 854.59 244.848 855.435 243.808 856.28C241.923 857.71 241.078 857.71 239.713 856.41C238.738 855.37 238.543 855.435 236.983 856.995C235.358 858.62 235.293 858.75 236.398 860.31C237.308 861.74 237.958 862 240.363 862C242.833 862 243.743 861.61 245.888 859.66C249.007 856.865 250.047 853.615 249.072 850.105C248.228 846.921 246.538 846.076 242.963 846.986C238.478 848.091 237.438 847.961 237.438 846.076C237.438 843.931 240.168 842.501 241.988 843.671C243.028 844.321 243.418 844.126 244.523 842.696C246.213 840.616 246.213 840.226 244.458 838.991C242.508 837.626 240.818 837.691 238.348 839.186Z" fill="black"/>
<defs>
<radialGradient id="paint0_radial_33_9258" cx="0" cy="0" r="1" gradientUnits="userSpaceOnUse" gradientTransform="translate(267.5 716.5) rotate(91.2775) scale(213.053 134.582)">
<stop stop-color="#FFF5ED"/>
<stop offset="1" stop-color="#FFB1B1"/>
</radialGradient>
</defs>
</svg>
