<svg width="939" height="959" viewBox="0 0 939 959" fill="none" xmlns="http://www.w3.org/2000/svg">
<path d="M275 915.5L94 815.5L64 648.5L528 351.5L791.5 481.5L825 608L275 915.5Z" fill="black" fill-opacity="0.04"/>
<path d="M512.074 123.674V584.151L501.422 577.573V123.674H512.074Z" fill="#A0591F"/>
<path d="M519.28 123.674V580.392L512.074 584.151V123.674H519.28Z" fill="#BF7232"/>
<path d="M268.639 860.439L273.966 857.306L216.318 677.188V716.657L268.639 860.439Z" fill="#BF7232"/>
<path d="M205.667 660.898L268.64 860.439L248.902 849.162L190.002 666.537L205.667 660.898Z" fill="#A0591F"/>
<path d="M186.242 812.824L192.508 809.379L294.331 738.584L272.4 742.969L186.242 812.824Z" fill="#BF7232"/>
<path d="M319.082 720.103L186.243 812.825L170.578 803.741L303.104 707.26L319.082 720.103Z" fill="#A0591F"/>
<path d="M229.164 768.97C229.164 771.163 230.731 773.669 232.297 774.609C233.864 775.548 235.43 774.609 235.43 772.416C235.43 770.223 233.864 767.717 232.297 766.464C230.731 765.524 229.164 766.777 229.164 768.97Z" fill="#D3D3D3"/>
<path d="M568.154 686.584L573.794 683.139L528.992 542.803H516.146L568.154 686.584Z" fill="#BF7232"/>
<path d="M505.495 487.045L568.155 686.585L548.73 674.995L489.83 492.37L505.495 487.045Z" fill="#A0591F"/>
<path d="M486.07 638.971L492.336 635.525L584.446 572.562L572.228 568.803L486.07 638.971Z" fill="#BF7232"/>
<path d="M618.908 545.936L486.069 638.971L470.404 629.887L602.617 533.406L618.908 545.936Z" fill="#A0591F"/>
<path d="M528.992 595.115C528.992 597.308 530.245 599.814 532.125 600.754C533.692 601.694 534.945 600.754 534.945 598.561C534.945 596.368 533.692 593.549 532.125 592.609C530.245 591.67 528.992 592.609 528.992 595.115Z" fill="#D3D3D3"/>
<path d="M176.217 696.609L535.885 487.985V473.262L176.217 681.886V696.609Z" fill="#823E0B"/>
<path d="M176.216 681.886L140.5 660.898V675.621L176.216 696.609V681.886Z" fill="#A0591F"/>
<path d="M535.885 473.262L500.168 451.961L140.5 660.899L176.216 681.886L535.885 473.262Z" fill="#DD9F62"/>
<path d="M219.766 721.355L579.434 512.731V498.008L219.766 706.632V721.355Z" fill="#823E0B"/>
<path d="M219.765 706.632L184.049 685.645V700.367L219.765 721.355V706.632Z" fill="#A0591F"/>
<path d="M579.433 498.007L543.717 477.02L184.049 685.644L219.765 706.632L579.433 498.007Z" fill="#DD9F62"/>
<path d="M262.688 746.728L622.356 538.104V523.381L262.688 732.005V746.728Z" fill="#823E0B"/>
<path d="M262.687 732.007L226.971 711.332V726.055L262.687 746.729V732.007Z" fill="#A0591F"/>
<path d="M622.355 523.382L586.639 502.395L226.971 711.332L262.687 732.007L622.355 523.382Z" fill="#DD9F62"/>
<path d="M305.922 771.476L665.59 562.852V548.129L305.922 756.753V771.476Z" fill="#823E0B"/>
<path d="M305.923 756.753L270.207 736.078V750.488L305.923 771.475V756.753Z" fill="#A0591F"/>
<path d="M665.592 548.128L629.875 527.141L270.207 736.078L305.923 756.753L665.592 548.128Z" fill="#DD9F62"/>
<path d="M198.773 563.79L255.167 530.586V616.416L198.773 649.621V563.79Z" fill="#5B371E"/>
<path d="M246.082 544.057V548.755L207.232 571.309V566.611L246.082 544.057Z" fill="white"/>
<path d="M226.656 575.382L248.274 562.852V567.55L226.656 580.08V575.382Z" fill="white"/>
<path d="M226.656 587.598L248.274 575.381V580.08L226.656 592.296V587.598Z" fill="white"/>
<path d="M226.656 600.128L248.274 587.598V592.296L226.656 604.826V600.128Z" fill="white"/>
<path d="M226.656 612.657L248.274 600.127V604.826L226.656 617.356V612.657Z" fill="white"/>
<path d="M207.232 587.283L222.584 578.199V582.898L207.232 591.982V587.283Z" fill="white"/>
<path d="M207.232 599.815L222.584 590.73V595.429L207.232 604.513V599.815Z" fill="white"/>
<path d="M207.232 612.031L222.584 603.26V607.645L207.232 616.73V612.031Z" fill="white"/>
<path d="M207.232 624.561L222.584 615.477V620.175L207.232 629.26V624.561Z" fill="white"/>
<path d="M298.09 591.044C299.343 591.044 300.283 590.104 300.283 588.851V547.189C300.283 546.249 299.343 544.996 298.09 544.996C297.15 544.996 295.896 546.249 295.896 547.189V588.851C295.896 590.104 297.15 591.044 298.09 591.044Z" fill="#FFCE55"/>
<path d="M286.498 521.815L309.996 508.346V546.249L286.498 559.719V521.815Z" fill="#5B371E"/>
<path d="M306.862 513.357V517.43L289.631 527.454V523.381L306.862 513.357Z" fill="white"/>
<path d="M281.799 587.911C281.799 592.923 289.005 597.309 298.09 597.309C307.489 597.309 314.695 592.923 314.695 587.911C314.695 582.899 307.489 578.514 298.09 578.514C289.005 578.514 281.799 582.899 281.799 587.911Z" fill="#FFCE55"/>
<path d="M424.351 668.416L309.996 602.007V578.514L424.351 644.923V668.416Z" fill="#5B371E"/>
<path d="M424.35 644.922L516.46 591.67V615.164L424.35 668.416V644.922Z" fill="#775135"/>
<path d="M402.418 528.707L510.507 591.044L492.962 601.068L402.418 548.755L333.806 588.538L316.574 578.514L402.418 528.707Z" fill="#775135"/>
<path d="M492.963 601.067L424.664 640.849L333.807 588.537L402.419 548.754L492.963 601.067Z" fill="#5B371E"/>
<path fill-rule="evenodd" clip-rule="evenodd" d="M402.106 524.947L516.461 591.67L424.351 644.922L309.996 578.513L402.106 524.947ZM424.977 640.536L493.277 601.067L510.508 591.043L402.42 528.706L316.575 578.513L334.12 588.537L424.977 640.536Z" fill="#AD7D5C"/>
<path d="M375.474 562.224C365.135 551.886 363.882 538.417 364.822 525.26C365.657 523.589 366.806 522.023 368.268 520.561C377.04 511.477 403.044 507.405 415.89 520.561C421.842 526.2 429.675 539.983 428.735 553.766C417.143 569.742 390.512 577.886 375.474 562.224Z" fill="#FFA143"/>
<path d="M374.536 569.117C361.378 559.093 357.618 538.105 364.824 525.262C363.884 538.418 365.137 551.888 375.476 562.225C390.515 577.888 417.145 569.743 428.737 553.767C428.737 556.273 428.319 558.675 427.484 560.972C419.338 584.779 389.575 580.394 374.536 569.117Z" fill="#F2690C"/>
<path d="M408.37 522.129C409.937 525.261 393.332 527.454 384.246 534.032C374.847 540.924 369.834 542.803 369.834 539.044C369.521 532.466 381.113 525.888 389.886 522.129C396.152 519.623 406.804 517.743 408.37 522.129Z" fill="#F2690C"/>
<path d="M416.517 534.032C417.77 537.164 401.478 539.044 392.393 545.935C382.994 552.827 377.981 554.706 377.981 550.634C377.668 544.369 389.26 537.478 398.032 534.032C404.298 531.213 414.95 529.646 416.517 534.032Z" fill="#F2690C"/>
<path d="M424.037 546.875C425.29 550.321 408.998 552.2 399.599 559.092C390.514 565.67 385.501 567.549 385.188 563.79C385.188 557.212 396.78 550.634 405.552 546.875C411.818 544.369 422.157 542.489 424.037 546.875Z" fill="#F2690C"/>
<path d="M337.88 587.284C327.541 576.947 326.288 563.79 327.228 550.321C328.272 548.65 329.421 547.084 330.674 545.622C339.76 536.851 365.451 532.465 378.609 545.622C384.249 551.574 392.394 565.357 391.455 578.826C379.549 594.802 353.232 602.947 337.88 587.284Z" fill="#FF8C1A"/>
<path d="M334.12 591.669C323.468 581.019 320.648 562.537 327.228 550.32C326.288 563.79 327.541 576.947 337.88 587.284C353.231 602.946 379.549 594.802 391.454 578.826C391.245 581.332 390.723 583.838 389.888 586.344C383.308 605.452 362.63 606.079 346.965 599.814C342.579 597.517 338.297 594.802 334.12 591.669Z" fill="#F2690C"/>
<path d="M371.088 547.503C372.341 550.635 356.049 552.514 346.65 559.406C337.251 566.297 332.238 568.177 332.238 564.105C332.238 557.84 343.83 550.948 352.603 547.503C358.869 544.683 369.208 543.117 371.088 547.503Z" fill="#F2690C"/>
<path d="M379.234 559.092C380.487 562.537 363.882 564.417 354.797 571.308C345.398 577.887 340.385 579.766 340.385 576.007C340.072 569.429 351.977 562.851 360.436 559.092C367.015 556.586 377.354 554.706 379.234 559.092Z" fill="#F2690C"/>
<path d="M386.441 572.249C388.007 575.381 371.402 577.261 362.316 584.152C352.917 591.044 347.905 592.923 347.905 588.851C347.591 582.586 359.183 575.694 367.956 572.249C374.222 569.429 384.874 567.863 386.441 572.249Z" fill="#F2690C"/>
<path d="M407.745 589.163C397.407 578.513 396.153 565.356 397.093 552.2C398.138 550.32 399.286 548.754 400.54 547.501C409.312 538.417 435.316 534.344 448.161 547.501C454.114 553.139 461.946 566.922 461.006 580.705C449.414 596.368 423.097 604.512 407.745 589.163Z" fill="#FF8C1A"/>
<path d="M406.806 595.743C393.647 586.032 389.888 565.044 397.093 552.201C396.154 565.358 397.407 578.514 407.746 589.165C423.097 604.514 449.415 596.369 461.007 580.707C461.007 583.213 460.589 585.614 459.753 587.912C451.608 611.719 421.844 607.02 406.806 595.743Z" fill="#F2690C"/>
<path d="M440.642 549.067C442.208 552.199 425.603 554.079 416.517 560.97C407.118 567.862 402.106 569.741 402.106 565.982C401.792 559.404 413.698 552.513 422.157 549.067C428.736 546.248 439.075 544.681 440.642 549.067Z" fill="#F2690C"/>
<path d="M448.788 560.659C450.355 564.105 433.75 565.984 424.664 572.876C415.265 579.767 410.252 581.647 410.252 577.575C409.939 570.996 421.531 564.418 430.303 560.659C436.569 558.153 447.222 556.587 448.788 560.659Z" fill="#F2690C"/>
<path d="M456.306 573.815C457.559 576.948 441.268 579.14 431.869 585.718C422.783 592.61 417.77 594.489 417.457 590.73C417.457 584.152 429.049 577.261 437.822 573.815C444.088 570.996 454.74 569.43 456.306 573.815Z" fill="#F2690C"/>
<path d="M389.259 622.681C381.531 618.296 373.908 614.015 366.389 609.838C359.496 600.127 358.869 588.85 359.496 577.26C360.54 575.589 361.689 574.023 362.942 572.561C372.028 563.477 397.719 559.405 410.877 572.561C416.517 578.513 424.662 592.296 423.722 605.766C415.89 616.103 402.105 622.995 389.259 622.681Z" fill="#FFA143"/>
<path d="M366.388 609.838C363.882 608.376 361.375 606.914 358.869 605.452C358.66 605.243 358.451 605.035 358.242 604.826C354.796 595.428 355.109 585.091 359.496 577.26C358.869 588.85 359.496 600.127 366.388 609.838Z" fill="#F2690C"/>
<path d="M402.732 629.886C402.105 629.468 401.583 629.155 401.165 628.946C397.197 626.858 393.228 624.769 389.26 622.681C402.105 622.994 415.89 616.103 423.723 605.766C423.514 608.272 422.992 610.778 422.156 613.284C418.71 623.308 411.191 628.32 402.732 629.886Z" fill="#F2690C"/>
<path d="M403.359 574.128C404.612 577.574 388.321 579.453 378.922 586.345C369.836 592.923 364.823 595.116 364.51 591.043C364.51 584.465 376.102 577.887 384.874 574.128C391.14 571.622 401.479 570.056 403.359 574.128Z" fill="#F2690C"/>
<path d="M411.505 586.032C412.759 589.164 396.467 591.044 387.068 597.935C377.669 604.827 372.656 606.706 372.656 602.947C372.656 596.369 384.248 589.478 393.021 586.032C399.287 583.213 409.626 581.646 411.505 586.032Z" fill="#F2690C"/>
<path d="M418.71 598.874C420.277 602.32 403.672 604.199 394.586 611.091C385.187 617.982 380.174 619.862 380.174 615.789C379.861 609.211 391.453 602.633 400.225 598.874C406.491 596.368 417.144 594.802 418.71 598.874Z" fill="#F2690C"/>
<path d="M465.078 620.488C457.558 620.488 450.039 617.982 444.4 612.03C434.061 601.693 432.808 588.536 433.748 575.067C434.583 573.396 435.732 571.83 437.194 570.368C445.966 561.597 471.97 557.211 484.815 570.368C490.142 575.693 497.347 587.91 497.661 600.44C486.382 605.765 476.043 613.91 465.078 620.488Z" fill="#FFA143"/>
<path d="M459.439 623.622C458.395 624.249 457.246 624.875 455.993 625.502C451.293 623.935 446.907 621.743 443.461 618.923C430.302 608.899 426.229 588.225 433.748 575.068C432.808 588.538 434.062 601.695 444.401 612.032C450.04 617.984 457.559 620.49 465.078 620.49C463.407 621.534 461.528 622.578 459.439 623.622Z" fill="#F2690C"/>
<path d="M477.298 572.249C478.864 575.381 462.26 577.261 453.174 584.152C443.775 591.044 438.762 592.923 438.762 588.851C438.449 582.586 450.041 575.694 458.813 572.249C465.079 569.429 475.731 567.863 477.298 572.249Z" fill="#F2690C"/>
<path d="M485.444 583.838C486.698 587.283 470.406 589.163 461.007 596.054C451.921 602.633 446.909 604.512 446.909 600.753C446.595 594.175 458.187 587.597 466.96 583.838C473.226 581.332 483.878 579.452 485.444 583.838Z" fill="#F2690C"/>
<path d="M492.962 596.995C494.216 600.127 477.924 602.007 468.525 608.898C459.439 615.79 454.427 617.669 454.113 613.597C454.113 607.332 465.705 600.44 474.478 596.995C480.744 594.175 491.083 592.609 492.962 596.995Z" fill="#F2690C"/>
<path d="M396.152 600.442C397.196 598.771 398.345 597.205 399.598 595.743C408.37 586.659 434.374 582.587 447.22 595.743C452.232 600.755 459.125 611.719 460.065 623.309C459.856 623.518 459.647 623.622 459.438 623.622C448.159 629.574 435.941 635.526 424.662 642.417C416.829 637.719 409.31 633.02 401.164 628.948C400.956 628.739 400.642 628.53 400.225 628.321C395.838 619.863 395.525 610.153 396.152 600.442Z" fill="#FF8C1A"/>
<path d="M400.225 628.321C398.136 627.276 395.943 626.128 393.646 624.875C391.453 616.417 392.392 607.333 396.152 600.441C395.525 610.152 395.839 619.863 400.225 628.321Z" fill="#F2690C"/>
<path d="M440.015 597.308C441.269 600.441 424.664 602.634 415.578 609.212C406.179 616.103 401.166 617.983 401.166 614.224C400.853 607.646 412.758 601.067 421.217 597.308C427.797 594.802 438.136 592.923 440.015 597.308Z" fill="#F2690C"/>
<path d="M447.847 609.212C449.413 612.344 432.808 614.224 423.723 621.115C414.324 628.007 409.311 629.886 409.311 625.814C408.997 619.549 420.903 612.657 429.362 609.212C435.941 606.392 446.28 604.826 447.847 609.212Z" fill="#F2690C"/>
<path d="M431.242 634.271C426.856 637.195 423.514 639.179 421.216 640.223C419.754 639.388 418.292 638.552 416.83 637.717C418.083 631.452 428.736 625.5 436.881 622.055C443.147 619.549 453.799 617.669 455.366 622.055C456.619 625.5 440.328 627.38 431.242 634.271Z" fill="#F2690C"/>
<path d="M322.215 571.621C322.633 572.456 323.155 573.396 323.781 574.44L316.575 578.513L333.807 588.537L424.664 640.849L492.963 601.067L510.508 591.043L497.036 583.211C496.827 582.167 496.618 581.019 496.41 579.766L516.461 591.669L424.351 644.922L309.996 578.513L322.215 571.621Z" fill="#AD7D5C"/>
<path d="M301.222 740.151L186.555 673.742V650.248L301.222 716.657V740.151Z" fill="#5B371E"/>
<path d="M301.223 716.658L393.333 663.092V686.899L301.223 740.151V716.658Z" fill="#775135"/>
<path d="M278.978 600.441L387.067 662.778L369.835 672.802L278.978 620.489L210.679 660.272L193.447 650.248L278.978 600.441Z" fill="#775135"/>
<path d="M369.836 672.801L301.537 712.584L210.68 660.271L278.979 620.488L369.836 672.801Z" fill="#5B371E"/>
<path d="M278.353 651.187C268.641 648.994 262.688 645.548 258.302 636.151C257.675 634.689 257.048 633.227 256.422 631.765C257.675 624.56 263.628 617.669 278.04 613.283C287.752 610.151 311.563 617.982 314.382 636.464C309.056 650.873 292.765 654.319 278.353 651.187Z" fill="#FFA143"/>
<path d="M314.695 643.356C312.188 663.091 278.039 662.464 266.76 653.693C260.494 648.994 254.854 640.223 256.421 631.766C257.047 633.227 257.674 634.689 258.301 636.151C262.687 645.549 268.64 648.994 278.352 651.187C292.764 654.32 309.055 650.874 314.381 636.464C314.695 638.657 315.008 640.85 314.695 643.356Z" fill="#F47B19"/>
<path d="M283.364 621.741C294.016 621.115 304.041 629.259 304.041 629.259C304.041 629.259 293.076 627.067 284.617 626.44C278.037 626.127 266.445 628.633 266.445 628.633C266.445 628.633 273.965 622.055 283.364 621.741Z" fill="#F47B19"/>
<path d="M288.691 616.104C288.691 616.104 285.558 625.814 283.991 631.766C282.738 637.405 281.485 640.85 281.485 640.85C281.485 640.85 280.545 633.019 282.425 625.814C283.991 618.923 288.691 616.104 288.691 616.104Z" fill="#F47B19"/>
<path d="M236.057 675.621C235.117 674.995 232.61 674.368 231.67 673.742C226.344 669.983 213.186 664.031 212.246 662.465C211.619 660.898 212.872 654.32 212.872 653.38C215.065 647.115 221.331 641.477 234.177 637.405C243.889 634.272 267.387 642.103 270.52 660.585C265.193 674.368 250.155 678.127 236.057 675.621Z" fill="#FFA143"/>
<path d="M247.962 683.451C243.994 680.945 240.025 678.335 236.057 675.62C250.155 678.126 265.194 674.367 270.52 660.584C270.833 662.777 270.833 664.969 270.52 667.475C269.266 677.813 258.928 682.825 247.962 683.451Z" fill="#F47B19"/>
<path d="M239.502 645.863C250.154 645.236 259.867 653.38 259.867 653.38C259.867 653.38 249.214 651.188 240.442 650.561C234.176 650.248 222.584 652.754 222.584 652.754C222.584 652.754 229.79 646.176 239.502 645.863Z" fill="#F47B19"/>
<path d="M244.515 640.225C244.515 640.225 241.696 649.935 240.129 655.887C238.563 661.526 237.309 664.971 237.309 664.971C237.309 664.971 236.683 657.14 238.249 649.935C240.129 643.044 244.515 640.225 244.515 640.225Z" fill="#F47B19"/>
<path d="M324.408 681.26C314.695 679.068 308.743 675.622 304.356 665.911C303.521 664.658 302.894 663.196 302.477 661.526C303.73 654.634 309.682 647.743 324.094 643.044C333.807 639.911 357.617 648.056 360.437 666.538C355.111 680.634 338.819 684.393 324.408 681.26Z" fill="#FFA143"/>
<path d="M360.749 673.116C358.243 693.164 324.093 692.537 312.814 683.766C306.548 678.754 300.909 670.296 302.475 661.525C302.893 663.196 303.52 664.658 304.355 665.911C308.742 675.622 314.694 679.067 324.406 681.26C338.818 684.393 355.11 680.634 360.436 666.537C360.749 668.417 360.749 670.923 360.749 673.116Z" fill="#F47B19"/>
<path d="M329.42 651.5C340.072 650.873 349.785 659.331 349.785 659.331C349.785 659.331 339.132 657.138 330.36 656.512C324.094 655.885 312.502 658.391 312.502 658.391C312.502 658.391 320.021 652.126 329.42 651.5Z" fill="#F47B19"/>
<path d="M334.746 646.176C334.746 646.176 331.613 655.887 330.046 661.525C328.793 667.477 327.54 670.923 327.54 670.923C327.54 670.923 326.6 662.778 328.48 655.887C330.046 648.682 334.746 646.176 334.746 646.176Z" fill="#F47B19"/>
<path d="M288.064 706.319C283.991 703.5 280.232 700.681 275.846 698.488C270.833 695.669 265.82 693.476 260.494 690.97C260.494 690.761 260.389 690.448 260.181 690.03C259.554 688.777 258.927 687.315 258.301 685.645C259.554 678.753 265.507 671.862 280.232 667.163C289.944 664.03 313.442 672.175 316.261 690.657C311.875 702.247 299.97 706.946 288.064 706.319Z" fill="#FFA143"/>
<path d="M288.064 706.319C299.97 706.945 311.875 702.247 316.261 690.656C316.575 692.536 316.888 695.042 316.575 697.235C315.322 706.945 307.176 711.644 297.463 713.21C294.122 710.913 290.989 708.616 288.064 706.319Z" fill="#F47B19"/>
<path d="M285.559 675.621C296.211 674.995 305.923 683.452 305.923 683.452C305.923 683.452 295.271 681.26 286.499 680.633C279.919 680.007 268.641 682.513 268.641 682.513C268.641 682.513 275.847 676.248 285.559 675.621Z" fill="#F47B19"/>
<path d="M290.57 670.295C290.57 670.295 287.75 680.006 286.184 685.644C284.617 691.596 283.364 695.042 283.364 695.042C283.364 695.042 282.424 686.897 284.304 680.006C286.184 672.801 290.57 670.295 290.57 670.295Z" fill="#F47B19"/>
<path fill-rule="evenodd" clip-rule="evenodd" d="M278.665 596.682L393.333 663.091L301.222 716.656L186.555 650.247L278.665 596.682ZM301.536 712.271L369.835 672.801L387.067 662.777L278.978 600.441L193.447 650.247L210.679 660.271L301.536 712.271Z" fill="#AD7D5C"/>
<path d="M311.874 423.14L303.102 428.152L303.415 417.502L311.874 423.14Z" fill="#BF7232"/>
<path d="M150.839 323.215V793.403L140.5 786.825V323.215H150.839Z" fill="#A0591F"/>
<path d="M158.359 323.215V789.644L150.84 793.403V323.215H158.359Z" fill="#BF7232"/>
<path d="M684.702 198.541C684.702 198.541 687.521 226.42 666.844 240.83C645.852 255.239 637.08 226.107 637.08 226.107L684.702 198.541Z" fill="#FFA143"/>
<path d="M637.081 226.107C637.081 226.107 639.9 253.987 618.909 268.396C598.231 282.806 589.459 253.673 589.459 253.673L637.081 226.107Z" fill="#FFA143"/>
<path d="M589.145 253.674C589.145 253.674 591.965 281.553 571.287 295.963C550.296 310.372 541.523 281.24 541.523 281.24L589.145 253.674Z" fill="#FFA143"/>
<path d="M541.525 281.238C541.525 281.238 544.031 309.118 523.353 323.527C502.362 337.937 493.59 308.804 493.59 308.804L541.525 281.238Z" fill="#FFA143"/>
<path d="M493.59 309.119C493.59 309.119 496.41 336.685 475.419 351.095C454.741 365.817 445.969 336.685 445.969 336.685L493.59 309.119Z" fill="#FFA143"/>
<path d="M445.655 336.684C445.655 336.684 448.475 364.563 427.797 378.972C406.806 393.382 398.033 364.25 398.033 364.25L445.655 336.684Z" fill="#FFA143"/>
<path d="M398.033 364.25C398.033 364.25 400.852 392.129 379.861 406.539C359.183 420.948 350.098 391.816 350.098 391.816L398.033 364.25Z" fill="#FFA143"/>
<path d="M350.098 391.816C350.098 391.816 352.918 419.696 331.927 434.105C311.249 448.515 302.477 419.382 302.477 419.382L350.098 391.816Z" fill="#FFA143"/>
<path d="M521.159 103L684.702 198.541L303.416 419.069L140.5 323.528L521.159 103Z" fill="#FFCE55"/>
<path d="M303.416 419.069L303.103 428.153L140.5 332.612V323.527L303.416 419.069Z" fill="#A0591F"/>
<path d="M634.888 227.36L639.274 224.855L476.044 129L471.658 131.506L634.888 227.36Z" fill="white"/>
<path d="M587.579 254.927L592.278 252.421L429.049 156.566L424.35 159.386L587.579 254.927Z" fill="white"/>
<path d="M539.644 282.491L544.03 279.985L380.801 184.131L376.102 186.95L539.644 282.491Z" fill="white"/>
<path d="M491.396 310.371L496.096 307.552L333.18 211.697L328.48 214.516L491.396 310.371Z" fill="white"/>
<path d="M443.775 337.937L448.475 335.431L285.246 239.576L280.859 242.395L443.775 337.937Z" fill="white"/>
<path d="M395.84 365.818L400.226 363.311L237.31 267.457L232.924 269.963L395.84 365.818Z" fill="white"/>
<path d="M347.904 393.382L352.604 390.876L189.374 295.021L184.988 297.527L347.904 393.382Z" fill="white"/>
<path d="M482.623 486.731C483.876 486.731 484.816 485.792 484.816 484.539V442.876C484.816 441.623 483.876 440.684 482.623 440.684C481.37 440.684 480.43 441.623 480.43 442.876V484.539C480.43 485.792 481.37 486.731 482.623 486.731Z" fill="#FFCE55"/>
<path d="M471.031 417.503L494.529 404.033V441.936L471.031 455.406V417.503Z" fill="#5B371E"/>
<path d="M491.396 409.045V413.117L474.164 423.141V419.069L491.396 409.045Z" fill="white"/>
<path d="M466.02 483.599C466.02 488.611 473.539 492.996 482.624 492.996C491.71 492.996 499.229 488.611 499.229 483.599C499.229 478.273 491.71 474.201 482.624 474.201C473.539 474.201 466.02 478.273 466.02 483.599Z" fill="#FFCE55"/>
<path d="M680.5 649.5L700.5 497L735.5 618.5L680.5 649.5Z" fill="#DD9F62"/>
<path d="M816.5 431L700 495.5L749 683.5L859.5 612.5L816.5 431Z" fill="black"/>
<path d="M730.5 552L749 508H760C763.667 509.5 773.4 510.7 783 503.5C787.909 499.818 792.979 488.264 793.004 488.002L793 488C793.003 487.997 793.004 487.998 793.004 488.002L833.5 517.5L827 544L814 540L829.5 585.5L774.5 616.5L760 558L755.5 568L730.5 552Z" fill="#D9D9D9"/>
<path d="M784.137 522.274C780.51 524.984 776.041 532.38 774.041 539.014C771.131 548.558 771.395 559.091 774.695 566.365C777.05 571.523 779.692 573.835 784.053 574.669C786.556 575.142 791.403 573.282 794.146 570.789C802.009 563.552 806.651 548.315 804.899 535.236C803.91 527.956 800.805 522.315 796.61 520.396C794.44 519.373 791.746 518.886 791.34 519.373C791.206 519.612 790.895 519.645 790.64 519.47C790.097 519.041 786.109 520.74 784.137 522.274ZM787.854 531.046C787.895 531.261 788.072 532.161 788.289 533.044C788.588 534.59 788.643 534.613 789.439 534.062C789.908 533.734 790.895 533.429 791.589 533.427C792.863 533.376 792.895 533.456 793.666 535.829C794.124 537.309 794.286 538.632 794.08 539.27C793.613 540.522 793.974 541.533 794.898 541.53C796.038 541.488 797.161 544.967 796.945 547.876C796.79 549.788 796.394 550.873 795.322 552.23C793.201 554.888 792.504 556.834 793.065 558.227C793.386 559.023 793.308 559.748 792.911 560.371C791.919 561.927 791.584 561.784 791.053 559.777C790.691 558.304 790.451 557.938 790.053 558.099C789.496 558.323 789.406 560.626 789.919 561.899C790.175 562.536 789.469 563.884 788.753 564.173C788.594 564.237 788.233 563.457 787.912 562.43C787.254 560.336 786.823 560.186 785.337 561.663C784.065 562.869 783.786 562.75 783.574 560.847C783.436 559.931 783.721 559.03 784.317 558.327C784.826 557.752 785.182 556.915 785.157 556.509C784.864 553.713 782.786 544.188 782.395 544.022C782.172 543.927 781.574 543.936 781.104 544.033C779.384 544.356 779.894 540.912 781.645 540.207C782.6 539.822 783.296 537.415 782.815 536.221C782.414 535.226 783.023 533.176 783.819 532.856C784.097 532.744 784.434 533.348 784.796 534.822C785.302 536.884 785.334 536.964 785.994 536.189C786.383 535.662 786.493 535.017 786.205 534.3C785.644 532.907 786.093 530.922 787.009 530.785C787.439 530.704 787.758 530.807 787.854 531.046Z" fill="#FF8E02"/>
<path d="M786.474 540.484C786.046 541.489 786.549 545.033 787.107 545.271C787.275 545.342 787.903 544.95 788.563 544.407C790.424 542.825 790.937 540.768 789.92 538.818C789.536 538.094 786.974 539.311 786.474 540.484Z" fill="#FF8E02"/>
<path d="M788.452 548.153C787.991 548.616 787.659 549.398 787.732 549.923C788.047 551.97 788.851 554.885 789.09 554.788C789.249 554.724 790.067 553.886 790.878 552.912C792.761 550.812 793.457 548.635 792.753 547.346C792.281 546.518 791.978 546.455 790.792 546.841C790.02 547.105 788.969 547.713 788.452 548.153Z" fill="#FF8E02"/>
<path d="M456.5 549.225L462 514.725L484.5 504.725C489 504.891 499.4 505.225 505 505.225C510.6 505.225 511 495.558 510.5 490.725L523.5 484.225H555L573.5 495.225L569 508.725H551.5L620 552.225L562 591.225L492.5 542.225L487 557.725L456.5 549.225Z" fill="white"/>
<path d="M478.767 559.599L481.328 524.757L502.902 512.89C507.399 512.675 517.79 512.127 523.37 511.654C528.95 511.18 528.531 501.514 527.624 496.74L540.027 489.164L571.414 486.499L590.779 495.894L587.437 509.727L570 511.207L641.934 548.756L587.442 592.523L514.045 549.578L509.876 565.488L478.767 559.599Z" fill="#FF8E02"/>
<g style="mix-blend-mode:multiply">
<path d="M573.5 479.699L610.3 500.899L620.6 500.799L681.5 467.5L631.5 443.5L573.5 479.699Z" fill="black" fill-opacity="0.11"/>
</g>
<path d="M657.4 479.6L620.6 500.8V460.6L657.4 439.4V479.6Z" fill="#C99A6B"/>
<path d="M583.6 479.4L620.6 500.8V460.6L583.6 439.2V479.4Z" fill="#AE835B"/>
<path d="M657.4 439.4L620.6 460.6L583.6 439.2L620.4 418L657.4 439.4Z" fill="#E8B687"/>
<path d="M641.201 466.4L636.801 468.9V451.3L641.201 448.7V466.4Z" fill="#F59200"/>
<path d="M641.201 448.7L636.801 451.3L599.801 429.9L604.201 427.4L641.201 448.7Z" fill="#FFAE00"/>
</svg>
