<svg width="699" height="1759" viewBox="0 0 699 1759" fill="none" xmlns="http://www.w3.org/2000/svg">
<g clip-path="url(#clip0_53_2133)">
<path d="M380.586 1479.27C379.79 1475.29 394.11 1478.47 381.381 1468.13C276.368 1448.24 120.439 1469.72 53.6124 1565.19C15.4257 1620.08 42.4747 1677.36 104.528 1695.66C175.332 1715.55 259.661 1667.02 323.306 1642.36C415.59 1604.97 457.755 1627.24 552.426 1627.24C611.297 1627.24 651.87 1608.15 693.239 1573.14C742.564 1530.18 756.088 1489.61 691.648 1454.61C596.977 1403.69 474.461 1462.56 375.017 1467.34C346.377 1468.13 316.941 1467.34 288.301 1467.34L380.586 1479.27Z" fill="black" fill-opacity="0.17"/>
<path d="M182.293 919.71C191.044 910.163 195.817 899.821 202.977 888.683C206.955 883.91 209.342 878.341 214.91 875.954C237.982 863.225 258.666 900.616 253.893 909.368C253.893 910.959 253.893 912.815 253.893 914.936C254.688 925.279 253.893 932.439 249.915 941.985C244.346 953.919 237.186 965.056 233.208 977.785C231.617 986.536 230.026 994.492 225.253 1003.24C223.662 1006.43 220.479 1011.99 214.91 1010.4C211.728 1009.61 210.933 1007.22 210.933 1004.04C210.933 1004.04 210.933 1004.3 210.933 1004.83C210.137 1008.02 209.342 1019.95 201.386 1018.36C199.265 1018.36 197.939 1017.83 197.408 1016.77C196.613 1020.75 195.022 1023.93 191.839 1025.52C186.27 1025.52 183.088 1019.15 182.293 1012.79C181.232 1013.32 179.906 1013.05 178.315 1011.99C172.746 1010.4 173.541 1004.04 172.746 999.265C171.155 993.696 167.973 986.536 168.768 980.172C169.564 974.603 171.95 968.239 173.542 961.874C173.542 957.896 172.746 954.714 171.95 949.145C170.359 937.212 174.337 928.461 182.293 919.71Z" fill="#FCCB95"/>
<path d="M226.844 1524.33C226.844 1524.33 259.462 1558.54 251.506 1593.54C249.119 1602.29 223.661 1626.16 216.501 1626.96C209.341 1627.75 206.159 1628.55 200.59 1636.5C194.226 1643.66 196.613 1646.85 187.066 1656.39C177.519 1666.73 131.377 1695.37 90.0082 1674.69C90.0082 1674.69 86.0303 1658.78 86.8259 1653.21C88.417 1647.64 110.693 1621.39 122.626 1613.43C133.764 1605.48 161.608 1564.11 163.199 1556.15C165.586 1548.2 176.724 1541.04 176.724 1541.04C176.724 1541.04 195.817 1510.01 226.844 1524.33Z" fill="#1E160D"/>
<path d="M650.875 1424.09C650.875 1424.09 687.47 1453.53 684.288 1490.12C683.493 1498.08 661.217 1525.13 654.057 1526.72C646.897 1529.1 643.715 1530.69 638.941 1538.65C634.964 1547.4 636.555 1548.99 628.599 1560.13C620.644 1571.27 578.479 1606.27 534.724 1591.16C534.724 1591.16 528.359 1576.04 529.155 1570.47C529.95 1564.9 548.248 1536.26 558.59 1526.72C568.933 1517.17 591.208 1471.82 592.004 1463.87C592.799 1455.91 603.937 1447.96 603.937 1447.96C603.937 1447.96 618.257 1413.75 650.875 1424.09Z" fill="#1E160D"/>
<path d="M401.071 991.309C382.773 1029.5 375.613 1071.66 360.497 1111.44C342.2 1158.38 337.426 1218.04 303.217 1257.02C292.875 1268.96 265.826 1286.46 238.777 1276.91C223.662 1271.34 196.613 1259.41 195.817 1248.27C195.817 1229.18 197.408 1214.86 200.591 1204.52C206.16 1186.22 234.8 1073.25 242.755 1036.66C249.12 1006.42 254.688 988.126 263.44 955.509C263.44 955.509 262.644 917.322 331.857 945.962C400.275 973.806 403.457 985.74 401.071 991.309Z" fill="#E3F6FF"/>
<path d="M310.377 1286.46C311.173 1258.62 318.333 1237.93 322.311 1208.5C326.288 1187.02 206.955 1190.99 195.817 1243.5C195.817 1243.5 181.497 1452.73 155.244 1514.78L152.062 1525.92C152.062 1525.92 146.493 1534.67 152.857 1543.42C153.653 1543.42 163.2 1554.56 176.724 1560.93C196.613 1568.88 223.662 1571.27 240.368 1558.54C281.737 1527.51 308.786 1377.95 310.377 1286.46Z" fill="#E3F6FF"/>
<path d="M488.582 999.265C487.787 1041.43 503.698 1084.39 506.085 1127.35C509.267 1177.47 529.156 1233.95 514.04 1284.07C510.062 1298.39 491.764 1325.44 463.124 1327.83C447.213 1329.42 420.96 1327.03 412.209 1319.08C409.822 1316.69 404.253 1312.71 401.071 1303.17C386.751 1257.02 374.818 1137.69 368.453 1107.46C362.089 1077.23 356.52 1050.18 342.2 1021.54C342.2 1021.54 335.04 981.763 409.027 974.603C471.08 968.238 488.582 992.901 488.582 999.265Z" fill="white"/>
<path d="M479.831 1211.68C458.351 1194.97 372.431 1274.53 408.231 1315.1C408.231 1315.1 535.52 1415.34 570.524 1473.41L576.093 1482.96C576.093 1482.96 580.867 1492.51 591.209 1492.51C592.004 1491.71 606.324 1490.92 619.053 1483.76C637.351 1473.41 656.444 1452.73 655.649 1431.25C655.649 1380.33 552.227 1268.16 479.831 1211.68Z" fill="white"/>
<path d="M319.128 506.02C295.262 588.758 300.035 791.624 270.599 783.669C259.461 780.487 237.981 801.171 236.39 739.913C234.004 668.313 206.955 518.749 221.275 467.038C245.141 383.504 269.804 374.753 298.444 383.504C327.879 391.46 342.199 423.282 319.128 506.02Z" fill="#FCCB95"/>
<path d="M276.169 381.117C276.169 381.117 230.027 388.277 217.298 478.97C209.342 529.09 211.729 545.002 213.32 548.184C214.911 550.571 213.32 564.89 253.893 573.642L276.169 381.117Z" fill="#0C047A"/>
<path d="M319.129 757.414C292.875 832.197 237.982 982.557 213.32 973.01C203.773 969.032 172.746 966.645 184.68 945.165C207.751 905.388 205.364 844.925 213.32 767.757C216.502 739.912 235.595 717.637 231.617 682.632C230.026 664.334 283.329 709.681 308.786 719.228C334.244 728.774 337.426 705.703 319.129 757.414Z" fill="#FCCB95"/>
<path d="M405.049 420.1C412.209 420.896 484.604 457.491 517.222 494.087C540.293 521.135 543.475 583.984 543.475 592.736C541.884 619.784 505.289 784.464 498.924 821.06C493.355 857.655 498.129 898.229 498.129 922.891C498.129 945.962 505.289 1014.38 502.902 1025.52C495.742 1062.11 399.48 1054.95 381.182 1053.36C321.515 1050.18 247.529 1004.83 253.097 976.193C271.395 892.66 264.235 650.016 257.075 619.784C249.12 590.349 212.524 432.829 257.871 392.256C269.804 381.913 272.191 380.322 286.511 381.118C337.426 383.504 397.093 417.713 405.049 420.1Z" fill="#221096"/>
<path d="M412.208 331.793C412.208 355.66 408.231 367.593 411.413 396.233C413.004 405.78 416.982 416.917 416.982 429.646C416.982 451.922 393.115 460.673 381.182 467.037C370.044 472.606 325.493 457.491 327.879 442.375C330.266 430.442 327.879 412.144 331.857 399.415C336.631 385.891 349.359 378.731 349.359 364.411L412.208 331.793Z" fill="#FCCB95"/>
<path d="M277.759 254.624C280.146 267.353 275.373 280.082 274.577 293.606C273.781 302.357 272.986 305.539 277.759 312.699C284.124 323.837 284.124 335.77 282.533 347.704C280.941 362.819 287.306 377.139 292.875 391.459C297.648 401.801 300.83 415.326 311.968 420.895C339.017 434.419 365.27 412.939 389.933 401.006C413.799 389.073 405.844 352.477 410.617 330.202C420.164 291.219 403.457 239.508 359.701 227.575C339.813 222.801 308.786 222.802 290.488 232.348C284.124 235.53 272.986 252.237 280.146 258.602L277.759 254.624Z" fill="#FED8A7"/>
<path d="M410.617 179.047C382.773 159.953 335.039 173.478 296.853 197.344C277.759 209.278 276.964 237.918 276.964 237.918C272.986 245.873 296.853 259.398 303.217 261.784C315.151 266.558 327.879 266.558 340.608 265.762C348.564 264.967 357.315 263.376 364.475 261.784C369.248 260.989 377.204 257.807 381.977 257.807C393.911 257.011 396.297 273.718 399.479 282.469C402.662 290.424 405.844 296.789 407.435 305.54C408.231 308.722 407.435 353.273 413.799 354.069C422.551 354.069 451.191 309.518 450.395 287.242C449.599 272.127 459.146 212.46 410.617 179.047Z" fill="#B59A43"/>
<path d="M430.506 324.634C426.528 339.75 418.572 350.092 412.208 348.501C405.844 346.91 397.092 334.181 401.07 319.065C405.048 304.745 419.368 293.607 425.732 295.198C432.097 296.79 434.484 310.314 430.506 324.634Z" fill="#FED8A7"/>
<path d="M562.568 973.012C564.955 963.466 529.951 938.008 521.995 949.146C514.04 957.897 480.626 1018.36 479.035 1020.75C475.853 1025.52 474.262 1028.7 471.875 1033.47C467.897 1040.63 468.693 1050.18 469.488 1058.14C470.284 1065.3 467.897 1072.46 470.284 1079.62C471.08 1085.19 474.262 1089.96 475.853 1095.53C475.853 1100.3 477.444 1104.28 477.444 1109.05C477.444 1111.44 479.035 1114.62 479.831 1116.21C482.217 1116.21 486.195 1115.42 487.786 1112.23C490.173 1113.83 487.786 1113.83 489.377 1117.01C490.173 1118.6 490.968 1122.58 493.355 1121.78C500.515 1119.39 500.515 1110.64 500.515 1110.64C500.515 1112.23 500.515 1113.83 501.311 1115.42C510.062 1113.83 511.653 1107.46 512.448 1103.48C513.244 1099.51 512.448 1085.19 513.244 1081.21C514.04 1072.46 518.017 1065.3 521.995 1058.14C521.465 1061.85 521.2 1066.09 521.2 1070.87C520.404 1082 513.244 1085.98 521.995 1093.94C541.088 1079.62 535.52 1057.34 541.884 1035.86C557 1023.13 557 988.923 562.568 973.012Z" fill="#FED8A7"/>
<path d="M471.079 648.425C471.079 648.425 477.444 682.634 488.581 718.434C498.924 749.461 513.244 780.487 512.448 805.15C507.675 885.501 515.63 976.194 507.675 992.105C492.559 1023.93 529.155 996.879 537.906 993.696C568.933 983.354 584.048 908.572 588.821 816.287C593.595 731.959 568.932 680.247 566.546 624.559L471.079 648.425Z" fill="#FED8A7"/>
<path d="M472.671 494.881C472.671 494.881 448.804 500.45 449.6 541.024C451.191 582.392 460.737 637.286 460.737 637.286C460.737 637.286 467.897 671.495 542.68 655.584C572.911 649.219 576.093 622.966 573.706 615.01C567.342 591.939 542.679 458.286 472.671 494.881Z" fill="#271CB7"/>
</g>
<defs>
<clipPath id="clip0_53_2133">
<rect width="699" height="1759" fill="white"/>
</clipPath>
</defs>
</svg>
