<svg width="727" height="1548" viewBox="0 0 727 1548" fill="none" xmlns="http://www.w3.org/2000/svg">
<path d="M344.147 1338.36C297.209 1334.38 179.467 1382.91 203.333 1448.14C220.836 1498.26 327.44 1445.76 360.058 1433.82C383.925 1424.28 405.405 1410.75 431.658 1414.73C454.729 1417.91 473.823 1429.05 500.871 1426.66C539.058 1423.48 646.458 1367 632.933 1313.69C618.613 1256.41 523.147 1303.35 494.507 1313.69C438.023 1334.38 385.516 1335.17 325.053 1332.79C270.16 1330.4 191.4 1333.58 161.965 1391.66C127.756 1460.87 220.04 1475.19 265.387 1456.89C271.751 1453.71 278.116 1450.79 284.48 1448.14L344.147 1338.36Z" fill="black" fill-opacity="0.13"/>
<path d="M224.813 706.684C214.471 719.412 169.124 753.622 179.466 773.51C183.444 783.057 192.195 786.239 200.151 783.057C218.449 776.693 221.631 761.577 232.769 748.053L224.813 706.684Z" fill="#FCCB95"/>
<path d="M157.191 931.827C157.721 931.827 157.986 931.827 157.986 931.827C162.76 931.032 165.146 927.054 164.351 923.076C159.577 887.276 166.738 794.992 200.151 775.899C205.72 771.921 208.902 773.512 210.493 774.307C227.995 783.854 223.222 841.134 224.813 877.73C224.813 882.503 227.995 884.89 231.973 884.89C235.951 884.89 239.133 881.707 239.133 877.73C239.133 867.387 248.68 778.285 217.653 761.579C212.88 758.396 204.129 756.01 192.195 763.17C145.257 791.014 148.44 911.143 150.031 925.463C150.826 928.645 154.009 931.827 157.191 931.827Z" fill="#231F20"/>
<path d="M287.663 1092.53L335.396 798.174L299.596 775.898L95.9333 893.641L84 1210.27L142.076 1242.89L287.663 1092.53Z" fill="#D792E2"/>
<path d="M299.595 775.898L335.395 798.174L301.186 1011.38L96.7285 892.845L299.595 775.898Z" fill="#955C88"/>
<path d="M345.737 1125.94L335.395 798.174L131.732 913.529L142.075 1242.89L345.737 1125.94Z" fill="#C67BB6"/>
<path d="M197.765 938.191C197.765 938.191 198.03 938.191 198.561 938.191C202.539 938.191 204.925 934.214 204.925 930.236C200.152 894.436 180.263 797.378 212.881 777.489C218.45 774.307 221.632 775.102 224.018 776.693C241.521 786.24 263.796 848.293 264.592 884.889C264.592 888.867 267.774 892.049 271.752 892.049C276.525 892.049 279.707 888.867 278.912 884.889C278.912 873.751 261.409 780.671 231.178 763.964C225.609 760.782 216.858 758.395 205.721 764.76C157.987 792.604 188.218 918.302 189.81 931.826C190.605 935.804 193.787 938.191 197.765 938.191Z" fill="#231F20"/>
<path d="M224.813 728.163C224.018 729.754 222.427 740.096 220.835 744.87C218.449 751.234 215.267 756.803 212.88 763.168C210.493 769.532 209.698 777.487 205.72 784.647C203.333 788.625 194.582 798.172 202.538 801.354C210.493 804.537 212.88 791.808 216.062 787.83C226.404 776.692 239.133 773.51 247.089 759.19C250.271 752.826 253.453 742.483 251.862 735.323C248.68 723.39 231.973 717.821 222.427 727.368C220.04 728.959 218.449 732.141 217.653 735.323L224.813 728.163Z" fill="#FCCB95"/>
<path d="M250.272 534.844C242.316 544.391 246.294 653.382 218.45 709.867C207.312 732.938 259.819 728.164 246.294 735.324C243.907 736.916 327.441 519.729 303.574 585.76C292.436 617.582 286.867 490.293 250.272 534.844Z" fill="#FCCB95"/>
<path d="M323.464 1307.33C369.606 1326.42 325.851 1365.4 337.784 1394.84C336.193 1401.2 324.26 1405.18 319.486 1405.98C317.895 1392.45 321.077 1365.4 301.984 1387.68C288.459 1403.59 298.006 1417.91 278.913 1429.84C266.184 1438.6 225.61 1445.76 211.29 1440.19C202.539 1437 233.566 1393.25 240.726 1385.29C260.615 1365.4 282.89 1323.24 281.299 1306.53L323.464 1307.33Z" fill="#FCCB95"/>
<path d="M337.783 1395.64C326.645 1367.79 368.81 1323.24 329.828 1310.51C339.374 1324.83 336.987 1333.58 336.192 1340.74C334.601 1353.47 311.53 1378.93 306.756 1383.7C303.574 1387.68 284.481 1408.36 274.934 1412.34C266.183 1416.32 251.863 1415.53 238.339 1405.98C231.179 1398.82 233.565 1394.84 239.93 1387.68C231.179 1397.23 198.561 1431.44 211.29 1440.98C223.223 1450.53 266.183 1439.39 278.912 1430.64C298.005 1418.71 288.459 1404.39 301.983 1388.48C321.076 1366.2 317.894 1392.45 319.485 1405.98C324.259 1405.18 336.192 1402 337.783 1395.64Z" fill="#401833"/>
<path d="M342.555 997.062C342.555 997.062 332.213 1022.52 340.964 1044C350.51 1064.68 351.306 1117.99 348.124 1129.13C340.168 1165.72 325.848 1261.98 329.826 1285.05C334.599 1308.12 329.826 1324.04 308.346 1324.04C294.822 1324.04 277.319 1321.65 278.91 1311.31C280.502 1301.76 274.933 1207.09 268.568 1170.49C259.817 1117.99 275.728 1037.64 266.977 1032.07L342.555 997.062Z" fill="black"/>
<path d="M240.725 705.092C240.725 705.092 237.542 773.51 242.316 845.905C247.885 924.665 261.409 1008.99 263 1021.72C266.978 1045.59 303.573 1052.75 330.622 1024.11C356.876 996.265 378.356 738.505 352.102 723.39C325.053 708.274 267.773 643.834 240.725 705.092Z" fill="black"/>
<path d="M345.738 758.394C345.738 758.394 348.125 822.834 356.876 894.434C366.422 975.581 383.129 1066.27 385.516 1079C389.494 1102.87 428.476 1117.19 454.729 1088.55C474.618 1067.07 490.529 895.23 484.961 807.719C483.369 780.67 480.983 709.865 474.618 705.888C448.365 690.772 372.787 697.136 345.738 758.394Z" fill="#0A2B38"/>
<path d="M399.835 46.3736C406.995 46.3736 414.155 43.1915 421.315 43.9871C430.862 44.7826 440.408 47.1693 449.955 48.7604C466.662 52.7382 480.186 53.5337 493.711 75.8093C519.168 117.974 501.666 152.978 502.462 169.685C504.053 194.347 509.622 198.325 512.008 210.258C516.782 243.671 493.711 249.24 487.346 273.107C480.186 301.747 508.031 315.272 490.529 339.934C483.369 350.276 464.275 338.343 453.137 339.934C439.613 342.32 434.839 324.818 422.111 320.045C408.586 313.68 393.471 316.863 381.537 305.725C374.377 298.565 368.808 292.2 358.466 290.609C348.919 289.018 339.373 294.587 329.03 292.996C317.893 292.2 309.937 285.04 307.551 275.494C305.96 266.743 309.937 254.014 315.506 246.854C328.235 231.738 321.075 215.827 319.484 199.12C317.893 190.369 317.097 176.845 320.28 168.889C323.462 162.525 329.03 159.343 329.03 151.387C329.826 142.636 328.235 134.68 332.213 126.725C333.804 121.951 336.191 118.769 339.373 115.587C343.351 111.609 352.102 106.04 353.693 101.267L399.835 46.3736Z" fill="#7A4B00"/>
<path d="M337.783 362.209C333.01 401.987 329.032 501.431 307.552 549.96C298.006 572.236 252.659 545.982 244.703 545.187C220.041 542.005 253.454 419.489 260.614 360.618C267.774 300.951 310.735 271.516 335.397 274.698C360.059 278.676 344.943 302.542 337.783 362.209Z" fill="#4A0091"/>
<path d="M473.822 419.488C483.369 398.803 519.965 405.168 512.805 382.097C504.849 357.434 442.796 299.359 421.316 289.812C395.858 277.879 374.378 273.901 346.533 273.105C337.782 273.105 326.645 273.901 318.689 276.288C301.982 282.652 276.525 370.163 266.183 383.688C251.863 401.986 224.018 425.057 263.796 464.834C278.912 480.746 226.405 493.475 208.902 566.666C171.511 720.208 298.004 749.643 325.053 758.394C360.058 770.328 403.814 770.328 438.818 755.212C491.325 733.732 471.436 702.705 469.845 661.336C467.458 598.488 469.845 561.892 478.596 518.137C489.734 462.448 465.867 439.377 473.822 419.488Z" fill="#3013AF"/>
<path d="M526.33 437.786C528.716 478.36 547.81 583.373 535.081 634.289C529.512 658.155 502.463 631.106 494.507 631.902C469.845 632.697 453.138 509.386 449.956 449.72C446.774 390.053 450.752 357.435 476.209 356.64C500.872 355.844 523.147 378.12 526.33 437.786Z" fill="#311EC1"/>
<path d="M363.239 558.711C370.399 554.733 348.919 534.049 337.782 535.64C327.439 535.64 289.252 535.64 286.866 536.435C282.092 537.231 278.91 538.027 274.932 538.822C268.568 540.413 262.999 546.778 259.021 551.551C255.044 556.324 249.475 558.711 246.293 564.28C243.906 568.258 243.111 573.031 239.928 577.009C237.542 580.191 235.95 582.578 232.768 585.76C231.973 587.351 230.381 589.738 229.586 591.329C231.177 592.92 234.359 594.511 236.746 593.716C237.541 596.102 235.95 595.307 235.155 596.898C234.359 598.489 231.973 601.671 234.359 602.467C239.928 605.649 244.701 600.875 244.701 600.875C244.701 601.671 243.11 602.466 243.11 603.262C248.679 608.035 253.453 605.649 256.635 603.262C259.021 601.671 266.977 592.92 270.159 590.533C275.728 587.351 282.093 584.964 288.457 583.373C286.336 585.495 283.684 587.616 280.501 589.738C274.137 596.102 266.977 593.715 267.773 604.058C286.866 607.24 297.208 591.329 313.915 582.578C329.826 584.169 350.511 565.076 363.239 558.711Z" fill="#FED8A7"/>
<path d="M522.352 599.283C507.237 573.03 403.814 552.346 359.263 538.821C313.917 524.501 326.645 565.87 340.17 572.235C368.014 584.168 423.703 606.443 488.939 647.017C517.579 665.314 550.992 649.403 522.352 599.283Z" fill="#311EC1"/>
<path d="M351.306 315.271C344.942 324.818 336.986 351.867 348.919 359.822C356.079 364.596 379.946 355.844 391.084 348.684C400.631 342.32 410.972 335.956 420.519 331.182C428.475 327.205 434.044 317.658 435.635 309.702C438.021 293.791 426.088 289.813 415.746 285.04C399.835 277.88 376.764 276.289 366.421 293.791C366.421 293.791 356.875 307.316 351.306 315.271Z" fill="#FCCB95"/>
<path d="M379.151 245.262C377.559 250.036 380.741 257.992 380.741 264.356C381.537 273.903 377.559 290.609 375.968 299.36C374.377 308.907 371.195 309.702 376.764 316.862C387.106 328 418.133 326.409 427.679 317.658C444.386 301.747 429.27 261.174 424.497 244.467C422.906 237.307 430.066 234.92 425.293 230.147C410.973 215.827 385.515 235.716 379.151 245.262Z" fill="#FCCB95"/>
<path d="M474.617 107.63C474.617 117.972 474.617 198.323 462.684 221.394C451.546 242.079 420.519 265.15 405.404 262.763C390.288 260.376 356.079 238.101 350.51 216.621C342.555 190.368 342.555 119.563 342.555 115.585C342.555 115.585 344.942 68.6476 422.906 73.4209C478.595 76.6032 474.617 107.63 474.617 107.63Z" fill="#FED8A7"/>
<path d="M484.961 69.4441C457.116 43.9863 397.45 28.075 374.378 59.1017C369.605 59.8972 363.241 62.2839 360.854 63.0795C348.125 69.4439 333.01 83.7639 326.645 106.039C324.258 114.791 324.259 123.542 324.259 132.293C324.259 148.204 329.032 151.386 320.281 168.888C317.894 173.662 343.352 185.595 345.739 190.368C348.125 167.297 338.579 141.044 348.125 119.564C351.307 110.813 360.854 105.244 368.809 101.266C372.787 99.6752 375.97 97.2884 379.152 95.6973C386.312 104.448 397.45 113.995 417.339 120.36C467.459 135.475 459.503 149.795 459.503 160.137C459.503 160.137 466.663 149.795 467.459 139.453C469.845 145.817 470.641 150.591 471.436 156.955C472.232 167.297 470.641 176.048 469.845 185.595C469.05 196.733 469.05 207.871 467.459 219.008C473.823 211.848 475.414 198.324 479.392 189.573C481.513 183.208 483.9 176.844 486.552 170.479C487.348 177.639 487.347 184.004 487.347 189.573C488.143 199.915 515.192 97.2885 484.961 69.4441Z" fill="#7A4B00"/>
<path d="M581.223 1199.93C629.752 1210.27 600.316 1262.78 617.023 1289.83C617.023 1296.19 608.272 1300.17 603.498 1301.76C599.521 1289.03 600.316 1264.37 585.201 1289.83C574.858 1307.33 585.996 1319.26 570.085 1335.17C558.948 1345.51 523.147 1355.86 508.032 1352.67C498.485 1351.08 521.556 1302.55 527.921 1293.8C543.832 1270.73 546.218 1222.2 541.445 1206.29L581.223 1199.93Z" fill="#FCCB95"/>
<path d="M617.022 1289.83C601.111 1263.57 629.752 1215.04 589.974 1201.52C601.907 1215.04 601.112 1223 601.907 1230.16C602.703 1242.89 591.564 1278.69 587.587 1283.46C585.2 1288.23 571.676 1312.9 562.925 1318.47C554.969 1323.24 543.831 1321.65 528.716 1313.69C519.965 1308.12 520.76 1304.15 525.533 1296.19C518.373 1307.33 496.098 1349.49 508.031 1353.47C522.351 1359.04 558.947 1346.31 570.085 1335.97C585.996 1320.85 574.858 1308.12 585.2 1290.62C600.316 1265.16 599.52 1289.03 603.498 1301.76C608.271 1300.17 617.022 1296.19 617.022 1289.83Z" fill="#401833"/>
<path d="M472.231 1026.5C472.231 1026.5 392.676 1005.02 414.156 1012.97C435.636 1020.93 486.552 1048.77 494.507 1056.73C519.169 1084.57 563.72 1176.06 582.814 1189.59C602.702 1202.31 595.542 1218.23 583.609 1230.16C571.676 1242.09 558.947 1240.5 542.24 1221.41C535.08 1214.25 485.756 1173.68 455.525 1152.99C411.769 1122.76 409.383 1106.85 397.449 1097.3L472.231 1026.5Z" fill="#0A2B38"/>
<path d="M344.941 167.297C343.35 165.706 340.168 163.319 338.577 164.115C332.212 164.911 329.826 176.048 332.213 187.982C334.599 199.915 341.759 208.666 347.328 207.871C347.328 207.34 347.593 207.075 348.124 207.075C345.737 195.142 346.532 182.413 344.941 167.297Z" fill="#FCCB95"/>
<path d="M471.435 167.297C473.026 165.706 476.208 163.319 477.799 164.115C483.368 164.911 485.755 176.048 483.368 187.982C480.186 199.915 473.026 208.666 467.457 207.075C469.048 195.142 469.048 182.413 471.435 167.297Z" fill="#FCCB95"/>
</svg>
