<svg width="664" height="1382" viewBox="0 0 664 1382" fill="none" xmlns="http://www.w3.org/2000/svg">
<path d="M286.176 1167.4C286.176 1167.4 263.105 1194.45 270.265 1221.5C271.856 1227.86 292.54 1244.57 298.109 1245.36C303.678 1245.36 306.065 1246.16 310.838 1252.52C314.816 1258.09 314.02 1259.68 321.18 1266.84C329.136 1274 364.936 1294.69 395.963 1277.98C395.963 1277.98 398.349 1265.25 397.554 1261.27C396.758 1257.3 378.46 1238.2 368.914 1231.84C360.163 1226.27 337.887 1195.24 336.296 1189.67C334.705 1183.31 325.158 1178.54 325.158 1178.54C325.158 1178.54 310.043 1155.47 286.176 1167.4Z" fill="#6D7086"/>
<path d="M126.269 1188.08C126.269 1188.08 99.2204 1213.54 103.198 1242.18C104.789 1248.55 123.883 1269.23 129.451 1270.03C135.02 1270.82 137.407 1272.41 141.385 1278.78C146.158 1285.14 144.567 1286.73 150.932 1295.48C158.092 1304.23 193.891 1329.69 227.305 1315.37C227.305 1315.37 232.078 1302.64 231.283 1298.67C230.487 1293.89 213.78 1271.62 205.029 1264.46C196.278 1258.09 176.389 1223.09 175.594 1216.72C174.798 1209.56 166.047 1203.99 166.047 1203.99C166.047 1203.99 152.523 1177.74 126.269 1188.08Z" fill="#6D7086"/>
<path d="M302.087 303.426C326.749 328.883 381.643 386.163 426.989 397.301C448.469 402.074 461.198 364.683 464.38 358.319C475.518 338.43 425.398 373.434 348.229 254.101C328.34 223.074 284.585 214.323 274.243 234.212C263.105 253.306 262.309 262.852 302.087 303.426Z" fill="#FCCB95"/>
<path d="M463.584 561.184C463.054 561.184 462.789 561.184 462.789 561.184C444.491 561.184 425.398 550.046 407.1 528.566C374.482 491.175 342.66 423.553 320.384 343.202C298.109 264.442 289.358 184.886 295.722 130.788C295.722 129.993 296.518 129.197 298.109 129.197C298.904 129.197 299.7 129.993 299.7 131.584C286.176 246.144 342.66 449.011 410.282 526.18C427.784 546.864 446.082 557.206 462.789 557.206C501.771 558.002 540.753 526.179 571.78 468.899C597.238 421.166 615.535 360.704 617.127 314.562C618.718 256.486 614.74 220.686 611.558 201.593C605.989 175.34 599.624 168.18 598.033 168.18C595.912 168.18 594.321 168.71 593.26 169.771C591.669 171.362 591.669 174.544 591.669 174.544C591.669 175.339 590.078 176.135 589.282 176.135C588.487 176.135 587.691 175.339 587.691 174.544C587.691 173.748 587.691 168.975 590.873 166.588C592.995 164.997 595.647 164.202 598.829 164.202C605.193 164.997 610.762 178.522 615.535 200.797C618.718 220.686 622.695 255.691 621.104 314.562C619.513 361.5 601.215 421.962 575.758 470.491C543.935 529.362 504.158 561.184 463.584 561.184Z" fill="#0069BF"/>
<path d="M410.283 357.522C415.852 330.473 511.318 283.535 539.958 244.553C564.621 209.549 565.416 253.304 555.869 262.055C535.185 280.353 508.932 328.086 465.176 381.389C445.287 405.255 399.145 408.437 410.283 357.522Z" fill="#FCCB95"/>
<path d="M547.118 247.736C547.913 248.532 541.549 242.167 541.549 242.167C544.731 231.03 541.549 198.412 551.096 190.456C554.278 187.274 558.255 185.683 561.438 183.296C564.62 181.705 567.007 176.932 570.984 176.136C576.553 175.341 587.691 181.705 592.464 185.683C597.238 188.865 601.216 196.025 599.624 199.207C598.829 200.799 595.647 200.799 592.464 198.412C590.873 203.981 602.807 206.367 601.215 215.119C601.215 218.301 595.647 216.71 591.669 213.527C592.464 215.914 598.033 221.483 595.647 224.665C593.26 229.439 588.487 221.483 585.304 220.687C585.304 221.483 585.304 219.892 585.304 220.687C587.691 220.687 592.464 227.052 589.282 229.439C584.509 231.825 582.122 225.461 576.553 227.052C580.531 234.212 561.438 259.67 555.869 262.056C551.096 263.647 556.664 250.123 551.891 246.941C546.322 242.963 550.3 236.599 546.322 232.621L547.118 247.736Z" fill="#FCCB95"/>
<path d="M569.394 210.345L574.167 168.977L579.736 166.59L594.851 178.523L590.874 219.892L585.305 221.483L569.394 210.345Z" fill="#005691"/>
<path d="M569.394 210.345L574.167 168.977L589.282 180.91L585.305 221.483L569.394 210.345Z" fill="#0069BF"/>
<path d="M541.549 259.669C536.776 259.669 543.14 236.597 544.731 233.415C547.118 227.846 548.709 220.686 552.687 215.913C556.665 211.935 559.847 209.549 563.825 205.571C567.007 202.389 572.576 199.206 574.167 194.433C574.963 191.251 575.758 187.273 578.94 185.682C582.123 184.091 582.918 184.091 583.714 187.273C586.1 192.842 582.918 201.593 581.327 203.98C578.94 208.753 574.167 211.935 572.576 216.708C570.985 221.482 572.576 228.642 571.78 234.211C570.189 245.348 564.62 255.691 555.869 262.055C553.482 263.646 551.096 262.055 548.709 262.851C546.323 263.646 544.731 262.055 541.549 261.26V259.669Z" fill="#FCCB95"/>
<path d="M364.935 619.261C364.935 619.261 370.504 706.772 366.527 775.985C362.549 841.221 353.002 906.457 351.411 916.799C348.229 938.279 312.429 951.007 288.562 925.55C264.695 900.092 244.807 666.994 269.469 653.47C293.335 639.945 340.273 563.572 364.935 619.261Z" fill="#48E5FF"/>
<path d="M278.22 900.092C278.22 900.092 286.971 923.958 278.22 942.256C269.469 961.349 267.083 1009.08 269.469 1019.43C275.834 1052.84 286.176 1138.76 281.403 1160.24C277.425 1180.92 286.971 1196.04 298.905 1196.83C321.18 1199.22 331.523 1191.27 330.727 1181.72C329.136 1172.97 333.909 1091.82 340.274 1059.2C349.025 1011.47 339.478 930.323 348.229 926.345L278.22 900.092Z" fill="#48E5FF"/>
<path d="M314.021 660.628C314.021 660.628 308.452 678.131 302.087 702.793C293.336 733.82 283.79 776.779 281.403 810.193C277.425 883.384 268.674 966.917 266.287 978.851C262.31 1000.33 226.51 1029.77 203.439 987.602C186.732 957.371 91.2652 627.215 173.207 587.437C198.665 574.708 289.359 605.735 314.021 660.628Z" fill="#48E5FF"/>
<path d="M205.824 935.096C205.824 935.096 207.415 960.554 193.095 975.669C178.775 989.989 162.069 1035.34 160.478 1045.68C156.5 1079.09 146.158 1169.78 131.838 1185.7C115.927 1203.99 129.451 1217.52 140.589 1221.5C151.727 1224.68 167.638 1226.27 169.229 1217.52C171.615 1208.77 199.46 1133.98 215.371 1105.34C238.442 1063.18 255.149 983.624 263.9 981.238L205.824 935.096Z" fill="#48E5FF"/>
<path d="M144.567 320.928C151.727 298.652 198.665 242.963 218.553 233.416C240.829 223.074 269.469 223.074 294.927 223.074C302.087 223.074 312.429 223.074 319.589 225.461C334.705 231.03 350.616 296.265 366.527 316.95C379.256 332.861 405.509 359.91 369.709 395.71C355.389 410.03 331.522 441.852 348.229 508.679C360.162 557.207 376.869 616.079 354.593 643.128C325.953 676.541 251.171 670.176 211.393 658.243C162.069 643.923 151.727 606.532 164.456 570.732C182.753 516.634 213.78 506.292 194.687 437.079C176.389 372.639 138.202 341.612 144.567 320.928Z" fill="white"/>
<path d="M194.687 374.229C219.349 377.411 290.154 383.775 317.203 363.091C329.136 353.544 317.998 335.246 316.407 328.086C310.838 306.606 220.145 326.495 188.323 307.402C162.865 293.082 138.203 316.949 143.772 338.429C149.341 359.909 154.114 367.864 194.687 374.229Z" fill="#FED8A7"/>
<path d="M313.224 308.994C317.202 324.905 321.975 343.999 321.975 359.91C310.042 330.474 284.584 308.199 258.331 290.696C250.375 285.128 203.438 268.421 202.642 261.261C199.46 246.941 219.349 234.212 228.1 230.234C235.26 226.256 267.878 222.279 287.767 242.168C305.269 259.67 311.633 301.834 313.224 308.994Z" fill="#FCCB95"/>
<path d="M264.696 193.638C267.082 197.616 263.9 204.776 263.105 211.141C263.105 219.096 265.491 227.052 267.082 235.803C268.674 243.758 271.856 252.51 267.082 258.078C258.331 268.421 229.691 266.83 220.94 258.874C205.825 244.554 223.327 223.87 227.305 208.754C228.896 202.39 225.714 189.661 230.487 185.683C243.216 172.954 264.696 197.616 270.265 205.572L264.696 193.638Z" fill="#FCCB95"/>
<path d="M255.944 59.1891L277.424 47.2558C290.949 39.3002 314.02 52.0292 328.34 76.6914C341.864 98.967 343.455 123.629 332.318 133.971C331.257 135.032 330.196 135.828 329.135 136.358C328.075 136.888 326.749 137.419 325.158 137.949L307.655 148.291L296.518 129.198C289.358 123.629 282.993 115.674 277.424 106.922C271.855 97.3758 268.673 87.8291 267.082 79.078L255.944 59.1891Z" fill="#005691"/>
<path d="M255.944 59.1894C270.264 51.2338 293.335 63.9628 307.655 88.625C321.975 113.287 321.975 140.336 307.655 148.292C293.335 156.247 270.264 143.518 255.944 118.856C241.624 94.1938 241.624 67.1449 255.944 59.1894Z" fill="#0069BF"/>
<path d="M265.491 75.8953C274.242 71.122 288.562 79.0776 297.313 94.1931C306.064 109.309 306.064 126.015 297.313 130.789C288.562 136.358 275.037 127.607 266.286 112.491C257.535 97.3754 256.739 81.4642 265.491 75.8953Z" fill="white"/>
<path d="M199.46 56.0064C213.78 28.9575 250.376 40.8908 279.811 43.2775C310.838 46.4597 320.385 58.3931 325.158 114.082C325.158 116.469 321.18 140.335 323.567 161.02C325.158 176.135 313.225 193.638 308.451 207.958C305.269 216.709 305.269 219.095 295.722 219.891C287.767 221.482 278.22 219.891 270.265 217.504C255.149 212.731 237.647 208.753 226.509 197.615C213.78 184.886 212.189 167.384 208.211 151.473C202.642 125.22 185.936 80.6686 199.46 56.0064Z" fill="#FED8A7"/>
<path d="M239.238 25.776C228.896 -7.63738 181.958 -1.27286 167.638 5.09158C141.384 15.4338 129.451 52.8249 131.838 79.8738C132.633 95.7849 141.384 110.9 146.158 126.016C150.931 137.154 155.704 148.292 152.522 161.02C150.931 168.976 146.953 176.932 139.793 181.705C135.02 184.887 129.451 188.069 127.064 194.434C121.496 206.367 131.042 215.118 141.384 219.096C137.407 213.527 137.407 203.98 141.384 200.003C147.749 192.047 157.296 190.456 166.047 185.683C176.389 180.909 184.344 175.34 188.322 164.203C190.709 159.429 191.504 153.86 192.3 148.292C193.096 137.949 189.913 126.016 193.096 117.265L239.238 25.776Z" fill="#993E25"/>
<path d="M315.611 61.5765C286.971 14.6388 240.033 22.5943 218.553 28.1632C193.095 34.5277 174.797 60.7811 168.433 84.6477C161.273 110.901 173.206 134.768 191.504 153.065C196.277 157.839 201.846 162.612 206.62 167.385C210.597 169.772 214.575 176.137 216.962 180.114C214.575 158.634 204.233 102.15 231.282 71.9188C232.077 72.7143 242.42 79.8744 255.944 80.67C265.491 80.67 274.242 75.8966 283.788 74.3055C290.948 73.5099 298.108 74.3055 305.268 76.6922C314.815 79.8744 320.384 85.4433 321.975 86.2388C324.362 81.4655 318.793 65.5543 315.611 61.5765Z" fill="#8E3719"/>
<path d="M215.371 151.474C220.94 161.02 222.531 169.771 218.553 172.954C214.576 175.34 206.62 169.771 201.051 160.225C194.687 150.678 193.891 141.131 197.869 138.745C201.847 136.358 209.802 141.927 215.371 151.474Z" fill="#FED8A7"/>
<path d="M154.113 117.265L175.593 106.127C189.118 97.3757 212.189 110.9 226.509 135.562C240.033 157.838 241.624 181.705 230.487 192.047C229.426 193.108 228.365 194.168 227.304 195.229C226.244 195.759 224.918 196.29 223.327 196.82L205.824 207.162L194.687 188.069C188.322 182.5 181.162 174.545 175.593 164.998C170.024 156.247 166.842 145.905 165.251 137.153L154.113 117.265Z" fill="#005691"/>
<path d="M154.113 117.265C168.433 109.309 191.504 122.834 205.824 147.496C220.144 172.158 220.144 198.411 205.824 207.163C191.504 215.118 168.433 201.594 154.113 176.931C139.793 152.269 139.793 126.016 154.113 117.265Z" fill="#0069BF"/>
<path d="M163.66 134.766C172.411 129.993 186.731 137.949 195.482 153.064C204.233 168.18 204.233 184.887 195.482 189.66C186.731 194.433 173.206 186.478 164.455 171.362C155.704 156.246 154.908 139.54 163.66 134.766Z" fill="white"/>
<path d="M207.416 207.958C209.007 214.323 181.958 212.732 177.185 203.981C170.82 197.616 147.749 172.158 146.158 169.772C143.771 165.794 142.976 163.407 141.385 160.225C138.202 154.656 138.998 147.496 139.794 141.927C140.589 136.358 139.794 130.789 141.385 126.016C142.18 121.243 144.567 118.061 145.362 114.083C146.158 110.105 146.954 106.923 147.749 103.741C147.749 102.149 148.545 99.7628 149.34 98.1717C150.931 98.1717 154.114 99.7628 154.909 101.354C157.296 100.558 155.705 99.7628 156.5 98.1717C157.296 96.5806 157.296 93.3984 159.682 94.1939C165.251 96.5806 164.456 102.945 164.456 102.945C165.251 102.149 165.251 100.558 165.251 99.7628C171.616 100.558 173.207 105.332 173.207 108.514C174.002 111.696 173.207 122.834 173.207 126.016C174.002 131.585 177.185 137.154 179.571 142.723C179.041 140.071 178.776 136.889 178.776 133.176C178.776 125.221 173.207 122.038 180.367 116.47C194.687 127.607 189.914 144.314 193.891 160.225C204.234 169.772 204.234 195.23 207.416 207.958Z" fill="#FED8A7"/>
<path d="M279.016 361.501C254.353 348.772 212.189 249.327 181.958 211.936C155.704 179.319 197.073 189.661 203.438 201.594C215.371 226.256 276.629 258.079 316.407 315.359C333.909 340.816 325.158 385.367 279.016 361.501Z" fill="#FED8A7"/>
<path d="M204.233 63.1672C225.713 26.5717 259.922 6.68278 280.607 19.4117C287.767 23.3894 296.518 29.7539 300.496 43.2783C296.253 39.0354 292.01 35.8532 287.767 33.7317C285.645 28.9584 282.463 25.2458 278.22 22.594C275.038 21.0028 275.833 24.185 271.856 24.185C252.762 24.185 231.282 45.6651 215.371 72.714C205.825 88.6251 200.256 106.923 199.46 122.038L188.322 115.674C188.322 99.7628 193.891 80.6694 204.233 63.1672Z" fill="#387ABC"/>
<path d="M280.606 24.1855C284.584 24.1855 287.766 24.9811 290.153 26.5722C294.926 30.55 298.109 35.3233 300.495 43.2788C296.252 39.0359 292.009 35.8537 287.766 33.7322C285.645 30.0196 283.258 26.8374 280.606 24.1855Z" fill="#005187"/>
<path d="M281.402 20.207L290.949 24.9804L290.153 26.5715L280.606 21.7981L281.402 20.207Z" fill="#387ABC"/>
<path d="M215.371 68.7366C236.056 32.9366 270.264 13.0477 290.949 24.981C298.904 29.7543 303.678 37.7098 305.269 48.0521C303.147 45.9306 301.026 43.8091 298.904 41.6876C297.313 36.1187 293.335 31.3454 288.562 28.9588C285.38 26.8373 281.667 25.7765 277.424 25.7765C275.303 25.7765 273.181 26.0417 271.06 26.5721C270.53 26.5721 270.264 26.5721 270.264 26.5721C252.762 30.5499 232.873 47.2565 218.553 71.1231C209.802 87.0342 204.233 104.536 203.438 118.856L199.46 122.039C199.46 106.128 205.029 87.0343 215.371 68.7366Z" fill="#17619D"/>
</svg>
