<svg width="887" height="1616" viewBox="0 0 887 1616" fill="none" xmlns="http://www.w3.org/2000/svg">
<path d="M463.12 1391C436.072 1379.06 398.68 1398.16 368.449 1391C340.605 1384.63 321.512 1363.15 288.098 1370.31C249.116 1377.47 204.565 1414.07 171.947 1432.36C148.08 1445.89 106.711 1464.19 92.3915 1488.05C48.6359 1562.04 183.881 1569.2 226.045 1561.24C294.463 1548.52 323.898 1480.1 385.156 1461C440.049 1443.5 493.352 1446.68 548.245 1463.39C604.729 1480.89 679.512 1505.56 727.245 1465.78C742.36 1452.25 783.729 1437.14 798.845 1381.45C811.574 1336.9 758.271 1324.17 733.609 1323.37C665.987 1320.19 566.543 1352.81 501.307 1373.49C460.734 1386.22 423.343 1391 378.791 1391H463.12Z" fill="black" fill-opacity="0.16"/>
<path d="M332.649 857.177C322.306 861.155 306.395 852.404 301.622 842.857C299.235 837.288 302.418 832.515 307.986 830.924C317.533 826.15 346.969 826.946 346.173 842.061L332.649 857.177Z" fill="#FED8A7"/>
<path d="M326.284 1364.74C326.284 1364.74 354.129 1403.72 340.605 1438.73C337.422 1446.68 307.191 1467.37 300.031 1467.37C292.076 1467.37 288.893 1468.16 281.733 1474.53C274.573 1481.69 276.165 1484.07 265.027 1493.62C253.889 1502.37 202.178 1524.65 163.196 1497.6C163.196 1497.6 160.809 1480.1 163.196 1474.53C165.582 1469.75 192.631 1445.89 205.36 1439.52C218.089 1433.16 253.093 1394.97 256.276 1387.02C259.458 1379.06 272.187 1374.29 272.187 1374.29C272.187 1374.29 296.053 1344.85 326.284 1364.74Z" fill="#1E160D"/>
<path d="M484.6 864.337C466.302 902.523 459.142 943.097 444.822 982.079C426.524 1028.22 421.751 1087.09 388.337 1126.07C378.791 1138.01 351.742 1153.92 325.489 1145.17C310.373 1139.6 283.324 1127.67 283.324 1116.53C282.528 1098.23 284.915 1083.91 287.302 1074.36C293.666 1056.07 320.715 944.688 328.671 908.888C335.035 879.452 340.604 861.95 349.355 829.332C349.355 829.332 349.355 791.941 416.182 819.786C483.804 846.835 486.986 858.768 484.6 864.337Z" fill="#0D4586"/>
<path d="M396.292 1153.92C396.292 1127.67 403.452 1106.98 407.43 1078.34C410.612 1056.86 293.666 1060.04 282.528 1111.75C282.528 1111.75 269.004 1317.8 243.546 1379.06L239.568 1389.4C239.568 1389.4 234.795 1398.95 241.159 1406.91C241.159 1406.91 250.706 1418.04 264.23 1423.61C283.324 1432.36 310.372 1434.75 327.079 1422.02C366.857 1390.99 393.906 1244.61 396.292 1153.92Z" fill="#0D4586"/>
<path d="M781.342 1251.77C790.093 1249.39 799.64 1258.93 806.004 1263.71C814.755 1270.07 819.528 1284.39 819.528 1284.39C821.12 1297.12 790.093 1324.17 785.32 1336.1C781.342 1346.44 765.431 1375.08 758.271 1383.84C751.906 1392.59 745.542 1402.13 735.995 1407.7C724.062 1414.07 685.08 1417.25 672.351 1410.09C662.804 1405.32 658.826 1397.36 662.009 1390.2C672.351 1367.92 685.875 1362.36 692.24 1345.65C697.013 1331.33 700.195 1327.35 703.378 1312.24C704.969 1305.87 708.151 1278.03 718.493 1280.41L781.342 1251.77Z" fill="#1E160D"/>
<path d="M570.518 872.292C569.723 913.661 585.634 955.826 588.021 997.99C590.407 1047.31 610.296 1103 595.976 1151.53C591.203 1166.65 573.7 1192.9 545.856 1195.29C529.945 1196.88 503.692 1194.49 495.736 1186.54C493.349 1184.15 487.781 1180.17 484.598 1171.42C470.278 1125.28 459.141 1008.33 452.776 978.101C446.412 948.666 440.843 921.617 427.318 893.772C427.318 893.772 420.158 854.79 492.554 847.63C553.016 842.061 570.518 865.928 570.518 872.292Z" fill="#124F96"/>
<path d="M567.337 1078.34C542.675 1066.41 459.142 1159.49 502.102 1190.51C502.102 1190.51 664.395 1261.32 709.742 1309.85L716.902 1317.8C716.902 1317.8 723.266 1325.76 733.608 1323.37C734.404 1323.37 747.928 1319.39 759.066 1309.05C774.182 1294.73 787.706 1271.66 782.933 1251.77C771 1201.65 648.484 1116.53 567.337 1078.34Z" fill="#124F96"/>
<path d="M488.578 302.675C495.738 304.266 566.542 340.066 598.364 375.866C621.435 402.119 624.617 464.173 624.617 472.924C623.026 499.177 586.431 660.675 580.862 697.27C575.293 733.07 580.067 772.848 580.067 796.715C580.067 819.786 586.431 886.612 584.84 897.75C577.68 934.346 483.804 927.186 465.506 925.595C406.635 922.412 333.444 877.861 339.809 849.221C356.515 767.279 350.151 528.612 342.991 499.972C335.035 470.537 278.551 320.973 323.102 281.195C335.035 270.853 358.107 263.692 372.427 264.488C421.751 266.875 480.622 301.084 488.578 302.675Z" fill="#185EAD"/>
<path d="M451.982 277.217C450.391 278.808 397.884 276.421 366.062 313.017C334.239 348.817 342.991 343.248 342.991 343.248L365.266 336.088C365.266 336.088 362.879 417.234 374.017 430.759L474.257 383.025L480.622 424.394C480.622 424.394 550.631 348.021 541.084 328.132C518.808 280.399 463.915 262.897 451.982 277.217Z" fill="#2173D2"/>
<path d="M424.932 289.15C424.932 289.15 385.95 301.879 380.381 354.386C374.812 406.893 384.359 442.693 384.359 442.693C384.359 438.715 437.661 392.573 482.212 359.955C486.985 355.977 534.719 320.177 482.212 295.515L424.932 289.15Z" fill="#FCCB95"/>
<path d="M480.621 360.751C460.732 361.547 438.456 359.956 422.545 354.387C404.248 347.227 394.701 333.702 389.928 322.564C389.397 323.625 388.867 324.686 388.337 325.747C387.806 326.807 387.276 327.868 386.745 328.929C386.745 329.459 386.745 329.724 386.745 329.724C386.215 330.785 385.685 331.846 385.154 332.907C385.154 332.907 385.154 333.172 385.154 333.702C384.624 334.763 384.359 335.824 384.359 336.884C383.828 336.884 383.563 337.15 383.563 337.68C383.563 338.741 383.298 339.801 382.768 340.862C382.768 341.393 382.768 341.923 382.768 342.453C382.237 343.514 381.972 344.31 381.972 344.84C381.972 345.901 381.707 346.696 381.177 347.226C381.177 348.287 381.177 349.083 381.177 349.613C381.177 351.204 380.911 352.796 380.381 354.387C374.812 406.893 384.359 442.693 384.359 442.693C386.745 437.92 437.661 392.573 480.621 360.751Z" fill="white"/>
<path d="M495.738 215.959C495.738 239.826 491.76 251.759 494.942 279.603C496.533 289.15 500.511 300.288 500.511 313.017C500.511 334.497 477.44 343.248 465.507 349.612C454.369 355.181 410.614 340.066 413 324.95C414.591 313.017 412.205 294.719 416.182 282.786C420.956 270.057 433.684 262.101 433.684 248.577L495.738 215.959Z" fill="#FCCB95"/>
<path d="M371.631 121.289C371.631 134.814 371.631 145.951 368.449 158.68C366.858 168.227 370.04 190.503 366.858 214.369C364.471 229.485 370.04 244.6 374.018 258.92C377.2 270.854 378.791 284.378 389.133 291.538C414.591 309.04 443.231 290.743 469.484 281.991C495.738 273.24 491.76 235.849 499.716 214.369C514.831 176.183 505.284 122.085 462.324 104.582C444.027 96.6268 412.205 92.6492 393.111 99.8092C385.951 102.196 370.836 107.765 371.631 121.289Z" fill="#FED8A7"/>
<mask id="mask0_53_2443" style="mask-type:luminance" maskUnits="userSpaceOnUse" x="372" y="58" width="169" height="185">
<path d="M511.49 72.0434C487.225 50.0065 438.219 56.8482 398.123 75.2255C378.155 84.2949 373.302 111.901 373.302 111.901C368.767 119.459 390.327 135.847 395.895 138.711C407.431 144.757 419.364 146.587 432.252 147.303C439.969 147.78 448.164 147.701 455.721 147.064C460.574 146.667 468.371 144.519 472.985 145.076C484.918 146.348 484.998 162.259 487.146 171.726C488.816 179.682 491.601 186.126 492.158 194.718C492.396 198.537 485.475 241.656 491.521 242.849C499.954 244.361 533.606 204.822 535.993 182.705C537.584 168.067 554.291 111.026 511.49 72.0434Z" fill="white"/>
</mask>
<g mask="url(#mask0_53_2443)">
<path d="M515.627 244.598L554.609 133.221V244.598H515.627Z" fill="#231F20"/>
<path d="M396.294 244.599L368.449 234.256V122.879L393.907 49.6875H554.609V133.221L515.627 244.599H396.294Z" fill="#231F20"/>
<path d="M393.907 49.6875L368.449 122.879V49.6875H393.907Z" fill="#231F20"/>
</g>
<path d="M511.648 216.756C506.079 230.28 496.533 239.827 490.964 237.44C484.599 235.054 478.235 221.529 483.804 208.005C489.373 193.685 505.284 184.934 510.853 187.32C517.217 189.707 517.217 203.231 511.648 216.756Z" fill="#FED8A7"/>
<path d="M283.324 332.111L511.649 464.174L283.324 596.236L55 464.174L283.324 332.111Z" fill="#E0A44C"/>
<path d="M283.324 596.236V859.565L55 727.503V464.174L283.324 596.236Z" fill="#B07D2C"/>
<path d="M283.324 596.236V859.565L511.649 727.503V464.174L283.324 596.236Z" fill="#CC9439"/>
<path d="M631.778 488.04C640.529 572.369 641.325 726.706 611.094 729.093C599.956 730.684 564.156 685.337 562.565 658.289C558.587 594.644 533.925 539.751 528.356 487.244C520.4 402.915 539.494 386.209 569.725 383.026C599.16 379.844 623.823 403.711 631.778 488.04Z" fill="#2173D2"/>
<path d="M590.409 748.186C523.583 787.168 390.725 837.288 377.996 814.217C373.222 805.465 357.312 779.212 376.405 764.097C406.636 739.434 498.92 710.794 567.338 669.425C581.658 660.674 599.956 663.857 612.685 687.723C625.414 710.794 638.143 721.137 590.409 748.186Z" fill="#2173D2"/>
<path d="M374.812 101.399C374.812 101.399 386.746 63.2127 409.817 53.6661C437.661 42.5283 479.826 36.1639 493.35 42.5283C510.852 52.075 528.355 62.4171 535.515 84.6927C545.857 115.719 540.288 137.199 540.288 137.199C540.288 137.199 541.084 139.586 538.697 141.177C528.355 149.928 490.168 177.773 461.528 171.408C439.252 165.84 420.955 164.248 420.955 164.248L374.812 101.399Z" fill="#FFB200"/>
<path d="M376.405 101.4C376.405 101.4 381.974 95.0353 415.387 112.538C436.867 124.471 475.054 165.044 467.098 173.795C452.778 188.911 416.978 189.707 397.089 181.751C373.223 172.204 362.88 130.04 326.285 134.813C299.236 138.791 349.356 106.969 374.814 101.4H376.405Z" fill="#FFBF29"/>
<path d="M374.813 770.462C362.084 768.075 342.196 777.622 337.422 780.009C328.671 784.782 315.147 784.782 311.965 796.715C309.578 802.284 307.191 803.08 303.213 807.057C298.44 811.035 302.418 815.809 307.191 815.013C311.964 815.013 316.738 815.013 319.92 811.035C323.898 805.466 331.058 795.92 337.422 803.875C343.787 811.035 336.627 817.4 333.445 823.764C328.671 834.902 322.307 838.88 323.898 851.609C323.898 857.973 335.036 859.564 341.4 851.609C341.4 853.2 339.013 855.586 342.196 857.177C350.151 860.36 358.107 855.586 360.493 848.426C359.698 861.155 376.405 853.995 377.2 844.448C381.974 851.608 393.907 838.88 396.293 834.106C401.067 826.151 405.044 809.444 405.84 800.693C405.84 793.533 397.884 778.417 390.724 775.235C386.747 773.644 378.791 770.462 374.813 770.462Z" fill="#FED8A7"/>
</svg>
