<svg width="856" height="1599" viewBox="0 0 856 1599" fill="none" xmlns="http://www.w3.org/2000/svg">
<path d="M312.729 1319.33C257.836 1260.46 -25.3818 1308.98 38.2627 1442.64C83.6093 1538.1 327.845 1436.27 419.334 1477.64C515.596 1521.4 610.267 1602.54 728.805 1560.38C775.743 1543.67 842.57 1486.39 822.681 1429.91C798.018 1363.08 658.796 1344.78 599.925 1343.99C551.396 1343.19 505.254 1367.86 459.907 1368.65C400.24 1370.24 313.525 1340.01 257.836 1319.33H312.729Z" fill="black" fill-opacity="0.09"/>
<path d="M613.45 736.184C604.699 726.638 599.925 716.295 592.765 705.157C589.583 700.384 586.401 694.815 580.832 692.429C557.761 679.7 537.076 717.091 541.85 725.842C541.85 727.433 541.85 729.289 541.85 731.411C541.054 741.753 541.85 748.913 546.623 758.46C551.396 770.393 558.556 781.531 563.329 794.26C564.125 803.011 565.716 810.967 570.49 819.718C572.081 822.9 575.263 828.469 580.832 826.878C584.014 826.082 584.81 823.695 584.81 820.513C584.81 820.513 584.81 820.778 584.81 821.309C585.605 824.491 586.401 836.424 594.356 834.833C596.478 834.833 597.804 834.303 598.334 833.242C599.13 837.22 600.721 840.402 603.903 841.993C609.472 841.993 612.654 835.629 613.45 829.264C614.511 829.795 615.836 829.529 617.428 828.469C622.996 826.877 622.201 820.513 623.792 815.74C624.587 809.375 628.565 803.011 626.974 796.646C626.178 791.077 623.792 784.713 622.201 778.349C622.201 774.371 622.996 770.393 623.792 765.62C625.383 753.686 621.405 744.935 613.45 736.184Z" fill="#FCCB95"/>
<path d="M592.766 1355.13C592.766 1355.13 560.148 1388.54 568.9 1424.34C570.491 1432.3 595.948 1456.16 603.108 1456.96C610.268 1457.75 613.451 1459.35 619.815 1466.51C625.384 1474.46 623.793 1476.85 632.544 1486.39C642.091 1496.74 689.029 1525.38 729.602 1504.69C729.602 1504.69 734.375 1488.78 732.784 1483.21C731.989 1477.64 708.918 1451.39 696.984 1443.43C685.847 1435.48 658.002 1394.11 656.411 1386.15C654.024 1378.2 642.886 1371.83 642.886 1371.83C642.886 1371.83 623.793 1340.01 592.766 1355.13Z" fill="#1E160D"/>
<path d="M168.735 1254.89C168.735 1254.89 132.139 1284.32 135.321 1320.12C136.117 1328.87 159.188 1355.92 165.552 1357.51C172.712 1359.1 175.895 1360.7 180.668 1369.45C185.441 1377.4 183.054 1379.79 191.01 1390.93C198.966 1402.06 241.13 1436.27 284.885 1421.95C284.885 1421.95 291.25 1406.84 290.454 1400.47C290.454 1394.9 271.361 1366.26 261.019 1356.72C250.677 1347.17 228.401 1302.62 227.606 1293.87C226.81 1285.91 216.468 1277.96 216.468 1277.96C216.468 1277.96 201.352 1244.54 168.735 1254.89Z" fill="#1E160D"/>
<path d="M419.335 821.309C437.633 860.291 443.997 901.66 459.113 941.438C477.411 988.375 482.184 1048.04 516.393 1087.82C526.735 1099.75 554.579 1116.46 580.833 1106.91C595.948 1102.14 622.997 1089.41 623.793 1078.27C623.793 1059.18 622.202 1044.86 619.019 1035.31C613.45 1016.22 584.811 903.251 576.855 866.655C570.491 837.22 565.717 818.922 556.966 786.304C556.966 786.304 556.966 748.118 487.753 775.962C419.335 803.807 416.153 815.74 419.335 821.309Z" fill="black"/>
<path d="M509.232 1116.46C508.436 1089.41 501.276 1068.73 497.298 1038.5C493.321 1017.02 612.654 1020.99 624.587 1073.5C624.587 1073.5 638.112 1282.73 664.365 1345.58L668.343 1355.92C668.343 1355.92 673.116 1365.47 666.752 1373.42C665.956 1374.22 656.409 1384.56 642.885 1390.93C623.792 1398.88 595.947 1402.06 579.241 1389.34C537.872 1357.51 510.823 1207.95 509.232 1116.46Z" fill="black"/>
<path d="M331.029 829.265C331.824 871.429 315.913 915.185 313.526 957.349C311.14 1007.47 291.251 1063.95 305.571 1114.07C310.344 1129.19 328.641 1155.44 356.486 1157.83C372.397 1159.42 399.446 1157.03 407.402 1149.08C409.788 1146.69 415.357 1142.71 418.54 1133.96C432.86 1087.03 444.793 968.487 451.157 937.461C457.522 907.229 463.09 880.181 477.41 851.541C477.41 851.541 484.571 811.763 410.584 804.603C348.531 798.238 331.029 822.901 331.029 829.265Z" fill="#090F11"/>
<path d="M339.779 1042.47C361.259 1025.77 447.178 1104.53 411.379 1145.1C411.379 1145.1 284.09 1245.34 249.881 1303.42L243.516 1312.96C243.516 1312.96 239.539 1322.51 228.401 1322.51C227.605 1322.51 213.285 1321.71 200.556 1313.76C182.259 1303.42 163.961 1282.73 163.961 1262.05C163.961 1210.34 267.383 1098.96 339.779 1042.47Z" fill="#090F11"/>
<path d="M500.481 336.02C524.348 418.758 519.574 622.42 549.01 613.669C560.148 610.486 581.628 631.171 583.219 569.913C585.605 498.313 613.45 348.749 598.334 297.038C574.468 214.3 550.601 205.549 521.165 213.504C491.73 222.255 477.41 253.282 500.481 336.02Z" fill="#FCCB95"/>
<path d="M543.441 211.117C543.441 211.117 589.584 218.277 602.313 308.97C610.268 359.886 607.882 375.002 606.29 378.184C604.699 381.366 606.291 394.89 565.717 404.437L543.441 211.117Z" fill="#D7F4FF"/>
<path d="M480.592 563.548C506.846 637.535 561.739 787.895 587.197 778.348C596.743 775.166 627.77 772.78 615.041 750.504C591.97 710.726 594.357 650.264 586.401 573.891C584.015 546.046 564.921 522.975 568.104 487.971C569.695 470.468 516.392 515.815 490.935 525.362C465.477 534.909 462.295 511.042 480.592 563.548Z" fill="#FCCB95"/>
<path d="M414.56 250.1C407.4 251.691 335.005 288.286 303.182 324.086C279.316 351.135 276.133 414.78 276.929 422.735C277.724 449.784 315.115 614.464 320.684 651.06C326.253 687.655 321.48 728.229 321.48 752.891C321.48 775.962 315.115 844.38 316.706 855.518C323.866 892.113 420.129 884.953 438.427 884.158C498.093 880.18 572.876 835.629 566.511 806.193C549.009 722.66 555.373 480.015 562.533 450.58C570.489 420.349 607.085 262.829 561.738 222.255C549.805 211.913 547.418 210.322 533.098 211.118C482.978 213.504 422.516 248.509 414.56 250.1Z" fill="#E3F6FF"/>
<path d="M407.4 161.793C407.4 185.66 411.378 197.593 408.195 227.029C406.604 235.78 402.627 247.713 402.627 260.442C402.627 281.922 426.494 291.469 438.427 297.833C449.565 303.402 494.115 288.286 491.729 272.375C489.342 260.442 492.524 242.144 487.751 230.211C482.978 216.686 470.249 208.731 470.249 195.206L407.4 161.793Z" fill="#FCCB95"/>
<path d="M541.851 84.6238C540.26 97.3527 544.238 110.877 545.033 123.606C545.829 133.153 546.624 135.539 542.647 142.699C535.487 154.633 535.487 165.771 537.078 177.704C539.464 192.819 533.1 207.935 526.736 221.459C521.962 232.597 518.78 245.326 507.642 250.895C480.593 264.42 454.34 242.94 429.678 231.006C405.811 219.073 414.562 182.477 408.993 160.997C399.447 121.219 416.153 69.5083 459.909 58.3705C479.798 52.8017 510.824 52.8017 529.122 62.3483C535.487 66.3261 546.624 82.2371 539.464 88.6016L541.851 84.6238Z" fill="#FED8A7"/>
<path d="M408.994 9.04665C436.838 -10.0467 485.367 3.47791 522.758 27.3446C541.851 39.2779 543.442 67.918 543.442 67.918C546.625 76.6691 522.758 90.1935 516.394 91.7846C504.46 96.558 491.731 96.558 479.003 95.7624C471.047 94.9668 462.296 94.1711 455.136 92.58C450.363 90.9889 442.407 87.8068 438.429 87.8068C425.7 87.8068 423.313 103.718 420.131 113.264C417.745 120.424 413.767 126.789 412.176 135.54C411.38 139.518 412.176 184.069 405.811 184.069C397.06 184.864 368.42 140.313 369.216 117.242C370.012 102.127 360.465 42.46 408.994 9.04665Z" fill="black"/>
<path d="M389.103 154.634C393.081 169.749 401.036 180.092 407.401 178.501C413.765 176.909 422.516 164.181 418.539 149.861C414.561 134.745 400.241 123.607 393.876 125.198C387.512 126.789 385.125 140.314 389.103 154.634Z" fill="#FED8A7"/>
<path d="M257.04 803.01C254.654 794.259 289.658 768.006 297.614 779.144C305.569 787.895 338.982 848.357 340.574 850.744C343.756 855.517 345.347 858.699 348.529 863.473C351.711 870.633 351.711 880.179 350.12 888.135C349.325 895.295 351.711 902.455 350.12 909.615C348.529 915.184 345.347 919.957 344.551 925.526C343.756 930.299 342.165 934.277 342.165 939.05C342.165 941.437 340.574 944.619 339.778 947.006C337.392 947.006 333.414 945.415 331.823 943.028C329.436 943.824 331.823 944.619 330.231 947.006C330.231 948.597 329.436 952.575 326.254 951.779C319.094 949.392 319.094 941.437 319.094 941.437C319.094 942.233 319.094 943.824 318.298 945.415C310.343 943.824 307.956 938.255 307.161 933.481C306.365 929.504 307.16 915.184 306.365 911.206C305.569 903.25 301.591 896.09 298.409 888.93C298.409 892.643 298.675 896.621 299.205 900.864C299.205 912.001 306.365 915.979 297.614 923.935C278.521 909.615 284.089 887.339 277.725 865.859C263.405 853.13 262.609 818.921 257.04 803.01Z" fill="#FED8A7"/>
<path d="M348.529 478.425C348.529 478.425 342.165 512.634 331.028 548.434C321.481 579.461 306.365 610.488 307.956 635.15C311.934 715.501 303.979 806.194 311.934 822.105C327.845 853.928 290.454 826.879 282.498 823.697C250.676 813.354 235.561 738.572 230.787 646.288C226.014 561.959 250.676 511.043 253.063 454.559L348.529 478.425Z" fill="#FED8A7"/>
<path d="M346.939 324.883C346.939 324.883 370.806 331.248 370.01 371.821C368.419 412.394 358.873 468.083 358.873 468.083C358.873 468.083 352.508 501.497 276.93 485.586C246.699 479.221 243.517 453.763 245.904 445.012C252.268 421.941 276.93 288.288 346.939 324.883Z" fill="#F9FDFF"/>
</svg>
