<svg width="856" height="1599" viewBox="0 0 856 1599" fill="none" xmlns="http://www.w3.org/2000/svg">
<g clip-path="url(#clip0_53_2219)">
<path d="M124.013 1327.54C53.2088 1319.59 26.1599 1392.78 64.3466 1440.51C102.533 1490.63 148.675 1493.02 208.342 1490.63C256.075 1488.25 299.831 1505.75 345.178 1516.09C379.386 1524.05 412.005 1520.86 441.44 1539.96C513.04 1587.69 560.773 1648.95 657.035 1630.65C718.293 1619.51 766.822 1593.26 746.933 1524.05C728.635 1458.81 660.218 1461.2 606.916 1445.29C571.116 1434.15 554.409 1419.03 514.631 1421.42C468.489 1423.01 423.938 1432.56 377.796 1430.97C315.742 1427.78 262.44 1371.3 208.342 1341.86C159.018 1315.61 108.898 1311.63 51.6179 1311.63L124.013 1327.54Z" fill="black" fill-opacity="0.16"/>
<path d="M550.432 1408.69C550.432 1408.69 517.814 1442.1 525.77 1477.9C528.156 1485.86 553.614 1509.72 560.774 1510.52C567.934 1511.32 571.117 1512.91 576.685 1520.07C583.05 1528.02 581.458 1530.41 590.209 1539.95C599.756 1550.3 645.898 1578.94 687.267 1558.25C687.267 1558.25 691.245 1542.34 690.45 1536.77C688.859 1531.2 666.583 1504.95 654.65 1497C643.512 1489.04 615.667 1447.67 614.076 1439.72C611.689 1431.76 600.552 1425.4 600.552 1425.4C600.552 1425.4 581.458 1393.57 550.432 1408.69Z" fill="#1E160D"/>
<path d="M126.401 1308.45C126.401 1308.45 89.8049 1337.88 92.9871 1373.68C93.7827 1381.64 116.059 1409.48 123.219 1411.08C130.379 1412.67 133.561 1414.26 138.334 1423.01C143.107 1430.96 140.72 1433.35 148.676 1444.49C156.632 1455.63 198.796 1489.84 242.552 1475.52C242.552 1475.52 248.916 1459.6 248.12 1454.04C248.12 1448.47 229.028 1419.83 218.685 1410.28C208.343 1400.73 186.067 1356.18 185.272 1347.43C184.476 1339.48 174.134 1331.52 174.134 1331.52C174.134 1331.52 159.018 1298.11 126.401 1308.45Z" fill="#1E160D"/>
<path d="M375.411 876.461C393.709 915.443 400.074 956.812 415.985 996.59C433.487 1044.32 438.26 1103.19 472.469 1142.97C482.811 1154.91 510.656 1171.61 536.909 1162.86C552.025 1157.29 579.074 1145.36 579.869 1133.43C579.869 1114.33 578.278 1100.01 575.096 1090.47C569.527 1072.17 540.887 959.199 532.932 922.603C526.567 892.372 521.794 874.074 513.043 841.457C513.043 841.457 513.043 803.27 443.829 831.114C375.412 859.754 372.229 870.892 375.411 876.461Z" fill="#08273A"/>
<path d="M465.309 1171.61C464.514 1144.57 457.354 1123.88 453.376 1094.44C449.398 1072.17 569.527 1076.15 580.665 1128.65C580.665 1128.65 594.189 1337.88 620.443 1400.73L624.42 1411.08C624.42 1411.08 629.194 1420.62 622.829 1428.58C622.034 1429.37 612.487 1440.51 598.962 1446.08C579.869 1454.83 552.025 1457.22 535.318 1444.49C493.949 1413.46 466.9 1263.9 465.309 1171.61Z" fill="#08273A"/>
<path d="M287.105 884.417C287.9 927.377 271.989 970.337 269.602 1012.5C267.216 1063.42 247.327 1119.11 261.647 1169.23C266.42 1184.34 284.718 1211.39 312.563 1213.78C328.474 1215.37 355.522 1212.98 363.478 1205.03C365.864 1201.84 371.434 1197.87 374.616 1189.11C389.731 1142.97 400.869 1023.64 407.233 992.612C413.598 963.177 419.167 935.332 433.487 906.692C433.487 906.692 440.647 866.914 366.66 859.754C304.607 854.186 287.105 878.848 287.105 884.417Z" fill="#0B2F49"/>
<path d="M295.855 1097.63C317.335 1080.92 403.255 1159.68 368.251 1200.25C368.251 1200.25 240.166 1300.49 205.957 1359.36L199.593 1368.11C199.593 1368.11 195.615 1378.46 184.477 1377.66C183.681 1377.66 169.361 1376.87 156.632 1369.71C138.335 1358.57 120.037 1338.68 120.037 1317.2C120.037 1265.49 223.459 1154.11 295.855 1097.63Z" fill="#0B2F49"/>
<path d="M456.557 391.173C480.424 474.707 475.651 677.573 505.086 669.618C516.224 666.436 561.571 603.587 561.571 542.329C561.571 477.093 569.526 403.902 554.41 352.191C530.544 269.453 506.677 260.702 477.242 269.453C447.806 277.409 433.486 308.436 456.557 391.173Z" fill="#666666"/>
<path d="M439.055 679.959C465.308 753.946 533.726 881.234 559.184 871.688C568.731 868.506 598.962 858.959 594.188 834.297C589.415 807.248 575.891 741.217 567.935 664.048C564.753 633.021 556.002 598.812 559.184 566.99C560.775 549.488 488.379 609.155 462.922 618.701C437.464 628.248 420.757 627.452 439.055 679.959Z" fill="#666666"/>
<path d="M370.638 305.254C363.478 306.845 291.082 343.44 259.26 380.036C235.393 406.289 232.211 469.934 233.007 478.685C233.802 505.734 271.193 669.618 276.762 706.213C282.331 742.809 277.558 783.382 277.558 808.044C277.558 831.116 271.193 899.534 272.785 910.671C279.945 948.062 376.207 940.107 394.504 939.311C454.171 936.129 528.953 890.783 522.589 862.143C505.086 778.609 511.451 535.169 518.611 505.733C526.566 476.298 563.162 317.983 517.816 277.409C505.882 267.067 503.496 266.271 489.176 267.067C439.056 269.453 379.389 303.663 370.638 305.254Z" fill="#727272"/>
<path d="M248.918 525.621C269.603 609.155 314.154 752.355 368.252 742.809C379.389 741.217 380.981 691.097 373.821 664.844C355.523 601.995 360.296 541.533 347.567 489.026C326.087 405.493 301.425 395.946 271.989 403.106C242.553 411.062 227.438 441.293 248.918 525.621Z" fill="#828282"/>
<path d="M363.476 217.742C363.476 241.609 367.454 253.542 364.272 282.182C362.681 290.933 358.703 302.867 358.703 315.595C358.703 337.075 382.57 346.622 394.503 352.987C405.641 358.556 450.192 343.44 447.805 328.324C445.419 315.595 448.601 297.298 443.828 285.364C439.054 271.84 426.325 264.68 426.325 250.36L363.476 217.742Z" fill="#FCCB95"/>
<path d="M401.663 720.533C456.557 664.048 532.93 538.351 513.041 520.053C505.085 513.689 483.605 490.617 463.716 505.733C432.69 529.6 380.979 613.133 322.903 670.413C310.174 683.142 309.378 701.44 329.267 719.738C349.156 738.035 363.477 760.311 401.663 720.533Z" fill="#828282"/>
<path d="M517.019 157.281C512.246 169.214 513.837 183.534 512.246 196.263C511.45 205.014 511.45 208.196 505.881 214.561C497.13 224.903 494.743 235.245 493.948 247.974C492.357 263.09 483.605 275.819 474.854 288.547C467.694 298.094 462.126 310.028 450.192 313.21C420.757 321.166 399.277 294.912 377.797 278.205C356.317 261.499 372.228 228.085 371.432 205.014C369.841 164.441 396.89 117.503 442.237 115.116C462.126 113.525 493.153 119.89 509.064 133.414C514.633 138.187 522.588 156.485 513.837 161.259L517.019 157.281Z" fill="#FED8A7"/>
<mask id="mask0_53_2219" style="mask-type:luminance" maskUnits="userSpaceOnUse" x="340" y="53" width="183" height="175">
<path d="M402.219 56.7212C432.848 43.6741 477.638 66.7455 509.937 97.7721C526.087 113.285 521.552 141.368 521.552 141.368C523.302 150.199 497.129 158.632 490.764 159.587C477.717 161.496 465.625 159.189 453.055 155.688C445.418 153.54 437.542 150.677 430.541 147.494C426.006 145.426 419.244 140.811 414.63 139.777C402.776 136.993 397.287 152.267 392.116 160.621C387.74 167.701 382.967 173.032 379.546 180.987C377.955 184.647 370.238 228.402 363.953 227.448C355.361 226.095 336.268 176.771 341.439 154.734C344.86 140.175 348.042 79.7923 402.219 56.7212Z" fill="white"/>
</mask>
<g mask="url(#mask0_53_2219)">
<path d="M521.793 43.5156V228.085H340.406V43.5156H521.793Z" fill="#231F20"/>
<path d="M521.793 228.085V43.5156H525.771V228.085H521.793Z" fill="#231F20"/>
</g>
<path d="M353.133 195.466C353.929 210.581 360.293 222.515 366.658 222.515C373.022 221.719 384.16 211.377 383.364 196.261C382.569 181.146 370.636 167.621 364.271 167.621C357.111 167.621 352.338 180.35 353.133 195.466Z" fill="#FED8A7"/>
<path d="M485.194 481.866C484.399 492.209 499.514 500.165 517.812 500.165C536.109 500.96 550.429 492.209 550.429 481.866C550.429 471.524 536.109 462.773 517.812 462.773C499.514 462.773 485.194 471.524 485.194 481.866Z" fill="#4057FF"/>
<path d="M561.568 374.467H474.057L485.195 481.867H550.43L561.568 374.467Z" fill="#4057FF"/>
<path d="M474.057 374.467C474.057 387.992 493.946 399.13 517.812 399.13C541.679 399.13 561.568 387.992 561.568 374.467C561.568 360.943 541.679 349.01 517.812 349.01C493.946 349.01 474.057 360.147 474.057 374.467Z" fill="white"/>
<path d="M517.813 380.036C514.631 380.036 511.449 377.649 511.449 374.467V317.983L454.964 279.001C451.782 277.409 451.782 273.432 453.373 271.045C454.965 267.863 458.942 267.068 461.329 269.454L520.996 310.027L523.382 314.801V374.467C523.382 377.649 520.995 380.036 517.813 380.036Z" fill="white"/>
<path d="M471.67 458.001C471.67 447.659 463.715 434.134 465.306 423.792C465.306 420.61 466.102 416.632 469.284 414.245C471.671 412.654 477.239 411.859 477.239 409.472C479.626 422.997 480.422 445.272 495.537 452.432C502.697 456.41 507.47 452.432 513.835 449.25C517.017 448.454 520.199 446.863 522.586 444.477C524.972 441.295 540.088 426.974 543.27 422.997C545.657 418.223 553.613 396.743 559.182 395.152C563.159 394.357 566.342 403.903 567.137 408.677C567.137 411.859 563.955 416.632 562.363 419.814C556.795 434.93 559.181 433.339 553.613 438.112C555.204 436.521 559.181 430.157 559.977 427.77C565.546 411.859 570.319 430.156 570.319 434.134C571.115 439.703 561.568 452.432 559.977 457.206C569.524 438.112 571.115 457.206 570.319 460.388C569.523 464.366 560.772 471.525 559.977 475.503C559.977 475.503 566.342 464.365 568.728 469.934C572.706 477.094 552.817 496.983 548.044 500.166C534.519 512.099 517.017 528.01 499.515 523.237C492.355 521.645 486.786 517.668 482.013 512.894C462.919 493.801 472.466 466.752 471.67 458.001Z" fill="#FED8A7"/>
<path d="M626.008 881.237C617.257 871.69 612.483 861.348 605.323 851.006C602.141 845.437 599.754 840.664 594.185 837.481C570.319 824.752 549.634 862.939 554.408 870.895C554.408 873.016 554.408 874.873 554.408 876.464C553.612 886.806 555.203 893.966 559.181 903.512C564.75 916.241 571.114 927.379 575.888 939.312C576.683 948.063 578.275 956.815 583.048 964.77C585.435 968.748 588.617 973.521 594.185 971.93C596.572 971.135 597.368 968.748 597.368 965.566C597.368 966.096 597.633 966.361 598.163 966.361C598.959 969.544 599.755 981.477 606.915 980.681C609.036 980.151 610.627 979.355 611.688 978.295C611.688 982.272 613.279 986.25 617.257 987.046C622.03 987.046 625.212 981.477 626.803 974.317C627.864 974.847 629.19 974.847 630.781 974.317C635.555 971.93 634.759 965.566 636.35 960.792C637.941 955.224 641.123 948.859 639.532 941.699C638.737 936.13 636.35 929.766 634.759 923.401C634.759 919.423 635.555 916.241 636.35 911.468C637.941 898.739 634.759 889.988 626.008 881.237Z" fill="#FCCB95"/>
</g>
<defs>
<clipPath id="clip0_53_2219">
<rect width="856" height="1599" fill="white"/>
</clipPath>
</defs>
</svg>
