<svg width="4866" height="5162" viewBox="0 0 4866 5162" fill="none" xmlns="http://www.w3.org/2000/svg">
<g clip-path="url(#clip0_56_2513)">
<path d="M248.852 885.767C248.852 498.613 562.702 184.762 949.857 184.762H4166.87C4554.03 184.762 4867.88 498.613 4867.88 885.767V4461.44C4867.88 4848.59 4554.03 5162.44 4166.87 5162.44H949.857C562.702 5162.44 248.852 4848.59 248.852 4461.44V885.767Z" fill="#DB8113"/>
<path d="M4079.93 24.4531L2137.22 339.634L314.062 407.561L83.111 3534.92C59.563 3611.9 -8.18242 3837.05 7.03321 4360.91C22.2488 4884.76 610.224 5126.22 890.083 5151.58L2906.15 5061.91C3555.53 3819.3 4884.73 1270.5 4865.16 809.688C4845.6 348.872 4271.03 59.7751 4079.93 24.4531Z" fill="#DB8013"/>
<path d="M-1.11914 701.005C-1.11914 313.851 312.732 0 699.886 0H3916.9C4304.06 0 4617.91 313.851 4617.91 701.006V4276.68C4617.91 4663.83 4304.06 4977.68 3916.9 4977.68H699.886C312.732 4977.68 -1.11914 4663.83 -1.11914 4276.68V701.005Z" fill="#F7931A"/>
<path d="M558.599 749.912C558.599 653.874 636.453 576.02 732.492 576.02H3878.87C3974.9 576.02 4052.76 653.874 4052.76 749.912V1651.98C4052.76 1748.02 3974.9 1825.87 3878.87 1825.87H732.492C636.453 1825.87 558.599 1748.02 558.599 1651.98V749.912Z" fill="#F2F2F2"/>
<path fill-rule="evenodd" clip-rule="evenodd" d="M1014.31 3237.19C989.107 3258.01 931.82 3418.03 933.006 3464.31C934.438 3520.5 939.064 3532.54 969.82 3560.12L1000.2 3587.36L1083.9 3580.7C1161.96 3574.5 1168.58 3572.82 1182.11 3555.92C1201.36 3531.85 1198.36 3490.79 1176.1 3473.65C1163.65 3464.06 1145.87 3461.47 1102.63 3462.94L1045.58 3464.88L1060.61 3422.24C1068.87 3398.79 1082.18 3362.75 1090.18 3342.16C1110.01 3291.06 1106.46 3254.35 1079.97 3236.72C1056.11 3220.84 1033.92 3221 1014.31 3237.19ZM1384.17 3228.74C1368.14 3243.19 1362.09 3262.29 1352.63 3328.22C1334.82 3452.34 1330.35 3476.86 1321.63 3498.48C1310.02 3527.27 1312.48 3555.11 1328.34 3574.3C1346.22 3595.96 1397.55 3591.76 1417.27 3567.03C1432.74 3547.64 1460.49 3442.72 1458.17 3412.43C1457.36 3401.92 1461.51 3371.47 1467.4 3344.77C1481.86 3279.21 1478.73 3247.82 1455.94 3229.57C1435.98 3213.61 1401.38 3213.21 1384.17 3228.74ZM1670.29 3266.36C1607.6 3298.15 1596.42 3310.71 1564.42 3385.17C1534.36 3455.17 1529.33 3499.88 1548.22 3529.31C1572.13 3566.54 1669.6 3599.27 1741.43 3594.17C1767.09 3592.36 1774.81 3587.84 1792.26 3564.46C1804.27 3548.37 1813.2 3541.38 1813.69 3547.66C1814.94 3563.37 1845.35 3578.84 1870.84 3576.76C1882.97 3575.77 1902.22 3567.53 1913.6 3558.45C1924.98 3549.38 1943.75 3536.31 1955.31 3529.42C1966.87 3522.53 1989.37 3502.68 2005.31 3485.33C2031.87 3456.41 2037.69 3453.48 2074.61 3450.55L2114.92 3447.34L2101.35 3467.75C2083.7 3494.27 2086.76 3545.02 2106.94 3560.56C2127.63 3576.5 2169.68 3571.23 2185.14 3550.75C2192.1 3541.54 2215.2 3524.57 2236.47 3513.04C2286.68 3485.82 2303.95 3466.46 2320.94 3418.32C2328.6 3396.65 2344.44 3362.37 2356.13 3342.15C2373.66 3311.88 2376.88 3298.5 2374.44 3266.21C2371.84 3232.06 2368.78 3225.31 2350.59 3213.75C2333.55 3202.92 2325.49 3202.07 2306.7 3209.12C2288.56 3215.92 2278.09 3229.07 2257.36 3271.07C2240.57 3305.08 2227.25 3323.53 2220.57 3322.01C2214.8 3320.71 2188.61 3319.49 2162.37 3319.3C2134.08 3319.1 2118.17 3316.27 2123.3 3312.35C2128.06 3308.7 2131.05 3294.44 2129.95 3280.64C2127.23 3246.44 2104.42 3228.07 2068.23 3230.95C2044.01 3232.88 2036.36 3238.07 2014.28 3267.55C2000.15 3286.44 1975.42 3323.34 1959.35 3349.54C1943.27 3375.74 1916.77 3407.06 1900.46 3419.13C1884.15 3431.2 1857 3453.06 1840.13 3467.7L1809.45 3494.32L1807.08 3464.46C1805.77 3448.04 1799.31 3425.94 1792.72 3415.34C1773.24 3384.04 1727.99 3373.56 1697.33 3393.25C1688.57 3398.87 1684.54 3399.44 1686.97 3394.7C1689.16 3390.43 1713.22 3376.33 1740.44 3363.37C1767.65 3350.41 1794.26 3332.43 1799.57 3323.4C1823.97 3281.91 1792.4 3238.08 1741.26 3242.46C1725.48 3243.81 1693.55 3254.57 1670.29 3266.36ZM2405.9 3238.1C2388.83 3263.74 2390.4 3286.16 2410.8 3308.25C2426.66 3325.41 2426.68 3325.63 2416.52 3383.98C2409.67 3423.41 2401.42 3446.96 2391.22 3456.16C2355.95 3488.05 2352.4 3494.68 2354.76 3524.38C2356.69 3548.65 2362.17 3558.56 2383.9 3577.08C2412.98 3601.87 2436.6 3604.35 2459.95 3585.06C2480.42 3568.16 2515.07 3486.93 2526.42 3429.28C2531.66 3402.64 2539.8 3366.5 2544.5 3348.98C2552.63 3318.65 2554.46 3317 2582.34 3314.78C2610.67 3312.53 2611.26 3312.95 2600.21 3327.3C2580.81 3352.49 2550.16 3516.61 2557.85 3554.06C2568.91 3607.84 2619.28 3629.68 2654.67 3596.05C2666.34 3584.95 2670.74 3570.86 2671.4 3542.45L2672.28 3503.9L2699.75 3536.45C2743.47 3588.26 2796.9 3598.6 2833.61 3562.36C2863.45 3532.91 2896.89 3454.45 2902.21 3401.42C2904.75 3376.13 2910.71 3343.58 2915.45 3329.1C2920.19 3314.6 2922.42 3281.89 2920.39 3256.39C2917.29 3217.37 2913.84 3207.75 2898.57 3195.53C2861.2 3165.63 2805.45 3194.93 2809.23 3242.48C2810.34 3256.35 2807.35 3279.56 2802.62 3294.05C2797.87 3308.54 2791.91 3341.1 2789.38 3366.4C2782.33 3436.8 2775.73 3439.32 2743.51 3383.85C2727.05 3355.51 2704.18 3327.98 2687.31 3316.19C2662.43 3298.8 2660.18 3295.02 2669.34 3286.1C2685.35 3270.51 2679.16 3231.62 2657.98 3214.67C2641.01 3201.09 2632.76 3200.72 2529.66 3208.92L2419.48 3217.69L2405.9 3238.1ZM2999.3 3244.12C2986.22 3256.56 2984.14 3265.35 2987.61 3293.45C2993.4 3340.37 2986.39 3383.89 2959.13 3470.22C2931.26 3558.46 2931.51 3587.87 2960.27 3607.01C3007.47 3638.42 3039.51 3611.28 3069.55 3514.48C3098.51 3421.13 3105.85 3374.23 3101 3313.33C3097.68 3271.59 3093.53 3257.57 3080.21 3243.16C3059.92 3221.19 3022.96 3221.64 2999.3 3244.12ZM3182.81 3229.94C3175.63 3238.36 3166.08 3261.4 3161.57 3281.15C3147.85 3341.26 3139.13 3368.35 3124.22 3397.22C3116.37 3412.4 3106.12 3439.22 3101.45 3456.81C3091.85 3492.92 3095.66 3568.89 3108.03 3588.17C3119.41 3605.88 3157.85 3614.93 3179.05 3604.88C3200.75 3594.59 3207 3579.07 3209.34 3529.73C3210.38 3507.83 3215.66 3479.39 3221.06 3466.54L3230.88 3443.16L3260.14 3506.77C3281.93 3554.12 3290.49 3582.77 3293.66 3618.98C3297.29 3660.33 3301.01 3670.73 3318.59 3688.53C3333.82 3703.97 3345.44 3708.97 3362.85 3707.58C3390.98 3705.35 3416.13 3677.88 3414.05 3651.68C3412.47 3631.9 3429.32 3558.89 3450.38 3494.28C3457.97 3470.97 3463.53 3442.47 3462.73 3430.93C3461.93 3419.39 3465.82 3386.48 3471.38 3357.79C3484.89 3287.96 3482.5 3264.09 3460.2 3246.24C3436.73 3227.46 3408.37 3230.09 3385.48 3253.17C3371.69 3267.09 3364.48 3287.74 3355.84 3338.07C3349.56 3374.64 3343.61 3398.23 3342.61 3390.46C3339.04 3362.76 3283.51 3240.37 3267.73 3225.42C3246.83 3205.63 3201.48 3208.04 3182.81 3229.94ZM1678.14 3474.25C1672.11 3482.98 1660.32 3462.29 1664.08 3449.58C1667.95 3436.51 1668.91 3436.83 1674.41 3453.03C1677.74 3462.85 1679.43 3472.41 1678.14 3474.25ZM3672.03 3358.34C3652.68 3383.06 3620.65 3438.63 3592 3497.19C3572.38 3537.27 3572.27 3538.57 3581.59 3619.07C3589.18 3684.73 3594.53 3706.05 3609.28 3729.47C3644.6 3785.57 3681.97 3796.33 3745.01 3768.59C3890.09 3704.76 3962.86 3591.19 3899.68 3527.18C3879.63 3506.87 3808.71 3481.36 3778.87 3483.74C3750.42 3486 3725.99 3514.93 3728.27 3543.65C3730.33 3569.49 3759.04 3602.7 3778.01 3601.2C3791.66 3600.11 3778.89 3612.03 3739.99 3636.67C3721.13 3648.62 3703.83 3656.8 3701.55 3654.86C3699.27 3652.91 3694.62 3632.63 3691.21 3609.78C3685.24 3569.7 3686.19 3566.23 3718.22 3511.15C3762.09 3435.71 3769.54 3416.73 3767.13 3386.52C3765.65 3367.82 3759.76 3357.61 3744.7 3347.59C3716.74 3328.98 3692.18 3332.61 3672.03 3358.34ZM838.183 3702.72C817.752 3713.17 801.975 3741.64 803.813 3764.74C807.643 3812.9 870.734 3825.1 1044.44 3811.28C1132.7 3804.26 1176.25 3804.21 1224.78 3811.08C1310.85 3823.24 1474.84 3817.15 1494.31 3801.05C1524.64 3776 1514.14 3718.02 1476.83 3704.48C1466.53 3700.73 1427.3 3700.13 1389.64 3703.12C1343.55 3706.79 1300.98 3705.06 1259.34 3697.83C1210.87 3689.42 1163.47 3688.61 1040.31 3694.1C953.857 3697.95 876.412 3699.73 868.208 3698.05C860.004 3696.37 846.495 3698.47 838.183 3702.72ZM1783.65 3677.95C1752.08 3700.83 1709.93 3769.61 1638.78 3914.33C1626.42 3939.49 1590.4 3991.88 1558.74 4030.75C1490.51 4114.55 1478.9 4135.04 1481.46 4167.15C1484.38 4203.91 1503.44 4222.36 1535.56 4219.53C1550.36 4218.23 1567.75 4212.43 1574.21 4206.67C1583.15 4198.69 1594.51 4197.23 1621.78 4200.59C1650.68 4204.16 1665.5 4201.82 1698.46 4188.5C1759.83 4163.69 1777.52 4126.11 1752.57 4073.49C1744.41 4056.29 1745.91 4051.67 1766.93 4029.12C1788.57 4005.87 1793.46 3993.23 1796.22 3953.25C1796.86 3943.92 1803.84 3937.04 1815.2 3934.56C1825.07 3932.4 1838.12 3925.43 1844.19 3919.07C1854.13 3908.67 1855.94 3910.11 1862.28 3933.5C1866.15 3947.79 1871.49 3964.03 1874.15 3969.58C1877.33 3976.23 1874.06 3980.07 1864.6 3980.83C1841.75 3982.64 1816.1 4011.47 1805.65 4047.05C1797.02 4076.45 1797.33 4081.96 1808.58 4100.03C1820.34 4118.94 1820.13 4121.55 1805.23 4141.95C1790.39 4162.25 1786.8 4180.55 1792.51 4206.66C1797.39 4228.98 1826.63 4245.43 1888.56 4260.69C1945.43 4274.7 1954.8 4275.18 1974.4 4265.18C2011.65 4246.17 2016.33 4217.27 2003.73 4084.05C1990.46 3943.85 1973.76 3872.34 1930.4 3770.07C1905.2 3710.63 1892.03 3688.56 1874.14 3675.79C1846.19 3655.83 1813.1 3656.62 1783.65 3677.95ZM2006.41 3756.78C1997.7 3767 1993.76 3782.24 1995.19 3800.2C1998.46 3841.36 2040.97 3873.66 2101.61 3881.07L2147 3886.62L2131.53 3947.57C2115.17 4012.01 2101.18 4119.18 2104.22 4156.75C2107.7 4199.65 2165.4 4222.43 2198.47 4193.96C2205.35 4188.03 2216.86 4169.19 2224.06 4152.07C2231.25 4134.96 2259.18 4081.83 2286.13 4034.02C2343.61 3932.01 2347.11 3920.66 2329.87 3892.04C2314.35 3866.27 2314.78 3866.02 2390.35 3856.77C2439.56 3850.74 2448.83 3847.31 2464.08 3829.42C2485.23 3804.62 2485.7 3763.03 2465.04 3743.57C2452.2 3731.47 2440 3731.48 2289.37 3743.75C2153.96 3754.77 2122.7 3755.31 2098.28 3747.02C2058.63 3733.57 2022.97 3737.36 2006.41 3756.78ZM788.183 3891.08C753.829 3914.66 748.781 3962.16 777.981 3987.06C793.73 4000.48 798.918 4000.4 937.352 3984.49C1049.83 3971.57 1107.09 3968.66 1205.03 3970.89L1329.63 3973.73L1344.83 3952.91C1353.2 3941.46 1359.44 3924.52 1358.71 3915.26C1356.75 3890.6 1328.52 3863.79 1296.84 3856.5C1257.51 3847.45 807.148 3878.07 788.183 3891.08ZM2540.36 3767.5C2522.59 3788.37 2472.35 3896.77 2473.74 3911.27C2474.27 3916.78 2464.96 3945.18 2453.07 3974.37C2421.81 4051.05 2402.33 4122.45 2404.67 4151.77C2407.33 4185.26 2433.76 4207.02 2468.44 4204.26C2506.19 4201.25 2515.61 4188.42 2530.17 4120.19C2537.43 4086.16 2551.14 4040.88 2560.64 4019.56L2577.9 3980.79L2596.92 4048.14C2628.03 4158.26 2655.69 4196.7 2701.25 4193.08C2721.48 4191.47 2729.94 4183.24 2776.7 4119.8C2791.46 4099.79 2821.1 4067.9 2842.59 4048.94C2864.06 4029.99 2892 4003.57 2904.66 3990.23C2922.64 3971.27 2926.71 3969.25 2923.25 3980.99C2920.81 3989.26 2914.87 4022.75 2910.03 4055.41C2905.21 4088.08 2896.13 4134.6 2889.86 4158.8C2877.17 4207.73 2881.74 4232.23 2906.25 4246.64C2933.92 4262.91 2966.78 4255.55 2985.89 4228.8C3003.14 4204.63 3005.82 4194.52 3022.43 4090.49C3027.66 4057.8 3037.87 3998.02 3045.15 3957.66C3062.35 3862.18 3058.84 3813.08 3032.97 3787.43C3016.26 3770.87 3008.51 3768.78 2973.95 3771.53L2934.15 3774.7L2881.41 3838.28C2814.16 3919.34 2714.78 4011.37 2707.04 3999.75C2702.04 3992.24 2683.48 3925.95 2656.38 3818.8C2639.99 3754.02 2575.96 3725.71 2540.36 3767.5ZM743.205 4063.52C709.12 4086.6 704.083 4131.39 732.625 4157.52C748.649 4172.19 750.605 4172.15 1012.77 4151.36C1157.97 4139.84 1293.75 4131.11 1314.5 4131.94C1346.74 4133.24 1354.3 4131.03 1366.48 4116.74C1380.48 4100.31 1382.87 4069.02 1371.89 4046.02C1368.88 4039.73 1355.71 4029.78 1342.62 4023.91C1321.5 4014.43 1287.1 4015.54 1037.97 4033.66C838.798 4048.15 753.076 4056.84 743.205 4063.52Z" fill="white"/>
</g>
<defs>
<clipPath id="clip0_56_2513">
<rect width="4866" height="5162" fill="white"/>
</clipPath>
</defs>
</svg>
