<svg width="2516" height="2516" viewBox="0 0 2516 2516" fill="none" xmlns="http://www.w3.org/2000/svg">
<circle cx="1211.67" cy="1219.67" r="1050.67" fill="#D9D9D9"/>
<path d="M2356 1295.77C2356 1876.04 1885.6 2346.44 1305.33 2346.44C725.056 2346.44 254.653 1876.04 254.653 1295.77C254.653 715.496 725.056 245.094 1305.33 245.094C1885.6 245.094 2356 715.496 2356 1295.77Z" fill="#787878"/>
<circle cx="1211.67" cy="1219.67" r="1050.67" fill="white"/>
<path fill-rule="evenodd" clip-rule="evenodd" d="M1081.05 183.383C849.397 212.964 634.315 324.412 463.727 503.261C342.014 630.864 257.611 781.181 213.191 949.471C86.9576 1427.61 314.365 1929.91 756.205 2148.92C1169.7 2353.87 1657.38 2266.51 1976.8 1930.25C2329.74 1558.73 2358.72 991.828 2045.8 581.008C1990.73 508.726 1872.21 398.206 1794.26 346.468C1588.97 210.208 1331.7 151.38 1081.05 183.383ZM1288.01 566.849C1289.53 568.334 1280.59 609.661 1268.14 658.7L1245.49 747.86L1282.58 757.844C1302.97 763.328 1324.7 765.889 1330.88 763.523C1337.04 761.157 1349.75 725.684 1359.11 684.69C1368.47 643.687 1378.96 605.588 1382.42 600.002C1390.4 587.095 1484.81 607.407 1490.92 623.338C1493.21 629.314 1486.5 667.812 1476.02 708.898C1465.52 749.976 1456.93 788.075 1456.93 793.558C1456.93 799.033 1483.48 815.549 1515.92 830.256C1625.27 879.824 1679.68 947.318 1679.68 1033.37C1679.68 1118.79 1638.81 1193.78 1578.13 1219.69L1544.49 1234.05L1592.7 1281C1651.84 1338.62 1667.9 1385.82 1653.23 1458.84C1620.36 1622.48 1520.84 1694.48 1344.79 1681.99C1300.66 1678.85 1258.28 1673.89 1250.62 1670.95C1239.87 1666.83 1233.13 1680.03 1221.04 1728.75C1212.43 1763.48 1201.4 1807.08 1196.51 1825.63L1187.63 1859.38L1132.02 1845.37C1068.07 1829.27 1068.79 1831.46 1094.97 1731.58C1118.31 1642.55 1118.28 1642.15 1088.01 1635.54C1073.96 1632.48 1053.82 1627.47 1043.22 1624.44C1025.52 1619.36 1022.24 1626.48 1002.76 1712.37C991.102 1763.76 977.607 1805.81 972.772 1805.81C956.947 1805.81 877.027 1784.88 870.298 1778.97C866.688 1775.81 873.918 1733.57 886.355 1685.12C898.792 1636.68 909.057 1594.71 909.159 1591.86C909.261 1589.01 859.226 1574.64 797.97 1559.92C736.714 1545.21 686.596 1529.58 686.596 1525.2C686.596 1520.83 698.077 1490.32 712.119 1457.42C730.867 1413.49 741.336 1399.03 751.564 1402.97C759.221 1405.93 787.241 1410.67 813.841 1413.49C858.298 1418.21 862.957 1416.84 871.7 1396.49C886.002 1363.19 1002.16 888.305 1002.16 863.113C1002.16 836.547 975.519 817.962 916.305 803.199C865.064 790.431 862.744 776.495 895.311 676.97C897.78 669.408 929.995 674.168 1003.85 693.004C1061.63 707.729 1113.64 719.875 1119.45 719.987C1125.26 720.098 1139.42 681.563 1150.91 634.362C1162.4 587.16 1173.32 545.795 1175.16 542.455C1178.03 537.231 1280.27 559.333 1288.01 566.849ZM1207.23 922.005C1188.15 994.872 1159.94 1108.53 1159.94 1112.5C1159.94 1114.78 1186.04 1122.21 1217.94 1129.01C1337.15 1154.42 1417.48 1140.7 1443.45 1090.5C1485.4 1009.4 1425.57 938.058 1284.91 901.434C1254.86 893.612 1227.15 887.21 1223.31 887.21C1219.47 887.21 1212.24 902.872 1207.23 922.005ZM1127.74 1241.48C1116.8 1272.89 1068.49 1476.24 1071.3 1479.05C1080.45 1488.2 1182.32 1509.74 1240.93 1514.92C1357.45 1525.23 1419.81 1486.33 1419.81 1403.35C1419.81 1340.83 1346.55 1284.85 1224.25 1253.92C1191.43 1245.61 1157.24 1236.67 1148.29 1234.03C1139.33 1231.4 1130.08 1234.76 1127.74 1241.48Z" fill="#F7931A"/>
<path fill-rule="evenodd" clip-rule="evenodd" d="M1211.67 2112.31C1704.66 2112.31 2104.31 1712.66 2104.31 1219.67C2104.31 726.686 1704.66 327.04 1211.67 327.04C718.686 327.04 319.04 726.686 319.04 1219.67C319.04 1712.66 718.686 2112.31 1211.67 2112.31ZM1211.67 2270.35C1791.94 2270.35 2262.35 1799.94 2262.35 1219.67C2262.35 639.403 1791.94 169 1211.67 169C631.403 169 161 639.403 161 1219.67C161 1799.94 631.403 2270.35 1211.67 2270.35Z" fill="#D9D9D9"/>
</svg>
