<svg width="2516" height="2516" viewBox="0 0 2516 2516" fill="none" xmlns="http://www.w3.org/2000/svg">
<circle cx="1210.04" cy="1260.04" r="1076.04" fill="#D9D9D9"/>
<path d="M2382 1337.97C2382 1932.25 1900.24 2414.01 1305.96 2414.01C711.675 2414.01 229.915 1932.25 229.915 1337.97C229.915 743.69 711.675 261.93 1305.96 261.93C1900.24 261.93 2382 743.69 2382 1337.97Z" fill="#D9D9D9"/>
<path fill-rule="evenodd" clip-rule="evenodd" d="M1210.04 2174.23C1714.93 2174.23 2124.23 1764.93 2124.23 1260.04C2124.23 755.151 1714.93 345.856 1210.04 345.856C705.151 345.856 295.856 755.151 295.856 1260.04C295.856 1764.93 705.151 2174.23 1210.04 2174.23ZM1210.04 2336.09C1804.32 2336.09 2286.09 1854.32 2286.09 1260.04C2286.09 665.761 1804.32 184 1210.04 184C615.761 184 134 665.761 134 1260.04C134 1854.32 615.761 2336.09 1210.04 2336.09Z" fill="#787878"/>
<path d="M731.213 1496.82V959.699H963.71C1011.8 959.699 1053.23 967.628 1088.02 983.486C1122.8 998.832 1149.66 1021.08 1168.58 1050.24C1187.51 1079.4 1196.97 1114.19 1196.97 1154.6C1196.97 1194.5 1187.51 1229.03 1168.58 1258.19C1149.66 1286.83 1122.8 1308.83 1088.02 1324.17C1053.23 1339.52 1011.8 1347.19 963.71 1347.19H800.271L855.518 1292.71V1496.82H731.213ZM1072.67 1496.82L938.389 1301.92H1071.13L1206.95 1496.82H1072.67ZM855.518 1306.53L800.271 1248.21H956.804C995.17 1248.21 1023.82 1240.03 1042.74 1223.66C1061.67 1206.78 1071.13 1183.76 1071.13 1154.6C1071.13 1124.93 1061.67 1101.91 1042.74 1085.54C1023.82 1069.17 995.17 1060.99 956.804 1060.99H800.271L855.518 1001.9V1306.53Z" fill="#787878"/>
<path d="M1531.03 1502.96C1496.24 1502.96 1465.81 1495.29 1439.72 1479.94C1413.63 1464.59 1393.17 1441.32 1378.33 1410.11C1364.01 1378.4 1356.85 1338.5 1356.85 1290.41C1356.85 1241.82 1363.75 1201.92 1377.56 1170.71C1391.38 1139.51 1411.33 1116.23 1437.41 1100.89C1463.5 1085.54 1494.71 1077.87 1531.03 1077.87C1569.9 1077.87 1604.69 1086.82 1635.38 1104.72C1666.59 1122.11 1691.14 1146.67 1709.04 1178.38C1727.46 1210.1 1736.67 1247.44 1736.67 1290.41C1736.67 1333.89 1727.46 1371.49 1709.04 1403.21C1691.14 1434.92 1666.59 1459.48 1635.38 1476.87C1604.69 1494.26 1569.9 1502.96 1531.03 1502.96ZM1287.02 1645.68V1084H1401.35V1168.41L1399.05 1291.18L1406.72 1413.18V1645.68H1287.02ZM1510.31 1404.74C1530.26 1404.74 1547.91 1400.14 1563.25 1390.93C1579.11 1381.72 1591.65 1368.68 1600.85 1351.8C1610.57 1334.41 1615.43 1313.94 1615.43 1290.41C1615.43 1266.37 1610.57 1245.91 1600.85 1229.03C1591.65 1212.15 1579.11 1199.1 1563.25 1189.89C1547.91 1180.69 1530.26 1176.08 1510.31 1176.08C1490.36 1176.08 1472.46 1180.69 1456.6 1189.89C1440.74 1199.1 1428.21 1212.15 1419 1229.03C1409.79 1245.91 1405.19 1266.37 1405.19 1290.41C1405.19 1313.94 1409.79 1334.41 1419 1351.8C1428.21 1368.68 1440.74 1381.72 1456.6 1390.93C1472.46 1400.14 1490.36 1404.74 1510.31 1404.74Z" fill="#787878"/>
</svg>
