<svg width="3901" height="8427" viewBox="0 0 3901 8427" fill="none" xmlns="http://www.w3.org/2000/svg">
<g clip-path="url(#clip0_57_2522)">
<path d="M3101.19 3140.71L3448.12 2573.51L3521.55 2450.53L3387.55 2503.76L2952.51 2676.3L3470.15 1655.71L3517.87 1562.1L3411.41 1554.75L2445.88 1481.33L2471.58 1451.96L2601.91 1306.95L2405.5 1305.11L1876.85 1299.6L3143.41 0H2847.88L1583.15 1327.14L1425.29 1490.51L1645.56 1488.67L358.807 3223.31L245 3375.67L423.053 3309.59L867.268 3144.38L373.492 3816.21L320.26 3889.64L408.368 3876.79L848.912 3805.2L492.806 4772.56L474.45 4822.12L518.504 4794.59L951.706 4532.1L665.352 5504.96L984.747 4508.23L993.925 4477.03L966.391 4493.55L546.038 4735.85L926.008 3775.83L944.364 3726.27L891.131 3733.61L489.135 3790.51L1043.49 3070.96L1142.61 2940.63L988.418 2995.7L566.23 3140.71L1852.99 1486.84L2210.93 1485L1592.33 2204.56L1526.25 2279.82L1614.36 2325.71L1981.48 2516.61L1599.67 2834.17L1454.66 2957.15L1643.73 2955.32L1930.08 2953.48L1359.21 4064.02L1296.8 4185.17L1421.62 4137.44L2051.23 3902.49L1605.18 4561.47L1592.33 4581.66L1605.18 4601.85L1955.78 5124.99L1480.36 6593.47L1463.84 6648.54L1507.89 6611.83L1847.48 6321.81L1588.66 7599.38L1878.68 6292.44L1886.03 6259.4L1858.49 6281.42L1531.76 6549.42L2018.19 5130.5L2023.7 5115.82L2014.52 5102.97L1678.6 4581.66L2203.59 3836.4L2284.35 3722.6L2152.19 3768.49L1513.4 3994.27L2093.45 2916.77L2143.01 2823.15H2036.55L1834.63 2821.32L2159.53 2558.83L2243.97 2490.91L2146.68 2437.68L1774.05 2233.93L2306.38 1637.36L3297.6 1690.59L2787.31 2755.24L2723.06 2887.4L2857.06 2832.33L3292.1 2648.77L2987.39 3175.59L2943.33 3252.68L3029.61 3234.33L3350.84 3166.41L2820.35 4544.95L2807.5 4579.82L2842.37 4565.14L3205.82 4414.62L3020.43 5367.29L3233.36 4398.1L3237.03 4377.91L3216.84 4385.25L2866.24 4521.08L3438.94 3131.53L3462.81 3072.79L3398.56 3083.81L3101.19 3140.71Z" fill="#FAC45D" stroke="#38281E" stroke-width="2" stroke-linecap="round" stroke-linejoin="round"/>
</g>
<defs>
<clipPath id="clip0_57_2522">
<rect width="3901" height="8427" fill="white"/>
</clipPath>
</defs>
</svg>
