<svg width="3901" height="8427" viewBox="0 0 3901 8427" fill="none" xmlns="http://www.w3.org/2000/svg">
<path d="M3010.36 3305L2582.66 3442.67L2769.9 2557.91L2784.58 2484.49L2720.33 2524.87L2263.27 2814.9L2353.21 2172.44L2355.05 2146.74L2334.86 2130.22L1578.59 1522.63L1692.4 1298.69L1734.62 1216.09L1642.84 1201.4L1029.75 1102.28L2129.27 335H1877.79L791.119 1083.92L635.093 1190.39L820.488 1217.92L1530.87 1320.72L1022.4 2356L389.122 2947.06L290 3038.84L420.327 3033.33L818.653 3018.65L607.559 3321.52L480.902 3497.74L414.821 3585.85L381.78 3628.07L363.424 3648.26C360.977 3651.93 357.917 3654.99 354.246 3657.44C350.575 3659.27 345.068 3666.61 343.232 3661.11C345.068 3666.61 352.41 3661.11 354.246 3659.27C357.917 3655.6 361.588 3652.54 365.259 3650.09L383.615 3629.9L420.327 3589.52L491.916 3508.75L633.257 3341.71L908.597 3003.96L948.98 2954.4L882.899 2952.57L554.326 2939.72L1071.97 2526.71L1578.59 2521.2L1573.08 3079.22V3077.39L703.01 4564.22L666.298 4624.8H736.051L1433.58 4617.46L814.981 5324.16L809.475 5329.67V5335.17L719.53 6029.03L715.859 6060.24L743.393 6047.39L1156.4 5839.96L736.051 7001.9L1189.44 5819.77L1200.46 5792.24L1172.92 5805.09L758.078 6003.33L853.529 5349.86L1530.87 4606.44L1580.43 4553.21L1507 4551.37L807.639 4545.87L1571.25 3295.82L1562.07 4085.13L1560.23 4140.2L1613.47 4123.68L2422.97 3875.87L1798.86 5494.87L1797.03 5498.54V5504.05L1881.46 6330.07L1646.51 6697.19L1639.17 6710.04L1653.85 6713.71L2210.04 6799.98L1925.52 7473.65L2222.89 6798.15L2226.56 6790.81H2219.22L1672.21 6695.35L1905.33 6341.08L1909 6337.41L1907.16 6331.91L1837.41 5505.89L2511.08 3835.49L2536.77 3773.08L2470.69 3791.44L1644.67 4031.9L1668.54 3136.13V3134.29L1685.06 2469.8L1686.89 2416.57H1631.82L1163.75 2412.9L1139.88 2385.37L1527.19 1623.59L2259.6 2187.12L2177 2886.48L2167.82 2967.25L2235.74 2923.2L2692.8 2620.32L2531.27 3472.04L2523.92 3508.75L2560.64 3497.74L2995.67 3347.22L2876.36 5054.33L3032.39 3323.36L3036.06 3297.66L3010.36 3305Z" fill="#FAC45D" stroke="#38281E" stroke-width="2" stroke-linecap="round" stroke-linejoin="round"/>
</svg>
