<svg width="3901" height="8427" viewBox="0 0 3901 8427" fill="none" xmlns="http://www.w3.org/2000/svg">
<g clip-path="url(#clip0_58_2542)">
<path d="M3374.83 4113.56L2521.68 4255.21L3168.63 3216.41L3211.13 3147.15L3130.85 3164.47L2271.4 3358.06L3099.37 2072.14L3237.89 1854.94L3014.37 1985.58L2704.27 2166.58L2794 1244.25L2808.16 1102.59L2680.66 1167.12L2438.25 1289.89L2850.66 377H2627.14L2189.55 1437.84L2186.4 1447.29L1547.32 2281.48L1545.75 2283.05L941.302 2394.8L805.93 2419.99L892.505 2522.29L1108.15 2780.42L264.447 3066.88L138.52 3109.38L262.872 3150.3L886.209 3354.91L0 3885.34L963.339 3372.23L1013.71 3343.9L958.616 3323.44L417.132 3114.1L1245.1 2878.01L1341.12 2851.25L1278.16 2769.41L1100.28 2533.31L1605.56 2465.63L1758.25 2693.86L1015.28 3564.25L914.542 3682.3L1064.08 3646.1L1778.71 3477.68L668.985 4700.64L1910.94 3439.91L1994.36 3354.91L1876.31 3378.52L1193.16 3517.03L1896.77 2745.8L1931.4 2708.02L1903.07 2662.38L1701.58 2336.57L2380.01 1507.1L2627.14 1374.88L2556.31 2284.63L2546.87 2416.84L2658.63 2349.16L2858.53 2226.39L2172.23 3343.9L2165.94 3342.32L1761.4 4041.16L1725.19 4104.12L1796.03 4099.39L2431.96 4047.45L1611.86 4982.38L1588.25 5009.14L1624.45 5004.42L2172.23 4939.88L1844.82 5815L2191.12 4933.59L2195.84 4922.57H2183.25L1657.51 4974.51L2521.68 4031.71L2568.9 3979.77L2498.07 3982.92L1863.71 4019.12L2203.72 3465.09L3066.31 3251.03L2460.29 4272.53L2436.68 4313.45L2482.33 4304.01L3363.81 4138.74L3310.3 5207.45L3387.43 4126.15L3389 4111.99L3374.83 4113.56Z" fill="#FAC45D" stroke="#38281E" stroke-width="2" stroke-linecap="round" stroke-linejoin="round"/>
</g>
<defs>
<clipPath id="clip0_58_2542">
<rect width="3901" height="8427" fill="white"/>
</clipPath>
</defs>
</svg>
