<svg width="113" height="115" viewBox="0 0 113 115" fill="none" xmlns="http://www.w3.org/2000/svg">
<g clip-path="url(#clip0_63_1013)">
<g style="mix-blend-mode:multiply">
<path d="M96.9351 28.2363C96.8685 28.2363 96.8351 28.2363 96.8351 28.2363C101.235 22.2363 103.935 15.3364 105.035 8.33639C104.435 8.63639 103.835 8.93634 103.335 9.53634L92.3351 21.3364C82.9351 14.2364 71.1351 10.5364 59.4351 10.9364C59.5351 10.9364 59.5352 11.0363 59.5352 11.0363C47.7352 11.0363 36.0352 15.5363 26.5352 24.0363C15.5352 33.7363 9.63516 47.0363 9.03516 60.5363C9.03516 60.603 9.03516 60.6696 9.03516 60.7363C9.03516 61.403 9.03516 62.0696 9.03516 62.7363C9.03516 62.8696 9.03516 63.0363 9.03516 63.2363C9.03516 63.5696 9.03516 63.9364 9.03516 64.3364C9.03516 64.5364 9.03516 64.7364 9.03516 64.9364C9.33516 72.7364 11.2351 80.0363 14.6351 86.5363C14.6351 86.5363 14.6685 86.5696 14.7352 86.6363C15.0018 87.2363 15.3018 87.8031 15.6351 88.3364C15.8351 88.6697 16.0352 89.0031 16.2352 89.3364C16.3018 89.5364 16.4018 89.7364 16.5352 89.9364C18.1352 92.5364 19.9685 95.0364 22.0352 97.4364C30.7352 107.236 42.4352 112.936 54.5352 114.436C68.8352 116.236 83.8352 112.136 95.5352 101.836C117.035 82.7363 119.035 49.9364 100.035 28.4364C99.9352 28.3364 99.9351 28.3364 99.9351 28.3364L110.835 16.4364C112.735 14.4364 112.635 11.1364 110.635 9.33639C109.135 7.93639 106.935 7.63636 105.135 8.43636C104.035 15.4364 101.235 22.2363 96.9351 28.2363Z" fill="#B8B8B8"/>
</g>
<path d="M56.3351 11.6363C63.9351 12.3363 71.3351 15.0364 77.7351 19.8364C77.9351 19.4364 78.1351 19.0363 78.4351 18.7363L83.3351 13.3364C73.9351 6.23636 62.1351 2.53634 50.4351 2.93634C50.5351 2.93634 50.5351 3.03632 50.5351 3.03632C52.7351 6.03632 54.6351 8.63629 56.3351 11.6363Z" fill="#5BA0A4"/>
<path d="M84.9351 26.4364C99.3351 42.9364 99.2352 67.9364 84.0352 84.4364C75.4352 93.6364 63.8351 98.3364 52.1351 98.4364C50.1351 101.236 47.9352 103.903 45.5352 106.436C59.8352 108.236 74.8352 104.136 86.5352 93.8363C108.035 74.7363 110.035 41.9364 91.0352 20.4364C90.9352 20.3364 90.9351 20.3364 90.9351 20.3364L85.9351 25.6363C85.6351 25.9363 85.3351 26.2364 84.9351 26.4364Z" fill="#5BA0A4"/>
<path d="M22.4352 86.8364C4.83517 70.5364 3.7352 42.9364 20.0352 25.3364C27.2352 17.5364 36.6352 12.9363 46.4352 11.7363C49.7352 11.2363 53.0352 11.2363 56.3352 11.5363V11.6363C54.6352 8.63629 52.7352 6.03632 50.5352 3.03632C38.7352 3.03632 27.0352 7.53632 17.5352 16.0363C-3.9648 35.0363 -5.9648 67.9363 13.0352 89.4363C21.7352 99.2363 33.4352 104.936 45.5352 106.436C47.9352 103.903 50.1352 101.236 52.1352 98.4363C51.7352 98.4363 51.3352 98.403 50.9352 98.3363C40.7352 98.1363 30.5352 94.3364 22.4352 86.8364Z" fill="#8AC0A8"/>
<path d="M22.4351 86.8364C30.5351 94.3364 40.7351 98.1363 50.9351 98.3363C52.2684 96.5363 53.5352 94.703 54.7352 92.8363C51.9352 93.0363 49.2018 92.9363 46.5351 92.5363C39.1351 91.4363 32.0351 88.2364 26.1351 82.8364C10.7351 68.5364 9.73515 44.4363 24.0351 29.0363C28.1351 24.5363 33.0351 21.3364 38.3351 19.3364C42.3351 17.7364 46.5351 16.9364 50.8351 16.8364C49.4351 15.0364 47.9684 13.3363 46.4351 11.7363C36.6351 12.9363 27.2351 17.5364 20.0351 25.3364C3.73515 42.9364 4.83511 70.5364 22.4351 86.8364Z" fill="#E9E9E9"/>
<path d="M40.4352 21.1363C60.7352 39.9363 63.1352 70.9363 46.5352 92.5363C49.2019 92.9363 51.9352 93.0363 54.7352 92.8363C64.0352 92.2363 73.1352 88.1362 79.9352 80.7362C94.2352 65.2362 93.3352 41.1363 77.8352 26.9363C70.2352 19.8363 60.4352 16.5363 50.8352 16.8363C46.5352 16.9363 42.3352 17.7363 38.3352 19.3363C39.0685 19.8697 39.7685 20.4696 40.4352 21.1363Z" fill="#593322"/>
<path d="M40.4353 21.1363C39.7686 20.4696 39.0686 19.8697 38.3353 19.3364C33.0353 21.3364 28.1353 24.5363 24.0353 29.0363C9.73531 44.4363 10.7353 68.5364 26.1353 82.8364C32.0353 88.2364 39.1353 91.4363 46.5353 92.5363C63.1353 70.9363 60.7353 39.9363 40.4353 21.1363Z" fill="#84726A"/>
<path d="M96.1351 0.43634C94.7351 9.03634 90.9351 17.4363 84.5351 24.4363C83.6018 25.3697 82.6351 26.2696 81.6351 27.1363C80.6351 27.1363 79.6351 26.6363 78.7351 25.9363C78.7351 25.8697 78.7351 25.8364 78.7351 25.8364C77.0351 24.3364 76.6351 21.7363 77.7351 19.7363C71.3351 15.0363 63.9351 12.3363 56.3351 11.5363C53.0351 11.2363 49.7351 11.2363 46.4351 11.7363C47.9684 13.3363 49.4351 15.0364 50.8351 16.8364C60.4351 16.5364 70.2351 19.8363 77.8351 26.9363C93.3351 41.1363 94.2351 65.2363 79.9351 80.7363C73.1351 88.1363 64.0351 92.2363 54.7351 92.8363C53.5351 94.703 52.2684 96.5363 50.9351 98.3363C51.3351 98.3363 51.7351 98.3363 52.1351 98.3363C63.8351 98.3363 75.4351 93.6363 83.9351 84.4363C99.1351 67.9363 99.2351 42.9363 84.9351 26.4363C85.3351 26.2363 85.6351 25.9363 85.9351 25.6363L90.9351 20.3364L101.835 8.43634C103.735 6.43634 103.635 3.13636 101.635 1.33636C100.135 -0.0636352 97.9351 -0.36366 96.1351 0.43634Z" fill="#9EA1A5"/>
<path d="M77.7354 19.7363C76.6354 21.7363 77.0354 24.3364 78.7354 25.8364C78.7354 25.8364 78.7354 25.8697 78.7354 25.9363C79.6354 26.6363 80.6353 27.0363 81.6353 27.1363C82.6353 26.2696 83.602 25.3697 84.5353 24.4363C90.9353 17.4363 94.7353 9.03636 96.0353 0.336365C95.4353 0.636365 94.8353 0.936316 94.3353 1.53632L83.3353 13.3364L78.4353 18.6363C78.1353 19.0363 77.9354 19.4363 77.7354 19.7363Z" fill="#E9E9E9"/>
</g>
<defs>
<clipPath id="clip0_63_1013">
<rect width="113" height="115" fill="white"/>
</clipPath>
</defs>
</svg>
