<svg width="113" height="136" viewBox="0 0 113 136" fill="none" xmlns="http://www.w3.org/2000/svg">
<g clip-path="url(#clip0_63_1014)">
<path d="M90.0371 16.9332C79.9371 10.1332 67.4371 6.73324 54.4371 8.43324C25.9371 12.1332 5.73713 38.1332 9.43713 66.6332C11.0371 79.2332 17.0371 90.2332 25.6371 98.2332C25.6371 98.2332 25.6038 98.2332 25.5371 98.2332C34.1371 106.133 45.5371 111.133 57.2371 111.933L57.7371 128.033C57.7371 128.733 57.9371 129.433 58.2371 130.033C61.8371 124.333 64.2371 117.833 65.0371 110.833C65.0371 110.833 65.0704 110.833 65.1371 110.833C64.3371 117.833 61.9371 124.333 58.3371 130.033C59.1371 131.833 61.0371 133.033 63.0371 133.033C65.8371 132.933 68.0371 130.633 67.9371 127.833L67.5371 111.633H67.6371C96.1371 108.033 116.237 81.9332 112.637 53.4332C110.637 38.0332 102.037 25.0332 90.0371 16.9332Z" fill="black" fill-opacity="0.16"/>
<path d="M26.7371 87.5332C32.9371 91.9332 40.2371 94.7332 48.2371 95.4332C48.1371 95.8332 48.0371 96.2332 48.0371 96.6332L48.2371 103.933C36.5371 103.133 25.1371 98.1332 16.5371 90.2332C16.6038 90.2332 16.6371 90.2332 16.6371 90.2332C20.1038 89.4999 23.4705 88.5999 26.7371 87.5332Z" fill="#CD9B24"/>
<path d="M58.0371 95.1332C79.7371 92.1332 96.1371 73.2332 95.5371 50.8332C95.1371 38.2332 89.5371 27.1332 80.7371 19.4332C81.0705 15.9666 81.1704 12.4666 81.0371 8.93324C93.0371 17.0332 101.637 30.0332 103.637 45.4332C107.237 73.9332 87.1371 100.033 58.6371 103.633H58.5371L58.3371 96.4332C58.3371 95.9332 58.1371 95.5332 58.0371 95.1332Z" fill="#CD9B24"/>
<path d="M50.8371 8.53323C26.7371 9.23323 7.83713 29.2332 8.43713 53.2332C8.73713 63.8332 12.8371 73.5332 19.4371 80.8332C21.5371 83.3332 24.0371 85.5332 26.7371 87.5332C23.4704 88.5999 20.1038 89.4999 16.6371 90.2332C8.03711 82.2332 2.03713 71.2332 0.437127 58.6332C-3.26287 30.1332 16.9371 4.13323 45.4371 0.433228C58.4371 -1.26677 70.9371 2.13324 81.0371 8.93324C81.1704 12.4666 81.0704 15.9666 80.7371 19.4332C80.4038 19.0999 80.1038 18.7999 79.8371 18.5332C71.9371 12.0332 61.8371 8.23323 50.8371 8.53323Z" fill="#F0C735"/>
<path d="M50.8372 8.53325C61.8372 8.23325 71.9372 12.0332 79.8372 18.5332C79.6372 20.7999 79.3705 23.0333 79.0372 25.2333C77.1039 23.2999 74.9706 21.5666 72.6372 20.0332C66.4372 16.0332 58.9372 13.7333 50.9372 13.9333C29.9372 14.5333 13.3372 32.0333 13.9372 53.1333C14.0372 59.1333 15.6372 64.8333 18.3372 69.8333C20.3372 73.6333 22.9372 77.0333 26.0372 79.9333C23.8372 80.3333 21.6372 80.6333 19.4372 80.8333C12.8372 73.5333 8.73724 63.8333 8.43724 53.2333C7.83724 29.2333 26.7372 9.23325 50.8372 8.53325Z" fill="white"/>
<path d="M21.0371 69.8332C48.7371 69.0332 70.9371 47.2332 72.6371 20.0332C74.9705 21.5666 77.1038 23.2999 79.0371 25.2332C85.6371 31.8332 89.7371 40.9332 90.0371 51.0332C90.6371 72.0332 74.0371 89.5332 53.0371 90.1332C42.6371 90.4332 33.0371 86.4332 26.0371 79.9332C22.9371 77.0332 20.3372 73.6332 18.3372 69.8332C19.2038 69.8332 20.1038 69.8332 21.0371 69.8332Z" fill="#593322"/>
<path d="M21.0371 69.8333C20.1038 69.8333 19.2038 69.8333 18.3371 69.8333C15.6371 64.8333 14.0372 59.1333 13.9372 53.1333C13.3372 32.0333 29.9372 14.5333 50.9372 13.9333C58.9372 13.7333 66.4371 16.0332 72.6371 20.0332C70.9371 47.2332 48.7371 69.0333 21.0371 69.8333Z" fill="#84726A"/>
<path d="M49.337 122.033C54.037 114.633 56.637 105.833 56.337 96.3332C56.337 94.9999 56.2703 93.6999 56.137 92.4332C55.237 91.8332 54.237 91.2332 53.037 91.3332V91.1332C50.737 91.1332 48.737 93.0332 48.237 95.2332C40.337 94.5332 32.937 91.8332 26.737 87.4332C24.037 85.5332 21.537 83.3332 19.437 80.8332C21.637 80.6332 23.837 80.2999 26.037 79.8332C33.037 86.4332 42.637 90.4332 53.037 90.1332C74.037 89.5332 90.637 72.0332 90.037 51.0332C89.737 40.9332 85.637 31.8332 79.037 25.2332C79.3703 23.0332 79.637 20.7999 79.837 18.5332C80.1037 18.7999 80.4037 19.0999 80.737 19.4332C89.537 27.1332 95.137 38.2332 95.537 50.8332C96.137 73.2332 79.737 92.1332 58.037 95.1332C58.137 95.5332 58.337 95.9332 58.337 96.4332L58.537 103.633L58.937 119.833C59.037 122.633 56.837 124.933 54.037 125.033C52.037 125.033 50.137 123.833 49.337 122.033Z" fill="#BFBDBE"/>
<path d="M48.2371 95.4332V95.2332C48.7371 93.0332 50.7371 91.1332 53.0371 91.1332C54.1371 91.1332 55.2371 91.6332 56.0371 92.2332C56.2371 93.5332 56.3371 94.9332 56.3371 96.3332C56.6371 105.733 53.9371 114.633 49.2371 122.033C48.9371 121.433 48.7371 120.733 48.7371 120.033L48.2371 103.933L48.0371 96.6332C48.0371 96.2332 48.1371 95.8332 48.2371 95.4332Z" fill="white"/>
</g>
<defs>
<clipPath id="clip0_63_1014">
<rect width="113" height="136" fill="white"/>
</clipPath>
</defs>
</svg>
