<svg width="197" height="325" viewBox="0 0 197 325" fill="none" xmlns="http://www.w3.org/2000/svg">
<g clip-path="url(#clip0_63_1038)">
<path fill-rule="evenodd" clip-rule="evenodd" d="M128.643 314.339L35.1435 285.319C46.9117 244.367 63.6034 204.419 65.1217 202.901C66.7651 201.317 68.1102 153.465 76.9078 112.638L79.9015 112.101C77.1571 109.923 74.3414 107.862 71.4543 105.919C71.3467 105.816 71.2929 105.764 71.2929 105.764C68.4344 102.155 63.5835 95.5186 59.9841 88.2238C60.5145 84.8284 58.2751 80.5733 58.2751 80.5733C54.9362 62.9935 52.499 67.4723 58.0422 49.6128C59.9692 34.2956 53.2707 31.5883 61.2999 28.3215C63.2134 27.5543 64.9852 27.5806 66.6088 28.0846C66.6088 28.0846 66.6406 28.0945 66.7043 28.1142C66.7679 28.134 66.8634 28.1636 66.9908 28.2031C67.8207 28.5654 67.8866 28.6906 68.1434 28.875C67.6955 28.6313 67.3432 28.4172 66.8656 28.269C66.9293 28.2888 66.993 28.3085 67.0566 28.3283C67.3432 28.4172 67.8865 28.6906 67.8569 28.7861C71.2918 31.2134 73.0602 35.6364 73.7747 38.057C75.4248 33.7526 78.2013 25.8191 80.9975 21.8705C81.1402 21.6356 81.3049 21.4424 81.4915 21.2909C81.5113 21.2272 81.5211 21.1954 81.5211 21.1954C81.5211 21.1954 81.7418 21.1591 81.7714 21.0636C82.575 20.1613 83.4511 19.7003 84.607 19.012C84.798 19.0713 84.9891 19.1306 85.1801 19.1898C85.2635 19.1459 85.3371 19.1339 85.4007 19.1536C86.8729 18.4588 88.0782 18.6235 89.2177 18.663C90.5482 18.7619 91.8491 18.9562 92.9951 19.3119C95.2576 20.1188 96.9602 21.3803 97.8856 21.7722C98.4191 22.0774 98.9944 22.3606 99.6113 22.6219C100.919 23.1324 102.865 23.9459 106.824 25.6981C109.311 26.6796 111.821 27.7028 114.352 28.7677C114.352 28.7677 114.384 28.7776 114.448 28.7973C148.293 42.5479 145.292 42.7685 149.876 56.3371C150.208 57.0683 150.508 57.7895 150.775 58.5009C151.477 60.2892 152.083 62.0478 152.293 63.0556C152.422 64.666 152.853 65.6376 152.531 65.328C152.761 67.2842 152.132 68.9737 151.144 76.2058C150.102 96.0909 150.596 107.657 151.278 114.57C178.915 123.357 182.751 142.034 182.751 142.034C182.751 142.034 159.883 215.036 147.829 240.717C144.384 248.443 133.123 295.521 128.643 314.339ZM66.9908 28.2031L67.0863 28.2328C67.0226 28.213 66.9908 28.2031 66.9908 28.2031Z" fill="black" fill-opacity="0.18"/>
<path d="M70.6838 102.329C61.8861 143.156 60.541 191.008 58.8976 192.593C57.2542 194.177 38.5501 239.258 26.8345 282.74C28.9356 283.392 120.621 311.849 120.621 311.849C120.621 311.849 137.251 240.052 141.605 230.409C153.659 204.728 176.527 131.725 176.527 131.725C176.527 131.725 172.233 110.813 139.962 102.786C107.661 94.8546 92.2354 98.3385 92.2354 98.3385L70.6838 102.329Z" fill="#3B5374"/>
<path d="M61.5372 18.4481C64.781 20.8161 66.7404 25.2984 67.5802 27.6532C69.2895 23.1578 72.3032 14.4603 75.2673 10.9826C76.2583 20.609 81.7612 28.1805 81.7612 28.1805C81.7612 28.1805 85.4426 47.0184 85.6533 48.0262C85.7982 48.9088 86.9672 54.9258 86.5091 64.8354C85.9259 74.8108 89.9832 78.2689 83.8478 76.7835C77.8078 75.3276 74.587 75.5844 71.9096 73.0781C69.1367 70.5422 63.5613 62.5294 63.5613 62.5294C63.5613 62.5294 61.1937 50.591 60.8381 48.7006C60.4825 46.8102 61.0689 38.5111 61.0689 38.5111C61.0689 38.5111 61.4379 34.9609 61.8628 32.5798C62.2877 30.1988 61.5372 18.4481 61.5372 18.4481Z" fill="#E2BD97"/>
<path d="M79.1765 8.84532C79.4949 8.94413 79.8451 9.05282 80.2271 9.17139C80.1634 9.15163 80.1316 9.14175 80.1316 9.14175C79.6025 9.04733 79.0635 8.98476 78.5146 8.954C78.4509 8.93424 78.3872 8.91448 78.3236 8.89472C78.6617 8.92985 78.98 9.02866 79.2786 9.19114C84.0243 10.7688 87.6631 19.9606 91.6412 28.7341C99.0577 29.4654 106.649 30.9839 113.878 33.3322C125.786 37.133 136.697 43.1371 143.968 52.0951C145.397 53.8999 146.049 54.8353 146.306 55.0197C146.629 55.3293 146.198 54.3577 146.069 52.7473C145.859 51.7395 145.253 49.9809 144.551 48.1926C144.264 47.5449 143.986 46.8653 143.718 46.154C143.654 46.1342 143.632 46.0925 143.652 46.0288C139.068 32.4602 142.068 32.2396 108.223 18.489C108.16 18.4693 108.128 18.4594 108.128 18.4594C105.065 17.1947 102.546 16.2033 100.599 15.3898C96.6409 13.6376 94.6946 12.8241 93.3871 12.3136C92.6527 11.981 92.1093 11.7076 91.6615 11.4639C90.736 11.072 89.0334 9.81055 86.7709 9.00362C85.6249 8.6479 84.324 8.45356 82.9935 8.35472C81.854 8.31517 80.5532 8.12083 79.1765 8.84532Z" fill="#E2BD97"/>
<path d="M75.3563 10.6961C74.5559 13.2747 73.4559 15.1321 72.7906 16.6009C72.7116 16.8556 72.6424 17.0784 72.5831 17.2695C72.4602 17.4407 72.3591 17.6537 72.2801 17.9084C72.3042 18.0555 72.2966 18.1927 72.257 18.32C71.6049 20.4211 71.0845 22.7726 70.5937 25.0285C70.0502 27.7916 69.566 30.3636 69.4376 31.7896C69.319 32.1717 69.2663 32.6788 69.2432 33.0905C69.1334 33.8941 69.1049 34.5483 69.1575 35.0533C69.1619 35.2641 69.1762 35.443 69.2003 35.5901C69.264 35.6099 69.2958 35.6198 69.2958 35.6198C69.32 35.7669 69.376 35.9239 69.4638 36.0907C69.5077 36.1742 69.5615 36.2257 69.6252 36.2455C69.7086 36.2016 69.814 36.1994 69.9413 36.2389L69.882 36.4299C71.1928 35.5803 72.3488 34.892 73.2841 34.24C73.4389 34.0786 73.3434 34.049 73.4389 34.0786C75.0592 32.9062 76.4359 32.1817 76.8541 32.521C76.9496 32.5506 77.0451 32.5803 77.0451 32.5803C77.3316 32.6692 77.6544 32.9788 78.043 33.4135L77.852 33.3542C77.9475 33.3839 77.8223 33.4497 77.8882 33.5749C79.0474 34.5629 79.2153 38.0703 78.5071 42.0387C78.3644 42.2737 78.2853 42.5283 78.2699 42.8028C77.8319 44.5515 77.6079 45.9479 77.3839 47.3442C77.3444 47.4716 77.3367 47.6088 77.3608 47.7559C77.3608 47.7559 77.351 47.7877 77.3312 47.8514C77.3114 47.9151 77.3015 47.9469 77.3015 47.9469C76.9622 51.4016 77.3145 54.6521 78.0718 60.646C78.1201 60.9402 78.1585 61.2663 78.1871 61.6241C78.231 61.7076 78.2529 61.7493 78.2529 61.7493C78.2968 61.8327 78.3089 61.9062 78.2891 61.9699C78.3133 62.117 78.3374 62.2641 78.3616 62.4112C78.5789 63.7352 78.8555 64.8681 79.1387 66.3171C79.4153 67.4501 79.3823 68.9057 79.5503 69.3767L79.5206 69.4721C79.5206 69.4721 79.5865 69.5973 79.5569 69.6928C79.4932 69.673 79.4515 69.695 79.4317 69.7587L79.5272 69.7883L79.4976 69.8838L79.3724 69.9497C79.3724 69.9497 79.211 69.7949 79.3065 69.8245L79.1452 69.6697C77.5908 67.9308 77.7193 66.5048 76.8334 64.9734C76.0431 63.4716 75.2231 62.0653 74.4689 60.7842C73.0627 58.5678 71.8245 56.8223 70.9584 56.2393C70.1877 55.686 69.6608 54.6848 69.2525 53.3016C67.4742 49.9226 65.0703 43.8365 65.9827 37.5232C66.0771 36.9941 66.1715 36.465 66.266 35.9358C66.174 28.4732 65.0183 20.0521 60.8325 18.02C60.7052 17.9805 60.5877 17.9091 60.4801 17.8059C60.4165 17.7862 60.3846 17.7763 60.3846 17.7763C58.761 17.2724 56.9892 17.2459 55.0758 18.0132C47.0466 21.28 53.7451 23.9873 51.8181 39.3045C46.2749 57.164 48.7121 52.6852 52.051 70.2651C52.051 70.2651 54.2903 74.5201 53.76 77.9155C57.3594 85.2103 62.2103 91.8465 65.0688 95.4561C65.0688 95.4561 65.1226 95.5077 65.2301 95.6109C73.6345 101.256 81.3967 107.958 88.7241 115.049C94.5424 114.97 100.314 114.702 106.04 114.246C106.104 114.265 106.136 114.275 106.136 114.275C122.701 116.904 134.837 114.912 138.427 114.141C143.986 113.773 140.413 113.815 146.532 112.992C145.593 108.931 143.295 98.7945 144.92 65.8975C145.908 58.6654 146.537 56.9759 146.306 55.0197C146.049 54.8353 145.397 53.8999 143.968 52.0951C136.697 43.1371 125.816 37.0375 113.907 33.2367C106.649 30.9838 99.0578 29.4654 91.6412 28.7341C87.7224 19.7695 84.0539 10.6733 79.338 9.00012C79.0196 8.90131 78.7013 8.8025 78.3829 8.70369C77.2269 9.39196 76.2554 9.82335 75.4518 10.7257L75.3563 10.6961Z" fill="#F6DFC8"/>
<path d="M75.189 102.995C86.1127 112.668 112.225 119.621 146.868 113.934C146.743 110.963 145.547 106.718 145.547 106.718C145.547 106.718 161.243 110.124 169.98 127.18C140.383 129.093 110.246 129.372 91.744 121.85C73.2423 114.327 65.0554 103.933 75.189 102.995Z" fill="#47474A"/>
</g>
<defs>
<clipPath id="clip0_63_1038">
<rect width="197" height="325" fill="white"/>
</clipPath>
</defs>
</svg>
