<svg width="257" height="172" viewBox="0 0 257 172" fill="none" xmlns="http://www.w3.org/2000/svg">
<g clip-path="url(#clip0_63_1026)">
<path d="M147.121 63.8L139.921 66.4L140.221 67.1C134.321 69 128.021 70.5 117.021 73.8C108.721 75.8 96.7206 76 84.0206 78C76.3206 79.2 74.1206 79 73.1206 79.7C73.1206 79.4 72.6206 79.8 71.6206 80.3H71.5206C71.4206 80.4 71.2206 80.4 71.0206 80.5C70.4206 80.7 69.5206 81.3 68.5206 82C68.254 82.2667 67.9206 82.5334 67.5206 82.8C66.9873 83.1334 66.4873 83.5667 66.0206 84.1C57.2206 90.1 55.4206 89 52.9206 109.5C52.5206 112.4 52.3206 115.8 51.9206 119.6C51.9206 119.7 52.1206 119.7 52.1206 119.7C51.1206 122.1 51.1206 124.4 51.1206 126.6C51.1206 126.9 51.0206 127.1 50.9206 127.3C50.8206 128.8 50.6206 129.9 50.5206 130.8C50.2206 132.7 49.8206 134.6 49.5206 136.5C49.5206 136.7 49.4873 136.867 49.4206 137C49.4206 137.067 49.4206 137.133 49.4206 137.2C49.3539 137.333 49.3206 137.5 49.3206 137.7C49.254 137.767 49.2206 137.833 49.2206 137.9C49.2206 138.1 49.1873 138.267 49.1206 138.4C49.1206 138.5 49.1206 138.6 49.1206 138.7C49.1206 138.967 49.1206 139.233 49.1206 139.5C49.1206 147.5 51.8206 149.1 57.8206 149.5C58.6873 149.633 59.6539 149.733 60.7206 149.8H63.1206C63.7206 149.867 64.3206 149.933 64.9206 150C66.3206 150.1 67.5206 150.3 69.0206 150.3C68.954 150.367 68.8539 150.4 68.7206 150.4C68.5872 150.467 68.4206 150.533 68.2206 150.6C66.5206 151.5 64.3206 153.2 63.1206 155.9C62.9206 156.3 62.8206 156.7 62.7206 157C62.6539 157.133 62.6206 157.267 62.6206 157.4C62.5206 157.8 62.4206 158.3 62.4206 159.1C62.4206 159.233 62.454 159.4 62.5206 159.6C62.5206 160.467 62.7206 161.333 63.1206 162.2C63.3206 162.6 63.5873 163 63.9206 163.4C68.4206 169.2 69.3206 163.1 82.3206 161.1C89.3206 161.2 92.1206 161 95.1206 160.3V160.2H94.7206C96.4206 160.2 97.7206 159 99.8206 157.8C115.121 150.2 112.821 151.5 116.621 147.3C120.321 143.4 123.321 139.5 125.121 136.9C125.221 136.9 135.021 124.7 143.821 116.1C147.921 113.8 151.821 111.7 155.521 109.7L155.721 110.2L162.821 107.6L162.321 106.2C177.621 98.5 190.421 93.7 204.321 89.9C211.221 88 218.821 87 226.321 86.5C238.221 85 249.121 82.1 257.121 79.9V19.7C233.121 29.6 167.321 56.6 147.321 64.5L147.121 63.8Z" fill="black" fill-opacity="0.08"/>
<path d="M137.22 57.2H137.42C129.22 60.2 122.82 61.5 108.02 66C99.7205 67.9 87.6204 68.1 74.9204 70.1C67.1204 71.2 65.5205 71.1 63.8205 71.7C63.9205 71.4 63.2205 72 62.0205 72.5C61.2205 72.8 59.9205 73.8 58.5205 74.8C57.9871 75.1334 57.4871 75.5667 57.0205 76.1C46.9205 83 46.0205 80.6 42.8205 111.6C42.8205 111.667 42.8205 111.7 42.8205 111.7C42.4871 114.033 42.1871 116.333 41.9204 118.6C41.7204 120.4 41.6204 121.8 41.4204 122.8C41.1204 124.7 40.8205 126.6 40.5205 128.5C40.3205 129.3 40.1205 130.3 40.0205 131.5C39.7205 139.5 42.7204 141.1 48.7204 141.5C49.5871 141.633 50.5871 141.733 51.7204 141.8H54.1205C56.1205 142 58.1204 142.3 60.2204 142.3C59.9204 142.4 59.6204 142.4 59.2204 142.6C57.5204 143.5 55.3205 145.2 54.1205 147.9C53.9205 148.3 53.8204 148.7 53.7204 149C53.6538 149.133 53.6205 149.267 53.6205 149.4C53.5205 149.9 53.4205 150.5 53.5205 151.6C53.5205 152.467 53.7205 153.333 54.1205 154.2C54.3205 154.6 54.5871 155 54.9204 155.4C59.4204 161.2 60.3205 155.1 73.3205 153.1C80.3205 153.2 83.1205 153 86.1205 152.3V152.2H85.7204C87.4204 152.2 88.7205 151 90.8205 149.8C106.12 142.2 103.82 143.5 107.62 139.3C111.32 135.4 114.32 131.5 116.12 128.9C116.22 128.9 126.02 116.7 134.82 108.1C159.22 94.3 176.12 87.1 195.32 81.9C202.22 80 209.82 79 217.32 78.5C238.02 75.8 257.12 69 257.12 69.2V39.2V8C257.12 8 160.12 48.2 137.22 57.2Z" fill="#F6DFC8"/>
<path d="M55.0205 122.9C52.1205 106 52.9205 87.3 61.9205 74.3C63.0205 72.7 63.6205 72 63.8205 71.7C63.9205 71.3 63.3205 71.9 62.0205 72.5C61.2205 72.8 59.9205 73.8 58.5205 74.8C58.0538 75.2 57.5872 75.6 57.1205 76C57.0538 76 57.0205 76.0333 57.0205 76.1C46.9205 83 46.0205 80.6 42.8205 111.6C42.8205 111.667 42.8205 111.7 42.8205 111.7C42.4205 114.6 42.2205 116.8 41.9205 118.6C41.5205 122.3 41.3205 124.1 41.1205 125.3C41.0205 126 41.0205 126.4 40.9205 126.9C40.7205 127.8 40.2205 129.4 40.0205 131.5C40.0205 132.5 40.1205 133.6 40.3205 134.7C40.6205 135.7 40.7205 136.8 41.7205 137.8C41.7205 137.467 41.7205 137.133 41.7205 136.8C41.7205 136.867 41.7205 136.9 41.7205 136.9C41.7871 137.367 41.8538 137.833 41.9205 138.3C41.9205 138.367 41.9205 138.4 41.9205 138.4C41.2205 134 48.3205 128.5 55.0205 122.9Z" fill="#E2BD97"/>
<path fill-rule="evenodd" clip-rule="evenodd" d="M91.1205 123.1H91.4205C91.4205 123.1 91.6205 123.1 91.6205 123.2C91.6872 123.2 91.7205 123.2 91.7205 123.2C90.5205 124.2 89.4205 125.3 88.3205 126.3C87.3205 127.4 86.3205 128.4 85.4205 129.3C83.9205 131 82.8205 132.4 82.6205 133.2C82.5538 133.4 82.4538 133.567 82.3205 133.7C82.3205 133.767 82.2871 133.867 82.2205 134C81.6205 134.8 80.5205 135.7 79.2205 136.6C76.6205 138.7 72.8205 141.2 68.3205 141.8C67.8538 141.867 67.3871 141.933 66.9205 142C60.9205 143.8 54.2205 146.7 53.5205 150.7C53.5872 150.3 53.6538 149.9 53.7205 149.5C54.8205 145.1 58.6205 143 60.0205 142.3C57.6205 142.2 55.6205 141.9 53.1205 141.7C52.9205 141.7 52.6205 141.5 52.3205 141.5C51.8538 141.433 51.2872 141.367 50.6205 141.3C50.4872 141.233 50.3538 141.2 50.2205 141.2C50.4871 141.2 50.7538 141.2 51.0205 141.2C52.9205 141.2 55.0205 141.1 56.9205 140.9C59.3205 140.8 61.4205 140.5 62.6205 140.4C63.0205 140.3 63.4205 140.3 63.7205 140.2C65.2205 139.9 66.1205 139.5 66.1205 138.9C65.1205 138 64.5205 137.2 63.7205 136.6C63.6205 136.5 63.7205 136.4 63.7205 136.4C62.5205 135.4 61.7205 134.7 61.6205 134.1C61.6205 134 61.8205 133.2 62.1205 133.2C62.1872 133.2 62.2205 133.167 62.2205 133.1C62.8205 131.9 65.6205 130.8 69.1205 130.6C70.9205 130.5 72.3205 130.4 73.7205 130.2C73.8538 130.133 73.9538 130.1 74.0205 130.1C74.0872 130.1 74.1205 130.1 74.1205 130.1C77.2205 129.6 79.9205 128.6 85.2205 126.1C85.3205 126 85.4205 126 85.5205 125.9C85.6205 125.9 85.6205 125.8 85.8205 125.8C86.8205 125.3 87.7205 124.8 88.9205 124.3C89.7205 123.8 90.1205 123.4 91.1205 123.1ZM62.2205 133.2C62.2205 133.2 62.2205 133.167 62.2205 133.1C62.2205 133.167 62.1872 133.2 62.1205 133.2H62.2205Z" fill="#E2BD97"/>
<path d="M142.52 65L141.82 65.3L143.02 68.6L135.32 71.3L134.42 68.8L142.82 65.8L142.52 65L142.22 64.3L133.12 67.6C132.92 67.6667 132.787 67.8 132.72 68C132.654 68.2 132.654 68.4 132.72 68.6L134.12 72.6C134.187 72.8 134.32 72.9333 134.52 73C134.72 73.0667 134.92 73.0667 135.12 73L144.22 69.7C144.42 69.6333 144.554 69.5333 144.62 69.4C144.687 69.2 144.687 69 144.62 68.8L143.22 64.8C143.154 64.6 143.02 64.4667 142.82 64.4C142.62 64.2667 142.42 64.2333 142.22 64.3L142.52 65Z" fill="#F0C735"/>
<path d="M150.32 86.7L149.62 86.9L150.72 90.2L143.12 93L142.12 90.4L150.52 87.4L150.32 86.7L150.02 86L140.92 89.3C140.72 89.3667 140.587 89.4667 140.52 89.6C140.454 89.8 140.454 90 140.52 90.2L141.92 94.2C141.987 94.4 142.12 94.5333 142.32 94.6C142.52 94.7333 142.72 94.7667 142.92 94.7L152.02 91.4C152.22 91.3334 152.354 91.2 152.42 91C152.487 90.8 152.487 90.6 152.42 90.4L151.02 86.4C150.954 86.2 150.82 86.0667 150.62 86C150.42 85.9333 150.22 85.9333 150.02 86L150.32 86.7Z" fill="#F0C735"/>
<path d="M138.12 55.8L141.92 66.4L134.72 69L130.92 58.4L138.12 55.8Z" fill="#3B5374"/>
<path d="M150.52 90.3L153.82 99.6L146.72 102.2L143.42 92.9L150.52 90.3Z" fill="#3B5374"/>
<path d="M138.321 68.1C144.621 65.8 151.52 69.1 153.72 75.3C156.02 81.6 152.721 88.5 146.521 90.7C140.221 93 133.321 89.7 131.121 83.5C128.821 77.2 132.121 70.3 138.321 68.1Z" fill="#F0C735"/>
<path d="M139.02 69.9C144.22 68 150.02 70.7 151.92 76C153.82 81.2 151.12 87 145.82 88.9C140.62 90.8 134.82 88 132.92 82.8C131.02 77.6 133.82 71.8 139.02 69.9Z" fill="#8CC3D1"/>
<path d="M135.82 81.8C135.92 81.9 135.82 82.1 135.62 82.2L133.92 82.8C133.82 82.8 133.621 82.7 133.521 82.6C133.521 82.4 133.62 82.3 133.72 82.2L135.42 81.6C135.62 81.5 135.72 81.6 135.82 81.8Z" fill="#2F2B70"/>
<path d="M150.921 76.3C151.021 76.5 150.921 76.7 150.721 76.7L149.021 77.3C148.921 77.4 148.721 77.3 148.621 77.2C148.621 77 148.621 76.8 148.821 76.8L150.521 76.2C150.721 76.1 150.821 76.2 150.921 76.3Z" fill="#2F2B70"/>
<path d="M139.721 71L140.321 72.8C140.321 72.9 140.321 73.1 140.121 73.1C139.921 73.2 139.821 73.1 139.721 73L139.121 71.3C139.021 71.1 139.121 70.9 139.321 70.9C139.421 70.8 139.621 70.9 139.721 71Z" fill="#2F2B70"/>
<path d="M145.12 86.1L145.72 87.9C145.82 88 145.721 88.2 145.521 88.2C145.421 88.3 145.22 88.2 145.12 88.1L144.521 86.3C144.521 86.2 144.62 86 144.72 86C144.92 85.9 145.02 86 145.12 86.1Z" fill="#2F2B70"/>
<path d="M136.821 74.7C136.887 74.7667 136.887 74.8 136.821 74.8C136.821 74.9 136.721 74.9 136.621 74.8L135.821 74.1C135.721 74.1 135.721 74 135.821 73.9C135.821 73.9 135.921 73.9 136.021 73.9L136.821 74.6C136.821 74.6 136.821 74.6334 136.821 74.7Z" fill="#2F2B70"/>
<path d="M149.12 85C149.12 85.0667 149.12 85.1333 149.12 85.2C149.02 85.2 148.921 85.3 148.821 85.2L148.021 84.5C148.021 84.4 147.921 84.3 148.021 84.3C148.121 84.2 148.12 84.2 148.22 84.3L149.021 85C149.087 85 149.12 85 149.12 85Z" fill="#2F2B70"/>
<path d="M135.221 78.2C135.221 78.2 135.221 78.2334 135.221 78.3C135.221 78.3 135.121 78.4 135.021 78.4L134.021 78.2C133.921 78.2 133.821 78.1 133.821 78C133.821 77.9 133.921 77.9 134.021 77.9L135.121 78.1C135.187 78.1 135.221 78.1333 135.221 78.2Z" fill="#2F2B70"/>
<path d="M151.021 81C151.021 81.0667 151.021 81.1 151.021 81.1C151.021 81.2 150.921 81.2 150.821 81.2L149.721 81L149.621 80.9C149.621 80.8 149.721 80.7 149.821 80.7L150.921 80.9C150.921 80.9 150.954 80.9333 151.021 81Z" fill="#2F2B70"/>
<path d="M137.721 85.3C137.721 85.3667 137.687 85.4 137.621 85.4L137.021 86.1C137.021 86.2 136.921 86.2 136.821 86.1C136.821 86.1 136.821 86 136.821 85.9L137.421 85.2C137.521 85.2 137.621 85.2 137.621 85.2C137.621 85.2 137.654 85.2334 137.721 85.3Z" fill="#2F2B70"/>
<path d="M148.021 73C148.021 73.0667 148.021 73.1333 148.021 73.2L147.421 73.9C147.421 73.9 147.321 73.9 147.221 73.9C147.121 73.8 147.121 73.7 147.221 73.7L147.821 73C147.821 72.9 147.921 72.9 148.021 73Z" fill="#2F2B70"/>
<path d="M141.22 86.9C141.22 86.9667 141.22 87 141.22 87L141.12 87.9C141.02 88 141.02 88.1 140.92 88C140.82 88 140.72 87.9 140.82 87.9L140.92 87C140.92 86.9 141.02 86.8 141.12 86.8C141.187 86.8667 141.22 86.9 141.22 86.9Z" fill="#2F2B70"/>
<path d="M144.121 71.2L143.921 72.1C143.921 72.2 143.821 72.3 143.721 72.3C143.621 72.2 143.621 72.2 143.621 72.1L143.821 71.2C143.821 71.1 143.921 71 143.921 71.1C143.987 71.1 144.054 71.1333 144.121 71.2Z" fill="#2F2B70"/>
<path d="M137.771 82.45L143.171 80.45L146.371 74.55L144.571 73.65L141.871 78.85L137.071 80.55L137.771 82.45Z" fill="white"/>
</g>
<defs>
<clipPath id="clip0_63_1026">
<rect width="257" height="172" fill="white"/>
</clipPath>
</defs>
</svg>
